G04 #@! TF.GenerationSoftware,KiCad,Pcbnew,(5.1.10-1-10_14)*
G04 #@! TF.CreationDate,2021-11-03T01:45:13-04:00*
G04 #@! TF.ProjectId,MVX_Audio_Separator,4d56585f-4175-4646-996f-5f5365706172,1*
G04 #@! TF.SameCoordinates,Original*
G04 #@! TF.FileFunction,Copper,L1,Top*
G04 #@! TF.FilePolarity,Positive*
%FSLAX46Y46*%
G04 Gerber Fmt 4.6, Leading zero omitted, Abs format (unit mm)*
G04 Created by KiCad (PCBNEW (5.1.10-1-10_14)) date 2021-11-03 01:45:13*
%MOMM*%
%LPD*%
G01*
G04 APERTURE LIST*
G04 #@! TA.AperFunction,ComponentPad*
%ADD10O,1.508000X3.016000*%
G04 #@! TD*
G04 #@! TA.AperFunction,ComponentPad*
%ADD11C,1.700000*%
G04 #@! TD*
G04 #@! TA.AperFunction,ComponentPad*
%ADD12C,4.066000*%
G04 #@! TD*
G04 #@! TA.AperFunction,ComponentPad*
%ADD13R,1.700000X1.700000*%
G04 #@! TD*
G04 #@! TA.AperFunction,ViaPad*
%ADD14C,0.700000*%
G04 #@! TD*
G04 #@! TA.AperFunction,Conductor*
%ADD15C,0.250000*%
G04 #@! TD*
G04 #@! TA.AperFunction,Conductor*
%ADD16C,0.160000*%
G04 #@! TD*
G04 #@! TA.AperFunction,Conductor*
%ADD17C,0.152400*%
G04 #@! TD*
G04 #@! TA.AperFunction,Conductor*
%ADD18C,0.025400*%
G04 #@! TD*
G04 APERTURE END LIST*
D10*
X138310000Y-101160000D03*
X135910000Y-103160000D03*
X132210000Y-101160000D03*
X130410000Y-103160000D03*
X126710000Y-101160000D03*
D11*
X134845000Y-111610000D03*
X132555000Y-111610000D03*
X130265000Y-111610000D03*
X127975000Y-111610000D03*
X125685000Y-111610000D03*
X133700000Y-109630000D03*
X131410000Y-109630000D03*
X129120000Y-109630000D03*
X126830000Y-109630000D03*
X124540000Y-109630000D03*
X134845000Y-107650000D03*
X132555000Y-107650000D03*
X130265000Y-107650000D03*
X127975000Y-107650000D03*
D12*
X142760000Y-109630000D03*
X117770000Y-109630000D03*
D13*
X125685000Y-107650000D03*
D11*
X134595000Y-90940000D03*
X132305000Y-90940000D03*
X130015000Y-90940000D03*
X127725000Y-90940000D03*
X125435000Y-90940000D03*
X135740000Y-92920000D03*
X133450000Y-92920000D03*
X131160000Y-92920000D03*
X128870000Y-92920000D03*
X126580000Y-92920000D03*
D13*
X134595000Y-94900000D03*
D11*
X132305000Y-94900000D03*
X130015000Y-94900000D03*
X127725000Y-94900000D03*
D12*
X142760000Y-92920000D03*
X117770000Y-92920000D03*
D11*
X125435000Y-94900000D03*
D14*
X142790000Y-97200000D03*
X137030000Y-95130000D03*
X120720000Y-96280000D03*
X123620000Y-92810000D03*
X137220000Y-111460000D03*
X142820000Y-105320000D03*
X133070000Y-96920000D03*
X120720000Y-106090000D03*
X123690000Y-97820000D03*
X131410000Y-112980000D03*
X142800000Y-113120000D03*
X117730000Y-113120000D03*
X142800000Y-89410000D03*
X117800000Y-89410000D03*
X127190000Y-103610000D03*
X125460000Y-105240000D03*
X128060000Y-96880000D03*
X122110000Y-101470000D03*
D15*
X135910000Y-103910000D02*
X135910000Y-103160000D01*
X138300000Y-106300000D02*
X135910000Y-103910000D01*
X130230000Y-113870000D02*
X136310000Y-113870000D01*
X136310000Y-113870000D02*
X138300000Y-111880000D01*
X127975000Y-111615000D02*
X130230000Y-113870000D01*
X138300000Y-111880000D02*
X138300000Y-106300000D01*
X127975000Y-111610000D02*
X127975000Y-111615000D01*
X125660000Y-98270000D02*
X123680000Y-100250000D01*
X133630000Y-98270000D02*
X125660000Y-98270000D01*
X134595000Y-97305000D02*
X133630000Y-98270000D01*
X123680000Y-100250000D02*
X123680000Y-105640000D01*
X123680000Y-105640000D02*
X125670000Y-107630000D01*
X134595000Y-94900000D02*
X134595000Y-97305000D01*
X132305000Y-94900000D02*
X132305000Y-95825000D01*
X132305000Y-95825000D02*
X131250000Y-96880000D01*
X131250000Y-96880000D02*
X128060000Y-96880000D01*
X130015000Y-90940000D02*
X128095000Y-89020000D01*
X128095000Y-89020000D02*
X123920000Y-89020000D01*
X123920000Y-89020000D02*
X122110000Y-90830000D01*
X122110000Y-90830000D02*
X122110000Y-101470000D01*
D16*
X144827675Y-88154691D02*
X144960108Y-88194675D01*
X145082252Y-88259621D01*
X145189449Y-88347049D01*
X145277630Y-88453642D01*
X145343425Y-88575326D01*
X145384612Y-88708385D01*
X145399999Y-88846149D01*
X145400200Y-113635808D01*
X145385309Y-113787675D01*
X145345325Y-113920108D01*
X145280382Y-114042247D01*
X145192949Y-114149451D01*
X145086359Y-114237630D01*
X144964674Y-114303425D01*
X144831616Y-114344612D01*
X144693852Y-114359999D01*
X115894192Y-114360200D01*
X115742325Y-114345309D01*
X115609892Y-114305325D01*
X115487753Y-114240382D01*
X115380549Y-114152949D01*
X115292370Y-114046359D01*
X115226575Y-113924674D01*
X115185388Y-113791616D01*
X115170001Y-113653851D01*
X115169983Y-111333272D01*
X116236434Y-111333272D01*
X116473208Y-111619037D01*
X116886167Y-111833810D01*
X117333092Y-111963891D01*
X117796807Y-112004283D01*
X118259491Y-111953432D01*
X118703365Y-111813293D01*
X119066792Y-111619037D01*
X119163230Y-111502644D01*
X124595000Y-111502644D01*
X124595000Y-111717356D01*
X124636888Y-111927941D01*
X124719055Y-112126309D01*
X124838342Y-112304834D01*
X124990166Y-112456658D01*
X125168691Y-112575945D01*
X125367059Y-112658112D01*
X125577644Y-112700000D01*
X125792356Y-112700000D01*
X126002941Y-112658112D01*
X126201309Y-112575945D01*
X126379834Y-112456658D01*
X126531658Y-112304834D01*
X126650945Y-112126309D01*
X126733112Y-111927941D01*
X126775000Y-111717356D01*
X126775000Y-111502644D01*
X126885000Y-111502644D01*
X126885000Y-111717356D01*
X126926888Y-111927941D01*
X127009055Y-112126309D01*
X127128342Y-112304834D01*
X127280166Y-112456658D01*
X127458691Y-112575945D01*
X127657059Y-112658112D01*
X127721860Y-112671002D01*
X127797596Y-112693672D01*
X127818926Y-112699005D01*
X127974974Y-112730508D01*
X127991627Y-112733264D01*
X128133721Y-112751676D01*
X128141500Y-112752555D01*
X128271121Y-112765068D01*
X128385312Y-112778236D01*
X128484409Y-112797309D01*
X128576707Y-112827296D01*
X128673151Y-112875504D01*
X128783144Y-112952348D01*
X128916282Y-113072469D01*
X129959225Y-114115413D01*
X129970657Y-114129343D01*
X130026236Y-114174955D01*
X130089645Y-114208848D01*
X130158448Y-114229719D01*
X130212069Y-114235000D01*
X130212071Y-114235000D01*
X130230000Y-114236766D01*
X130247929Y-114235000D01*
X136292071Y-114235000D01*
X136310000Y-114236766D01*
X136327929Y-114235000D01*
X136327931Y-114235000D01*
X136381552Y-114229719D01*
X136450355Y-114208848D01*
X136513764Y-114174955D01*
X136569343Y-114129343D01*
X136580779Y-114115408D01*
X138545418Y-112150770D01*
X138559342Y-112139343D01*
X138604955Y-112083764D01*
X138638848Y-112020355D01*
X138659719Y-111951552D01*
X138665000Y-111897931D01*
X138665000Y-111897929D01*
X138666766Y-111880000D01*
X138665000Y-111862071D01*
X138665000Y-111333272D01*
X141226434Y-111333272D01*
X141463208Y-111619037D01*
X141876167Y-111833810D01*
X142323092Y-111963891D01*
X142786807Y-112004283D01*
X143249491Y-111953432D01*
X143693365Y-111813293D01*
X144056792Y-111619037D01*
X144293566Y-111333272D01*
X142760000Y-109799706D01*
X141226434Y-111333272D01*
X138665000Y-111333272D01*
X138665000Y-109656807D01*
X140385717Y-109656807D01*
X140436568Y-110119491D01*
X140576707Y-110563365D01*
X140770963Y-110926792D01*
X141056728Y-111163566D01*
X142590294Y-109630000D01*
X142929706Y-109630000D01*
X144463272Y-111163566D01*
X144749037Y-110926792D01*
X144963810Y-110513833D01*
X145093891Y-110066908D01*
X145134283Y-109603193D01*
X145083432Y-109140509D01*
X144943293Y-108696635D01*
X144749037Y-108333208D01*
X144463272Y-108096434D01*
X142929706Y-109630000D01*
X142590294Y-109630000D01*
X141056728Y-108096434D01*
X140770963Y-108333208D01*
X140556190Y-108746167D01*
X140426109Y-109193092D01*
X140385717Y-109656807D01*
X138665000Y-109656807D01*
X138665000Y-107926728D01*
X141226434Y-107926728D01*
X142760000Y-109460294D01*
X144293566Y-107926728D01*
X144056792Y-107640963D01*
X143643833Y-107426190D01*
X143196908Y-107296109D01*
X142733193Y-107255717D01*
X142270509Y-107306568D01*
X141826635Y-107446707D01*
X141463208Y-107640963D01*
X141226434Y-107926728D01*
X138665000Y-107926728D01*
X138665000Y-106317928D01*
X138666766Y-106299999D01*
X138665000Y-106282069D01*
X138659719Y-106228448D01*
X138638848Y-106159645D01*
X138624040Y-106131942D01*
X138604954Y-106096234D01*
X138570772Y-106054584D01*
X138559343Y-106040657D01*
X138545413Y-106029225D01*
X136825686Y-104309498D01*
X136832779Y-104296228D01*
X136889617Y-104108858D01*
X136904000Y-103962826D01*
X136904000Y-102357174D01*
X136889617Y-102211142D01*
X136832779Y-102023772D01*
X136740479Y-101851091D01*
X136616265Y-101699735D01*
X136464909Y-101575521D01*
X136292228Y-101483221D01*
X136104858Y-101426383D01*
X135910000Y-101407191D01*
X135715143Y-101426383D01*
X135527773Y-101483221D01*
X135355092Y-101575521D01*
X135203736Y-101699735D01*
X135079522Y-101851091D01*
X134987222Y-102023772D01*
X134930384Y-102211142D01*
X134916001Y-102357174D01*
X134916000Y-103962825D01*
X134930383Y-104108857D01*
X134987221Y-104296227D01*
X135079521Y-104468909D01*
X135203735Y-104620265D01*
X135355091Y-104744479D01*
X135527772Y-104836779D01*
X135715142Y-104893617D01*
X135910000Y-104912809D01*
X136104857Y-104893617D01*
X136292227Y-104836779D01*
X136310712Y-104826899D01*
X137935001Y-106451189D01*
X137935000Y-111728812D01*
X136158813Y-113505000D01*
X130381188Y-113505000D01*
X129432477Y-112556289D01*
X129312807Y-112423614D01*
X129236399Y-112314099D01*
X129188619Y-112218165D01*
X129159057Y-112126391D01*
X129140455Y-112027766D01*
X129127902Y-111914032D01*
X129116189Y-111784600D01*
X129115386Y-111777054D01*
X129097989Y-111635015D01*
X129095386Y-111618532D01*
X129072929Y-111502644D01*
X129175000Y-111502644D01*
X129175000Y-111717356D01*
X129216888Y-111927941D01*
X129299055Y-112126309D01*
X129418342Y-112304834D01*
X129570166Y-112456658D01*
X129748691Y-112575945D01*
X129947059Y-112658112D01*
X130157644Y-112700000D01*
X130372356Y-112700000D01*
X130582941Y-112658112D01*
X130781309Y-112575945D01*
X130959834Y-112456658D01*
X131111658Y-112304834D01*
X131230945Y-112126309D01*
X131313112Y-111927941D01*
X131355000Y-111717356D01*
X131355000Y-111502644D01*
X131465000Y-111502644D01*
X131465000Y-111717356D01*
X131506888Y-111927941D01*
X131589055Y-112126309D01*
X131708342Y-112304834D01*
X131860166Y-112456658D01*
X132038691Y-112575945D01*
X132237059Y-112658112D01*
X132447644Y-112700000D01*
X132662356Y-112700000D01*
X132872941Y-112658112D01*
X133071309Y-112575945D01*
X133249834Y-112456658D01*
X133401658Y-112304834D01*
X133520945Y-112126309D01*
X133603112Y-111927941D01*
X133645000Y-111717356D01*
X133645000Y-111502644D01*
X133755000Y-111502644D01*
X133755000Y-111717356D01*
X133796888Y-111927941D01*
X133879055Y-112126309D01*
X133998342Y-112304834D01*
X134150166Y-112456658D01*
X134328691Y-112575945D01*
X134527059Y-112658112D01*
X134737644Y-112700000D01*
X134952356Y-112700000D01*
X135162941Y-112658112D01*
X135361309Y-112575945D01*
X135539834Y-112456658D01*
X135691658Y-112304834D01*
X135810945Y-112126309D01*
X135893112Y-111927941D01*
X135935000Y-111717356D01*
X135935000Y-111502644D01*
X135893112Y-111292059D01*
X135810945Y-111093691D01*
X135691658Y-110915166D01*
X135539834Y-110763342D01*
X135361309Y-110644055D01*
X135162941Y-110561888D01*
X134952356Y-110520000D01*
X134737644Y-110520000D01*
X134527059Y-110561888D01*
X134328691Y-110644055D01*
X134150166Y-110763342D01*
X133998342Y-110915166D01*
X133879055Y-111093691D01*
X133796888Y-111292059D01*
X133755000Y-111502644D01*
X133645000Y-111502644D01*
X133603112Y-111292059D01*
X133520945Y-111093691D01*
X133401658Y-110915166D01*
X133249834Y-110763342D01*
X133071309Y-110644055D01*
X132872941Y-110561888D01*
X132662356Y-110520000D01*
X132447644Y-110520000D01*
X132237059Y-110561888D01*
X132038691Y-110644055D01*
X131860166Y-110763342D01*
X131708342Y-110915166D01*
X131589055Y-111093691D01*
X131506888Y-111292059D01*
X131465000Y-111502644D01*
X131355000Y-111502644D01*
X131313112Y-111292059D01*
X131230945Y-111093691D01*
X131111658Y-110915166D01*
X130959834Y-110763342D01*
X130781309Y-110644055D01*
X130582941Y-110561888D01*
X130372356Y-110520000D01*
X130157644Y-110520000D01*
X129947059Y-110561888D01*
X129748691Y-110644055D01*
X129570166Y-110763342D01*
X129418342Y-110915166D01*
X129299055Y-111093691D01*
X129216888Y-111292059D01*
X129175000Y-111502644D01*
X129072929Y-111502644D01*
X129065149Y-111462502D01*
X129060014Y-111441242D01*
X129037063Y-111362196D01*
X129023112Y-111292059D01*
X128940945Y-111093691D01*
X128821658Y-110915166D01*
X128669834Y-110763342D01*
X128491309Y-110644055D01*
X128292941Y-110561888D01*
X128082356Y-110520000D01*
X127867644Y-110520000D01*
X127657059Y-110561888D01*
X127458691Y-110644055D01*
X127280166Y-110763342D01*
X127128342Y-110915166D01*
X127009055Y-111093691D01*
X126926888Y-111292059D01*
X126885000Y-111502644D01*
X126775000Y-111502644D01*
X126733112Y-111292059D01*
X126650945Y-111093691D01*
X126531658Y-110915166D01*
X126379834Y-110763342D01*
X126201309Y-110644055D01*
X126002941Y-110561888D01*
X125792356Y-110520000D01*
X125577644Y-110520000D01*
X125367059Y-110561888D01*
X125168691Y-110644055D01*
X124990166Y-110763342D01*
X124838342Y-110915166D01*
X124719055Y-111093691D01*
X124636888Y-111292059D01*
X124595000Y-111502644D01*
X119163230Y-111502644D01*
X119303566Y-111333272D01*
X117770000Y-109799706D01*
X116236434Y-111333272D01*
X115169983Y-111333272D01*
X115169969Y-109656807D01*
X115395717Y-109656807D01*
X115446568Y-110119491D01*
X115586707Y-110563365D01*
X115780963Y-110926792D01*
X116066728Y-111163566D01*
X117600294Y-109630000D01*
X117939706Y-109630000D01*
X119473272Y-111163566D01*
X119759037Y-110926792D01*
X119973810Y-110513833D01*
X119980656Y-110490311D01*
X123849394Y-110490311D01*
X123943717Y-110654869D01*
X124155117Y-110751505D01*
X124381307Y-110805042D01*
X124613595Y-110813423D01*
X124843055Y-110776327D01*
X125060869Y-110695177D01*
X125136283Y-110654869D01*
X125230606Y-110490311D01*
X126139394Y-110490311D01*
X126233717Y-110654869D01*
X126445117Y-110751505D01*
X126671307Y-110805042D01*
X126903595Y-110813423D01*
X127133055Y-110776327D01*
X127350869Y-110695177D01*
X127426283Y-110654869D01*
X127520606Y-110490311D01*
X128429394Y-110490311D01*
X128523717Y-110654869D01*
X128735117Y-110751505D01*
X128961307Y-110805042D01*
X129193595Y-110813423D01*
X129423055Y-110776327D01*
X129640869Y-110695177D01*
X129716283Y-110654869D01*
X129810606Y-110490311D01*
X129120000Y-109799706D01*
X128429394Y-110490311D01*
X127520606Y-110490311D01*
X126830000Y-109799706D01*
X126139394Y-110490311D01*
X125230606Y-110490311D01*
X124540000Y-109799706D01*
X123849394Y-110490311D01*
X119980656Y-110490311D01*
X120103891Y-110066908D01*
X120135537Y-109703595D01*
X123356577Y-109703595D01*
X123393673Y-109933055D01*
X123474823Y-110150869D01*
X123515131Y-110226283D01*
X123679689Y-110320606D01*
X124370294Y-109630000D01*
X124709706Y-109630000D01*
X125400311Y-110320606D01*
X125564869Y-110226283D01*
X125661505Y-110014883D01*
X125682537Y-109926026D01*
X125683673Y-109933055D01*
X125764823Y-110150869D01*
X125805131Y-110226283D01*
X125969689Y-110320606D01*
X126660294Y-109630000D01*
X126999706Y-109630000D01*
X127690311Y-110320606D01*
X127854869Y-110226283D01*
X127951505Y-110014883D01*
X127972537Y-109926026D01*
X127973673Y-109933055D01*
X128054823Y-110150869D01*
X128095131Y-110226283D01*
X128259689Y-110320606D01*
X128950294Y-109630000D01*
X129289706Y-109630000D01*
X129980311Y-110320606D01*
X130144869Y-110226283D01*
X130241505Y-110014883D01*
X130295042Y-109788693D01*
X130303423Y-109556405D01*
X130297965Y-109522644D01*
X130320000Y-109522644D01*
X130320000Y-109737356D01*
X130361888Y-109947941D01*
X130444055Y-110146309D01*
X130563342Y-110324834D01*
X130715166Y-110476658D01*
X130893691Y-110595945D01*
X131092059Y-110678112D01*
X131302644Y-110720000D01*
X131517356Y-110720000D01*
X131727941Y-110678112D01*
X131926309Y-110595945D01*
X132084400Y-110490311D01*
X133009394Y-110490311D01*
X133103717Y-110654869D01*
X133315117Y-110751505D01*
X133541307Y-110805042D01*
X133773595Y-110813423D01*
X134003055Y-110776327D01*
X134220869Y-110695177D01*
X134296283Y-110654869D01*
X134390606Y-110490311D01*
X133700000Y-109799706D01*
X133009394Y-110490311D01*
X132084400Y-110490311D01*
X132104834Y-110476658D01*
X132256658Y-110324834D01*
X132375945Y-110146309D01*
X132458112Y-109947941D01*
X132500000Y-109737356D01*
X132500000Y-109703595D01*
X132516577Y-109703595D01*
X132553673Y-109933055D01*
X132634823Y-110150869D01*
X132675131Y-110226283D01*
X132839689Y-110320606D01*
X133530294Y-109630000D01*
X133869706Y-109630000D01*
X134560311Y-110320606D01*
X134724869Y-110226283D01*
X134821505Y-110014883D01*
X134875042Y-109788693D01*
X134883423Y-109556405D01*
X134846327Y-109326945D01*
X134765177Y-109109131D01*
X134724869Y-109033717D01*
X134560311Y-108939394D01*
X133869706Y-109630000D01*
X133530294Y-109630000D01*
X132839689Y-108939394D01*
X132675131Y-109033717D01*
X132578495Y-109245117D01*
X132524958Y-109471307D01*
X132516577Y-109703595D01*
X132500000Y-109703595D01*
X132500000Y-109522644D01*
X132458112Y-109312059D01*
X132375945Y-109113691D01*
X132256658Y-108935166D01*
X132104834Y-108783342D01*
X132084401Y-108769689D01*
X133009394Y-108769689D01*
X133700000Y-109460294D01*
X134390606Y-108769689D01*
X134367337Y-108729093D01*
X134460117Y-108771505D01*
X134686307Y-108825042D01*
X134918595Y-108833423D01*
X135148055Y-108796327D01*
X135365869Y-108715177D01*
X135441283Y-108674869D01*
X135535606Y-108510311D01*
X134845000Y-107819706D01*
X134154394Y-108510311D01*
X134177663Y-108550907D01*
X134084883Y-108508495D01*
X133858693Y-108454958D01*
X133626405Y-108446577D01*
X133396945Y-108483673D01*
X133179131Y-108564823D01*
X133103717Y-108605131D01*
X133009394Y-108769689D01*
X132084401Y-108769689D01*
X131926309Y-108664055D01*
X131727941Y-108581888D01*
X131517356Y-108540000D01*
X131302644Y-108540000D01*
X131092059Y-108581888D01*
X130893691Y-108664055D01*
X130715166Y-108783342D01*
X130563342Y-108935166D01*
X130444055Y-109113691D01*
X130361888Y-109312059D01*
X130320000Y-109522644D01*
X130297965Y-109522644D01*
X130266327Y-109326945D01*
X130185177Y-109109131D01*
X130144869Y-109033717D01*
X129980311Y-108939394D01*
X129289706Y-109630000D01*
X128950294Y-109630000D01*
X128259689Y-108939394D01*
X128095131Y-109033717D01*
X127998495Y-109245117D01*
X127977463Y-109333974D01*
X127976327Y-109326945D01*
X127895177Y-109109131D01*
X127854869Y-109033717D01*
X127690311Y-108939394D01*
X126999706Y-109630000D01*
X126660294Y-109630000D01*
X125969689Y-108939394D01*
X125805131Y-109033717D01*
X125708495Y-109245117D01*
X125687463Y-109333974D01*
X125686327Y-109326945D01*
X125605177Y-109109131D01*
X125564869Y-109033717D01*
X125400311Y-108939394D01*
X124709706Y-109630000D01*
X124370294Y-109630000D01*
X123679689Y-108939394D01*
X123515131Y-109033717D01*
X123418495Y-109245117D01*
X123364958Y-109471307D01*
X123356577Y-109703595D01*
X120135537Y-109703595D01*
X120144283Y-109603193D01*
X120093432Y-109140509D01*
X119953293Y-108696635D01*
X119759037Y-108333208D01*
X119473272Y-108096434D01*
X117939706Y-109630000D01*
X117600294Y-109630000D01*
X116066728Y-108096434D01*
X115780963Y-108333208D01*
X115566190Y-108746167D01*
X115436109Y-109193092D01*
X115395717Y-109656807D01*
X115169969Y-109656807D01*
X115169956Y-107926728D01*
X116236434Y-107926728D01*
X117770000Y-109460294D01*
X119303566Y-107926728D01*
X119066792Y-107640963D01*
X118653833Y-107426190D01*
X118206908Y-107296109D01*
X117743193Y-107255717D01*
X117280509Y-107306568D01*
X116836635Y-107446707D01*
X116473208Y-107640963D01*
X116236434Y-107926728D01*
X115169956Y-107926728D01*
X115169904Y-101411890D01*
X121520000Y-101411890D01*
X121520000Y-101528110D01*
X121542673Y-101642097D01*
X121587149Y-101749470D01*
X121651717Y-101846103D01*
X121733897Y-101928283D01*
X121830530Y-101992851D01*
X121937903Y-102037327D01*
X122051890Y-102060000D01*
X122168110Y-102060000D01*
X122282097Y-102037327D01*
X122389470Y-101992851D01*
X122486103Y-101928283D01*
X122568283Y-101846103D01*
X122632851Y-101749470D01*
X122677327Y-101642097D01*
X122700000Y-101528110D01*
X122700000Y-101411890D01*
X122677327Y-101297903D01*
X122632851Y-101190530D01*
X122618891Y-101169637D01*
X122607670Y-101147792D01*
X122603125Y-101139362D01*
X122573893Y-101087640D01*
X122571462Y-101083439D01*
X122544803Y-101038420D01*
X122523073Y-101000954D01*
X122507698Y-100971511D01*
X122497025Y-100946532D01*
X122488852Y-100920576D01*
X122482061Y-100887401D01*
X122477075Y-100841638D01*
X122475000Y-100776181D01*
X122475000Y-100250000D01*
X123313234Y-100250000D01*
X123315000Y-100267929D01*
X123315001Y-105622061D01*
X123313234Y-105640000D01*
X123320282Y-105711552D01*
X123341153Y-105780355D01*
X123375046Y-105843764D01*
X123420658Y-105899343D01*
X123434588Y-105910775D01*
X124219644Y-106695832D01*
X124340529Y-106829686D01*
X124418108Y-106940377D01*
X124466880Y-107037385D01*
X124497259Y-107130079D01*
X124516576Y-107229384D01*
X124529837Y-107343690D01*
X124542240Y-107473698D01*
X124543046Y-107480975D01*
X124561084Y-107623814D01*
X124563684Y-107639955D01*
X124593839Y-107793641D01*
X124593839Y-108451175D01*
X124466405Y-108446577D01*
X124236945Y-108483673D01*
X124019131Y-108564823D01*
X123943717Y-108605131D01*
X123849394Y-108769689D01*
X124540000Y-109460294D01*
X125230606Y-108769689D01*
X125214254Y-108741161D01*
X126155746Y-108741161D01*
X126139394Y-108769689D01*
X126830000Y-109460294D01*
X127520606Y-108769689D01*
X128429394Y-108769689D01*
X129120000Y-109460294D01*
X129810606Y-108769689D01*
X129716283Y-108605131D01*
X129504883Y-108508495D01*
X129278693Y-108454958D01*
X129046405Y-108446577D01*
X128816945Y-108483673D01*
X128599131Y-108564823D01*
X128523717Y-108605131D01*
X128429394Y-108769689D01*
X127520606Y-108769689D01*
X127426283Y-108605131D01*
X127214883Y-108508495D01*
X126988693Y-108454958D01*
X126776161Y-108447290D01*
X126776161Y-107542644D01*
X126885000Y-107542644D01*
X126885000Y-107757356D01*
X126926888Y-107967941D01*
X127009055Y-108166309D01*
X127128342Y-108344834D01*
X127280166Y-108496658D01*
X127458691Y-108615945D01*
X127657059Y-108698112D01*
X127867644Y-108740000D01*
X128082356Y-108740000D01*
X128292941Y-108698112D01*
X128491309Y-108615945D01*
X128669834Y-108496658D01*
X128821658Y-108344834D01*
X128940945Y-108166309D01*
X129023112Y-107967941D01*
X129065000Y-107757356D01*
X129065000Y-107542644D01*
X129175000Y-107542644D01*
X129175000Y-107757356D01*
X129216888Y-107967941D01*
X129299055Y-108166309D01*
X129418342Y-108344834D01*
X129570166Y-108496658D01*
X129748691Y-108615945D01*
X129947059Y-108698112D01*
X130157644Y-108740000D01*
X130372356Y-108740000D01*
X130582941Y-108698112D01*
X130781309Y-108615945D01*
X130959834Y-108496658D01*
X131111658Y-108344834D01*
X131230945Y-108166309D01*
X131313112Y-107967941D01*
X131355000Y-107757356D01*
X131355000Y-107542644D01*
X131465000Y-107542644D01*
X131465000Y-107757356D01*
X131506888Y-107967941D01*
X131589055Y-108166309D01*
X131708342Y-108344834D01*
X131860166Y-108496658D01*
X132038691Y-108615945D01*
X132237059Y-108698112D01*
X132447644Y-108740000D01*
X132662356Y-108740000D01*
X132872941Y-108698112D01*
X133071309Y-108615945D01*
X133249834Y-108496658D01*
X133401658Y-108344834D01*
X133520945Y-108166309D01*
X133603112Y-107967941D01*
X133645000Y-107757356D01*
X133645000Y-107723595D01*
X133661577Y-107723595D01*
X133698673Y-107953055D01*
X133779823Y-108170869D01*
X133820131Y-108246283D01*
X133984689Y-108340606D01*
X134675294Y-107650000D01*
X135014706Y-107650000D01*
X135705311Y-108340606D01*
X135869869Y-108246283D01*
X135966505Y-108034883D01*
X136020042Y-107808693D01*
X136028423Y-107576405D01*
X135991327Y-107346945D01*
X135910177Y-107129131D01*
X135869869Y-107053717D01*
X135705311Y-106959394D01*
X135014706Y-107650000D01*
X134675294Y-107650000D01*
X133984689Y-106959394D01*
X133820131Y-107053717D01*
X133723495Y-107265117D01*
X133669958Y-107491307D01*
X133661577Y-107723595D01*
X133645000Y-107723595D01*
X133645000Y-107542644D01*
X133603112Y-107332059D01*
X133520945Y-107133691D01*
X133401658Y-106955166D01*
X133249834Y-106803342D01*
X133229401Y-106789689D01*
X134154394Y-106789689D01*
X134845000Y-107480294D01*
X135535606Y-106789689D01*
X135441283Y-106625131D01*
X135229883Y-106528495D01*
X135003693Y-106474958D01*
X134771405Y-106466577D01*
X134541945Y-106503673D01*
X134324131Y-106584823D01*
X134248717Y-106625131D01*
X134154394Y-106789689D01*
X133229401Y-106789689D01*
X133071309Y-106684055D01*
X132872941Y-106601888D01*
X132662356Y-106560000D01*
X132447644Y-106560000D01*
X132237059Y-106601888D01*
X132038691Y-106684055D01*
X131860166Y-106803342D01*
X131708342Y-106955166D01*
X131589055Y-107133691D01*
X131506888Y-107332059D01*
X131465000Y-107542644D01*
X131355000Y-107542644D01*
X131313112Y-107332059D01*
X131230945Y-107133691D01*
X131111658Y-106955166D01*
X130959834Y-106803342D01*
X130781309Y-106684055D01*
X130582941Y-106601888D01*
X130372356Y-106560000D01*
X130157644Y-106560000D01*
X129947059Y-106601888D01*
X129748691Y-106684055D01*
X129570166Y-106803342D01*
X129418342Y-106955166D01*
X129299055Y-107133691D01*
X129216888Y-107332059D01*
X129175000Y-107542644D01*
X129065000Y-107542644D01*
X129023112Y-107332059D01*
X128940945Y-107133691D01*
X128821658Y-106955166D01*
X128669834Y-106803342D01*
X128491309Y-106684055D01*
X128292941Y-106601888D01*
X128082356Y-106560000D01*
X127867644Y-106560000D01*
X127657059Y-106601888D01*
X127458691Y-106684055D01*
X127280166Y-106803342D01*
X127128342Y-106955166D01*
X127009055Y-107133691D01*
X126926888Y-107332059D01*
X126885000Y-107542644D01*
X126776161Y-107542644D01*
X126776161Y-106800000D01*
X126771527Y-106752952D01*
X126757804Y-106707712D01*
X126735518Y-106666018D01*
X126705527Y-106629473D01*
X126668982Y-106599482D01*
X126627288Y-106577196D01*
X126582048Y-106563473D01*
X126535000Y-106558839D01*
X125831736Y-106558839D01*
X125683418Y-106528549D01*
X125667113Y-106525800D01*
X125524227Y-106506750D01*
X125516721Y-106505869D01*
X125386484Y-106492663D01*
X125271780Y-106478790D01*
X125172020Y-106459001D01*
X125078819Y-106428196D01*
X124981309Y-106378996D01*
X124870147Y-106300983D01*
X124735840Y-106179653D01*
X124045000Y-105488813D01*
X124045000Y-103962825D01*
X129416000Y-103962825D01*
X129430383Y-104108857D01*
X129487221Y-104296227D01*
X129579521Y-104468909D01*
X129703735Y-104620265D01*
X129855091Y-104744479D01*
X130027772Y-104836779D01*
X130215142Y-104893617D01*
X130410000Y-104912809D01*
X130604857Y-104893617D01*
X130792227Y-104836779D01*
X130964909Y-104744479D01*
X131116265Y-104620265D01*
X131240479Y-104468909D01*
X131332779Y-104296228D01*
X131389617Y-104108858D01*
X131404000Y-103962826D01*
X131404000Y-102498737D01*
X131503735Y-102620265D01*
X131655091Y-102744479D01*
X131827772Y-102836779D01*
X132015142Y-102893617D01*
X132210000Y-102912809D01*
X132404857Y-102893617D01*
X132592227Y-102836779D01*
X132764909Y-102744479D01*
X132916265Y-102620265D01*
X133040479Y-102468909D01*
X133132779Y-102296228D01*
X133189617Y-102108858D01*
X133204000Y-101962826D01*
X133204000Y-101280000D01*
X137226000Y-101280000D01*
X137226000Y-102034000D01*
X137270240Y-102243172D01*
X137354437Y-102439694D01*
X137475356Y-102616014D01*
X137628350Y-102765356D01*
X137807539Y-102881981D01*
X138022945Y-102959301D01*
X138190000Y-102908285D01*
X138190000Y-101280000D01*
X138430000Y-101280000D01*
X138430000Y-102908285D01*
X138597055Y-102959301D01*
X138812461Y-102881981D01*
X138991650Y-102765356D01*
X139144644Y-102616014D01*
X139265563Y-102439694D01*
X139349760Y-102243172D01*
X139394000Y-102034000D01*
X139394000Y-101280000D01*
X138430000Y-101280000D01*
X138190000Y-101280000D01*
X137226000Y-101280000D01*
X133204000Y-101280000D01*
X133204000Y-100357174D01*
X133196990Y-100286000D01*
X137226000Y-100286000D01*
X137226000Y-101040000D01*
X138190000Y-101040000D01*
X138190000Y-99411715D01*
X138430000Y-99411715D01*
X138430000Y-101040000D01*
X139394000Y-101040000D01*
X139394000Y-100286000D01*
X139349760Y-100076828D01*
X139265563Y-99880306D01*
X139144644Y-99703986D01*
X138991650Y-99554644D01*
X138812461Y-99438019D01*
X138597055Y-99360699D01*
X138430000Y-99411715D01*
X138190000Y-99411715D01*
X138022945Y-99360699D01*
X137807539Y-99438019D01*
X137628350Y-99554644D01*
X137475356Y-99703986D01*
X137354437Y-99880306D01*
X137270240Y-100076828D01*
X137226000Y-100286000D01*
X133196990Y-100286000D01*
X133189617Y-100211142D01*
X133132779Y-100023772D01*
X133040479Y-99851091D01*
X132916265Y-99699735D01*
X132764909Y-99575521D01*
X132592228Y-99483221D01*
X132404858Y-99426383D01*
X132210000Y-99407191D01*
X132015143Y-99426383D01*
X131827773Y-99483221D01*
X131655092Y-99575521D01*
X131503736Y-99699735D01*
X131379522Y-99851091D01*
X131287222Y-100023772D01*
X131230384Y-100211142D01*
X131216001Y-100357174D01*
X131216000Y-101821263D01*
X131116265Y-101699735D01*
X130964909Y-101575521D01*
X130792228Y-101483221D01*
X130604858Y-101426383D01*
X130410000Y-101407191D01*
X130215143Y-101426383D01*
X130027773Y-101483221D01*
X129855092Y-101575521D01*
X129703736Y-101699735D01*
X129579522Y-101851091D01*
X129487222Y-102023772D01*
X129430384Y-102211142D01*
X129416001Y-102357174D01*
X129416000Y-103962825D01*
X124045000Y-103962825D01*
X124045000Y-101962825D01*
X125716000Y-101962825D01*
X125730383Y-102108857D01*
X125787221Y-102296227D01*
X125879521Y-102468909D01*
X126003735Y-102620265D01*
X126155091Y-102744479D01*
X126327772Y-102836779D01*
X126515142Y-102893617D01*
X126710000Y-102912809D01*
X126904857Y-102893617D01*
X127092227Y-102836779D01*
X127264909Y-102744479D01*
X127416265Y-102620265D01*
X127540479Y-102468909D01*
X127632779Y-102296228D01*
X127689617Y-102108858D01*
X127704000Y-101962826D01*
X127704000Y-100357174D01*
X127689617Y-100211142D01*
X127632779Y-100023772D01*
X127540479Y-99851091D01*
X127416265Y-99699735D01*
X127264909Y-99575521D01*
X127092228Y-99483221D01*
X126904858Y-99426383D01*
X126710000Y-99407191D01*
X126515143Y-99426383D01*
X126327773Y-99483221D01*
X126155092Y-99575521D01*
X126003736Y-99699735D01*
X125879522Y-99851091D01*
X125787222Y-100023772D01*
X125730384Y-100211142D01*
X125716001Y-100357174D01*
X125716000Y-101962825D01*
X124045000Y-101962825D01*
X124045000Y-100401187D01*
X125811188Y-98635000D01*
X133612071Y-98635000D01*
X133630000Y-98636766D01*
X133647929Y-98635000D01*
X133647931Y-98635000D01*
X133701552Y-98629719D01*
X133770355Y-98608848D01*
X133833764Y-98574955D01*
X133889343Y-98529343D01*
X133900779Y-98515408D01*
X134840413Y-97575775D01*
X134854343Y-97564343D01*
X134899955Y-97508764D01*
X134933848Y-97445355D01*
X134954719Y-97376552D01*
X134960000Y-97322931D01*
X134960000Y-97322930D01*
X134961766Y-97305001D01*
X134960000Y-97287072D01*
X134960000Y-96596189D01*
X134969207Y-96417984D01*
X134992632Y-96286710D01*
X135026692Y-96185220D01*
X135070700Y-96099465D01*
X135127285Y-96016567D01*
X135147612Y-95991161D01*
X135445000Y-95991161D01*
X135492048Y-95986527D01*
X135537288Y-95972804D01*
X135578982Y-95950518D01*
X135615527Y-95920527D01*
X135645518Y-95883982D01*
X135667804Y-95842288D01*
X135681527Y-95797048D01*
X135686161Y-95750000D01*
X135686161Y-94623272D01*
X141226434Y-94623272D01*
X141463208Y-94909037D01*
X141876167Y-95123810D01*
X142323092Y-95253891D01*
X142786807Y-95294283D01*
X143249491Y-95243432D01*
X143693365Y-95103293D01*
X144056792Y-94909037D01*
X144293566Y-94623272D01*
X142760000Y-93089706D01*
X141226434Y-94623272D01*
X135686161Y-94623272D01*
X135686161Y-94098825D01*
X135813595Y-94103423D01*
X136043055Y-94066327D01*
X136260869Y-93985177D01*
X136336283Y-93944869D01*
X136430606Y-93780311D01*
X135740000Y-93089706D01*
X135049394Y-93780311D01*
X135065746Y-93808839D01*
X134124254Y-93808839D01*
X134140606Y-93780311D01*
X133450000Y-93089706D01*
X132759394Y-93780311D01*
X132853717Y-93944869D01*
X133065117Y-94041505D01*
X133291307Y-94095042D01*
X133503839Y-94102710D01*
X133503839Y-95750000D01*
X133508473Y-95797048D01*
X133522196Y-95842288D01*
X133544482Y-95883982D01*
X133574473Y-95920527D01*
X133611018Y-95950518D01*
X133652712Y-95972804D01*
X133697952Y-95986527D01*
X133745000Y-95991161D01*
X134042387Y-95991161D01*
X134062714Y-96016567D01*
X134119299Y-96099465D01*
X134163307Y-96185220D01*
X134197367Y-96286710D01*
X134220792Y-96417984D01*
X134230001Y-96596204D01*
X134230001Y-97153811D01*
X133478813Y-97905000D01*
X125677929Y-97905000D01*
X125660000Y-97903234D01*
X125642071Y-97905000D01*
X125642069Y-97905000D01*
X125588448Y-97910281D01*
X125519645Y-97931152D01*
X125456236Y-97965045D01*
X125400657Y-98010657D01*
X125389226Y-98024586D01*
X123434588Y-99979225D01*
X123420657Y-99990658D01*
X123375045Y-100046237D01*
X123341152Y-100109646D01*
X123320281Y-100178449D01*
X123315000Y-100232069D01*
X123313234Y-100250000D01*
X122475000Y-100250000D01*
X122475000Y-96821890D01*
X127470000Y-96821890D01*
X127470000Y-96938110D01*
X127492673Y-97052097D01*
X127537149Y-97159470D01*
X127601717Y-97256103D01*
X127683897Y-97338283D01*
X127780530Y-97402851D01*
X127887903Y-97447327D01*
X128001890Y-97470000D01*
X128118110Y-97470000D01*
X128232097Y-97447327D01*
X128339470Y-97402851D01*
X128360368Y-97388887D01*
X128382208Y-97377669D01*
X128390637Y-97373125D01*
X128442359Y-97343893D01*
X128446560Y-97341462D01*
X128491579Y-97314803D01*
X128529045Y-97293073D01*
X128558488Y-97277698D01*
X128583467Y-97267025D01*
X128609423Y-97258852D01*
X128642598Y-97252061D01*
X128688361Y-97247075D01*
X128753819Y-97245000D01*
X131232071Y-97245000D01*
X131250000Y-97246766D01*
X131267929Y-97245000D01*
X131267931Y-97245000D01*
X131321552Y-97239719D01*
X131390355Y-97218848D01*
X131453764Y-97184955D01*
X131509343Y-97139343D01*
X131520779Y-97125408D01*
X132014192Y-96631995D01*
X132151997Y-96496942D01*
X132269158Y-96387155D01*
X132371246Y-96295876D01*
X132463632Y-96216689D01*
X132551466Y-96143457D01*
X132638784Y-96070951D01*
X132640759Y-96069293D01*
X132730908Y-95992785D01*
X132734610Y-95989578D01*
X132831812Y-95903611D01*
X132836244Y-95899591D01*
X132944914Y-95798543D01*
X132949243Y-95794417D01*
X132994367Y-95750311D01*
X132999834Y-95746658D01*
X133151658Y-95594834D01*
X133270945Y-95416309D01*
X133353112Y-95217941D01*
X133395000Y-95007356D01*
X133395000Y-94792644D01*
X133353112Y-94582059D01*
X133270945Y-94383691D01*
X133151658Y-94205166D01*
X132999834Y-94053342D01*
X132821309Y-93934055D01*
X132622941Y-93851888D01*
X132412356Y-93810000D01*
X132197644Y-93810000D01*
X131987059Y-93851888D01*
X131788691Y-93934055D01*
X131610166Y-94053342D01*
X131458342Y-94205166D01*
X131339055Y-94383691D01*
X131256888Y-94582059D01*
X131215000Y-94792644D01*
X131215000Y-95007356D01*
X131256888Y-95217941D01*
X131339055Y-95416309D01*
X131367696Y-95459174D01*
X131388328Y-95498754D01*
X131392716Y-95506794D01*
X131455158Y-95616186D01*
X131455477Y-95616743D01*
X131512337Y-95715740D01*
X131556539Y-95800270D01*
X131584511Y-95868300D01*
X131596488Y-95918370D01*
X131596976Y-95954523D01*
X131587766Y-95990784D01*
X131559415Y-96042568D01*
X131492055Y-96121758D01*
X131098813Y-96515000D01*
X128753791Y-96515000D01*
X128688374Y-96512926D01*
X128642598Y-96507938D01*
X128609423Y-96501147D01*
X128583467Y-96492974D01*
X128558488Y-96482301D01*
X128529045Y-96466926D01*
X128491579Y-96445196D01*
X128446560Y-96418537D01*
X128442359Y-96416106D01*
X128390637Y-96386874D01*
X128382205Y-96382328D01*
X128360361Y-96371108D01*
X128339470Y-96357149D01*
X128232097Y-96312673D01*
X128118110Y-96290000D01*
X128001890Y-96290000D01*
X127887903Y-96312673D01*
X127780530Y-96357149D01*
X127683897Y-96421717D01*
X127601717Y-96503897D01*
X127537149Y-96600530D01*
X127492673Y-96707903D01*
X127470000Y-96821890D01*
X122475000Y-96821890D01*
X122475000Y-95760311D01*
X124744394Y-95760311D01*
X124838717Y-95924869D01*
X125050117Y-96021505D01*
X125276307Y-96075042D01*
X125508595Y-96083423D01*
X125738055Y-96046327D01*
X125955869Y-95965177D01*
X126031283Y-95924869D01*
X126125606Y-95760311D01*
X125435000Y-95069706D01*
X124744394Y-95760311D01*
X122475000Y-95760311D01*
X122475000Y-94973595D01*
X124251577Y-94973595D01*
X124288673Y-95203055D01*
X124369823Y-95420869D01*
X124410131Y-95496283D01*
X124574689Y-95590606D01*
X125265294Y-94900000D01*
X125604706Y-94900000D01*
X126295311Y-95590606D01*
X126459869Y-95496283D01*
X126556505Y-95284883D01*
X126610042Y-95058693D01*
X126618423Y-94826405D01*
X126612965Y-94792644D01*
X126635000Y-94792644D01*
X126635000Y-95007356D01*
X126676888Y-95217941D01*
X126759055Y-95416309D01*
X126878342Y-95594834D01*
X127030166Y-95746658D01*
X127208691Y-95865945D01*
X127407059Y-95948112D01*
X127617644Y-95990000D01*
X127832356Y-95990000D01*
X128042941Y-95948112D01*
X128241309Y-95865945D01*
X128419834Y-95746658D01*
X128571658Y-95594834D01*
X128690945Y-95416309D01*
X128773112Y-95217941D01*
X128815000Y-95007356D01*
X128815000Y-94792644D01*
X128925000Y-94792644D01*
X128925000Y-95007356D01*
X128966888Y-95217941D01*
X129049055Y-95416309D01*
X129168342Y-95594834D01*
X129320166Y-95746658D01*
X129498691Y-95865945D01*
X129697059Y-95948112D01*
X129907644Y-95990000D01*
X130122356Y-95990000D01*
X130332941Y-95948112D01*
X130531309Y-95865945D01*
X130709834Y-95746658D01*
X130861658Y-95594834D01*
X130980945Y-95416309D01*
X131063112Y-95217941D01*
X131105000Y-95007356D01*
X131105000Y-94792644D01*
X131063112Y-94582059D01*
X130980945Y-94383691D01*
X130861658Y-94205166D01*
X130709834Y-94053342D01*
X130531309Y-93934055D01*
X130332941Y-93851888D01*
X130122356Y-93810000D01*
X129907644Y-93810000D01*
X129697059Y-93851888D01*
X129498691Y-93934055D01*
X129320166Y-94053342D01*
X129168342Y-94205166D01*
X129049055Y-94383691D01*
X128966888Y-94582059D01*
X128925000Y-94792644D01*
X128815000Y-94792644D01*
X128773112Y-94582059D01*
X128690945Y-94383691D01*
X128571658Y-94205166D01*
X128419834Y-94053342D01*
X128241309Y-93934055D01*
X128042941Y-93851888D01*
X127832356Y-93810000D01*
X127617644Y-93810000D01*
X127407059Y-93851888D01*
X127208691Y-93934055D01*
X127030166Y-94053342D01*
X126878342Y-94205166D01*
X126759055Y-94383691D01*
X126676888Y-94582059D01*
X126635000Y-94792644D01*
X126612965Y-94792644D01*
X126581327Y-94596945D01*
X126500177Y-94379131D01*
X126459869Y-94303717D01*
X126295311Y-94209394D01*
X125604706Y-94900000D01*
X125265294Y-94900000D01*
X124574689Y-94209394D01*
X124410131Y-94303717D01*
X124313495Y-94515117D01*
X124259958Y-94741307D01*
X124251577Y-94973595D01*
X122475000Y-94973595D01*
X122475000Y-94039689D01*
X124744394Y-94039689D01*
X125435000Y-94730294D01*
X126125606Y-94039689D01*
X126102337Y-93999093D01*
X126195117Y-94041505D01*
X126421307Y-94095042D01*
X126653595Y-94103423D01*
X126883055Y-94066327D01*
X127100869Y-93985177D01*
X127176283Y-93944869D01*
X127270606Y-93780311D01*
X126580000Y-93089706D01*
X125889394Y-93780311D01*
X125912663Y-93820907D01*
X125819883Y-93778495D01*
X125593693Y-93724958D01*
X125361405Y-93716577D01*
X125131945Y-93753673D01*
X124914131Y-93834823D01*
X124838717Y-93875131D01*
X124744394Y-94039689D01*
X122475000Y-94039689D01*
X122475000Y-92993595D01*
X125396577Y-92993595D01*
X125433673Y-93223055D01*
X125514823Y-93440869D01*
X125555131Y-93516283D01*
X125719689Y-93610606D01*
X126410294Y-92920000D01*
X126749706Y-92920000D01*
X127440311Y-93610606D01*
X127604869Y-93516283D01*
X127701505Y-93304883D01*
X127755042Y-93078693D01*
X127763423Y-92846405D01*
X127757965Y-92812644D01*
X127780000Y-92812644D01*
X127780000Y-93027356D01*
X127821888Y-93237941D01*
X127904055Y-93436309D01*
X128023342Y-93614834D01*
X128175166Y-93766658D01*
X128353691Y-93885945D01*
X128552059Y-93968112D01*
X128762644Y-94010000D01*
X128977356Y-94010000D01*
X129187941Y-93968112D01*
X129386309Y-93885945D01*
X129544400Y-93780311D01*
X130469394Y-93780311D01*
X130563717Y-93944869D01*
X130775117Y-94041505D01*
X131001307Y-94095042D01*
X131233595Y-94103423D01*
X131463055Y-94066327D01*
X131680869Y-93985177D01*
X131756283Y-93944869D01*
X131850606Y-93780311D01*
X131160000Y-93089706D01*
X130469394Y-93780311D01*
X129544400Y-93780311D01*
X129564834Y-93766658D01*
X129716658Y-93614834D01*
X129835945Y-93436309D01*
X129918112Y-93237941D01*
X129960000Y-93027356D01*
X129960000Y-92993595D01*
X129976577Y-92993595D01*
X130013673Y-93223055D01*
X130094823Y-93440869D01*
X130135131Y-93516283D01*
X130299689Y-93610606D01*
X130990294Y-92920000D01*
X131329706Y-92920000D01*
X132020311Y-93610606D01*
X132184869Y-93516283D01*
X132281505Y-93304883D01*
X132302537Y-93216026D01*
X132303673Y-93223055D01*
X132384823Y-93440869D01*
X132425131Y-93516283D01*
X132589689Y-93610606D01*
X133280294Y-92920000D01*
X133619706Y-92920000D01*
X134310311Y-93610606D01*
X134474869Y-93516283D01*
X134571505Y-93304883D01*
X134592537Y-93216026D01*
X134593673Y-93223055D01*
X134674823Y-93440869D01*
X134715131Y-93516283D01*
X134879689Y-93610606D01*
X135570294Y-92920000D01*
X135909706Y-92920000D01*
X136600311Y-93610606D01*
X136764869Y-93516283D01*
X136861505Y-93304883D01*
X136915042Y-93078693D01*
X136919800Y-92946807D01*
X140385717Y-92946807D01*
X140436568Y-93409491D01*
X140576707Y-93853365D01*
X140770963Y-94216792D01*
X141056728Y-94453566D01*
X142590294Y-92920000D01*
X142929706Y-92920000D01*
X144463272Y-94453566D01*
X144749037Y-94216792D01*
X144963810Y-93803833D01*
X145093891Y-93356908D01*
X145134283Y-92893193D01*
X145083432Y-92430509D01*
X144943293Y-91986635D01*
X144749037Y-91623208D01*
X144463272Y-91386434D01*
X142929706Y-92920000D01*
X142590294Y-92920000D01*
X141056728Y-91386434D01*
X140770963Y-91623208D01*
X140556190Y-92036167D01*
X140426109Y-92483092D01*
X140385717Y-92946807D01*
X136919800Y-92946807D01*
X136923423Y-92846405D01*
X136886327Y-92616945D01*
X136805177Y-92399131D01*
X136764869Y-92323717D01*
X136600311Y-92229394D01*
X135909706Y-92920000D01*
X135570294Y-92920000D01*
X134879689Y-92229394D01*
X134715131Y-92323717D01*
X134618495Y-92535117D01*
X134597463Y-92623974D01*
X134596327Y-92616945D01*
X134515177Y-92399131D01*
X134474869Y-92323717D01*
X134310311Y-92229394D01*
X133619706Y-92920000D01*
X133280294Y-92920000D01*
X132589689Y-92229394D01*
X132425131Y-92323717D01*
X132328495Y-92535117D01*
X132307463Y-92623974D01*
X132306327Y-92616945D01*
X132225177Y-92399131D01*
X132184869Y-92323717D01*
X132020311Y-92229394D01*
X131329706Y-92920000D01*
X130990294Y-92920000D01*
X130299689Y-92229394D01*
X130135131Y-92323717D01*
X130038495Y-92535117D01*
X129984958Y-92761307D01*
X129976577Y-92993595D01*
X129960000Y-92993595D01*
X129960000Y-92812644D01*
X129918112Y-92602059D01*
X129835945Y-92403691D01*
X129716658Y-92225166D01*
X129564834Y-92073342D01*
X129544401Y-92059689D01*
X130469394Y-92059689D01*
X131160000Y-92750294D01*
X131850606Y-92059689D01*
X132759394Y-92059689D01*
X133450000Y-92750294D01*
X134140606Y-92059689D01*
X135049394Y-92059689D01*
X135740000Y-92750294D01*
X136430606Y-92059689D01*
X136336283Y-91895131D01*
X136124883Y-91798495D01*
X135898693Y-91744958D01*
X135666405Y-91736577D01*
X135436945Y-91773673D01*
X135219131Y-91854823D01*
X135143717Y-91895131D01*
X135049394Y-92059689D01*
X134140606Y-92059689D01*
X134046283Y-91895131D01*
X133834883Y-91798495D01*
X133608693Y-91744958D01*
X133376405Y-91736577D01*
X133146945Y-91773673D01*
X132929131Y-91854823D01*
X132853717Y-91895131D01*
X132759394Y-92059689D01*
X131850606Y-92059689D01*
X131756283Y-91895131D01*
X131544883Y-91798495D01*
X131318693Y-91744958D01*
X131086405Y-91736577D01*
X130856945Y-91773673D01*
X130639131Y-91854823D01*
X130563717Y-91895131D01*
X130469394Y-92059689D01*
X129544401Y-92059689D01*
X129386309Y-91954055D01*
X129187941Y-91871888D01*
X128977356Y-91830000D01*
X128762644Y-91830000D01*
X128552059Y-91871888D01*
X128353691Y-91954055D01*
X128175166Y-92073342D01*
X128023342Y-92225166D01*
X127904055Y-92403691D01*
X127821888Y-92602059D01*
X127780000Y-92812644D01*
X127757965Y-92812644D01*
X127726327Y-92616945D01*
X127645177Y-92399131D01*
X127604869Y-92323717D01*
X127440311Y-92229394D01*
X126749706Y-92920000D01*
X126410294Y-92920000D01*
X125719689Y-92229394D01*
X125555131Y-92323717D01*
X125458495Y-92535117D01*
X125404958Y-92761307D01*
X125396577Y-92993595D01*
X122475000Y-92993595D01*
X122475000Y-92059689D01*
X125889394Y-92059689D01*
X126580000Y-92750294D01*
X127270606Y-92059689D01*
X127176283Y-91895131D01*
X126964883Y-91798495D01*
X126738693Y-91744958D01*
X126506405Y-91736577D01*
X126276945Y-91773673D01*
X126059131Y-91854823D01*
X125983717Y-91895131D01*
X125889394Y-92059689D01*
X122475000Y-92059689D01*
X122475000Y-90981187D01*
X122623543Y-90832644D01*
X124345000Y-90832644D01*
X124345000Y-91047356D01*
X124386888Y-91257941D01*
X124469055Y-91456309D01*
X124588342Y-91634834D01*
X124740166Y-91786658D01*
X124918691Y-91905945D01*
X125117059Y-91988112D01*
X125327644Y-92030000D01*
X125542356Y-92030000D01*
X125752941Y-91988112D01*
X125951309Y-91905945D01*
X126129834Y-91786658D01*
X126281658Y-91634834D01*
X126400945Y-91456309D01*
X126483112Y-91257941D01*
X126525000Y-91047356D01*
X126525000Y-90832644D01*
X126635000Y-90832644D01*
X126635000Y-91047356D01*
X126676888Y-91257941D01*
X126759055Y-91456309D01*
X126878342Y-91634834D01*
X127030166Y-91786658D01*
X127208691Y-91905945D01*
X127407059Y-91988112D01*
X127617644Y-92030000D01*
X127832356Y-92030000D01*
X128042941Y-91988112D01*
X128241309Y-91905945D01*
X128419834Y-91786658D01*
X128571658Y-91634834D01*
X128690945Y-91456309D01*
X128773112Y-91257941D01*
X128815000Y-91047356D01*
X128815000Y-90832644D01*
X128773112Y-90622059D01*
X128690945Y-90423691D01*
X128571658Y-90245166D01*
X128419834Y-90093342D01*
X128241309Y-89974055D01*
X128042941Y-89891888D01*
X127832356Y-89850000D01*
X127617644Y-89850000D01*
X127407059Y-89891888D01*
X127208691Y-89974055D01*
X127030166Y-90093342D01*
X126878342Y-90245166D01*
X126759055Y-90423691D01*
X126676888Y-90622059D01*
X126635000Y-90832644D01*
X126525000Y-90832644D01*
X126483112Y-90622059D01*
X126400945Y-90423691D01*
X126281658Y-90245166D01*
X126129834Y-90093342D01*
X125951309Y-89974055D01*
X125752941Y-89891888D01*
X125542356Y-89850000D01*
X125327644Y-89850000D01*
X125117059Y-89891888D01*
X124918691Y-89974055D01*
X124740166Y-90093342D01*
X124588342Y-90245166D01*
X124469055Y-90423691D01*
X124386888Y-90622059D01*
X124345000Y-90832644D01*
X122623543Y-90832644D01*
X124071188Y-89385000D01*
X127943813Y-89385000D01*
X128557509Y-89998696D01*
X128677019Y-90131228D01*
X128753278Y-90240617D01*
X128800958Y-90336464D01*
X128830478Y-90428222D01*
X128849086Y-90526857D01*
X128861719Y-90640610D01*
X128873617Y-90769992D01*
X128874457Y-90777740D01*
X128892158Y-90919557D01*
X128894839Y-90936237D01*
X128925531Y-91091977D01*
X128930783Y-91113391D01*
X128953421Y-91190240D01*
X128966888Y-91257941D01*
X129049055Y-91456309D01*
X129168342Y-91634834D01*
X129320166Y-91786658D01*
X129498691Y-91905945D01*
X129697059Y-91988112D01*
X129907644Y-92030000D01*
X130122356Y-92030000D01*
X130332941Y-91988112D01*
X130531309Y-91905945D01*
X130709834Y-91786658D01*
X130861658Y-91634834D01*
X130980945Y-91456309D01*
X131063112Y-91257941D01*
X131105000Y-91047356D01*
X131105000Y-90832644D01*
X131215000Y-90832644D01*
X131215000Y-91047356D01*
X131256888Y-91257941D01*
X131339055Y-91456309D01*
X131458342Y-91634834D01*
X131610166Y-91786658D01*
X131788691Y-91905945D01*
X131987059Y-91988112D01*
X132197644Y-92030000D01*
X132412356Y-92030000D01*
X132622941Y-91988112D01*
X132821309Y-91905945D01*
X132999834Y-91786658D01*
X133151658Y-91634834D01*
X133270945Y-91456309D01*
X133353112Y-91257941D01*
X133395000Y-91047356D01*
X133395000Y-90832644D01*
X133505000Y-90832644D01*
X133505000Y-91047356D01*
X133546888Y-91257941D01*
X133629055Y-91456309D01*
X133748342Y-91634834D01*
X133900166Y-91786658D01*
X134078691Y-91905945D01*
X134277059Y-91988112D01*
X134487644Y-92030000D01*
X134702356Y-92030000D01*
X134912941Y-91988112D01*
X135111309Y-91905945D01*
X135289834Y-91786658D01*
X135441658Y-91634834D01*
X135560945Y-91456309D01*
X135643112Y-91257941D01*
X135651309Y-91216728D01*
X141226434Y-91216728D01*
X142760000Y-92750294D01*
X144293566Y-91216728D01*
X144056792Y-90930963D01*
X143643833Y-90716190D01*
X143196908Y-90586109D01*
X142733193Y-90545717D01*
X142270509Y-90596568D01*
X141826635Y-90736707D01*
X141463208Y-90930963D01*
X141226434Y-91216728D01*
X135651309Y-91216728D01*
X135685000Y-91047356D01*
X135685000Y-90832644D01*
X135643112Y-90622059D01*
X135560945Y-90423691D01*
X135441658Y-90245166D01*
X135289834Y-90093342D01*
X135111309Y-89974055D01*
X134912941Y-89891888D01*
X134702356Y-89850000D01*
X134487644Y-89850000D01*
X134277059Y-89891888D01*
X134078691Y-89974055D01*
X133900166Y-90093342D01*
X133748342Y-90245166D01*
X133629055Y-90423691D01*
X133546888Y-90622059D01*
X133505000Y-90832644D01*
X133395000Y-90832644D01*
X133353112Y-90622059D01*
X133270945Y-90423691D01*
X133151658Y-90245166D01*
X132999834Y-90093342D01*
X132821309Y-89974055D01*
X132622941Y-89891888D01*
X132412356Y-89850000D01*
X132197644Y-89850000D01*
X131987059Y-89891888D01*
X131788691Y-89974055D01*
X131610166Y-90093342D01*
X131458342Y-90245166D01*
X131339055Y-90423691D01*
X131256888Y-90622059D01*
X131215000Y-90832644D01*
X131105000Y-90832644D01*
X131063112Y-90622059D01*
X130980945Y-90423691D01*
X130861658Y-90245166D01*
X130709834Y-90093342D01*
X130531309Y-89974055D01*
X130332941Y-89891888D01*
X130265240Y-89878421D01*
X130188391Y-89855783D01*
X130166977Y-89850531D01*
X130011237Y-89819839D01*
X129994557Y-89817158D01*
X129852740Y-89799457D01*
X129844992Y-89798617D01*
X129715610Y-89786719D01*
X129601857Y-89774086D01*
X129503222Y-89755478D01*
X129411464Y-89725958D01*
X129315617Y-89678278D01*
X129206228Y-89602019D01*
X129073696Y-89482509D01*
X128365779Y-88774592D01*
X128354343Y-88760657D01*
X128298764Y-88715045D01*
X128235355Y-88681152D01*
X128166552Y-88660281D01*
X128112931Y-88655000D01*
X128112929Y-88655000D01*
X128095000Y-88653234D01*
X128077071Y-88655000D01*
X123937929Y-88655000D01*
X123920000Y-88653234D01*
X123902071Y-88655000D01*
X123902069Y-88655000D01*
X123848448Y-88660281D01*
X123800515Y-88674821D01*
X123779644Y-88681152D01*
X123753997Y-88694861D01*
X123716236Y-88715045D01*
X123660657Y-88760657D01*
X123649225Y-88774587D01*
X121864588Y-90559225D01*
X121850657Y-90570658D01*
X121805045Y-90626237D01*
X121771152Y-90689646D01*
X121750281Y-90758449D01*
X121746224Y-90799644D01*
X121743234Y-90830000D01*
X121745000Y-90847929D01*
X121745001Y-100776180D01*
X121742926Y-100841625D01*
X121737938Y-100887401D01*
X121731147Y-100920576D01*
X121722974Y-100946532D01*
X121712301Y-100971511D01*
X121696926Y-101000954D01*
X121675196Y-101038420D01*
X121648537Y-101083439D01*
X121646106Y-101087640D01*
X121616874Y-101139362D01*
X121612328Y-101147795D01*
X121601109Y-101169637D01*
X121587149Y-101190530D01*
X121542673Y-101297903D01*
X121520000Y-101411890D01*
X115169904Y-101411890D01*
X115169848Y-94623272D01*
X116236434Y-94623272D01*
X116473208Y-94909037D01*
X116886167Y-95123810D01*
X117333092Y-95253891D01*
X117796807Y-95294283D01*
X118259491Y-95243432D01*
X118703365Y-95103293D01*
X119066792Y-94909037D01*
X119303566Y-94623272D01*
X117770000Y-93089706D01*
X116236434Y-94623272D01*
X115169848Y-94623272D01*
X115169834Y-92946807D01*
X115395717Y-92946807D01*
X115446568Y-93409491D01*
X115586707Y-93853365D01*
X115780963Y-94216792D01*
X116066728Y-94453566D01*
X117600294Y-92920000D01*
X117939706Y-92920000D01*
X119473272Y-94453566D01*
X119759037Y-94216792D01*
X119973810Y-93803833D01*
X120103891Y-93356908D01*
X120144283Y-92893193D01*
X120093432Y-92430509D01*
X119953293Y-91986635D01*
X119759037Y-91623208D01*
X119473272Y-91386434D01*
X117939706Y-92920000D01*
X117600294Y-92920000D01*
X116066728Y-91386434D01*
X115780963Y-91623208D01*
X115566190Y-92036167D01*
X115436109Y-92483092D01*
X115395717Y-92946807D01*
X115169834Y-92946807D01*
X115169820Y-91216728D01*
X116236434Y-91216728D01*
X117770000Y-92750294D01*
X119303566Y-91216728D01*
X119066792Y-90930963D01*
X118653833Y-90716190D01*
X118206908Y-90586109D01*
X117743193Y-90545717D01*
X117280509Y-90596568D01*
X116836635Y-90736707D01*
X116473208Y-90930963D01*
X116236434Y-91216728D01*
X115169820Y-91216728D01*
X115169800Y-88864192D01*
X115184691Y-88712325D01*
X115224675Y-88579892D01*
X115289621Y-88457748D01*
X115377049Y-88350551D01*
X115483642Y-88262370D01*
X115605326Y-88196575D01*
X115738385Y-88155388D01*
X115876148Y-88140001D01*
X144675808Y-88139800D01*
X144827675Y-88154691D01*
G04 #@! TA.AperFunction,Conductor*
D17*
G36*
X144827675Y-88154691D02*
G01*
X144960108Y-88194675D01*
X145082252Y-88259621D01*
X145189449Y-88347049D01*
X145277630Y-88453642D01*
X145343425Y-88575326D01*
X145384612Y-88708385D01*
X145399999Y-88846149D01*
X145400200Y-113635808D01*
X145385309Y-113787675D01*
X145345325Y-113920108D01*
X145280382Y-114042247D01*
X145192949Y-114149451D01*
X145086359Y-114237630D01*
X144964674Y-114303425D01*
X144831616Y-114344612D01*
X144693852Y-114359999D01*
X115894192Y-114360200D01*
X115742325Y-114345309D01*
X115609892Y-114305325D01*
X115487753Y-114240382D01*
X115380549Y-114152949D01*
X115292370Y-114046359D01*
X115226575Y-113924674D01*
X115185388Y-113791616D01*
X115170001Y-113653851D01*
X115169983Y-111333272D01*
X116236434Y-111333272D01*
X116473208Y-111619037D01*
X116886167Y-111833810D01*
X117333092Y-111963891D01*
X117796807Y-112004283D01*
X118259491Y-111953432D01*
X118703365Y-111813293D01*
X119066792Y-111619037D01*
X119163230Y-111502644D01*
X124595000Y-111502644D01*
X124595000Y-111717356D01*
X124636888Y-111927941D01*
X124719055Y-112126309D01*
X124838342Y-112304834D01*
X124990166Y-112456658D01*
X125168691Y-112575945D01*
X125367059Y-112658112D01*
X125577644Y-112700000D01*
X125792356Y-112700000D01*
X126002941Y-112658112D01*
X126201309Y-112575945D01*
X126379834Y-112456658D01*
X126531658Y-112304834D01*
X126650945Y-112126309D01*
X126733112Y-111927941D01*
X126775000Y-111717356D01*
X126775000Y-111502644D01*
X126885000Y-111502644D01*
X126885000Y-111717356D01*
X126926888Y-111927941D01*
X127009055Y-112126309D01*
X127128342Y-112304834D01*
X127280166Y-112456658D01*
X127458691Y-112575945D01*
X127657059Y-112658112D01*
X127721860Y-112671002D01*
X127797596Y-112693672D01*
X127818926Y-112699005D01*
X127974974Y-112730508D01*
X127991627Y-112733264D01*
X128133721Y-112751676D01*
X128141500Y-112752555D01*
X128271121Y-112765068D01*
X128385312Y-112778236D01*
X128484409Y-112797309D01*
X128576707Y-112827296D01*
X128673151Y-112875504D01*
X128783144Y-112952348D01*
X128916282Y-113072469D01*
X129959225Y-114115413D01*
X129970657Y-114129343D01*
X130026236Y-114174955D01*
X130089645Y-114208848D01*
X130158448Y-114229719D01*
X130212069Y-114235000D01*
X130212071Y-114235000D01*
X130230000Y-114236766D01*
X130247929Y-114235000D01*
X136292071Y-114235000D01*
X136310000Y-114236766D01*
X136327929Y-114235000D01*
X136327931Y-114235000D01*
X136381552Y-114229719D01*
X136450355Y-114208848D01*
X136513764Y-114174955D01*
X136569343Y-114129343D01*
X136580779Y-114115408D01*
X138545418Y-112150770D01*
X138559342Y-112139343D01*
X138604955Y-112083764D01*
X138638848Y-112020355D01*
X138659719Y-111951552D01*
X138665000Y-111897931D01*
X138665000Y-111897929D01*
X138666766Y-111880000D01*
X138665000Y-111862071D01*
X138665000Y-111333272D01*
X141226434Y-111333272D01*
X141463208Y-111619037D01*
X141876167Y-111833810D01*
X142323092Y-111963891D01*
X142786807Y-112004283D01*
X143249491Y-111953432D01*
X143693365Y-111813293D01*
X144056792Y-111619037D01*
X144293566Y-111333272D01*
X142760000Y-109799706D01*
X141226434Y-111333272D01*
X138665000Y-111333272D01*
X138665000Y-109656807D01*
X140385717Y-109656807D01*
X140436568Y-110119491D01*
X140576707Y-110563365D01*
X140770963Y-110926792D01*
X141056728Y-111163566D01*
X142590294Y-109630000D01*
X142929706Y-109630000D01*
X144463272Y-111163566D01*
X144749037Y-110926792D01*
X144963810Y-110513833D01*
X145093891Y-110066908D01*
X145134283Y-109603193D01*
X145083432Y-109140509D01*
X144943293Y-108696635D01*
X144749037Y-108333208D01*
X144463272Y-108096434D01*
X142929706Y-109630000D01*
X142590294Y-109630000D01*
X141056728Y-108096434D01*
X140770963Y-108333208D01*
X140556190Y-108746167D01*
X140426109Y-109193092D01*
X140385717Y-109656807D01*
X138665000Y-109656807D01*
X138665000Y-107926728D01*
X141226434Y-107926728D01*
X142760000Y-109460294D01*
X144293566Y-107926728D01*
X144056792Y-107640963D01*
X143643833Y-107426190D01*
X143196908Y-107296109D01*
X142733193Y-107255717D01*
X142270509Y-107306568D01*
X141826635Y-107446707D01*
X141463208Y-107640963D01*
X141226434Y-107926728D01*
X138665000Y-107926728D01*
X138665000Y-106317928D01*
X138666766Y-106299999D01*
X138665000Y-106282069D01*
X138659719Y-106228448D01*
X138638848Y-106159645D01*
X138624040Y-106131942D01*
X138604954Y-106096234D01*
X138570772Y-106054584D01*
X138559343Y-106040657D01*
X138545413Y-106029225D01*
X136825686Y-104309498D01*
X136832779Y-104296228D01*
X136889617Y-104108858D01*
X136904000Y-103962826D01*
X136904000Y-102357174D01*
X136889617Y-102211142D01*
X136832779Y-102023772D01*
X136740479Y-101851091D01*
X136616265Y-101699735D01*
X136464909Y-101575521D01*
X136292228Y-101483221D01*
X136104858Y-101426383D01*
X135910000Y-101407191D01*
X135715143Y-101426383D01*
X135527773Y-101483221D01*
X135355092Y-101575521D01*
X135203736Y-101699735D01*
X135079522Y-101851091D01*
X134987222Y-102023772D01*
X134930384Y-102211142D01*
X134916001Y-102357174D01*
X134916000Y-103962825D01*
X134930383Y-104108857D01*
X134987221Y-104296227D01*
X135079521Y-104468909D01*
X135203735Y-104620265D01*
X135355091Y-104744479D01*
X135527772Y-104836779D01*
X135715142Y-104893617D01*
X135910000Y-104912809D01*
X136104857Y-104893617D01*
X136292227Y-104836779D01*
X136310712Y-104826899D01*
X137935001Y-106451189D01*
X137935000Y-111728812D01*
X136158813Y-113505000D01*
X130381188Y-113505000D01*
X129432477Y-112556289D01*
X129312807Y-112423614D01*
X129236399Y-112314099D01*
X129188619Y-112218165D01*
X129159057Y-112126391D01*
X129140455Y-112027766D01*
X129127902Y-111914032D01*
X129116189Y-111784600D01*
X129115386Y-111777054D01*
X129097989Y-111635015D01*
X129095386Y-111618532D01*
X129072929Y-111502644D01*
X129175000Y-111502644D01*
X129175000Y-111717356D01*
X129216888Y-111927941D01*
X129299055Y-112126309D01*
X129418342Y-112304834D01*
X129570166Y-112456658D01*
X129748691Y-112575945D01*
X129947059Y-112658112D01*
X130157644Y-112700000D01*
X130372356Y-112700000D01*
X130582941Y-112658112D01*
X130781309Y-112575945D01*
X130959834Y-112456658D01*
X131111658Y-112304834D01*
X131230945Y-112126309D01*
X131313112Y-111927941D01*
X131355000Y-111717356D01*
X131355000Y-111502644D01*
X131465000Y-111502644D01*
X131465000Y-111717356D01*
X131506888Y-111927941D01*
X131589055Y-112126309D01*
X131708342Y-112304834D01*
X131860166Y-112456658D01*
X132038691Y-112575945D01*
X132237059Y-112658112D01*
X132447644Y-112700000D01*
X132662356Y-112700000D01*
X132872941Y-112658112D01*
X133071309Y-112575945D01*
X133249834Y-112456658D01*
X133401658Y-112304834D01*
X133520945Y-112126309D01*
X133603112Y-111927941D01*
X133645000Y-111717356D01*
X133645000Y-111502644D01*
X133755000Y-111502644D01*
X133755000Y-111717356D01*
X133796888Y-111927941D01*
X133879055Y-112126309D01*
X133998342Y-112304834D01*
X134150166Y-112456658D01*
X134328691Y-112575945D01*
X134527059Y-112658112D01*
X134737644Y-112700000D01*
X134952356Y-112700000D01*
X135162941Y-112658112D01*
X135361309Y-112575945D01*
X135539834Y-112456658D01*
X135691658Y-112304834D01*
X135810945Y-112126309D01*
X135893112Y-111927941D01*
X135935000Y-111717356D01*
X135935000Y-111502644D01*
X135893112Y-111292059D01*
X135810945Y-111093691D01*
X135691658Y-110915166D01*
X135539834Y-110763342D01*
X135361309Y-110644055D01*
X135162941Y-110561888D01*
X134952356Y-110520000D01*
X134737644Y-110520000D01*
X134527059Y-110561888D01*
X134328691Y-110644055D01*
X134150166Y-110763342D01*
X133998342Y-110915166D01*
X133879055Y-111093691D01*
X133796888Y-111292059D01*
X133755000Y-111502644D01*
X133645000Y-111502644D01*
X133603112Y-111292059D01*
X133520945Y-111093691D01*
X133401658Y-110915166D01*
X133249834Y-110763342D01*
X133071309Y-110644055D01*
X132872941Y-110561888D01*
X132662356Y-110520000D01*
X132447644Y-110520000D01*
X132237059Y-110561888D01*
X132038691Y-110644055D01*
X131860166Y-110763342D01*
X131708342Y-110915166D01*
X131589055Y-111093691D01*
X131506888Y-111292059D01*
X131465000Y-111502644D01*
X131355000Y-111502644D01*
X131313112Y-111292059D01*
X131230945Y-111093691D01*
X131111658Y-110915166D01*
X130959834Y-110763342D01*
X130781309Y-110644055D01*
X130582941Y-110561888D01*
X130372356Y-110520000D01*
X130157644Y-110520000D01*
X129947059Y-110561888D01*
X129748691Y-110644055D01*
X129570166Y-110763342D01*
X129418342Y-110915166D01*
X129299055Y-111093691D01*
X129216888Y-111292059D01*
X129175000Y-111502644D01*
X129072929Y-111502644D01*
X129065149Y-111462502D01*
X129060014Y-111441242D01*
X129037063Y-111362196D01*
X129023112Y-111292059D01*
X128940945Y-111093691D01*
X128821658Y-110915166D01*
X128669834Y-110763342D01*
X128491309Y-110644055D01*
X128292941Y-110561888D01*
X128082356Y-110520000D01*
X127867644Y-110520000D01*
X127657059Y-110561888D01*
X127458691Y-110644055D01*
X127280166Y-110763342D01*
X127128342Y-110915166D01*
X127009055Y-111093691D01*
X126926888Y-111292059D01*
X126885000Y-111502644D01*
X126775000Y-111502644D01*
X126733112Y-111292059D01*
X126650945Y-111093691D01*
X126531658Y-110915166D01*
X126379834Y-110763342D01*
X126201309Y-110644055D01*
X126002941Y-110561888D01*
X125792356Y-110520000D01*
X125577644Y-110520000D01*
X125367059Y-110561888D01*
X125168691Y-110644055D01*
X124990166Y-110763342D01*
X124838342Y-110915166D01*
X124719055Y-111093691D01*
X124636888Y-111292059D01*
X124595000Y-111502644D01*
X119163230Y-111502644D01*
X119303566Y-111333272D01*
X117770000Y-109799706D01*
X116236434Y-111333272D01*
X115169983Y-111333272D01*
X115169969Y-109656807D01*
X115395717Y-109656807D01*
X115446568Y-110119491D01*
X115586707Y-110563365D01*
X115780963Y-110926792D01*
X116066728Y-111163566D01*
X117600294Y-109630000D01*
X117939706Y-109630000D01*
X119473272Y-111163566D01*
X119759037Y-110926792D01*
X119973810Y-110513833D01*
X119980656Y-110490311D01*
X123849394Y-110490311D01*
X123943717Y-110654869D01*
X124155117Y-110751505D01*
X124381307Y-110805042D01*
X124613595Y-110813423D01*
X124843055Y-110776327D01*
X125060869Y-110695177D01*
X125136283Y-110654869D01*
X125230606Y-110490311D01*
X126139394Y-110490311D01*
X126233717Y-110654869D01*
X126445117Y-110751505D01*
X126671307Y-110805042D01*
X126903595Y-110813423D01*
X127133055Y-110776327D01*
X127350869Y-110695177D01*
X127426283Y-110654869D01*
X127520606Y-110490311D01*
X128429394Y-110490311D01*
X128523717Y-110654869D01*
X128735117Y-110751505D01*
X128961307Y-110805042D01*
X129193595Y-110813423D01*
X129423055Y-110776327D01*
X129640869Y-110695177D01*
X129716283Y-110654869D01*
X129810606Y-110490311D01*
X129120000Y-109799706D01*
X128429394Y-110490311D01*
X127520606Y-110490311D01*
X126830000Y-109799706D01*
X126139394Y-110490311D01*
X125230606Y-110490311D01*
X124540000Y-109799706D01*
X123849394Y-110490311D01*
X119980656Y-110490311D01*
X120103891Y-110066908D01*
X120135537Y-109703595D01*
X123356577Y-109703595D01*
X123393673Y-109933055D01*
X123474823Y-110150869D01*
X123515131Y-110226283D01*
X123679689Y-110320606D01*
X124370294Y-109630000D01*
X124709706Y-109630000D01*
X125400311Y-110320606D01*
X125564869Y-110226283D01*
X125661505Y-110014883D01*
X125682537Y-109926026D01*
X125683673Y-109933055D01*
X125764823Y-110150869D01*
X125805131Y-110226283D01*
X125969689Y-110320606D01*
X126660294Y-109630000D01*
X126999706Y-109630000D01*
X127690311Y-110320606D01*
X127854869Y-110226283D01*
X127951505Y-110014883D01*
X127972537Y-109926026D01*
X127973673Y-109933055D01*
X128054823Y-110150869D01*
X128095131Y-110226283D01*
X128259689Y-110320606D01*
X128950294Y-109630000D01*
X129289706Y-109630000D01*
X129980311Y-110320606D01*
X130144869Y-110226283D01*
X130241505Y-110014883D01*
X130295042Y-109788693D01*
X130303423Y-109556405D01*
X130297965Y-109522644D01*
X130320000Y-109522644D01*
X130320000Y-109737356D01*
X130361888Y-109947941D01*
X130444055Y-110146309D01*
X130563342Y-110324834D01*
X130715166Y-110476658D01*
X130893691Y-110595945D01*
X131092059Y-110678112D01*
X131302644Y-110720000D01*
X131517356Y-110720000D01*
X131727941Y-110678112D01*
X131926309Y-110595945D01*
X132084400Y-110490311D01*
X133009394Y-110490311D01*
X133103717Y-110654869D01*
X133315117Y-110751505D01*
X133541307Y-110805042D01*
X133773595Y-110813423D01*
X134003055Y-110776327D01*
X134220869Y-110695177D01*
X134296283Y-110654869D01*
X134390606Y-110490311D01*
X133700000Y-109799706D01*
X133009394Y-110490311D01*
X132084400Y-110490311D01*
X132104834Y-110476658D01*
X132256658Y-110324834D01*
X132375945Y-110146309D01*
X132458112Y-109947941D01*
X132500000Y-109737356D01*
X132500000Y-109703595D01*
X132516577Y-109703595D01*
X132553673Y-109933055D01*
X132634823Y-110150869D01*
X132675131Y-110226283D01*
X132839689Y-110320606D01*
X133530294Y-109630000D01*
X133869706Y-109630000D01*
X134560311Y-110320606D01*
X134724869Y-110226283D01*
X134821505Y-110014883D01*
X134875042Y-109788693D01*
X134883423Y-109556405D01*
X134846327Y-109326945D01*
X134765177Y-109109131D01*
X134724869Y-109033717D01*
X134560311Y-108939394D01*
X133869706Y-109630000D01*
X133530294Y-109630000D01*
X132839689Y-108939394D01*
X132675131Y-109033717D01*
X132578495Y-109245117D01*
X132524958Y-109471307D01*
X132516577Y-109703595D01*
X132500000Y-109703595D01*
X132500000Y-109522644D01*
X132458112Y-109312059D01*
X132375945Y-109113691D01*
X132256658Y-108935166D01*
X132104834Y-108783342D01*
X132084401Y-108769689D01*
X133009394Y-108769689D01*
X133700000Y-109460294D01*
X134390606Y-108769689D01*
X134367337Y-108729093D01*
X134460117Y-108771505D01*
X134686307Y-108825042D01*
X134918595Y-108833423D01*
X135148055Y-108796327D01*
X135365869Y-108715177D01*
X135441283Y-108674869D01*
X135535606Y-108510311D01*
X134845000Y-107819706D01*
X134154394Y-108510311D01*
X134177663Y-108550907D01*
X134084883Y-108508495D01*
X133858693Y-108454958D01*
X133626405Y-108446577D01*
X133396945Y-108483673D01*
X133179131Y-108564823D01*
X133103717Y-108605131D01*
X133009394Y-108769689D01*
X132084401Y-108769689D01*
X131926309Y-108664055D01*
X131727941Y-108581888D01*
X131517356Y-108540000D01*
X131302644Y-108540000D01*
X131092059Y-108581888D01*
X130893691Y-108664055D01*
X130715166Y-108783342D01*
X130563342Y-108935166D01*
X130444055Y-109113691D01*
X130361888Y-109312059D01*
X130320000Y-109522644D01*
X130297965Y-109522644D01*
X130266327Y-109326945D01*
X130185177Y-109109131D01*
X130144869Y-109033717D01*
X129980311Y-108939394D01*
X129289706Y-109630000D01*
X128950294Y-109630000D01*
X128259689Y-108939394D01*
X128095131Y-109033717D01*
X127998495Y-109245117D01*
X127977463Y-109333974D01*
X127976327Y-109326945D01*
X127895177Y-109109131D01*
X127854869Y-109033717D01*
X127690311Y-108939394D01*
X126999706Y-109630000D01*
X126660294Y-109630000D01*
X125969689Y-108939394D01*
X125805131Y-109033717D01*
X125708495Y-109245117D01*
X125687463Y-109333974D01*
X125686327Y-109326945D01*
X125605177Y-109109131D01*
X125564869Y-109033717D01*
X125400311Y-108939394D01*
X124709706Y-109630000D01*
X124370294Y-109630000D01*
X123679689Y-108939394D01*
X123515131Y-109033717D01*
X123418495Y-109245117D01*
X123364958Y-109471307D01*
X123356577Y-109703595D01*
X120135537Y-109703595D01*
X120144283Y-109603193D01*
X120093432Y-109140509D01*
X119953293Y-108696635D01*
X119759037Y-108333208D01*
X119473272Y-108096434D01*
X117939706Y-109630000D01*
X117600294Y-109630000D01*
X116066728Y-108096434D01*
X115780963Y-108333208D01*
X115566190Y-108746167D01*
X115436109Y-109193092D01*
X115395717Y-109656807D01*
X115169969Y-109656807D01*
X115169956Y-107926728D01*
X116236434Y-107926728D01*
X117770000Y-109460294D01*
X119303566Y-107926728D01*
X119066792Y-107640963D01*
X118653833Y-107426190D01*
X118206908Y-107296109D01*
X117743193Y-107255717D01*
X117280509Y-107306568D01*
X116836635Y-107446707D01*
X116473208Y-107640963D01*
X116236434Y-107926728D01*
X115169956Y-107926728D01*
X115169904Y-101411890D01*
X121520000Y-101411890D01*
X121520000Y-101528110D01*
X121542673Y-101642097D01*
X121587149Y-101749470D01*
X121651717Y-101846103D01*
X121733897Y-101928283D01*
X121830530Y-101992851D01*
X121937903Y-102037327D01*
X122051890Y-102060000D01*
X122168110Y-102060000D01*
X122282097Y-102037327D01*
X122389470Y-101992851D01*
X122486103Y-101928283D01*
X122568283Y-101846103D01*
X122632851Y-101749470D01*
X122677327Y-101642097D01*
X122700000Y-101528110D01*
X122700000Y-101411890D01*
X122677327Y-101297903D01*
X122632851Y-101190530D01*
X122618891Y-101169637D01*
X122607670Y-101147792D01*
X122603125Y-101139362D01*
X122573893Y-101087640D01*
X122571462Y-101083439D01*
X122544803Y-101038420D01*
X122523073Y-101000954D01*
X122507698Y-100971511D01*
X122497025Y-100946532D01*
X122488852Y-100920576D01*
X122482061Y-100887401D01*
X122477075Y-100841638D01*
X122475000Y-100776181D01*
X122475000Y-100250000D01*
X123313234Y-100250000D01*
X123315000Y-100267929D01*
X123315001Y-105622061D01*
X123313234Y-105640000D01*
X123320282Y-105711552D01*
X123341153Y-105780355D01*
X123375046Y-105843764D01*
X123420658Y-105899343D01*
X123434588Y-105910775D01*
X124219644Y-106695832D01*
X124340529Y-106829686D01*
X124418108Y-106940377D01*
X124466880Y-107037385D01*
X124497259Y-107130079D01*
X124516576Y-107229384D01*
X124529837Y-107343690D01*
X124542240Y-107473698D01*
X124543046Y-107480975D01*
X124561084Y-107623814D01*
X124563684Y-107639955D01*
X124593839Y-107793641D01*
X124593839Y-108451175D01*
X124466405Y-108446577D01*
X124236945Y-108483673D01*
X124019131Y-108564823D01*
X123943717Y-108605131D01*
X123849394Y-108769689D01*
X124540000Y-109460294D01*
X125230606Y-108769689D01*
X125214254Y-108741161D01*
X126155746Y-108741161D01*
X126139394Y-108769689D01*
X126830000Y-109460294D01*
X127520606Y-108769689D01*
X128429394Y-108769689D01*
X129120000Y-109460294D01*
X129810606Y-108769689D01*
X129716283Y-108605131D01*
X129504883Y-108508495D01*
X129278693Y-108454958D01*
X129046405Y-108446577D01*
X128816945Y-108483673D01*
X128599131Y-108564823D01*
X128523717Y-108605131D01*
X128429394Y-108769689D01*
X127520606Y-108769689D01*
X127426283Y-108605131D01*
X127214883Y-108508495D01*
X126988693Y-108454958D01*
X126776161Y-108447290D01*
X126776161Y-107542644D01*
X126885000Y-107542644D01*
X126885000Y-107757356D01*
X126926888Y-107967941D01*
X127009055Y-108166309D01*
X127128342Y-108344834D01*
X127280166Y-108496658D01*
X127458691Y-108615945D01*
X127657059Y-108698112D01*
X127867644Y-108740000D01*
X128082356Y-108740000D01*
X128292941Y-108698112D01*
X128491309Y-108615945D01*
X128669834Y-108496658D01*
X128821658Y-108344834D01*
X128940945Y-108166309D01*
X129023112Y-107967941D01*
X129065000Y-107757356D01*
X129065000Y-107542644D01*
X129175000Y-107542644D01*
X129175000Y-107757356D01*
X129216888Y-107967941D01*
X129299055Y-108166309D01*
X129418342Y-108344834D01*
X129570166Y-108496658D01*
X129748691Y-108615945D01*
X129947059Y-108698112D01*
X130157644Y-108740000D01*
X130372356Y-108740000D01*
X130582941Y-108698112D01*
X130781309Y-108615945D01*
X130959834Y-108496658D01*
X131111658Y-108344834D01*
X131230945Y-108166309D01*
X131313112Y-107967941D01*
X131355000Y-107757356D01*
X131355000Y-107542644D01*
X131465000Y-107542644D01*
X131465000Y-107757356D01*
X131506888Y-107967941D01*
X131589055Y-108166309D01*
X131708342Y-108344834D01*
X131860166Y-108496658D01*
X132038691Y-108615945D01*
X132237059Y-108698112D01*
X132447644Y-108740000D01*
X132662356Y-108740000D01*
X132872941Y-108698112D01*
X133071309Y-108615945D01*
X133249834Y-108496658D01*
X133401658Y-108344834D01*
X133520945Y-108166309D01*
X133603112Y-107967941D01*
X133645000Y-107757356D01*
X133645000Y-107723595D01*
X133661577Y-107723595D01*
X133698673Y-107953055D01*
X133779823Y-108170869D01*
X133820131Y-108246283D01*
X133984689Y-108340606D01*
X134675294Y-107650000D01*
X135014706Y-107650000D01*
X135705311Y-108340606D01*
X135869869Y-108246283D01*
X135966505Y-108034883D01*
X136020042Y-107808693D01*
X136028423Y-107576405D01*
X135991327Y-107346945D01*
X135910177Y-107129131D01*
X135869869Y-107053717D01*
X135705311Y-106959394D01*
X135014706Y-107650000D01*
X134675294Y-107650000D01*
X133984689Y-106959394D01*
X133820131Y-107053717D01*
X133723495Y-107265117D01*
X133669958Y-107491307D01*
X133661577Y-107723595D01*
X133645000Y-107723595D01*
X133645000Y-107542644D01*
X133603112Y-107332059D01*
X133520945Y-107133691D01*
X133401658Y-106955166D01*
X133249834Y-106803342D01*
X133229401Y-106789689D01*
X134154394Y-106789689D01*
X134845000Y-107480294D01*
X135535606Y-106789689D01*
X135441283Y-106625131D01*
X135229883Y-106528495D01*
X135003693Y-106474958D01*
X134771405Y-106466577D01*
X134541945Y-106503673D01*
X134324131Y-106584823D01*
X134248717Y-106625131D01*
X134154394Y-106789689D01*
X133229401Y-106789689D01*
X133071309Y-106684055D01*
X132872941Y-106601888D01*
X132662356Y-106560000D01*
X132447644Y-106560000D01*
X132237059Y-106601888D01*
X132038691Y-106684055D01*
X131860166Y-106803342D01*
X131708342Y-106955166D01*
X131589055Y-107133691D01*
X131506888Y-107332059D01*
X131465000Y-107542644D01*
X131355000Y-107542644D01*
X131313112Y-107332059D01*
X131230945Y-107133691D01*
X131111658Y-106955166D01*
X130959834Y-106803342D01*
X130781309Y-106684055D01*
X130582941Y-106601888D01*
X130372356Y-106560000D01*
X130157644Y-106560000D01*
X129947059Y-106601888D01*
X129748691Y-106684055D01*
X129570166Y-106803342D01*
X129418342Y-106955166D01*
X129299055Y-107133691D01*
X129216888Y-107332059D01*
X129175000Y-107542644D01*
X129065000Y-107542644D01*
X129023112Y-107332059D01*
X128940945Y-107133691D01*
X128821658Y-106955166D01*
X128669834Y-106803342D01*
X128491309Y-106684055D01*
X128292941Y-106601888D01*
X128082356Y-106560000D01*
X127867644Y-106560000D01*
X127657059Y-106601888D01*
X127458691Y-106684055D01*
X127280166Y-106803342D01*
X127128342Y-106955166D01*
X127009055Y-107133691D01*
X126926888Y-107332059D01*
X126885000Y-107542644D01*
X126776161Y-107542644D01*
X126776161Y-106800000D01*
X126771527Y-106752952D01*
X126757804Y-106707712D01*
X126735518Y-106666018D01*
X126705527Y-106629473D01*
X126668982Y-106599482D01*
X126627288Y-106577196D01*
X126582048Y-106563473D01*
X126535000Y-106558839D01*
X125831736Y-106558839D01*
X125683418Y-106528549D01*
X125667113Y-106525800D01*
X125524227Y-106506750D01*
X125516721Y-106505869D01*
X125386484Y-106492663D01*
X125271780Y-106478790D01*
X125172020Y-106459001D01*
X125078819Y-106428196D01*
X124981309Y-106378996D01*
X124870147Y-106300983D01*
X124735840Y-106179653D01*
X124045000Y-105488813D01*
X124045000Y-103962825D01*
X129416000Y-103962825D01*
X129430383Y-104108857D01*
X129487221Y-104296227D01*
X129579521Y-104468909D01*
X129703735Y-104620265D01*
X129855091Y-104744479D01*
X130027772Y-104836779D01*
X130215142Y-104893617D01*
X130410000Y-104912809D01*
X130604857Y-104893617D01*
X130792227Y-104836779D01*
X130964909Y-104744479D01*
X131116265Y-104620265D01*
X131240479Y-104468909D01*
X131332779Y-104296228D01*
X131389617Y-104108858D01*
X131404000Y-103962826D01*
X131404000Y-102498737D01*
X131503735Y-102620265D01*
X131655091Y-102744479D01*
X131827772Y-102836779D01*
X132015142Y-102893617D01*
X132210000Y-102912809D01*
X132404857Y-102893617D01*
X132592227Y-102836779D01*
X132764909Y-102744479D01*
X132916265Y-102620265D01*
X133040479Y-102468909D01*
X133132779Y-102296228D01*
X133189617Y-102108858D01*
X133204000Y-101962826D01*
X133204000Y-101280000D01*
X137226000Y-101280000D01*
X137226000Y-102034000D01*
X137270240Y-102243172D01*
X137354437Y-102439694D01*
X137475356Y-102616014D01*
X137628350Y-102765356D01*
X137807539Y-102881981D01*
X138022945Y-102959301D01*
X138190000Y-102908285D01*
X138190000Y-101280000D01*
X138430000Y-101280000D01*
X138430000Y-102908285D01*
X138597055Y-102959301D01*
X138812461Y-102881981D01*
X138991650Y-102765356D01*
X139144644Y-102616014D01*
X139265563Y-102439694D01*
X139349760Y-102243172D01*
X139394000Y-102034000D01*
X139394000Y-101280000D01*
X138430000Y-101280000D01*
X138190000Y-101280000D01*
X137226000Y-101280000D01*
X133204000Y-101280000D01*
X133204000Y-100357174D01*
X133196990Y-100286000D01*
X137226000Y-100286000D01*
X137226000Y-101040000D01*
X138190000Y-101040000D01*
X138190000Y-99411715D01*
X138430000Y-99411715D01*
X138430000Y-101040000D01*
X139394000Y-101040000D01*
X139394000Y-100286000D01*
X139349760Y-100076828D01*
X139265563Y-99880306D01*
X139144644Y-99703986D01*
X138991650Y-99554644D01*
X138812461Y-99438019D01*
X138597055Y-99360699D01*
X138430000Y-99411715D01*
X138190000Y-99411715D01*
X138022945Y-99360699D01*
X137807539Y-99438019D01*
X137628350Y-99554644D01*
X137475356Y-99703986D01*
X137354437Y-99880306D01*
X137270240Y-100076828D01*
X137226000Y-100286000D01*
X133196990Y-100286000D01*
X133189617Y-100211142D01*
X133132779Y-100023772D01*
X133040479Y-99851091D01*
X132916265Y-99699735D01*
X132764909Y-99575521D01*
X132592228Y-99483221D01*
X132404858Y-99426383D01*
X132210000Y-99407191D01*
X132015143Y-99426383D01*
X131827773Y-99483221D01*
X131655092Y-99575521D01*
X131503736Y-99699735D01*
X131379522Y-99851091D01*
X131287222Y-100023772D01*
X131230384Y-100211142D01*
X131216001Y-100357174D01*
X131216000Y-101821263D01*
X131116265Y-101699735D01*
X130964909Y-101575521D01*
X130792228Y-101483221D01*
X130604858Y-101426383D01*
X130410000Y-101407191D01*
X130215143Y-101426383D01*
X130027773Y-101483221D01*
X129855092Y-101575521D01*
X129703736Y-101699735D01*
X129579522Y-101851091D01*
X129487222Y-102023772D01*
X129430384Y-102211142D01*
X129416001Y-102357174D01*
X129416000Y-103962825D01*
X124045000Y-103962825D01*
X124045000Y-101962825D01*
X125716000Y-101962825D01*
X125730383Y-102108857D01*
X125787221Y-102296227D01*
X125879521Y-102468909D01*
X126003735Y-102620265D01*
X126155091Y-102744479D01*
X126327772Y-102836779D01*
X126515142Y-102893617D01*
X126710000Y-102912809D01*
X126904857Y-102893617D01*
X127092227Y-102836779D01*
X127264909Y-102744479D01*
X127416265Y-102620265D01*
X127540479Y-102468909D01*
X127632779Y-102296228D01*
X127689617Y-102108858D01*
X127704000Y-101962826D01*
X127704000Y-100357174D01*
X127689617Y-100211142D01*
X127632779Y-100023772D01*
X127540479Y-99851091D01*
X127416265Y-99699735D01*
X127264909Y-99575521D01*
X127092228Y-99483221D01*
X126904858Y-99426383D01*
X126710000Y-99407191D01*
X126515143Y-99426383D01*
X126327773Y-99483221D01*
X126155092Y-99575521D01*
X126003736Y-99699735D01*
X125879522Y-99851091D01*
X125787222Y-100023772D01*
X125730384Y-100211142D01*
X125716001Y-100357174D01*
X125716000Y-101962825D01*
X124045000Y-101962825D01*
X124045000Y-100401187D01*
X125811188Y-98635000D01*
X133612071Y-98635000D01*
X133630000Y-98636766D01*
X133647929Y-98635000D01*
X133647931Y-98635000D01*
X133701552Y-98629719D01*
X133770355Y-98608848D01*
X133833764Y-98574955D01*
X133889343Y-98529343D01*
X133900779Y-98515408D01*
X134840413Y-97575775D01*
X134854343Y-97564343D01*
X134899955Y-97508764D01*
X134933848Y-97445355D01*
X134954719Y-97376552D01*
X134960000Y-97322931D01*
X134960000Y-97322930D01*
X134961766Y-97305001D01*
X134960000Y-97287072D01*
X134960000Y-96596189D01*
X134969207Y-96417984D01*
X134992632Y-96286710D01*
X135026692Y-96185220D01*
X135070700Y-96099465D01*
X135127285Y-96016567D01*
X135147612Y-95991161D01*
X135445000Y-95991161D01*
X135492048Y-95986527D01*
X135537288Y-95972804D01*
X135578982Y-95950518D01*
X135615527Y-95920527D01*
X135645518Y-95883982D01*
X135667804Y-95842288D01*
X135681527Y-95797048D01*
X135686161Y-95750000D01*
X135686161Y-94623272D01*
X141226434Y-94623272D01*
X141463208Y-94909037D01*
X141876167Y-95123810D01*
X142323092Y-95253891D01*
X142786807Y-95294283D01*
X143249491Y-95243432D01*
X143693365Y-95103293D01*
X144056792Y-94909037D01*
X144293566Y-94623272D01*
X142760000Y-93089706D01*
X141226434Y-94623272D01*
X135686161Y-94623272D01*
X135686161Y-94098825D01*
X135813595Y-94103423D01*
X136043055Y-94066327D01*
X136260869Y-93985177D01*
X136336283Y-93944869D01*
X136430606Y-93780311D01*
X135740000Y-93089706D01*
X135049394Y-93780311D01*
X135065746Y-93808839D01*
X134124254Y-93808839D01*
X134140606Y-93780311D01*
X133450000Y-93089706D01*
X132759394Y-93780311D01*
X132853717Y-93944869D01*
X133065117Y-94041505D01*
X133291307Y-94095042D01*
X133503839Y-94102710D01*
X133503839Y-95750000D01*
X133508473Y-95797048D01*
X133522196Y-95842288D01*
X133544482Y-95883982D01*
X133574473Y-95920527D01*
X133611018Y-95950518D01*
X133652712Y-95972804D01*
X133697952Y-95986527D01*
X133745000Y-95991161D01*
X134042387Y-95991161D01*
X134062714Y-96016567D01*
X134119299Y-96099465D01*
X134163307Y-96185220D01*
X134197367Y-96286710D01*
X134220792Y-96417984D01*
X134230001Y-96596204D01*
X134230001Y-97153811D01*
X133478813Y-97905000D01*
X125677929Y-97905000D01*
X125660000Y-97903234D01*
X125642071Y-97905000D01*
X125642069Y-97905000D01*
X125588448Y-97910281D01*
X125519645Y-97931152D01*
X125456236Y-97965045D01*
X125400657Y-98010657D01*
X125389226Y-98024586D01*
X123434588Y-99979225D01*
X123420657Y-99990658D01*
X123375045Y-100046237D01*
X123341152Y-100109646D01*
X123320281Y-100178449D01*
X123315000Y-100232069D01*
X123313234Y-100250000D01*
X122475000Y-100250000D01*
X122475000Y-96821890D01*
X127470000Y-96821890D01*
X127470000Y-96938110D01*
X127492673Y-97052097D01*
X127537149Y-97159470D01*
X127601717Y-97256103D01*
X127683897Y-97338283D01*
X127780530Y-97402851D01*
X127887903Y-97447327D01*
X128001890Y-97470000D01*
X128118110Y-97470000D01*
X128232097Y-97447327D01*
X128339470Y-97402851D01*
X128360368Y-97388887D01*
X128382208Y-97377669D01*
X128390637Y-97373125D01*
X128442359Y-97343893D01*
X128446560Y-97341462D01*
X128491579Y-97314803D01*
X128529045Y-97293073D01*
X128558488Y-97277698D01*
X128583467Y-97267025D01*
X128609423Y-97258852D01*
X128642598Y-97252061D01*
X128688361Y-97247075D01*
X128753819Y-97245000D01*
X131232071Y-97245000D01*
X131250000Y-97246766D01*
X131267929Y-97245000D01*
X131267931Y-97245000D01*
X131321552Y-97239719D01*
X131390355Y-97218848D01*
X131453764Y-97184955D01*
X131509343Y-97139343D01*
X131520779Y-97125408D01*
X132014192Y-96631995D01*
X132151997Y-96496942D01*
X132269158Y-96387155D01*
X132371246Y-96295876D01*
X132463632Y-96216689D01*
X132551466Y-96143457D01*
X132638784Y-96070951D01*
X132640759Y-96069293D01*
X132730908Y-95992785D01*
X132734610Y-95989578D01*
X132831812Y-95903611D01*
X132836244Y-95899591D01*
X132944914Y-95798543D01*
X132949243Y-95794417D01*
X132994367Y-95750311D01*
X132999834Y-95746658D01*
X133151658Y-95594834D01*
X133270945Y-95416309D01*
X133353112Y-95217941D01*
X133395000Y-95007356D01*
X133395000Y-94792644D01*
X133353112Y-94582059D01*
X133270945Y-94383691D01*
X133151658Y-94205166D01*
X132999834Y-94053342D01*
X132821309Y-93934055D01*
X132622941Y-93851888D01*
X132412356Y-93810000D01*
X132197644Y-93810000D01*
X131987059Y-93851888D01*
X131788691Y-93934055D01*
X131610166Y-94053342D01*
X131458342Y-94205166D01*
X131339055Y-94383691D01*
X131256888Y-94582059D01*
X131215000Y-94792644D01*
X131215000Y-95007356D01*
X131256888Y-95217941D01*
X131339055Y-95416309D01*
X131367696Y-95459174D01*
X131388328Y-95498754D01*
X131392716Y-95506794D01*
X131455158Y-95616186D01*
X131455477Y-95616743D01*
X131512337Y-95715740D01*
X131556539Y-95800270D01*
X131584511Y-95868300D01*
X131596488Y-95918370D01*
X131596976Y-95954523D01*
X131587766Y-95990784D01*
X131559415Y-96042568D01*
X131492055Y-96121758D01*
X131098813Y-96515000D01*
X128753791Y-96515000D01*
X128688374Y-96512926D01*
X128642598Y-96507938D01*
X128609423Y-96501147D01*
X128583467Y-96492974D01*
X128558488Y-96482301D01*
X128529045Y-96466926D01*
X128491579Y-96445196D01*
X128446560Y-96418537D01*
X128442359Y-96416106D01*
X128390637Y-96386874D01*
X128382205Y-96382328D01*
X128360361Y-96371108D01*
X128339470Y-96357149D01*
X128232097Y-96312673D01*
X128118110Y-96290000D01*
X128001890Y-96290000D01*
X127887903Y-96312673D01*
X127780530Y-96357149D01*
X127683897Y-96421717D01*
X127601717Y-96503897D01*
X127537149Y-96600530D01*
X127492673Y-96707903D01*
X127470000Y-96821890D01*
X122475000Y-96821890D01*
X122475000Y-95760311D01*
X124744394Y-95760311D01*
X124838717Y-95924869D01*
X125050117Y-96021505D01*
X125276307Y-96075042D01*
X125508595Y-96083423D01*
X125738055Y-96046327D01*
X125955869Y-95965177D01*
X126031283Y-95924869D01*
X126125606Y-95760311D01*
X125435000Y-95069706D01*
X124744394Y-95760311D01*
X122475000Y-95760311D01*
X122475000Y-94973595D01*
X124251577Y-94973595D01*
X124288673Y-95203055D01*
X124369823Y-95420869D01*
X124410131Y-95496283D01*
X124574689Y-95590606D01*
X125265294Y-94900000D01*
X125604706Y-94900000D01*
X126295311Y-95590606D01*
X126459869Y-95496283D01*
X126556505Y-95284883D01*
X126610042Y-95058693D01*
X126618423Y-94826405D01*
X126612965Y-94792644D01*
X126635000Y-94792644D01*
X126635000Y-95007356D01*
X126676888Y-95217941D01*
X126759055Y-95416309D01*
X126878342Y-95594834D01*
X127030166Y-95746658D01*
X127208691Y-95865945D01*
X127407059Y-95948112D01*
X127617644Y-95990000D01*
X127832356Y-95990000D01*
X128042941Y-95948112D01*
X128241309Y-95865945D01*
X128419834Y-95746658D01*
X128571658Y-95594834D01*
X128690945Y-95416309D01*
X128773112Y-95217941D01*
X128815000Y-95007356D01*
X128815000Y-94792644D01*
X128925000Y-94792644D01*
X128925000Y-95007356D01*
X128966888Y-95217941D01*
X129049055Y-95416309D01*
X129168342Y-95594834D01*
X129320166Y-95746658D01*
X129498691Y-95865945D01*
X129697059Y-95948112D01*
X129907644Y-95990000D01*
X130122356Y-95990000D01*
X130332941Y-95948112D01*
X130531309Y-95865945D01*
X130709834Y-95746658D01*
X130861658Y-95594834D01*
X130980945Y-95416309D01*
X131063112Y-95217941D01*
X131105000Y-95007356D01*
X131105000Y-94792644D01*
X131063112Y-94582059D01*
X130980945Y-94383691D01*
X130861658Y-94205166D01*
X130709834Y-94053342D01*
X130531309Y-93934055D01*
X130332941Y-93851888D01*
X130122356Y-93810000D01*
X129907644Y-93810000D01*
X129697059Y-93851888D01*
X129498691Y-93934055D01*
X129320166Y-94053342D01*
X129168342Y-94205166D01*
X129049055Y-94383691D01*
X128966888Y-94582059D01*
X128925000Y-94792644D01*
X128815000Y-94792644D01*
X128773112Y-94582059D01*
X128690945Y-94383691D01*
X128571658Y-94205166D01*
X128419834Y-94053342D01*
X128241309Y-93934055D01*
X128042941Y-93851888D01*
X127832356Y-93810000D01*
X127617644Y-93810000D01*
X127407059Y-93851888D01*
X127208691Y-93934055D01*
X127030166Y-94053342D01*
X126878342Y-94205166D01*
X126759055Y-94383691D01*
X126676888Y-94582059D01*
X126635000Y-94792644D01*
X126612965Y-94792644D01*
X126581327Y-94596945D01*
X126500177Y-94379131D01*
X126459869Y-94303717D01*
X126295311Y-94209394D01*
X125604706Y-94900000D01*
X125265294Y-94900000D01*
X124574689Y-94209394D01*
X124410131Y-94303717D01*
X124313495Y-94515117D01*
X124259958Y-94741307D01*
X124251577Y-94973595D01*
X122475000Y-94973595D01*
X122475000Y-94039689D01*
X124744394Y-94039689D01*
X125435000Y-94730294D01*
X126125606Y-94039689D01*
X126102337Y-93999093D01*
X126195117Y-94041505D01*
X126421307Y-94095042D01*
X126653595Y-94103423D01*
X126883055Y-94066327D01*
X127100869Y-93985177D01*
X127176283Y-93944869D01*
X127270606Y-93780311D01*
X126580000Y-93089706D01*
X125889394Y-93780311D01*
X125912663Y-93820907D01*
X125819883Y-93778495D01*
X125593693Y-93724958D01*
X125361405Y-93716577D01*
X125131945Y-93753673D01*
X124914131Y-93834823D01*
X124838717Y-93875131D01*
X124744394Y-94039689D01*
X122475000Y-94039689D01*
X122475000Y-92993595D01*
X125396577Y-92993595D01*
X125433673Y-93223055D01*
X125514823Y-93440869D01*
X125555131Y-93516283D01*
X125719689Y-93610606D01*
X126410294Y-92920000D01*
X126749706Y-92920000D01*
X127440311Y-93610606D01*
X127604869Y-93516283D01*
X127701505Y-93304883D01*
X127755042Y-93078693D01*
X127763423Y-92846405D01*
X127757965Y-92812644D01*
X127780000Y-92812644D01*
X127780000Y-93027356D01*
X127821888Y-93237941D01*
X127904055Y-93436309D01*
X128023342Y-93614834D01*
X128175166Y-93766658D01*
X128353691Y-93885945D01*
X128552059Y-93968112D01*
X128762644Y-94010000D01*
X128977356Y-94010000D01*
X129187941Y-93968112D01*
X129386309Y-93885945D01*
X129544400Y-93780311D01*
X130469394Y-93780311D01*
X130563717Y-93944869D01*
X130775117Y-94041505D01*
X131001307Y-94095042D01*
X131233595Y-94103423D01*
X131463055Y-94066327D01*
X131680869Y-93985177D01*
X131756283Y-93944869D01*
X131850606Y-93780311D01*
X131160000Y-93089706D01*
X130469394Y-93780311D01*
X129544400Y-93780311D01*
X129564834Y-93766658D01*
X129716658Y-93614834D01*
X129835945Y-93436309D01*
X129918112Y-93237941D01*
X129960000Y-93027356D01*
X129960000Y-92993595D01*
X129976577Y-92993595D01*
X130013673Y-93223055D01*
X130094823Y-93440869D01*
X130135131Y-93516283D01*
X130299689Y-93610606D01*
X130990294Y-92920000D01*
X131329706Y-92920000D01*
X132020311Y-93610606D01*
X132184869Y-93516283D01*
X132281505Y-93304883D01*
X132302537Y-93216026D01*
X132303673Y-93223055D01*
X132384823Y-93440869D01*
X132425131Y-93516283D01*
X132589689Y-93610606D01*
X133280294Y-92920000D01*
X133619706Y-92920000D01*
X134310311Y-93610606D01*
X134474869Y-93516283D01*
X134571505Y-93304883D01*
X134592537Y-93216026D01*
X134593673Y-93223055D01*
X134674823Y-93440869D01*
X134715131Y-93516283D01*
X134879689Y-93610606D01*
X135570294Y-92920000D01*
X135909706Y-92920000D01*
X136600311Y-93610606D01*
X136764869Y-93516283D01*
X136861505Y-93304883D01*
X136915042Y-93078693D01*
X136919800Y-92946807D01*
X140385717Y-92946807D01*
X140436568Y-93409491D01*
X140576707Y-93853365D01*
X140770963Y-94216792D01*
X141056728Y-94453566D01*
X142590294Y-92920000D01*
X142929706Y-92920000D01*
X144463272Y-94453566D01*
X144749037Y-94216792D01*
X144963810Y-93803833D01*
X145093891Y-93356908D01*
X145134283Y-92893193D01*
X145083432Y-92430509D01*
X144943293Y-91986635D01*
X144749037Y-91623208D01*
X144463272Y-91386434D01*
X142929706Y-92920000D01*
X142590294Y-92920000D01*
X141056728Y-91386434D01*
X140770963Y-91623208D01*
X140556190Y-92036167D01*
X140426109Y-92483092D01*
X140385717Y-92946807D01*
X136919800Y-92946807D01*
X136923423Y-92846405D01*
X136886327Y-92616945D01*
X136805177Y-92399131D01*
X136764869Y-92323717D01*
X136600311Y-92229394D01*
X135909706Y-92920000D01*
X135570294Y-92920000D01*
X134879689Y-92229394D01*
X134715131Y-92323717D01*
X134618495Y-92535117D01*
X134597463Y-92623974D01*
X134596327Y-92616945D01*
X134515177Y-92399131D01*
X134474869Y-92323717D01*
X134310311Y-92229394D01*
X133619706Y-92920000D01*
X133280294Y-92920000D01*
X132589689Y-92229394D01*
X132425131Y-92323717D01*
X132328495Y-92535117D01*
X132307463Y-92623974D01*
X132306327Y-92616945D01*
X132225177Y-92399131D01*
X132184869Y-92323717D01*
X132020311Y-92229394D01*
X131329706Y-92920000D01*
X130990294Y-92920000D01*
X130299689Y-92229394D01*
X130135131Y-92323717D01*
X130038495Y-92535117D01*
X129984958Y-92761307D01*
X129976577Y-92993595D01*
X129960000Y-92993595D01*
X129960000Y-92812644D01*
X129918112Y-92602059D01*
X129835945Y-92403691D01*
X129716658Y-92225166D01*
X129564834Y-92073342D01*
X129544401Y-92059689D01*
X130469394Y-92059689D01*
X131160000Y-92750294D01*
X131850606Y-92059689D01*
X132759394Y-92059689D01*
X133450000Y-92750294D01*
X134140606Y-92059689D01*
X135049394Y-92059689D01*
X135740000Y-92750294D01*
X136430606Y-92059689D01*
X136336283Y-91895131D01*
X136124883Y-91798495D01*
X135898693Y-91744958D01*
X135666405Y-91736577D01*
X135436945Y-91773673D01*
X135219131Y-91854823D01*
X135143717Y-91895131D01*
X135049394Y-92059689D01*
X134140606Y-92059689D01*
X134046283Y-91895131D01*
X133834883Y-91798495D01*
X133608693Y-91744958D01*
X133376405Y-91736577D01*
X133146945Y-91773673D01*
X132929131Y-91854823D01*
X132853717Y-91895131D01*
X132759394Y-92059689D01*
X131850606Y-92059689D01*
X131756283Y-91895131D01*
X131544883Y-91798495D01*
X131318693Y-91744958D01*
X131086405Y-91736577D01*
X130856945Y-91773673D01*
X130639131Y-91854823D01*
X130563717Y-91895131D01*
X130469394Y-92059689D01*
X129544401Y-92059689D01*
X129386309Y-91954055D01*
X129187941Y-91871888D01*
X128977356Y-91830000D01*
X128762644Y-91830000D01*
X128552059Y-91871888D01*
X128353691Y-91954055D01*
X128175166Y-92073342D01*
X128023342Y-92225166D01*
X127904055Y-92403691D01*
X127821888Y-92602059D01*
X127780000Y-92812644D01*
X127757965Y-92812644D01*
X127726327Y-92616945D01*
X127645177Y-92399131D01*
X127604869Y-92323717D01*
X127440311Y-92229394D01*
X126749706Y-92920000D01*
X126410294Y-92920000D01*
X125719689Y-92229394D01*
X125555131Y-92323717D01*
X125458495Y-92535117D01*
X125404958Y-92761307D01*
X125396577Y-92993595D01*
X122475000Y-92993595D01*
X122475000Y-92059689D01*
X125889394Y-92059689D01*
X126580000Y-92750294D01*
X127270606Y-92059689D01*
X127176283Y-91895131D01*
X126964883Y-91798495D01*
X126738693Y-91744958D01*
X126506405Y-91736577D01*
X126276945Y-91773673D01*
X126059131Y-91854823D01*
X125983717Y-91895131D01*
X125889394Y-92059689D01*
X122475000Y-92059689D01*
X122475000Y-90981187D01*
X122623543Y-90832644D01*
X124345000Y-90832644D01*
X124345000Y-91047356D01*
X124386888Y-91257941D01*
X124469055Y-91456309D01*
X124588342Y-91634834D01*
X124740166Y-91786658D01*
X124918691Y-91905945D01*
X125117059Y-91988112D01*
X125327644Y-92030000D01*
X125542356Y-92030000D01*
X125752941Y-91988112D01*
X125951309Y-91905945D01*
X126129834Y-91786658D01*
X126281658Y-91634834D01*
X126400945Y-91456309D01*
X126483112Y-91257941D01*
X126525000Y-91047356D01*
X126525000Y-90832644D01*
X126635000Y-90832644D01*
X126635000Y-91047356D01*
X126676888Y-91257941D01*
X126759055Y-91456309D01*
X126878342Y-91634834D01*
X127030166Y-91786658D01*
X127208691Y-91905945D01*
X127407059Y-91988112D01*
X127617644Y-92030000D01*
X127832356Y-92030000D01*
X128042941Y-91988112D01*
X128241309Y-91905945D01*
X128419834Y-91786658D01*
X128571658Y-91634834D01*
X128690945Y-91456309D01*
X128773112Y-91257941D01*
X128815000Y-91047356D01*
X128815000Y-90832644D01*
X128773112Y-90622059D01*
X128690945Y-90423691D01*
X128571658Y-90245166D01*
X128419834Y-90093342D01*
X128241309Y-89974055D01*
X128042941Y-89891888D01*
X127832356Y-89850000D01*
X127617644Y-89850000D01*
X127407059Y-89891888D01*
X127208691Y-89974055D01*
X127030166Y-90093342D01*
X126878342Y-90245166D01*
X126759055Y-90423691D01*
X126676888Y-90622059D01*
X126635000Y-90832644D01*
X126525000Y-90832644D01*
X126483112Y-90622059D01*
X126400945Y-90423691D01*
X126281658Y-90245166D01*
X126129834Y-90093342D01*
X125951309Y-89974055D01*
X125752941Y-89891888D01*
X125542356Y-89850000D01*
X125327644Y-89850000D01*
X125117059Y-89891888D01*
X124918691Y-89974055D01*
X124740166Y-90093342D01*
X124588342Y-90245166D01*
X124469055Y-90423691D01*
X124386888Y-90622059D01*
X124345000Y-90832644D01*
X122623543Y-90832644D01*
X124071188Y-89385000D01*
X127943813Y-89385000D01*
X128557509Y-89998696D01*
X128677019Y-90131228D01*
X128753278Y-90240617D01*
X128800958Y-90336464D01*
X128830478Y-90428222D01*
X128849086Y-90526857D01*
X128861719Y-90640610D01*
X128873617Y-90769992D01*
X128874457Y-90777740D01*
X128892158Y-90919557D01*
X128894839Y-90936237D01*
X128925531Y-91091977D01*
X128930783Y-91113391D01*
X128953421Y-91190240D01*
X128966888Y-91257941D01*
X129049055Y-91456309D01*
X129168342Y-91634834D01*
X129320166Y-91786658D01*
X129498691Y-91905945D01*
X129697059Y-91988112D01*
X129907644Y-92030000D01*
X130122356Y-92030000D01*
X130332941Y-91988112D01*
X130531309Y-91905945D01*
X130709834Y-91786658D01*
X130861658Y-91634834D01*
X130980945Y-91456309D01*
X131063112Y-91257941D01*
X131105000Y-91047356D01*
X131105000Y-90832644D01*
X131215000Y-90832644D01*
X131215000Y-91047356D01*
X131256888Y-91257941D01*
X131339055Y-91456309D01*
X131458342Y-91634834D01*
X131610166Y-91786658D01*
X131788691Y-91905945D01*
X131987059Y-91988112D01*
X132197644Y-92030000D01*
X132412356Y-92030000D01*
X132622941Y-91988112D01*
X132821309Y-91905945D01*
X132999834Y-91786658D01*
X133151658Y-91634834D01*
X133270945Y-91456309D01*
X133353112Y-91257941D01*
X133395000Y-91047356D01*
X133395000Y-90832644D01*
X133505000Y-90832644D01*
X133505000Y-91047356D01*
X133546888Y-91257941D01*
X133629055Y-91456309D01*
X133748342Y-91634834D01*
X133900166Y-91786658D01*
X134078691Y-91905945D01*
X134277059Y-91988112D01*
X134487644Y-92030000D01*
X134702356Y-92030000D01*
X134912941Y-91988112D01*
X135111309Y-91905945D01*
X135289834Y-91786658D01*
X135441658Y-91634834D01*
X135560945Y-91456309D01*
X135643112Y-91257941D01*
X135651309Y-91216728D01*
X141226434Y-91216728D01*
X142760000Y-92750294D01*
X144293566Y-91216728D01*
X144056792Y-90930963D01*
X143643833Y-90716190D01*
X143196908Y-90586109D01*
X142733193Y-90545717D01*
X142270509Y-90596568D01*
X141826635Y-90736707D01*
X141463208Y-90930963D01*
X141226434Y-91216728D01*
X135651309Y-91216728D01*
X135685000Y-91047356D01*
X135685000Y-90832644D01*
X135643112Y-90622059D01*
X135560945Y-90423691D01*
X135441658Y-90245166D01*
X135289834Y-90093342D01*
X135111309Y-89974055D01*
X134912941Y-89891888D01*
X134702356Y-89850000D01*
X134487644Y-89850000D01*
X134277059Y-89891888D01*
X134078691Y-89974055D01*
X133900166Y-90093342D01*
X133748342Y-90245166D01*
X133629055Y-90423691D01*
X133546888Y-90622059D01*
X133505000Y-90832644D01*
X133395000Y-90832644D01*
X133353112Y-90622059D01*
X133270945Y-90423691D01*
X133151658Y-90245166D01*
X132999834Y-90093342D01*
X132821309Y-89974055D01*
X132622941Y-89891888D01*
X132412356Y-89850000D01*
X132197644Y-89850000D01*
X131987059Y-89891888D01*
X131788691Y-89974055D01*
X131610166Y-90093342D01*
X131458342Y-90245166D01*
X131339055Y-90423691D01*
X131256888Y-90622059D01*
X131215000Y-90832644D01*
X131105000Y-90832644D01*
X131063112Y-90622059D01*
X130980945Y-90423691D01*
X130861658Y-90245166D01*
X130709834Y-90093342D01*
X130531309Y-89974055D01*
X130332941Y-89891888D01*
X130265240Y-89878421D01*
X130188391Y-89855783D01*
X130166977Y-89850531D01*
X130011237Y-89819839D01*
X129994557Y-89817158D01*
X129852740Y-89799457D01*
X129844992Y-89798617D01*
X129715610Y-89786719D01*
X129601857Y-89774086D01*
X129503222Y-89755478D01*
X129411464Y-89725958D01*
X129315617Y-89678278D01*
X129206228Y-89602019D01*
X129073696Y-89482509D01*
X128365779Y-88774592D01*
X128354343Y-88760657D01*
X128298764Y-88715045D01*
X128235355Y-88681152D01*
X128166552Y-88660281D01*
X128112931Y-88655000D01*
X128112929Y-88655000D01*
X128095000Y-88653234D01*
X128077071Y-88655000D01*
X123937929Y-88655000D01*
X123920000Y-88653234D01*
X123902071Y-88655000D01*
X123902069Y-88655000D01*
X123848448Y-88660281D01*
X123800515Y-88674821D01*
X123779644Y-88681152D01*
X123753997Y-88694861D01*
X123716236Y-88715045D01*
X123660657Y-88760657D01*
X123649225Y-88774587D01*
X121864588Y-90559225D01*
X121850657Y-90570658D01*
X121805045Y-90626237D01*
X121771152Y-90689646D01*
X121750281Y-90758449D01*
X121746224Y-90799644D01*
X121743234Y-90830000D01*
X121745000Y-90847929D01*
X121745001Y-100776180D01*
X121742926Y-100841625D01*
X121737938Y-100887401D01*
X121731147Y-100920576D01*
X121722974Y-100946532D01*
X121712301Y-100971511D01*
X121696926Y-101000954D01*
X121675196Y-101038420D01*
X121648537Y-101083439D01*
X121646106Y-101087640D01*
X121616874Y-101139362D01*
X121612328Y-101147795D01*
X121601109Y-101169637D01*
X121587149Y-101190530D01*
X121542673Y-101297903D01*
X121520000Y-101411890D01*
X115169904Y-101411890D01*
X115169848Y-94623272D01*
X116236434Y-94623272D01*
X116473208Y-94909037D01*
X116886167Y-95123810D01*
X117333092Y-95253891D01*
X117796807Y-95294283D01*
X118259491Y-95243432D01*
X118703365Y-95103293D01*
X119066792Y-94909037D01*
X119303566Y-94623272D01*
X117770000Y-93089706D01*
X116236434Y-94623272D01*
X115169848Y-94623272D01*
X115169834Y-92946807D01*
X115395717Y-92946807D01*
X115446568Y-93409491D01*
X115586707Y-93853365D01*
X115780963Y-94216792D01*
X116066728Y-94453566D01*
X117600294Y-92920000D01*
X117939706Y-92920000D01*
X119473272Y-94453566D01*
X119759037Y-94216792D01*
X119973810Y-93803833D01*
X120103891Y-93356908D01*
X120144283Y-92893193D01*
X120093432Y-92430509D01*
X119953293Y-91986635D01*
X119759037Y-91623208D01*
X119473272Y-91386434D01*
X117939706Y-92920000D01*
X117600294Y-92920000D01*
X116066728Y-91386434D01*
X115780963Y-91623208D01*
X115566190Y-92036167D01*
X115436109Y-92483092D01*
X115395717Y-92946807D01*
X115169834Y-92946807D01*
X115169820Y-91216728D01*
X116236434Y-91216728D01*
X117770000Y-92750294D01*
X119303566Y-91216728D01*
X119066792Y-90930963D01*
X118653833Y-90716190D01*
X118206908Y-90586109D01*
X117743193Y-90545717D01*
X117280509Y-90596568D01*
X116836635Y-90736707D01*
X116473208Y-90930963D01*
X116236434Y-91216728D01*
X115169820Y-91216728D01*
X115169800Y-88864192D01*
X115184691Y-88712325D01*
X115224675Y-88579892D01*
X115289621Y-88457748D01*
X115377049Y-88350551D01*
X115483642Y-88262370D01*
X115605326Y-88196575D01*
X115738385Y-88155388D01*
X115876148Y-88140001D01*
X144675808Y-88139800D01*
X144827675Y-88154691D01*
G37*
G04 #@! TD.AperFunction*
D18*
X136576258Y-103484756D02*
X136530118Y-103578000D01*
X136481283Y-103672657D01*
X136481189Y-103672841D01*
X136436831Y-103762358D01*
X136436531Y-103763010D01*
X136399971Y-103848630D01*
X136399510Y-103849891D01*
X136374008Y-103932978D01*
X136373566Y-103934986D01*
X136362382Y-104016903D01*
X136362303Y-104019607D01*
X136368697Y-104101716D01*
X136369283Y-104104661D01*
X136396517Y-104188326D01*
X136397669Y-104190872D01*
X136449001Y-104277454D01*
X136450325Y-104279291D01*
X136521278Y-104361220D01*
X136361703Y-104520795D01*
X136242484Y-104405209D01*
X136242166Y-104404911D01*
X136130466Y-104303816D01*
X136130124Y-104303517D01*
X136031209Y-104220231D01*
X136030894Y-104219975D01*
X135941054Y-104149112D01*
X135940845Y-104148950D01*
X135856366Y-104085123D01*
X135856334Y-104085099D01*
X135773588Y-104022985D01*
X135688936Y-103957257D01*
X135598624Y-103882513D01*
X135498813Y-103793272D01*
X135392827Y-103690939D01*
X135909073Y-102803811D01*
X136576258Y-103484756D01*
G04 #@! TA.AperFunction,Conductor*
D17*
G36*
X136576258Y-103484756D02*
G01*
X136530118Y-103578000D01*
X136481283Y-103672657D01*
X136481189Y-103672841D01*
X136436831Y-103762358D01*
X136436531Y-103763010D01*
X136399971Y-103848630D01*
X136399510Y-103849891D01*
X136374008Y-103932978D01*
X136373566Y-103934986D01*
X136362382Y-104016903D01*
X136362303Y-104019607D01*
X136368697Y-104101716D01*
X136369283Y-104104661D01*
X136396517Y-104188326D01*
X136397669Y-104190872D01*
X136449001Y-104277454D01*
X136450325Y-104279291D01*
X136521278Y-104361220D01*
X136361703Y-104520795D01*
X136242484Y-104405209D01*
X136242166Y-104404911D01*
X136130466Y-104303816D01*
X136130124Y-104303517D01*
X136031209Y-104220231D01*
X136030894Y-104219975D01*
X135941054Y-104149112D01*
X135940845Y-104148950D01*
X135856366Y-104085123D01*
X135856334Y-104085099D01*
X135773588Y-104022985D01*
X135688936Y-103957257D01*
X135598624Y-103882513D01*
X135498813Y-103793272D01*
X135392827Y-103690939D01*
X135909073Y-102803811D01*
X136576258Y-103484756D01*
G37*
G04 #@! TD.AperFunction*
D18*
X128769484Y-111346894D02*
X128817174Y-111511144D01*
X128847216Y-111666171D01*
X128864537Y-111807591D01*
X128876443Y-111939149D01*
X128876468Y-111939397D01*
X128890290Y-112064628D01*
X128890433Y-112065589D01*
X128913522Y-112188003D01*
X128913914Y-112189543D01*
X128953637Y-112312864D01*
X128954357Y-112314632D01*
X129018085Y-112442585D01*
X129019037Y-112444190D01*
X129114138Y-112580499D01*
X129115123Y-112581738D01*
X129240888Y-112721171D01*
X129081171Y-112880888D01*
X128941340Y-112754727D01*
X128940106Y-112753745D01*
X128803458Y-112658279D01*
X128801863Y-112657330D01*
X128673625Y-112593231D01*
X128671871Y-112592513D01*
X128548318Y-112552371D01*
X128546794Y-112551978D01*
X128424197Y-112528382D01*
X128423252Y-112528237D01*
X128297884Y-112513780D01*
X128297649Y-112513755D01*
X128166005Y-112501047D01*
X128024540Y-112482716D01*
X127869506Y-112451418D01*
X127705245Y-112402249D01*
X127688644Y-111321232D01*
X128769484Y-111346894D01*
G04 #@! TA.AperFunction,Conductor*
D17*
G36*
X128769484Y-111346894D02*
G01*
X128817174Y-111511144D01*
X128847216Y-111666171D01*
X128864537Y-111807591D01*
X128876443Y-111939149D01*
X128876468Y-111939397D01*
X128890290Y-112064628D01*
X128890433Y-112065589D01*
X128913522Y-112188003D01*
X128913914Y-112189543D01*
X128953637Y-112312864D01*
X128954357Y-112314632D01*
X129018085Y-112442585D01*
X129019037Y-112444190D01*
X129114138Y-112580499D01*
X129115123Y-112581738D01*
X129240888Y-112721171D01*
X129081171Y-112880888D01*
X128941340Y-112754727D01*
X128940106Y-112753745D01*
X128803458Y-112658279D01*
X128801863Y-112657330D01*
X128673625Y-112593231D01*
X128671871Y-112592513D01*
X128548318Y-112552371D01*
X128546794Y-112551978D01*
X128424197Y-112528382D01*
X128423252Y-112528237D01*
X128297884Y-112513780D01*
X128297649Y-112513755D01*
X128166005Y-112501047D01*
X128024540Y-112482716D01*
X127869506Y-112451418D01*
X127705245Y-112402249D01*
X127688644Y-111321232D01*
X128769484Y-111346894D01*
G37*
G04 #@! TD.AperFunction*
D18*
X124711696Y-106498386D02*
X124712913Y-106499357D01*
X124850373Y-106595826D01*
X124851948Y-106596769D01*
X124980880Y-106661823D01*
X124982615Y-106662543D01*
X125106793Y-106703587D01*
X125108308Y-106703986D01*
X125231503Y-106728424D01*
X125232449Y-106728575D01*
X125358436Y-106743813D01*
X125358680Y-106743840D01*
X125491012Y-106757258D01*
X125633291Y-106776227D01*
X125789289Y-106808085D01*
X125954712Y-106857729D01*
X125971372Y-107938751D01*
X124890523Y-107913149D01*
X124842347Y-107747724D01*
X124811740Y-107591731D01*
X124793781Y-107449518D01*
X124781161Y-107317235D01*
X124781133Y-107316977D01*
X124766531Y-107191119D01*
X124766382Y-107190158D01*
X124742452Y-107067135D01*
X124742054Y-107065605D01*
X124701429Y-106941650D01*
X124700708Y-106939900D01*
X124636024Y-106811242D01*
X124635077Y-106809658D01*
X124538969Y-106672530D01*
X124537994Y-106671307D01*
X124411188Y-106530895D01*
X124570894Y-106371189D01*
X124711696Y-106498386D01*
G04 #@! TA.AperFunction,Conductor*
D17*
G36*
X124711696Y-106498386D02*
G01*
X124712913Y-106499357D01*
X124850373Y-106595826D01*
X124851948Y-106596769D01*
X124980880Y-106661823D01*
X124982615Y-106662543D01*
X125106793Y-106703587D01*
X125108308Y-106703986D01*
X125231503Y-106728424D01*
X125232449Y-106728575D01*
X125358436Y-106743813D01*
X125358680Y-106743840D01*
X125491012Y-106757258D01*
X125633291Y-106776227D01*
X125789289Y-106808085D01*
X125954712Y-106857729D01*
X125971372Y-107938751D01*
X124890523Y-107913149D01*
X124842347Y-107747724D01*
X124811740Y-107591731D01*
X124793781Y-107449518D01*
X124781161Y-107317235D01*
X124781133Y-107316977D01*
X124766531Y-107191119D01*
X124766382Y-107190158D01*
X124742452Y-107067135D01*
X124742054Y-107065605D01*
X124701429Y-106941650D01*
X124700708Y-106939900D01*
X124636024Y-106811242D01*
X124635077Y-106809658D01*
X124538969Y-106672530D01*
X124537994Y-106671307D01*
X124411188Y-106530895D01*
X124570894Y-106371189D01*
X124711696Y-106498386D01*
G37*
G04 #@! TD.AperFunction*
D18*
X135344395Y-95272601D02*
X135262642Y-95422633D01*
X135174799Y-95553595D01*
X135087440Y-95665874D01*
X135003067Y-95767335D01*
X135002915Y-95767521D01*
X134924278Y-95865807D01*
X134923706Y-95866581D01*
X134853532Y-95969388D01*
X134852722Y-95970750D01*
X134793615Y-96085928D01*
X134792874Y-96087685D01*
X134747433Y-96223086D01*
X134746970Y-96224896D01*
X134717799Y-96388370D01*
X134717619Y-96389946D01*
X134707939Y-96577300D01*
X134482061Y-96577300D01*
X134472380Y-96389946D01*
X134472200Y-96388370D01*
X134443029Y-96224896D01*
X134442566Y-96223086D01*
X134397125Y-96087685D01*
X134396384Y-96085928D01*
X134337277Y-95970750D01*
X134336467Y-95969388D01*
X134266293Y-95866581D01*
X134265721Y-95865807D01*
X134187084Y-95767521D01*
X134186932Y-95767335D01*
X134102559Y-95665874D01*
X134015200Y-95553595D01*
X133927357Y-95422633D01*
X133845605Y-95272601D01*
X134595000Y-94493322D01*
X135344395Y-95272601D01*
G04 #@! TA.AperFunction,Conductor*
D17*
G36*
X135344395Y-95272601D02*
G01*
X135262642Y-95422633D01*
X135174799Y-95553595D01*
X135087440Y-95665874D01*
X135003067Y-95767335D01*
X135002915Y-95767521D01*
X134924278Y-95865807D01*
X134923706Y-95866581D01*
X134853532Y-95969388D01*
X134852722Y-95970750D01*
X134793615Y-96085928D01*
X134792874Y-96087685D01*
X134747433Y-96223086D01*
X134746970Y-96224896D01*
X134717799Y-96388370D01*
X134717619Y-96389946D01*
X134707939Y-96577300D01*
X134482061Y-96577300D01*
X134472380Y-96389946D01*
X134472200Y-96388370D01*
X134443029Y-96224896D01*
X134442566Y-96223086D01*
X134397125Y-96087685D01*
X134396384Y-96085928D01*
X134337277Y-95970750D01*
X134336467Y-95969388D01*
X134266293Y-95866581D01*
X134265721Y-95865807D01*
X134187084Y-95767521D01*
X134186932Y-95767335D01*
X134102559Y-95665874D01*
X134015200Y-95553595D01*
X133927357Y-95422633D01*
X133845605Y-95272601D01*
X134595000Y-94493322D01*
X135344395Y-95272601D01*
G37*
G04 #@! TD.AperFunction*
D18*
X132890066Y-95498895D02*
X132772713Y-95613600D01*
X132664299Y-95714410D01*
X132567300Y-95800197D01*
X132477289Y-95876588D01*
X132389838Y-95949205D01*
X132389818Y-95949222D01*
X132300527Y-96023669D01*
X132300395Y-96023780D01*
X132204908Y-96105625D01*
X132204708Y-96105801D01*
X132098610Y-96200666D01*
X132098391Y-96200866D01*
X131977265Y-96314368D01*
X131977060Y-96314565D01*
X131845471Y-96443526D01*
X131685869Y-96283924D01*
X131767810Y-96187593D01*
X131769276Y-96185463D01*
X131824032Y-96085450D01*
X131825201Y-96082477D01*
X131849689Y-95986060D01*
X131850079Y-95982763D01*
X131848806Y-95888298D01*
X131848459Y-95885514D01*
X131825935Y-95791354D01*
X131825329Y-95789479D01*
X131786063Y-95693980D01*
X131785571Y-95692925D01*
X131734071Y-95594440D01*
X131733830Y-95594000D01*
X131674605Y-95490885D01*
X131612295Y-95381723D01*
X131555481Y-95272730D01*
X132302523Y-94495897D01*
X132890066Y-95498895D01*
G04 #@! TA.AperFunction,Conductor*
D17*
G36*
X132890066Y-95498895D02*
G01*
X132772713Y-95613600D01*
X132664299Y-95714410D01*
X132567300Y-95800197D01*
X132477289Y-95876588D01*
X132389838Y-95949205D01*
X132389818Y-95949222D01*
X132300527Y-96023669D01*
X132300395Y-96023780D01*
X132204908Y-96105625D01*
X132204708Y-96105801D01*
X132098610Y-96200666D01*
X132098391Y-96200866D01*
X131977265Y-96314368D01*
X131977060Y-96314565D01*
X131845471Y-96443526D01*
X131685869Y-96283924D01*
X131767810Y-96187593D01*
X131769276Y-96185463D01*
X131824032Y-96085450D01*
X131825201Y-96082477D01*
X131849689Y-95986060D01*
X131850079Y-95982763D01*
X131848806Y-95888298D01*
X131848459Y-95885514D01*
X131825935Y-95791354D01*
X131825329Y-95789479D01*
X131786063Y-95693980D01*
X131785571Y-95692925D01*
X131734071Y-95594440D01*
X131733830Y-95594000D01*
X131674605Y-95490885D01*
X131612295Y-95381723D01*
X131555481Y-95272730D01*
X132302523Y-94495897D01*
X132890066Y-95498895D01*
G37*
G04 #@! TD.AperFunction*
D18*
X128266532Y-96607000D02*
X128317895Y-96636029D01*
X128363835Y-96663233D01*
X128363934Y-96663291D01*
X128406859Y-96688187D01*
X128407352Y-96688458D01*
X128449749Y-96710598D01*
X128450638Y-96711020D01*
X128495088Y-96730013D01*
X128496264Y-96730448D01*
X128545346Y-96745902D01*
X128546613Y-96746230D01*
X128602907Y-96757753D01*
X128604078Y-96757936D01*
X128670164Y-96765137D01*
X128671137Y-96765206D01*
X128737300Y-96767304D01*
X128737300Y-96992696D01*
X128671138Y-96994793D01*
X128670164Y-96994862D01*
X128604078Y-97002063D01*
X128602907Y-97002246D01*
X128546613Y-97013769D01*
X128545346Y-97014097D01*
X128496264Y-97029551D01*
X128495088Y-97029986D01*
X128450638Y-97048979D01*
X128449749Y-97049401D01*
X128407352Y-97071541D01*
X128406859Y-97071812D01*
X128363934Y-97096708D01*
X128363835Y-97096766D01*
X128317895Y-97123970D01*
X128266532Y-97152999D01*
X128214826Y-97179559D01*
X127903322Y-96880000D01*
X128214826Y-96580441D01*
X128266532Y-96607000D01*
G04 #@! TA.AperFunction,Conductor*
D17*
G36*
X128266532Y-96607000D02*
G01*
X128317895Y-96636029D01*
X128363835Y-96663233D01*
X128363934Y-96663291D01*
X128406859Y-96688187D01*
X128407352Y-96688458D01*
X128449749Y-96710598D01*
X128450638Y-96711020D01*
X128495088Y-96730013D01*
X128496264Y-96730448D01*
X128545346Y-96745902D01*
X128546613Y-96746230D01*
X128602907Y-96757753D01*
X128604078Y-96757936D01*
X128670164Y-96765137D01*
X128671137Y-96765206D01*
X128737300Y-96767304D01*
X128737300Y-96992696D01*
X128671138Y-96994793D01*
X128670164Y-96994862D01*
X128604078Y-97002063D01*
X128602907Y-97002246D01*
X128546613Y-97013769D01*
X128545346Y-97014097D01*
X128496264Y-97029551D01*
X128495088Y-97029986D01*
X128450638Y-97048979D01*
X128449749Y-97049401D01*
X128407352Y-97071541D01*
X128406859Y-97071812D01*
X128363934Y-97096708D01*
X128363835Y-97096766D01*
X128317895Y-97123970D01*
X128266532Y-97152999D01*
X128214826Y-97179559D01*
X127903322Y-96880000D01*
X128214826Y-96580441D01*
X128266532Y-96607000D01*
G37*
G04 #@! TD.AperFunction*
D18*
X129048154Y-89799745D02*
X129049396Y-89800731D01*
X129185617Y-89895696D01*
X129187224Y-89896649D01*
X129315098Y-89960261D01*
X129316865Y-89960980D01*
X129440104Y-90000628D01*
X129441639Y-90001018D01*
X129563954Y-90024093D01*
X129564906Y-90024235D01*
X129690009Y-90038129D01*
X129690248Y-90038154D01*
X129821664Y-90050239D01*
X129962816Y-90067857D01*
X130117544Y-90098349D01*
X130281433Y-90146628D01*
X130302564Y-91227564D01*
X129221628Y-91206433D01*
X129173349Y-91042544D01*
X129142857Y-90887816D01*
X129125239Y-90746664D01*
X129113154Y-90615248D01*
X129113129Y-90615009D01*
X129099235Y-90489906D01*
X129099093Y-90488954D01*
X129076018Y-90366639D01*
X129075628Y-90365104D01*
X129035980Y-90241865D01*
X129035261Y-90240098D01*
X128971649Y-90112224D01*
X128970696Y-90110617D01*
X128875731Y-89974396D01*
X128874745Y-89973154D01*
X128749110Y-89833831D01*
X128908831Y-89674110D01*
X129048154Y-89799745D01*
G04 #@! TA.AperFunction,Conductor*
D17*
G36*
X129048154Y-89799745D02*
G01*
X129049396Y-89800731D01*
X129185617Y-89895696D01*
X129187224Y-89896649D01*
X129315098Y-89960261D01*
X129316865Y-89960980D01*
X129440104Y-90000628D01*
X129441639Y-90001018D01*
X129563954Y-90024093D01*
X129564906Y-90024235D01*
X129690009Y-90038129D01*
X129690248Y-90038154D01*
X129821664Y-90050239D01*
X129962816Y-90067857D01*
X130117544Y-90098349D01*
X130281433Y-90146628D01*
X130302564Y-91227564D01*
X129221628Y-91206433D01*
X129173349Y-91042544D01*
X129142857Y-90887816D01*
X129125239Y-90746664D01*
X129113154Y-90615248D01*
X129113129Y-90615009D01*
X129099235Y-90489906D01*
X129099093Y-90488954D01*
X129076018Y-90366639D01*
X129075628Y-90365104D01*
X129035980Y-90241865D01*
X129035261Y-90240098D01*
X128971649Y-90112224D01*
X128970696Y-90110617D01*
X128875731Y-89974396D01*
X128874745Y-89973154D01*
X128749110Y-89833831D01*
X128908831Y-89674110D01*
X129048154Y-89799745D01*
G37*
G04 #@! TD.AperFunction*
D18*
X122224793Y-100858861D02*
X122224862Y-100859835D01*
X122232063Y-100925921D01*
X122232246Y-100927092D01*
X122243769Y-100983386D01*
X122244097Y-100984653D01*
X122259551Y-101033735D01*
X122259986Y-101034911D01*
X122278979Y-101079361D01*
X122279401Y-101080250D01*
X122301541Y-101122647D01*
X122301812Y-101123140D01*
X122326708Y-101166065D01*
X122326766Y-101166164D01*
X122353970Y-101212104D01*
X122382999Y-101263467D01*
X122409559Y-101315174D01*
X122110000Y-101626678D01*
X121810441Y-101315174D01*
X121837000Y-101263467D01*
X121866029Y-101212104D01*
X121893233Y-101166164D01*
X121893291Y-101166065D01*
X121918187Y-101123140D01*
X121918458Y-101122647D01*
X121940598Y-101080250D01*
X121941020Y-101079361D01*
X121960013Y-101034911D01*
X121960448Y-101033735D01*
X121975902Y-100984653D01*
X121976230Y-100983386D01*
X121987753Y-100927092D01*
X121987936Y-100925921D01*
X121995137Y-100859835D01*
X121995206Y-100858862D01*
X121997304Y-100792700D01*
X122222696Y-100792700D01*
X122224793Y-100858861D01*
G04 #@! TA.AperFunction,Conductor*
D17*
G36*
X122224793Y-100858861D02*
G01*
X122224862Y-100859835D01*
X122232063Y-100925921D01*
X122232246Y-100927092D01*
X122243769Y-100983386D01*
X122244097Y-100984653D01*
X122259551Y-101033735D01*
X122259986Y-101034911D01*
X122278979Y-101079361D01*
X122279401Y-101080250D01*
X122301541Y-101122647D01*
X122301812Y-101123140D01*
X122326708Y-101166065D01*
X122326766Y-101166164D01*
X122353970Y-101212104D01*
X122382999Y-101263467D01*
X122409559Y-101315174D01*
X122110000Y-101626678D01*
X121810441Y-101315174D01*
X121837000Y-101263467D01*
X121866029Y-101212104D01*
X121893233Y-101166164D01*
X121893291Y-101166065D01*
X121918187Y-101123140D01*
X121918458Y-101122647D01*
X121940598Y-101080250D01*
X121941020Y-101079361D01*
X121960013Y-101034911D01*
X121960448Y-101033735D01*
X121975902Y-100984653D01*
X121976230Y-100983386D01*
X121987753Y-100927092D01*
X121987936Y-100925921D01*
X121995137Y-100859835D01*
X121995206Y-100858862D01*
X121997304Y-100792700D01*
X122222696Y-100792700D01*
X122224793Y-100858861D01*
G37*
G04 #@! TD.AperFunction*
M02*
