M48
; DRILL file {KiCad (5.1.10-1-10_14)} date Monday, October 04, 2021 at 12:45:17 PM
; FORMAT={-:-/ absolute / inch / decimal}
; #@! TF.CreationDate,2021-10-04T12:45:17-04:00
; #@! TF.GenerationSoftware,Kicad,Pcbnew,(5.1.10-1-10_14)
FMAT,2
INCH
T1C0.0118
T2C0.0394
T3C0.1260
%
G90
G05
T1
X4.635Y-4.4535
X4.6378Y-3.5201
X4.7528Y-3.7906
X4.7528Y-4.1768
X4.8669Y-3.6539
X4.8669Y-3.9933
X4.8669Y-4.398
X4.9831Y-4.4693
X4.9909Y-4.1173
X5.0417Y-3.8142
X5.0783Y-4.1173
X5.1736Y-4.448
X5.226Y-4.1161
X5.239Y-3.8157
X5.3472Y-4.3146
X5.3949Y-3.7453
X5.4094Y-4.4035
X5.4988Y-4.1539
X5.5406Y-3.8413
X5.622Y-3.5201
X5.622Y-4.4535
X5.6488Y-4.1217
T2
X4.9031Y-4.3161
X4.9384Y-3.5803
X4.9384Y-3.7362
X4.9482Y-4.2382
X4.9482Y-4.3941
X4.9835Y-3.6583
X4.9933Y-4.3161
X5.0285Y-3.5803
X5.0285Y-3.7362
X5.0384Y-4.2382
X5.0384Y-4.3941
X5.0736Y-3.6583
X5.0835Y-4.3161
X5.1187Y-3.5803
X5.1187Y-3.7362
X5.1285Y-4.2382
X5.1285Y-4.3941
X5.1638Y-3.6583
X5.1736Y-4.3161
X5.2089Y-3.5803
X5.2089Y-3.7362
X5.2187Y-4.2382
X5.2187Y-4.3941
X5.2539Y-3.6583
X5.2638Y-4.3161
X5.299Y-3.5803
X5.299Y-3.7362
X5.3089Y-4.2382
X5.3089Y-4.3941
X5.3441Y-3.6583
T3
X4.6366Y-3.6583
X4.6366Y-4.3161
X5.6205Y-3.6583
X5.6205Y-4.3161
T2
G00X5.1854Y-4.0024
M15
G01X5.1854Y-3.963
M16
G05
G00X5.3311Y-4.0811
M15
G01X5.3311Y-4.0417
M16
G05
G00X5.402Y-4.0024
M15
G01X5.402Y-3.963
M16
G05
G00X5.5476Y-4.0811
M15
G01X5.5476Y-4.0417
M16
G05
G00X5.6421Y-4.0024
M15
G01X5.6421Y-3.963
M16
G05
T0
M30
