G04 #@! TF.GenerationSoftware,KiCad,Pcbnew,(5.1.10-1-10_14)*
G04 #@! TF.CreationDate,2021-10-04T12:45:14-04:00*
G04 #@! TF.ProjectId,MVX_Audio_Separator,4d56585f-4175-4646-996f-5f5365706172,1*
G04 #@! TF.SameCoordinates,Original*
G04 #@! TF.FileFunction,Copper,L1,Top*
G04 #@! TF.FilePolarity,Positive*
%FSLAX46Y46*%
G04 Gerber Fmt 4.6, Leading zero omitted, Abs format (unit mm)*
G04 Created by KiCad (PCBNEW (5.1.10-1-10_14)) date 2021-10-04 12:45:14*
%MOMM*%
%LPD*%
G01*
G04 APERTURE LIST*
G04 #@! TA.AperFunction,ComponentPad*
%ADD10O,1.508000X3.016000*%
G04 #@! TD*
G04 #@! TA.AperFunction,ComponentPad*
%ADD11C,1.700000*%
G04 #@! TD*
G04 #@! TA.AperFunction,ComponentPad*
%ADD12C,4.066000*%
G04 #@! TD*
G04 #@! TA.AperFunction,ComponentPad*
%ADD13R,1.700000X1.700000*%
G04 #@! TD*
G04 #@! TA.AperFunction,ViaPad*
%ADD14C,0.700000*%
G04 #@! TD*
G04 #@! TA.AperFunction,Conductor*
%ADD15C,0.250000*%
G04 #@! TD*
G04 #@! TA.AperFunction,Conductor*
%ADD16C,0.160000*%
G04 #@! TD*
G04 #@! TA.AperFunction,Conductor*
%ADD17C,0.152400*%
G04 #@! TD*
G04 #@! TA.AperFunction,Conductor*
%ADD18C,0.025400*%
G04 #@! TD*
G04 APERTURE END LIST*
D10*
X143310000Y-101160000D03*
X140910000Y-103160000D03*
X137210000Y-101160000D03*
X135410000Y-103160000D03*
X131710000Y-101160000D03*
D11*
X134845000Y-111610000D03*
X132555000Y-111610000D03*
X130265000Y-111610000D03*
X127975000Y-111610000D03*
X125685000Y-111610000D03*
X133700000Y-109630000D03*
X131410000Y-109630000D03*
X129120000Y-109630000D03*
X126830000Y-109630000D03*
X124540000Y-109630000D03*
X134845000Y-107650000D03*
X132555000Y-107650000D03*
X130265000Y-107650000D03*
X127975000Y-107650000D03*
D12*
X142760000Y-109630000D03*
X117770000Y-109630000D03*
D13*
X125685000Y-107650000D03*
D11*
X134595000Y-90940000D03*
X132305000Y-90940000D03*
X130015000Y-90940000D03*
X127725000Y-90940000D03*
X125435000Y-90940000D03*
X135740000Y-92920000D03*
X133450000Y-92920000D03*
X131160000Y-92920000D03*
X128870000Y-92920000D03*
X126580000Y-92920000D03*
D13*
X134595000Y-94900000D03*
D11*
X132305000Y-94900000D03*
X130015000Y-94900000D03*
X127725000Y-94900000D03*
D12*
X142760000Y-92920000D03*
X117770000Y-92920000D03*
D11*
X125435000Y-94900000D03*
D14*
X140730000Y-97570000D03*
X137030000Y-95130000D03*
X120720000Y-96280000D03*
X123620000Y-92810000D03*
X123620000Y-111710000D03*
X126770000Y-104580000D03*
X128990000Y-104580000D03*
X135820000Y-109590000D03*
X137400000Y-111850000D03*
X143480000Y-104690000D03*
X132740000Y-104550000D03*
X133070000Y-96920000D03*
X120720000Y-106090000D03*
X123620000Y-101430000D03*
X131410000Y-112980000D03*
X139670000Y-105510000D03*
X142800000Y-113120000D03*
X117730000Y-113120000D03*
X142800000Y-89410000D03*
X117800000Y-89410000D03*
X128060000Y-96880000D03*
X126570000Y-113520000D03*
D15*
X139700000Y-112720000D02*
X139700000Y-107630000D01*
X138550000Y-113870000D02*
X139700000Y-112720000D01*
X128930000Y-113870000D02*
X138550000Y-113870000D01*
X127975000Y-112915000D02*
X128930000Y-113870000D01*
X140780000Y-106550000D02*
X140780000Y-104400000D01*
X139700000Y-107630000D02*
X140780000Y-106550000D01*
X127975000Y-111610000D02*
X127975000Y-112915000D01*
X125670000Y-103370000D02*
X125670000Y-107630000D01*
X130770000Y-98270000D02*
X125670000Y-103370000D01*
X133630000Y-98270000D02*
X130770000Y-98270000D01*
X134595000Y-97305000D02*
X133630000Y-98270000D01*
X134595000Y-94900000D02*
X134595000Y-97305000D01*
X132305000Y-94900000D02*
X132305000Y-95825000D01*
X132305000Y-95825000D02*
X131250000Y-96880000D01*
X131250000Y-96880000D02*
X128060000Y-96880000D01*
X126570000Y-113520000D02*
X126570000Y-113520000D01*
X123460000Y-113520000D02*
X126570000Y-113520000D01*
X122110000Y-90120000D02*
X122110000Y-112170000D01*
X128380000Y-89020000D02*
X123210000Y-89020000D01*
X123210000Y-89020000D02*
X122110000Y-90120000D01*
X130015000Y-90655000D02*
X128380000Y-89020000D01*
X122110000Y-112170000D02*
X123460000Y-113520000D01*
X130015000Y-90940000D02*
X130015000Y-90655000D01*
D16*
X144867674Y-88114890D02*
X145000107Y-88154874D01*
X145122251Y-88219820D01*
X145229448Y-88307248D01*
X145317629Y-88413841D01*
X145383424Y-88535525D01*
X145424611Y-88668584D01*
X145439998Y-88806346D01*
X145440001Y-113685805D01*
X145425110Y-113837674D01*
X145385126Y-113970107D01*
X145320183Y-114092246D01*
X145232750Y-114199450D01*
X145126160Y-114287629D01*
X145004475Y-114353424D01*
X144871417Y-114394611D01*
X144733654Y-114409998D01*
X115844195Y-114410001D01*
X115692326Y-114395110D01*
X115559893Y-114355126D01*
X115437754Y-114290183D01*
X115330550Y-114202750D01*
X115242371Y-114096160D01*
X115176576Y-113974475D01*
X115135389Y-113841417D01*
X115120002Y-113703654D01*
X115120002Y-111282149D01*
X116181490Y-111282149D01*
X116410999Y-111577063D01*
X116816966Y-111804779D01*
X117259556Y-111948919D01*
X117721763Y-112003944D01*
X118185823Y-111967740D01*
X118633903Y-111841698D01*
X119048785Y-111630662D01*
X119129001Y-111577063D01*
X119358510Y-111282149D01*
X117770000Y-109693640D01*
X116181490Y-111282149D01*
X115120002Y-111282149D01*
X115120002Y-109581763D01*
X115396056Y-109581763D01*
X115432260Y-110045823D01*
X115558302Y-110493903D01*
X115769338Y-110908785D01*
X115822937Y-110989001D01*
X116117851Y-111218510D01*
X117706360Y-109630000D01*
X117833640Y-109630000D01*
X119422149Y-111218510D01*
X119717063Y-110989001D01*
X119944779Y-110583034D01*
X120088919Y-110140444D01*
X120143944Y-109678237D01*
X120107740Y-109214177D01*
X119981698Y-108766097D01*
X119770662Y-108351215D01*
X119717063Y-108270999D01*
X119422149Y-108041490D01*
X117833640Y-109630000D01*
X117706360Y-109630000D01*
X116117851Y-108041490D01*
X115822937Y-108270999D01*
X115595221Y-108676966D01*
X115451081Y-109119556D01*
X115396056Y-109581763D01*
X115120002Y-109581763D01*
X115120002Y-107977851D01*
X116181490Y-107977851D01*
X117770000Y-109566360D01*
X119358510Y-107977851D01*
X119129001Y-107682937D01*
X118723034Y-107455221D01*
X118280444Y-107311081D01*
X117818237Y-107256056D01*
X117354177Y-107292260D01*
X116906097Y-107418302D01*
X116491215Y-107629338D01*
X116410999Y-107682937D01*
X116181490Y-107977851D01*
X115120002Y-107977851D01*
X115120001Y-94572149D01*
X116181490Y-94572149D01*
X116410999Y-94867063D01*
X116816966Y-95094779D01*
X117259556Y-95238919D01*
X117721763Y-95293944D01*
X118185823Y-95257740D01*
X118633903Y-95131698D01*
X119048785Y-94920662D01*
X119129001Y-94867063D01*
X119358510Y-94572149D01*
X117770000Y-92983640D01*
X116181490Y-94572149D01*
X115120001Y-94572149D01*
X115120000Y-92871763D01*
X115396056Y-92871763D01*
X115432260Y-93335823D01*
X115558302Y-93783903D01*
X115769338Y-94198785D01*
X115822937Y-94279001D01*
X116117851Y-94508510D01*
X117706360Y-92920000D01*
X117833640Y-92920000D01*
X119422149Y-94508510D01*
X119717063Y-94279001D01*
X119944779Y-93873034D01*
X120088919Y-93430444D01*
X120143944Y-92968237D01*
X120107740Y-92504177D01*
X119981698Y-92056097D01*
X119770662Y-91641215D01*
X119717063Y-91560999D01*
X119422149Y-91331490D01*
X117833640Y-92920000D01*
X117706360Y-92920000D01*
X116117851Y-91331490D01*
X115822937Y-91560999D01*
X115595221Y-91966966D01*
X115451081Y-92409556D01*
X115396056Y-92871763D01*
X115120000Y-92871763D01*
X115120000Y-91267851D01*
X116181490Y-91267851D01*
X117770000Y-92856360D01*
X119358510Y-91267851D01*
X119129001Y-90972937D01*
X118723034Y-90745221D01*
X118280444Y-90601081D01*
X117818237Y-90546056D01*
X117354177Y-90582260D01*
X116906097Y-90708302D01*
X116491215Y-90919338D01*
X116410999Y-90972937D01*
X116181490Y-91267851D01*
X115120000Y-91267851D01*
X115120000Y-90120000D01*
X121743234Y-90120000D01*
X121745000Y-90137929D01*
X121745001Y-112152061D01*
X121743234Y-112170000D01*
X121750282Y-112241552D01*
X121771153Y-112310355D01*
X121805046Y-112373764D01*
X121850658Y-112429343D01*
X121864587Y-112440775D01*
X123189225Y-113765413D01*
X123200657Y-113779343D01*
X123230842Y-113804115D01*
X123256234Y-113824954D01*
X123256236Y-113824955D01*
X123319645Y-113858848D01*
X123388448Y-113879719D01*
X123442069Y-113885000D01*
X123442070Y-113885000D01*
X123459999Y-113886766D01*
X123477928Y-113885000D01*
X125876181Y-113885000D01*
X125941638Y-113887075D01*
X125987401Y-113892061D01*
X126020576Y-113898852D01*
X126046532Y-113907025D01*
X126071511Y-113917698D01*
X126100954Y-113933073D01*
X126138420Y-113954803D01*
X126183439Y-113981462D01*
X126187640Y-113983893D01*
X126239362Y-114013125D01*
X126247792Y-114017670D01*
X126269637Y-114028891D01*
X126290530Y-114042851D01*
X126397903Y-114087327D01*
X126511890Y-114110000D01*
X126628110Y-114110000D01*
X126742097Y-114087327D01*
X126849470Y-114042851D01*
X126946103Y-113978283D01*
X127028283Y-113896103D01*
X127092851Y-113799470D01*
X127137327Y-113692097D01*
X127160000Y-113578110D01*
X127160000Y-113461890D01*
X127137327Y-113347903D01*
X127092851Y-113240530D01*
X127028283Y-113143897D01*
X126946103Y-113061717D01*
X126849470Y-112997149D01*
X126742097Y-112952673D01*
X126628110Y-112930000D01*
X126511890Y-112930000D01*
X126397903Y-112952673D01*
X126290530Y-112997149D01*
X126269637Y-113011109D01*
X126247795Y-113022328D01*
X126239362Y-113026874D01*
X126187640Y-113056106D01*
X126183439Y-113058537D01*
X126138420Y-113085196D01*
X126100954Y-113106926D01*
X126071511Y-113122301D01*
X126046532Y-113132974D01*
X126020576Y-113141147D01*
X125987401Y-113147938D01*
X125941625Y-113152926D01*
X125876209Y-113155000D01*
X123611188Y-113155000D01*
X122475000Y-112018813D01*
X122475000Y-111502644D01*
X124595000Y-111502644D01*
X124595000Y-111717356D01*
X124636888Y-111927941D01*
X124719055Y-112126309D01*
X124838342Y-112304834D01*
X124990166Y-112456658D01*
X125168691Y-112575945D01*
X125367059Y-112658112D01*
X125577644Y-112700000D01*
X125792356Y-112700000D01*
X126002941Y-112658112D01*
X126201309Y-112575945D01*
X126379834Y-112456658D01*
X126531658Y-112304834D01*
X126650945Y-112126309D01*
X126733112Y-111927941D01*
X126775000Y-111717356D01*
X126775000Y-111502644D01*
X126885000Y-111502644D01*
X126885000Y-111717356D01*
X126926888Y-111927941D01*
X127009055Y-112126309D01*
X127128342Y-112304834D01*
X127201357Y-112377849D01*
X127302922Y-112486612D01*
X127378004Y-112580183D01*
X127437417Y-112666731D01*
X127489062Y-112752647D01*
X127539753Y-112843294D01*
X127540437Y-112844507D01*
X127594611Y-112940076D01*
X127599503Y-112948318D01*
X127613781Y-112971315D01*
X127614572Y-112979342D01*
X127615282Y-112986552D01*
X127636153Y-113055355D01*
X127670046Y-113118764D01*
X127715658Y-113174343D01*
X127729587Y-113185774D01*
X128659225Y-114115413D01*
X128670657Y-114129343D01*
X128726236Y-114174955D01*
X128789645Y-114208848D01*
X128858448Y-114229719D01*
X128912069Y-114235000D01*
X128912071Y-114235000D01*
X128930000Y-114236766D01*
X128947929Y-114235000D01*
X138532071Y-114235000D01*
X138550000Y-114236766D01*
X138567929Y-114235000D01*
X138567931Y-114235000D01*
X138621552Y-114229719D01*
X138690355Y-114208848D01*
X138753764Y-114174955D01*
X138809343Y-114129343D01*
X138820779Y-114115408D01*
X139945418Y-112990770D01*
X139959342Y-112979343D01*
X139978980Y-112955415D01*
X140004954Y-112923765D01*
X140004955Y-112923764D01*
X140038848Y-112860355D01*
X140059719Y-112791552D01*
X140065000Y-112737931D01*
X140065000Y-112737929D01*
X140066766Y-112720000D01*
X140065000Y-112702071D01*
X140065000Y-111282149D01*
X141171490Y-111282149D01*
X141400999Y-111577063D01*
X141806966Y-111804779D01*
X142249556Y-111948919D01*
X142711763Y-112003944D01*
X143175823Y-111967740D01*
X143623903Y-111841698D01*
X144038785Y-111630662D01*
X144119001Y-111577063D01*
X144348510Y-111282149D01*
X142760000Y-109693640D01*
X141171490Y-111282149D01*
X140065000Y-111282149D01*
X140065000Y-109581763D01*
X140386056Y-109581763D01*
X140422260Y-110045823D01*
X140548302Y-110493903D01*
X140759338Y-110908785D01*
X140812937Y-110989001D01*
X141107851Y-111218510D01*
X142696360Y-109630000D01*
X142823640Y-109630000D01*
X144412149Y-111218510D01*
X144707063Y-110989001D01*
X144934779Y-110583034D01*
X145078919Y-110140444D01*
X145133944Y-109678237D01*
X145097740Y-109214177D01*
X144971698Y-108766097D01*
X144760662Y-108351215D01*
X144707063Y-108270999D01*
X144412149Y-108041490D01*
X142823640Y-109630000D01*
X142696360Y-109630000D01*
X141107851Y-108041490D01*
X140812937Y-108270999D01*
X140585221Y-108676966D01*
X140441081Y-109119556D01*
X140386056Y-109581763D01*
X140065000Y-109581763D01*
X140065000Y-107977851D01*
X141171490Y-107977851D01*
X142760000Y-109566360D01*
X144348510Y-107977851D01*
X144119001Y-107682937D01*
X143713034Y-107455221D01*
X143270444Y-107311081D01*
X142808237Y-107256056D01*
X142344177Y-107292260D01*
X141896097Y-107418302D01*
X141481215Y-107629338D01*
X141400999Y-107682937D01*
X141171490Y-107977851D01*
X140065000Y-107977851D01*
X140065000Y-107781187D01*
X141025418Y-106820770D01*
X141039342Y-106809343D01*
X141084955Y-106753764D01*
X141118848Y-106690355D01*
X141139719Y-106621552D01*
X141145000Y-106567931D01*
X141145000Y-106567929D01*
X141146766Y-106550000D01*
X141145000Y-106532071D01*
X141145000Y-104881440D01*
X141292227Y-104836779D01*
X141464909Y-104744479D01*
X141616265Y-104620265D01*
X141740479Y-104468909D01*
X141832779Y-104296228D01*
X141889617Y-104108858D01*
X141904000Y-103962826D01*
X141904000Y-102357174D01*
X141889617Y-102211142D01*
X141832779Y-102023772D01*
X141740479Y-101851091D01*
X141616265Y-101699735D01*
X141464909Y-101575521D01*
X141292228Y-101483221D01*
X141104858Y-101426383D01*
X140910000Y-101407191D01*
X140715143Y-101426383D01*
X140527773Y-101483221D01*
X140355092Y-101575521D01*
X140203736Y-101699735D01*
X140079522Y-101851091D01*
X139987222Y-102023772D01*
X139930384Y-102211142D01*
X139916001Y-102357174D01*
X139916000Y-103962825D01*
X139930383Y-104108857D01*
X139987221Y-104296227D01*
X140079521Y-104468909D01*
X140203735Y-104620265D01*
X140355091Y-104744479D01*
X140415001Y-104776501D01*
X140415000Y-106398812D01*
X139454587Y-107359226D01*
X139440658Y-107370657D01*
X139429227Y-107384586D01*
X139395046Y-107426236D01*
X139361153Y-107489645D01*
X139340282Y-107558448D01*
X139333234Y-107630000D01*
X139335001Y-107647939D01*
X139335000Y-112568812D01*
X138398813Y-113505000D01*
X129081188Y-113505000D01*
X128521541Y-112945354D01*
X128454439Y-112862004D01*
X128439540Y-112824938D01*
X128439373Y-112805367D01*
X128452337Y-112767573D01*
X128493293Y-112701613D01*
X128563417Y-112614131D01*
X128653702Y-112511062D01*
X128655976Y-112508429D01*
X128752805Y-112394601D01*
X128762569Y-112382332D01*
X128816019Y-112310473D01*
X128821658Y-112304834D01*
X128834419Y-112285735D01*
X128854255Y-112259068D01*
X128869408Y-112236044D01*
X128880960Y-112216082D01*
X128940945Y-112126309D01*
X129023112Y-111927941D01*
X129065000Y-111717356D01*
X129065000Y-111502644D01*
X129175000Y-111502644D01*
X129175000Y-111717356D01*
X129216888Y-111927941D01*
X129299055Y-112126309D01*
X129418342Y-112304834D01*
X129570166Y-112456658D01*
X129748691Y-112575945D01*
X129947059Y-112658112D01*
X130157644Y-112700000D01*
X130372356Y-112700000D01*
X130582941Y-112658112D01*
X130781309Y-112575945D01*
X130959834Y-112456658D01*
X131111658Y-112304834D01*
X131230945Y-112126309D01*
X131313112Y-111927941D01*
X131355000Y-111717356D01*
X131355000Y-111502644D01*
X131465000Y-111502644D01*
X131465000Y-111717356D01*
X131506888Y-111927941D01*
X131589055Y-112126309D01*
X131708342Y-112304834D01*
X131860166Y-112456658D01*
X132038691Y-112575945D01*
X132237059Y-112658112D01*
X132447644Y-112700000D01*
X132662356Y-112700000D01*
X132872941Y-112658112D01*
X133071309Y-112575945D01*
X133249834Y-112456658D01*
X133401658Y-112304834D01*
X133520945Y-112126309D01*
X133603112Y-111927941D01*
X133645000Y-111717356D01*
X133645000Y-111502644D01*
X133755000Y-111502644D01*
X133755000Y-111717356D01*
X133796888Y-111927941D01*
X133879055Y-112126309D01*
X133998342Y-112304834D01*
X134150166Y-112456658D01*
X134328691Y-112575945D01*
X134527059Y-112658112D01*
X134737644Y-112700000D01*
X134952356Y-112700000D01*
X135162941Y-112658112D01*
X135361309Y-112575945D01*
X135539834Y-112456658D01*
X135691658Y-112304834D01*
X135810945Y-112126309D01*
X135893112Y-111927941D01*
X135935000Y-111717356D01*
X135935000Y-111502644D01*
X135893112Y-111292059D01*
X135810945Y-111093691D01*
X135691658Y-110915166D01*
X135539834Y-110763342D01*
X135361309Y-110644055D01*
X135162941Y-110561888D01*
X134952356Y-110520000D01*
X134737644Y-110520000D01*
X134527059Y-110561888D01*
X134328691Y-110644055D01*
X134150166Y-110763342D01*
X133998342Y-110915166D01*
X133879055Y-111093691D01*
X133796888Y-111292059D01*
X133755000Y-111502644D01*
X133645000Y-111502644D01*
X133603112Y-111292059D01*
X133520945Y-111093691D01*
X133401658Y-110915166D01*
X133249834Y-110763342D01*
X133071309Y-110644055D01*
X132872941Y-110561888D01*
X132662356Y-110520000D01*
X132447644Y-110520000D01*
X132237059Y-110561888D01*
X132038691Y-110644055D01*
X131860166Y-110763342D01*
X131708342Y-110915166D01*
X131589055Y-111093691D01*
X131506888Y-111292059D01*
X131465000Y-111502644D01*
X131355000Y-111502644D01*
X131313112Y-111292059D01*
X131230945Y-111093691D01*
X131111658Y-110915166D01*
X130959834Y-110763342D01*
X130781309Y-110644055D01*
X130582941Y-110561888D01*
X130372356Y-110520000D01*
X130157644Y-110520000D01*
X129947059Y-110561888D01*
X129748691Y-110644055D01*
X129570166Y-110763342D01*
X129418342Y-110915166D01*
X129299055Y-111093691D01*
X129216888Y-111292059D01*
X129175000Y-111502644D01*
X129065000Y-111502644D01*
X129023112Y-111292059D01*
X128940945Y-111093691D01*
X128821658Y-110915166D01*
X128669834Y-110763342D01*
X128491309Y-110644055D01*
X128292941Y-110561888D01*
X128082356Y-110520000D01*
X127867644Y-110520000D01*
X127657059Y-110561888D01*
X127458691Y-110644055D01*
X127280166Y-110763342D01*
X127128342Y-110915166D01*
X127009055Y-111093691D01*
X126926888Y-111292059D01*
X126885000Y-111502644D01*
X126775000Y-111502644D01*
X126733112Y-111292059D01*
X126650945Y-111093691D01*
X126531658Y-110915166D01*
X126379834Y-110763342D01*
X126201309Y-110644055D01*
X126002941Y-110561888D01*
X125792356Y-110520000D01*
X125577644Y-110520000D01*
X125367059Y-110561888D01*
X125168691Y-110644055D01*
X124990166Y-110763342D01*
X124838342Y-110915166D01*
X124719055Y-111093691D01*
X124636888Y-111292059D01*
X124595000Y-111502644D01*
X122475000Y-111502644D01*
X122475000Y-110441258D01*
X123792382Y-110441258D01*
X123879965Y-110615019D01*
X124084814Y-110724859D01*
X124307157Y-110792624D01*
X124538447Y-110815709D01*
X124769797Y-110793229D01*
X124992316Y-110726047D01*
X125197453Y-110616744D01*
X125200035Y-110615019D01*
X125287618Y-110441258D01*
X126082382Y-110441258D01*
X126169965Y-110615019D01*
X126374814Y-110724859D01*
X126597157Y-110792624D01*
X126828447Y-110815709D01*
X127059797Y-110793229D01*
X127282316Y-110726047D01*
X127487453Y-110616744D01*
X127490035Y-110615019D01*
X127577618Y-110441258D01*
X128372382Y-110441258D01*
X128459965Y-110615019D01*
X128664814Y-110724859D01*
X128887157Y-110792624D01*
X129118447Y-110815709D01*
X129349797Y-110793229D01*
X129572316Y-110726047D01*
X129777453Y-110616744D01*
X129780035Y-110615019D01*
X129867618Y-110441258D01*
X129120000Y-109693640D01*
X128372382Y-110441258D01*
X127577618Y-110441258D01*
X126830000Y-109693640D01*
X126082382Y-110441258D01*
X125287618Y-110441258D01*
X124540000Y-109693640D01*
X123792382Y-110441258D01*
X122475000Y-110441258D01*
X122475000Y-109628447D01*
X123354291Y-109628447D01*
X123376771Y-109859797D01*
X123443953Y-110082316D01*
X123553256Y-110287453D01*
X123554981Y-110290035D01*
X123728742Y-110377618D01*
X124476360Y-109630000D01*
X124603640Y-109630000D01*
X125351258Y-110377618D01*
X125525019Y-110290035D01*
X125634859Y-110085186D01*
X125685075Y-109920423D01*
X125733953Y-110082316D01*
X125843256Y-110287453D01*
X125844981Y-110290035D01*
X126018742Y-110377618D01*
X126766360Y-109630000D01*
X126893640Y-109630000D01*
X127641258Y-110377618D01*
X127815019Y-110290035D01*
X127924859Y-110085186D01*
X127975075Y-109920423D01*
X128023953Y-110082316D01*
X128133256Y-110287453D01*
X128134981Y-110290035D01*
X128308742Y-110377618D01*
X129056360Y-109630000D01*
X129183640Y-109630000D01*
X129931258Y-110377618D01*
X130105019Y-110290035D01*
X130214859Y-110085186D01*
X130282624Y-109862843D01*
X130305709Y-109631553D01*
X130295127Y-109522644D01*
X130320000Y-109522644D01*
X130320000Y-109737356D01*
X130361888Y-109947941D01*
X130444055Y-110146309D01*
X130563342Y-110324834D01*
X130715166Y-110476658D01*
X130893691Y-110595945D01*
X131092059Y-110678112D01*
X131302644Y-110720000D01*
X131517356Y-110720000D01*
X131727941Y-110678112D01*
X131926309Y-110595945D01*
X132104834Y-110476658D01*
X132140234Y-110441258D01*
X132952382Y-110441258D01*
X133039965Y-110615019D01*
X133244814Y-110724859D01*
X133467157Y-110792624D01*
X133698447Y-110815709D01*
X133929797Y-110793229D01*
X134152316Y-110726047D01*
X134357453Y-110616744D01*
X134360035Y-110615019D01*
X134447618Y-110441258D01*
X133700000Y-109693640D01*
X132952382Y-110441258D01*
X132140234Y-110441258D01*
X132256658Y-110324834D01*
X132375945Y-110146309D01*
X132458112Y-109947941D01*
X132500000Y-109737356D01*
X132500000Y-109628447D01*
X132514291Y-109628447D01*
X132536771Y-109859797D01*
X132603953Y-110082316D01*
X132713256Y-110287453D01*
X132714981Y-110290035D01*
X132888742Y-110377618D01*
X133636360Y-109630000D01*
X133763640Y-109630000D01*
X134511258Y-110377618D01*
X134685019Y-110290035D01*
X134794859Y-110085186D01*
X134862624Y-109862843D01*
X134885709Y-109631553D01*
X134863229Y-109400203D01*
X134796047Y-109177684D01*
X134686744Y-108972547D01*
X134685019Y-108969965D01*
X134511258Y-108882382D01*
X133763640Y-109630000D01*
X133636360Y-109630000D01*
X132888742Y-108882382D01*
X132714981Y-108969965D01*
X132605141Y-109174814D01*
X132537376Y-109397157D01*
X132514291Y-109628447D01*
X132500000Y-109628447D01*
X132500000Y-109522644D01*
X132458112Y-109312059D01*
X132375945Y-109113691D01*
X132256658Y-108935166D01*
X132140234Y-108818742D01*
X132952382Y-108818742D01*
X133700000Y-109566360D01*
X134447618Y-108818742D01*
X134414110Y-108752264D01*
X134612157Y-108812624D01*
X134843447Y-108835709D01*
X135074797Y-108813229D01*
X135297316Y-108746047D01*
X135502453Y-108636744D01*
X135505035Y-108635019D01*
X135592618Y-108461258D01*
X134845000Y-107713640D01*
X134097382Y-108461258D01*
X134130890Y-108527736D01*
X133932843Y-108467376D01*
X133701553Y-108444291D01*
X133470203Y-108466771D01*
X133247684Y-108533953D01*
X133042547Y-108643256D01*
X133039965Y-108644981D01*
X132952382Y-108818742D01*
X132140234Y-108818742D01*
X132104834Y-108783342D01*
X131926309Y-108664055D01*
X131727941Y-108581888D01*
X131517356Y-108540000D01*
X131302644Y-108540000D01*
X131092059Y-108581888D01*
X130893691Y-108664055D01*
X130715166Y-108783342D01*
X130563342Y-108935166D01*
X130444055Y-109113691D01*
X130361888Y-109312059D01*
X130320000Y-109522644D01*
X130295127Y-109522644D01*
X130283229Y-109400203D01*
X130216047Y-109177684D01*
X130106744Y-108972547D01*
X130105019Y-108969965D01*
X129931258Y-108882382D01*
X129183640Y-109630000D01*
X129056360Y-109630000D01*
X128308742Y-108882382D01*
X128134981Y-108969965D01*
X128025141Y-109174814D01*
X127974925Y-109339577D01*
X127926047Y-109177684D01*
X127816744Y-108972547D01*
X127815019Y-108969965D01*
X127641258Y-108882382D01*
X126893640Y-109630000D01*
X126766360Y-109630000D01*
X126018742Y-108882382D01*
X125844981Y-108969965D01*
X125735141Y-109174814D01*
X125684925Y-109339577D01*
X125636047Y-109177684D01*
X125526744Y-108972547D01*
X125525019Y-108969965D01*
X125351258Y-108882382D01*
X124603640Y-109630000D01*
X124476360Y-109630000D01*
X123728742Y-108882382D01*
X123554981Y-108969965D01*
X123445141Y-109174814D01*
X123377376Y-109397157D01*
X123354291Y-109628447D01*
X122475000Y-109628447D01*
X122475000Y-108818742D01*
X123792382Y-108818742D01*
X124540000Y-109566360D01*
X125287618Y-108818742D01*
X125248514Y-108741161D01*
X126121486Y-108741161D01*
X126082382Y-108818742D01*
X126830000Y-109566360D01*
X127577618Y-108818742D01*
X128372382Y-108818742D01*
X129120000Y-109566360D01*
X129867618Y-108818742D01*
X129780035Y-108644981D01*
X129575186Y-108535141D01*
X129352843Y-108467376D01*
X129121553Y-108444291D01*
X128890203Y-108466771D01*
X128667684Y-108533953D01*
X128462547Y-108643256D01*
X128459965Y-108644981D01*
X128372382Y-108818742D01*
X127577618Y-108818742D01*
X127490035Y-108644981D01*
X127285186Y-108535141D01*
X127062843Y-108467376D01*
X126831553Y-108444291D01*
X126776161Y-108449673D01*
X126776161Y-107542644D01*
X126885000Y-107542644D01*
X126885000Y-107757356D01*
X126926888Y-107967941D01*
X127009055Y-108166309D01*
X127128342Y-108344834D01*
X127280166Y-108496658D01*
X127458691Y-108615945D01*
X127657059Y-108698112D01*
X127867644Y-108740000D01*
X128082356Y-108740000D01*
X128292941Y-108698112D01*
X128491309Y-108615945D01*
X128669834Y-108496658D01*
X128821658Y-108344834D01*
X128940945Y-108166309D01*
X129023112Y-107967941D01*
X129065000Y-107757356D01*
X129065000Y-107542644D01*
X129175000Y-107542644D01*
X129175000Y-107757356D01*
X129216888Y-107967941D01*
X129299055Y-108166309D01*
X129418342Y-108344834D01*
X129570166Y-108496658D01*
X129748691Y-108615945D01*
X129947059Y-108698112D01*
X130157644Y-108740000D01*
X130372356Y-108740000D01*
X130582941Y-108698112D01*
X130781309Y-108615945D01*
X130959834Y-108496658D01*
X131111658Y-108344834D01*
X131230945Y-108166309D01*
X131313112Y-107967941D01*
X131355000Y-107757356D01*
X131355000Y-107542644D01*
X131465000Y-107542644D01*
X131465000Y-107757356D01*
X131506888Y-107967941D01*
X131589055Y-108166309D01*
X131708342Y-108344834D01*
X131860166Y-108496658D01*
X132038691Y-108615945D01*
X132237059Y-108698112D01*
X132447644Y-108740000D01*
X132662356Y-108740000D01*
X132872941Y-108698112D01*
X133071309Y-108615945D01*
X133249834Y-108496658D01*
X133401658Y-108344834D01*
X133520945Y-108166309D01*
X133603112Y-107967941D01*
X133645000Y-107757356D01*
X133645000Y-107648447D01*
X133659291Y-107648447D01*
X133681771Y-107879797D01*
X133748953Y-108102316D01*
X133858256Y-108307453D01*
X133859981Y-108310035D01*
X134033742Y-108397618D01*
X134781360Y-107650000D01*
X134908640Y-107650000D01*
X135656258Y-108397618D01*
X135830019Y-108310035D01*
X135939859Y-108105186D01*
X136007624Y-107882843D01*
X136030709Y-107651553D01*
X136008229Y-107420203D01*
X135941047Y-107197684D01*
X135831744Y-106992547D01*
X135830019Y-106989965D01*
X135656258Y-106902382D01*
X134908640Y-107650000D01*
X134781360Y-107650000D01*
X134033742Y-106902382D01*
X133859981Y-106989965D01*
X133750141Y-107194814D01*
X133682376Y-107417157D01*
X133659291Y-107648447D01*
X133645000Y-107648447D01*
X133645000Y-107542644D01*
X133603112Y-107332059D01*
X133520945Y-107133691D01*
X133401658Y-106955166D01*
X133285234Y-106838742D01*
X134097382Y-106838742D01*
X134845000Y-107586360D01*
X135592618Y-106838742D01*
X135505035Y-106664981D01*
X135300186Y-106555141D01*
X135077843Y-106487376D01*
X134846553Y-106464291D01*
X134615203Y-106486771D01*
X134392684Y-106553953D01*
X134187547Y-106663256D01*
X134184965Y-106664981D01*
X134097382Y-106838742D01*
X133285234Y-106838742D01*
X133249834Y-106803342D01*
X133071309Y-106684055D01*
X132872941Y-106601888D01*
X132662356Y-106560000D01*
X132447644Y-106560000D01*
X132237059Y-106601888D01*
X132038691Y-106684055D01*
X131860166Y-106803342D01*
X131708342Y-106955166D01*
X131589055Y-107133691D01*
X131506888Y-107332059D01*
X131465000Y-107542644D01*
X131355000Y-107542644D01*
X131313112Y-107332059D01*
X131230945Y-107133691D01*
X131111658Y-106955166D01*
X130959834Y-106803342D01*
X130781309Y-106684055D01*
X130582941Y-106601888D01*
X130372356Y-106560000D01*
X130157644Y-106560000D01*
X129947059Y-106601888D01*
X129748691Y-106684055D01*
X129570166Y-106803342D01*
X129418342Y-106955166D01*
X129299055Y-107133691D01*
X129216888Y-107332059D01*
X129175000Y-107542644D01*
X129065000Y-107542644D01*
X129023112Y-107332059D01*
X128940945Y-107133691D01*
X128821658Y-106955166D01*
X128669834Y-106803342D01*
X128491309Y-106684055D01*
X128292941Y-106601888D01*
X128082356Y-106560000D01*
X127867644Y-106560000D01*
X127657059Y-106601888D01*
X127458691Y-106684055D01*
X127280166Y-106803342D01*
X127128342Y-106955166D01*
X127009055Y-107133691D01*
X126926888Y-107332059D01*
X126885000Y-107542644D01*
X126776161Y-107542644D01*
X126776161Y-106800000D01*
X126771527Y-106752952D01*
X126757804Y-106707712D01*
X126735518Y-106666018D01*
X126705527Y-106629473D01*
X126668982Y-106599482D01*
X126627288Y-106577196D01*
X126582048Y-106563473D01*
X126535000Y-106558839D01*
X126231113Y-106558839D01*
X126202009Y-106522854D01*
X126145461Y-106440485D01*
X126101529Y-106355031D01*
X126067539Y-106253623D01*
X126044170Y-106122217D01*
X126035000Y-105943844D01*
X126035000Y-103962825D01*
X134416000Y-103962825D01*
X134430383Y-104108857D01*
X134487221Y-104296227D01*
X134579521Y-104468909D01*
X134703735Y-104620265D01*
X134855091Y-104744479D01*
X135027772Y-104836779D01*
X135215142Y-104893617D01*
X135410000Y-104912809D01*
X135604857Y-104893617D01*
X135792227Y-104836779D01*
X135964909Y-104744479D01*
X136116265Y-104620265D01*
X136240479Y-104468909D01*
X136332779Y-104296228D01*
X136389617Y-104108858D01*
X136404000Y-103962826D01*
X136404000Y-102498737D01*
X136503735Y-102620265D01*
X136655091Y-102744479D01*
X136827772Y-102836779D01*
X137015142Y-102893617D01*
X137210000Y-102912809D01*
X137404857Y-102893617D01*
X137592227Y-102836779D01*
X137764909Y-102744479D01*
X137916265Y-102620265D01*
X138040479Y-102468909D01*
X138132779Y-102296228D01*
X138189617Y-102108858D01*
X138204000Y-101962826D01*
X138204000Y-101205000D01*
X142226000Y-101205000D01*
X142226000Y-101959000D01*
X142255608Y-102169613D01*
X142325735Y-102370403D01*
X142433687Y-102553654D01*
X142575315Y-102712323D01*
X142745177Y-102840313D01*
X142936745Y-102932706D01*
X143096125Y-102976692D01*
X143265000Y-102914489D01*
X143265000Y-101205000D01*
X143355000Y-101205000D01*
X143355000Y-102914489D01*
X143523875Y-102976692D01*
X143683255Y-102932706D01*
X143874823Y-102840313D01*
X144044685Y-102712323D01*
X144186313Y-102553654D01*
X144294265Y-102370403D01*
X144364392Y-102169613D01*
X144394000Y-101959000D01*
X144394000Y-101205000D01*
X143355000Y-101205000D01*
X143265000Y-101205000D01*
X142226000Y-101205000D01*
X138204000Y-101205000D01*
X138204000Y-100361000D01*
X142226000Y-100361000D01*
X142226000Y-101115000D01*
X143265000Y-101115000D01*
X143265000Y-99405511D01*
X143355000Y-99405511D01*
X143355000Y-101115000D01*
X144394000Y-101115000D01*
X144394000Y-100361000D01*
X144364392Y-100150387D01*
X144294265Y-99949597D01*
X144186313Y-99766346D01*
X144044685Y-99607677D01*
X143874823Y-99479687D01*
X143683255Y-99387294D01*
X143523875Y-99343308D01*
X143355000Y-99405511D01*
X143265000Y-99405511D01*
X143096125Y-99343308D01*
X142936745Y-99387294D01*
X142745177Y-99479687D01*
X142575315Y-99607677D01*
X142433687Y-99766346D01*
X142325735Y-99949597D01*
X142255608Y-100150387D01*
X142226000Y-100361000D01*
X138204000Y-100361000D01*
X138204000Y-100357174D01*
X138189617Y-100211142D01*
X138132779Y-100023772D01*
X138040479Y-99851091D01*
X137916265Y-99699735D01*
X137764909Y-99575521D01*
X137592228Y-99483221D01*
X137404858Y-99426383D01*
X137210000Y-99407191D01*
X137015143Y-99426383D01*
X136827773Y-99483221D01*
X136655092Y-99575521D01*
X136503736Y-99699735D01*
X136379522Y-99851091D01*
X136287222Y-100023772D01*
X136230384Y-100211142D01*
X136216001Y-100357174D01*
X136216000Y-101821263D01*
X136116265Y-101699735D01*
X135964909Y-101575521D01*
X135792228Y-101483221D01*
X135604858Y-101426383D01*
X135410000Y-101407191D01*
X135215143Y-101426383D01*
X135027773Y-101483221D01*
X134855092Y-101575521D01*
X134703736Y-101699735D01*
X134579522Y-101851091D01*
X134487222Y-102023772D01*
X134430384Y-102211142D01*
X134416001Y-102357174D01*
X134416000Y-103962825D01*
X126035000Y-103962825D01*
X126035000Y-103521187D01*
X127593362Y-101962825D01*
X130716000Y-101962825D01*
X130730383Y-102108857D01*
X130787221Y-102296227D01*
X130879521Y-102468909D01*
X131003735Y-102620265D01*
X131155091Y-102744479D01*
X131327772Y-102836779D01*
X131515142Y-102893617D01*
X131710000Y-102912809D01*
X131904857Y-102893617D01*
X132092227Y-102836779D01*
X132264909Y-102744479D01*
X132416265Y-102620265D01*
X132540479Y-102468909D01*
X132632779Y-102296228D01*
X132689617Y-102108858D01*
X132704000Y-101962826D01*
X132704000Y-100357174D01*
X132689617Y-100211142D01*
X132632779Y-100023772D01*
X132540479Y-99851091D01*
X132416265Y-99699735D01*
X132264909Y-99575521D01*
X132092228Y-99483221D01*
X131904858Y-99426383D01*
X131710000Y-99407191D01*
X131515143Y-99426383D01*
X131327773Y-99483221D01*
X131155092Y-99575521D01*
X131003736Y-99699735D01*
X130879522Y-99851091D01*
X130787222Y-100023772D01*
X130730384Y-100211142D01*
X130716001Y-100357174D01*
X130716000Y-101962825D01*
X127593362Y-101962825D01*
X130921187Y-98635000D01*
X133612071Y-98635000D01*
X133630000Y-98636766D01*
X133647929Y-98635000D01*
X133647931Y-98635000D01*
X133701552Y-98629719D01*
X133770355Y-98608848D01*
X133833764Y-98574955D01*
X133889343Y-98529343D01*
X133900779Y-98515408D01*
X134840413Y-97575775D01*
X134854343Y-97564343D01*
X134899955Y-97508764D01*
X134933848Y-97445355D01*
X134954719Y-97376552D01*
X134960000Y-97322931D01*
X134960000Y-97322930D01*
X134961766Y-97305001D01*
X134960000Y-97287072D01*
X134960000Y-96596189D01*
X134969207Y-96417984D01*
X134992632Y-96286710D01*
X135026692Y-96185220D01*
X135070700Y-96099465D01*
X135127285Y-96016567D01*
X135147612Y-95991161D01*
X135445000Y-95991161D01*
X135492048Y-95986527D01*
X135537288Y-95972804D01*
X135578982Y-95950518D01*
X135615527Y-95920527D01*
X135645518Y-95883982D01*
X135667804Y-95842288D01*
X135681527Y-95797048D01*
X135686161Y-95750000D01*
X135686161Y-94572149D01*
X141171490Y-94572149D01*
X141400999Y-94867063D01*
X141806966Y-95094779D01*
X142249556Y-95238919D01*
X142711763Y-95293944D01*
X143175823Y-95257740D01*
X143623903Y-95131698D01*
X144038785Y-94920662D01*
X144119001Y-94867063D01*
X144348510Y-94572149D01*
X142760000Y-92983640D01*
X141171490Y-94572149D01*
X135686161Y-94572149D01*
X135686161Y-94050000D01*
X135681527Y-94002952D01*
X135667804Y-93957712D01*
X135645518Y-93916018D01*
X135615527Y-93879473D01*
X135578982Y-93849482D01*
X135537288Y-93827196D01*
X135492048Y-93813473D01*
X135445000Y-93808839D01*
X133745000Y-93808839D01*
X133697952Y-93813473D01*
X133652712Y-93827196D01*
X133611018Y-93849482D01*
X133574473Y-93879473D01*
X133544482Y-93916018D01*
X133522196Y-93957712D01*
X133508473Y-94002952D01*
X133503839Y-94050000D01*
X133503839Y-95750000D01*
X133508473Y-95797048D01*
X133522196Y-95842288D01*
X133544482Y-95883982D01*
X133574473Y-95920527D01*
X133611018Y-95950518D01*
X133652712Y-95972804D01*
X133697952Y-95986527D01*
X133745000Y-95991161D01*
X134042387Y-95991161D01*
X134062714Y-96016567D01*
X134119299Y-96099465D01*
X134163307Y-96185220D01*
X134197367Y-96286710D01*
X134220792Y-96417984D01*
X134230001Y-96596204D01*
X134230001Y-97153811D01*
X133478813Y-97905000D01*
X130787928Y-97905000D01*
X130769999Y-97903234D01*
X130752070Y-97905000D01*
X130752069Y-97905000D01*
X130698448Y-97910281D01*
X130629645Y-97931152D01*
X130566236Y-97965045D01*
X130510657Y-98010657D01*
X130499221Y-98024592D01*
X125424588Y-103099225D01*
X125410657Y-103110658D01*
X125365045Y-103166237D01*
X125331152Y-103229646D01*
X125310281Y-103298449D01*
X125305000Y-103352069D01*
X125303234Y-103370000D01*
X125305000Y-103387929D01*
X125305001Y-105943898D01*
X125295803Y-106124986D01*
X125272321Y-106259107D01*
X125238095Y-106363319D01*
X125193906Y-106451578D01*
X125137351Y-106536800D01*
X125120267Y-106558839D01*
X124835000Y-106558839D01*
X124787952Y-106563473D01*
X124742712Y-106577196D01*
X124701018Y-106599482D01*
X124664473Y-106629473D01*
X124634482Y-106666018D01*
X124612196Y-106707712D01*
X124598473Y-106752952D01*
X124593839Y-106800000D01*
X124593839Y-108449510D01*
X124541553Y-108444291D01*
X124310203Y-108466771D01*
X124087684Y-108533953D01*
X123882547Y-108643256D01*
X123879965Y-108644981D01*
X123792382Y-108818742D01*
X122475000Y-108818742D01*
X122475000Y-96821890D01*
X127470000Y-96821890D01*
X127470000Y-96938110D01*
X127492673Y-97052097D01*
X127537149Y-97159470D01*
X127601717Y-97256103D01*
X127683897Y-97338283D01*
X127780530Y-97402851D01*
X127887903Y-97447327D01*
X128001890Y-97470000D01*
X128118110Y-97470000D01*
X128232097Y-97447327D01*
X128339470Y-97402851D01*
X128360368Y-97388887D01*
X128382208Y-97377669D01*
X128390637Y-97373125D01*
X128442359Y-97343893D01*
X128446560Y-97341462D01*
X128491579Y-97314803D01*
X128529045Y-97293073D01*
X128558488Y-97277698D01*
X128583467Y-97267025D01*
X128609423Y-97258852D01*
X128642598Y-97252061D01*
X128688361Y-97247075D01*
X128753819Y-97245000D01*
X131232071Y-97245000D01*
X131250000Y-97246766D01*
X131267929Y-97245000D01*
X131267931Y-97245000D01*
X131321552Y-97239719D01*
X131390355Y-97218848D01*
X131453764Y-97184955D01*
X131509343Y-97139343D01*
X131520779Y-97125408D01*
X132014192Y-96631995D01*
X132151997Y-96496942D01*
X132269158Y-96387155D01*
X132371246Y-96295876D01*
X132463632Y-96216689D01*
X132551466Y-96143457D01*
X132638784Y-96070951D01*
X132640759Y-96069293D01*
X132730908Y-95992785D01*
X132734610Y-95989578D01*
X132831812Y-95903611D01*
X132836244Y-95899591D01*
X132944914Y-95798543D01*
X132949243Y-95794417D01*
X132994367Y-95750311D01*
X132999834Y-95746658D01*
X133151658Y-95594834D01*
X133270945Y-95416309D01*
X133353112Y-95217941D01*
X133395000Y-95007356D01*
X133395000Y-94792644D01*
X133353112Y-94582059D01*
X133270945Y-94383691D01*
X133151658Y-94205166D01*
X132999834Y-94053342D01*
X132821309Y-93934055D01*
X132622941Y-93851888D01*
X132412356Y-93810000D01*
X132197644Y-93810000D01*
X131987059Y-93851888D01*
X131788691Y-93934055D01*
X131610166Y-94053342D01*
X131458342Y-94205166D01*
X131339055Y-94383691D01*
X131256888Y-94582059D01*
X131215000Y-94792644D01*
X131215000Y-95007356D01*
X131256888Y-95217941D01*
X131339055Y-95416309D01*
X131367696Y-95459174D01*
X131388328Y-95498754D01*
X131392716Y-95506794D01*
X131455158Y-95616186D01*
X131455477Y-95616743D01*
X131512337Y-95715740D01*
X131556539Y-95800270D01*
X131584511Y-95868300D01*
X131596488Y-95918370D01*
X131596976Y-95954523D01*
X131587766Y-95990784D01*
X131559415Y-96042568D01*
X131492055Y-96121758D01*
X131098813Y-96515000D01*
X128753791Y-96515000D01*
X128688374Y-96512926D01*
X128642598Y-96507938D01*
X128609423Y-96501147D01*
X128583467Y-96492974D01*
X128558488Y-96482301D01*
X128529045Y-96466926D01*
X128491579Y-96445196D01*
X128446560Y-96418537D01*
X128442359Y-96416106D01*
X128390637Y-96386874D01*
X128382205Y-96382328D01*
X128360361Y-96371108D01*
X128339470Y-96357149D01*
X128232097Y-96312673D01*
X128118110Y-96290000D01*
X128001890Y-96290000D01*
X127887903Y-96312673D01*
X127780530Y-96357149D01*
X127683897Y-96421717D01*
X127601717Y-96503897D01*
X127537149Y-96600530D01*
X127492673Y-96707903D01*
X127470000Y-96821890D01*
X122475000Y-96821890D01*
X122475000Y-94792644D01*
X126635000Y-94792644D01*
X126635000Y-95007356D01*
X126676888Y-95217941D01*
X126759055Y-95416309D01*
X126878342Y-95594834D01*
X127030166Y-95746658D01*
X127208691Y-95865945D01*
X127407059Y-95948112D01*
X127617644Y-95990000D01*
X127832356Y-95990000D01*
X128042941Y-95948112D01*
X128241309Y-95865945D01*
X128419834Y-95746658D01*
X128571658Y-95594834D01*
X128690945Y-95416309D01*
X128773112Y-95217941D01*
X128815000Y-95007356D01*
X128815000Y-94792644D01*
X128925000Y-94792644D01*
X128925000Y-95007356D01*
X128966888Y-95217941D01*
X129049055Y-95416309D01*
X129168342Y-95594834D01*
X129320166Y-95746658D01*
X129498691Y-95865945D01*
X129697059Y-95948112D01*
X129907644Y-95990000D01*
X130122356Y-95990000D01*
X130332941Y-95948112D01*
X130531309Y-95865945D01*
X130709834Y-95746658D01*
X130861658Y-95594834D01*
X130980945Y-95416309D01*
X131063112Y-95217941D01*
X131105000Y-95007356D01*
X131105000Y-94792644D01*
X131063112Y-94582059D01*
X130980945Y-94383691D01*
X130861658Y-94205166D01*
X130709834Y-94053342D01*
X130531309Y-93934055D01*
X130332941Y-93851888D01*
X130122356Y-93810000D01*
X129907644Y-93810000D01*
X129697059Y-93851888D01*
X129498691Y-93934055D01*
X129320166Y-94053342D01*
X129168342Y-94205166D01*
X129049055Y-94383691D01*
X128966888Y-94582059D01*
X128925000Y-94792644D01*
X128815000Y-94792644D01*
X128773112Y-94582059D01*
X128690945Y-94383691D01*
X128571658Y-94205166D01*
X128419834Y-94053342D01*
X128241309Y-93934055D01*
X128042941Y-93851888D01*
X127832356Y-93810000D01*
X127617644Y-93810000D01*
X127407059Y-93851888D01*
X127208691Y-93934055D01*
X127030166Y-94053342D01*
X126878342Y-94205166D01*
X126759055Y-94383691D01*
X126676888Y-94582059D01*
X126635000Y-94792644D01*
X122475000Y-94792644D01*
X122475000Y-92812644D01*
X127780000Y-92812644D01*
X127780000Y-93027356D01*
X127821888Y-93237941D01*
X127904055Y-93436309D01*
X128023342Y-93614834D01*
X128175166Y-93766658D01*
X128353691Y-93885945D01*
X128552059Y-93968112D01*
X128762644Y-94010000D01*
X128977356Y-94010000D01*
X129187941Y-93968112D01*
X129386309Y-93885945D01*
X129564834Y-93766658D01*
X129716658Y-93614834D01*
X129835945Y-93436309D01*
X129918112Y-93237941D01*
X129960000Y-93027356D01*
X129960000Y-92871763D01*
X140386056Y-92871763D01*
X140422260Y-93335823D01*
X140548302Y-93783903D01*
X140759338Y-94198785D01*
X140812937Y-94279001D01*
X141107851Y-94508510D01*
X142696360Y-92920000D01*
X142823640Y-92920000D01*
X144412149Y-94508510D01*
X144707063Y-94279001D01*
X144934779Y-93873034D01*
X145078919Y-93430444D01*
X145133944Y-92968237D01*
X145097740Y-92504177D01*
X144971698Y-92056097D01*
X144760662Y-91641215D01*
X144707063Y-91560999D01*
X144412149Y-91331490D01*
X142823640Y-92920000D01*
X142696360Y-92920000D01*
X141107851Y-91331490D01*
X140812937Y-91560999D01*
X140585221Y-91966966D01*
X140441081Y-92409556D01*
X140386056Y-92871763D01*
X129960000Y-92871763D01*
X129960000Y-92812644D01*
X129918112Y-92602059D01*
X129835945Y-92403691D01*
X129716658Y-92225166D01*
X129564834Y-92073342D01*
X129386309Y-91954055D01*
X129187941Y-91871888D01*
X128977356Y-91830000D01*
X128762644Y-91830000D01*
X128552059Y-91871888D01*
X128353691Y-91954055D01*
X128175166Y-92073342D01*
X128023342Y-92225166D01*
X127904055Y-92403691D01*
X127821888Y-92602059D01*
X127780000Y-92812644D01*
X122475000Y-92812644D01*
X122475000Y-90832644D01*
X124345000Y-90832644D01*
X124345000Y-91047356D01*
X124386888Y-91257941D01*
X124469055Y-91456309D01*
X124588342Y-91634834D01*
X124740166Y-91786658D01*
X124918691Y-91905945D01*
X125117059Y-91988112D01*
X125327644Y-92030000D01*
X125542356Y-92030000D01*
X125752941Y-91988112D01*
X125951309Y-91905945D01*
X126129834Y-91786658D01*
X126281658Y-91634834D01*
X126400945Y-91456309D01*
X126483112Y-91257941D01*
X126525000Y-91047356D01*
X126525000Y-90832644D01*
X126635000Y-90832644D01*
X126635000Y-91047356D01*
X126676888Y-91257941D01*
X126759055Y-91456309D01*
X126878342Y-91634834D01*
X127030166Y-91786658D01*
X127208691Y-91905945D01*
X127407059Y-91988112D01*
X127617644Y-92030000D01*
X127832356Y-92030000D01*
X128042941Y-91988112D01*
X128241309Y-91905945D01*
X128419834Y-91786658D01*
X128571658Y-91634834D01*
X128690945Y-91456309D01*
X128773112Y-91257941D01*
X128815000Y-91047356D01*
X128815000Y-90832644D01*
X128773112Y-90622059D01*
X128690945Y-90423691D01*
X128571658Y-90245166D01*
X128419834Y-90093342D01*
X128241309Y-89974055D01*
X128042941Y-89891888D01*
X127832356Y-89850000D01*
X127617644Y-89850000D01*
X127407059Y-89891888D01*
X127208691Y-89974055D01*
X127030166Y-90093342D01*
X126878342Y-90245166D01*
X126759055Y-90423691D01*
X126676888Y-90622059D01*
X126635000Y-90832644D01*
X126525000Y-90832644D01*
X126483112Y-90622059D01*
X126400945Y-90423691D01*
X126281658Y-90245166D01*
X126129834Y-90093342D01*
X125951309Y-89974055D01*
X125752941Y-89891888D01*
X125542356Y-89850000D01*
X125327644Y-89850000D01*
X125117059Y-89891888D01*
X124918691Y-89974055D01*
X124740166Y-90093342D01*
X124588342Y-90245166D01*
X124469055Y-90423691D01*
X124386888Y-90622059D01*
X124345000Y-90832644D01*
X122475000Y-90832644D01*
X122475000Y-90271187D01*
X123361188Y-89385000D01*
X128228813Y-89385000D01*
X128705664Y-89861851D01*
X128813244Y-89982097D01*
X128878298Y-90078792D01*
X128915437Y-90161072D01*
X128934902Y-90238861D01*
X128942491Y-90324210D01*
X128940588Y-90425804D01*
X128932289Y-90547264D01*
X128932236Y-90548070D01*
X128923287Y-90685851D01*
X128922829Y-90696673D01*
X128919838Y-90848306D01*
X128920144Y-90866050D01*
X128925000Y-90955494D01*
X128925000Y-91047356D01*
X128966888Y-91257941D01*
X129049055Y-91456309D01*
X129168342Y-91634834D01*
X129320166Y-91786658D01*
X129498691Y-91905945D01*
X129697059Y-91988112D01*
X129907644Y-92030000D01*
X130122356Y-92030000D01*
X130332941Y-91988112D01*
X130531309Y-91905945D01*
X130709834Y-91786658D01*
X130861658Y-91634834D01*
X130980945Y-91456309D01*
X131063112Y-91257941D01*
X131105000Y-91047356D01*
X131105000Y-90832644D01*
X131215000Y-90832644D01*
X131215000Y-91047356D01*
X131256888Y-91257941D01*
X131339055Y-91456309D01*
X131458342Y-91634834D01*
X131610166Y-91786658D01*
X131788691Y-91905945D01*
X131987059Y-91988112D01*
X132197644Y-92030000D01*
X132412356Y-92030000D01*
X132622941Y-91988112D01*
X132821309Y-91905945D01*
X132999834Y-91786658D01*
X133151658Y-91634834D01*
X133270945Y-91456309D01*
X133353112Y-91257941D01*
X133395000Y-91047356D01*
X133395000Y-90832644D01*
X133505000Y-90832644D01*
X133505000Y-91047356D01*
X133546888Y-91257941D01*
X133629055Y-91456309D01*
X133748342Y-91634834D01*
X133900166Y-91786658D01*
X134078691Y-91905945D01*
X134277059Y-91988112D01*
X134487644Y-92030000D01*
X134702356Y-92030000D01*
X134912941Y-91988112D01*
X135111309Y-91905945D01*
X135289834Y-91786658D01*
X135441658Y-91634834D01*
X135560945Y-91456309D01*
X135639007Y-91267851D01*
X141171490Y-91267851D01*
X142760000Y-92856360D01*
X144348510Y-91267851D01*
X144119001Y-90972937D01*
X143713034Y-90745221D01*
X143270444Y-90601081D01*
X142808237Y-90546056D01*
X142344177Y-90582260D01*
X141896097Y-90708302D01*
X141481215Y-90919338D01*
X141400999Y-90972937D01*
X141171490Y-91267851D01*
X135639007Y-91267851D01*
X135643112Y-91257941D01*
X135685000Y-91047356D01*
X135685000Y-90832644D01*
X135643112Y-90622059D01*
X135560945Y-90423691D01*
X135441658Y-90245166D01*
X135289834Y-90093342D01*
X135111309Y-89974055D01*
X134912941Y-89891888D01*
X134702356Y-89850000D01*
X134487644Y-89850000D01*
X134277059Y-89891888D01*
X134078691Y-89974055D01*
X133900166Y-90093342D01*
X133748342Y-90245166D01*
X133629055Y-90423691D01*
X133546888Y-90622059D01*
X133505000Y-90832644D01*
X133395000Y-90832644D01*
X133353112Y-90622059D01*
X133270945Y-90423691D01*
X133151658Y-90245166D01*
X132999834Y-90093342D01*
X132821309Y-89974055D01*
X132622941Y-89891888D01*
X132412356Y-89850000D01*
X132197644Y-89850000D01*
X131987059Y-89891888D01*
X131788691Y-89974055D01*
X131610166Y-90093342D01*
X131458342Y-90245166D01*
X131339055Y-90423691D01*
X131256888Y-90622059D01*
X131215000Y-90832644D01*
X131105000Y-90832644D01*
X131063112Y-90622059D01*
X130980945Y-90423691D01*
X130861658Y-90245166D01*
X130709834Y-90093342D01*
X130531309Y-89974055D01*
X130490837Y-89957291D01*
X130427739Y-89920881D01*
X130406178Y-89909850D01*
X130254145Y-89841517D01*
X130234157Y-89833589D01*
X130093881Y-89785104D01*
X130080290Y-89780854D01*
X129948128Y-89743787D01*
X129945207Y-89742987D01*
X129822293Y-89710181D01*
X129710330Y-89675296D01*
X129603497Y-89631297D01*
X129492448Y-89569529D01*
X129368673Y-89479410D01*
X129222593Y-89346406D01*
X128650779Y-88774592D01*
X128639343Y-88760657D01*
X128583764Y-88715045D01*
X128520355Y-88681152D01*
X128451552Y-88660281D01*
X128397931Y-88655000D01*
X128397929Y-88655000D01*
X128380000Y-88653234D01*
X128362071Y-88655000D01*
X123227929Y-88655000D01*
X123210000Y-88653234D01*
X123192071Y-88655000D01*
X123192069Y-88655000D01*
X123138448Y-88660281D01*
X123069645Y-88681152D01*
X123006236Y-88715045D01*
X122950657Y-88760657D01*
X122939225Y-88774587D01*
X121864588Y-89849225D01*
X121850657Y-89860658D01*
X121805045Y-89916237D01*
X121771152Y-89979646D01*
X121750281Y-90048449D01*
X121745860Y-90093342D01*
X121743234Y-90120000D01*
X115120000Y-90120000D01*
X115119999Y-88824195D01*
X115134890Y-88672326D01*
X115174874Y-88539893D01*
X115239820Y-88417749D01*
X115327248Y-88310552D01*
X115433841Y-88222371D01*
X115555525Y-88156576D01*
X115688584Y-88115389D01*
X115826346Y-88100002D01*
X144715805Y-88099999D01*
X144867674Y-88114890D01*
G04 #@! TA.AperFunction,Conductor*
D17*
G36*
X144867674Y-88114890D02*
G01*
X145000107Y-88154874D01*
X145122251Y-88219820D01*
X145229448Y-88307248D01*
X145317629Y-88413841D01*
X145383424Y-88535525D01*
X145424611Y-88668584D01*
X145439998Y-88806346D01*
X145440001Y-113685805D01*
X145425110Y-113837674D01*
X145385126Y-113970107D01*
X145320183Y-114092246D01*
X145232750Y-114199450D01*
X145126160Y-114287629D01*
X145004475Y-114353424D01*
X144871417Y-114394611D01*
X144733654Y-114409998D01*
X115844195Y-114410001D01*
X115692326Y-114395110D01*
X115559893Y-114355126D01*
X115437754Y-114290183D01*
X115330550Y-114202750D01*
X115242371Y-114096160D01*
X115176576Y-113974475D01*
X115135389Y-113841417D01*
X115120002Y-113703654D01*
X115120002Y-111282149D01*
X116181490Y-111282149D01*
X116410999Y-111577063D01*
X116816966Y-111804779D01*
X117259556Y-111948919D01*
X117721763Y-112003944D01*
X118185823Y-111967740D01*
X118633903Y-111841698D01*
X119048785Y-111630662D01*
X119129001Y-111577063D01*
X119358510Y-111282149D01*
X117770000Y-109693640D01*
X116181490Y-111282149D01*
X115120002Y-111282149D01*
X115120002Y-109581763D01*
X115396056Y-109581763D01*
X115432260Y-110045823D01*
X115558302Y-110493903D01*
X115769338Y-110908785D01*
X115822937Y-110989001D01*
X116117851Y-111218510D01*
X117706360Y-109630000D01*
X117833640Y-109630000D01*
X119422149Y-111218510D01*
X119717063Y-110989001D01*
X119944779Y-110583034D01*
X120088919Y-110140444D01*
X120143944Y-109678237D01*
X120107740Y-109214177D01*
X119981698Y-108766097D01*
X119770662Y-108351215D01*
X119717063Y-108270999D01*
X119422149Y-108041490D01*
X117833640Y-109630000D01*
X117706360Y-109630000D01*
X116117851Y-108041490D01*
X115822937Y-108270999D01*
X115595221Y-108676966D01*
X115451081Y-109119556D01*
X115396056Y-109581763D01*
X115120002Y-109581763D01*
X115120002Y-107977851D01*
X116181490Y-107977851D01*
X117770000Y-109566360D01*
X119358510Y-107977851D01*
X119129001Y-107682937D01*
X118723034Y-107455221D01*
X118280444Y-107311081D01*
X117818237Y-107256056D01*
X117354177Y-107292260D01*
X116906097Y-107418302D01*
X116491215Y-107629338D01*
X116410999Y-107682937D01*
X116181490Y-107977851D01*
X115120002Y-107977851D01*
X115120001Y-94572149D01*
X116181490Y-94572149D01*
X116410999Y-94867063D01*
X116816966Y-95094779D01*
X117259556Y-95238919D01*
X117721763Y-95293944D01*
X118185823Y-95257740D01*
X118633903Y-95131698D01*
X119048785Y-94920662D01*
X119129001Y-94867063D01*
X119358510Y-94572149D01*
X117770000Y-92983640D01*
X116181490Y-94572149D01*
X115120001Y-94572149D01*
X115120000Y-92871763D01*
X115396056Y-92871763D01*
X115432260Y-93335823D01*
X115558302Y-93783903D01*
X115769338Y-94198785D01*
X115822937Y-94279001D01*
X116117851Y-94508510D01*
X117706360Y-92920000D01*
X117833640Y-92920000D01*
X119422149Y-94508510D01*
X119717063Y-94279001D01*
X119944779Y-93873034D01*
X120088919Y-93430444D01*
X120143944Y-92968237D01*
X120107740Y-92504177D01*
X119981698Y-92056097D01*
X119770662Y-91641215D01*
X119717063Y-91560999D01*
X119422149Y-91331490D01*
X117833640Y-92920000D01*
X117706360Y-92920000D01*
X116117851Y-91331490D01*
X115822937Y-91560999D01*
X115595221Y-91966966D01*
X115451081Y-92409556D01*
X115396056Y-92871763D01*
X115120000Y-92871763D01*
X115120000Y-91267851D01*
X116181490Y-91267851D01*
X117770000Y-92856360D01*
X119358510Y-91267851D01*
X119129001Y-90972937D01*
X118723034Y-90745221D01*
X118280444Y-90601081D01*
X117818237Y-90546056D01*
X117354177Y-90582260D01*
X116906097Y-90708302D01*
X116491215Y-90919338D01*
X116410999Y-90972937D01*
X116181490Y-91267851D01*
X115120000Y-91267851D01*
X115120000Y-90120000D01*
X121743234Y-90120000D01*
X121745000Y-90137929D01*
X121745001Y-112152061D01*
X121743234Y-112170000D01*
X121750282Y-112241552D01*
X121771153Y-112310355D01*
X121805046Y-112373764D01*
X121850658Y-112429343D01*
X121864587Y-112440775D01*
X123189225Y-113765413D01*
X123200657Y-113779343D01*
X123230842Y-113804115D01*
X123256234Y-113824954D01*
X123256236Y-113824955D01*
X123319645Y-113858848D01*
X123388448Y-113879719D01*
X123442069Y-113885000D01*
X123442070Y-113885000D01*
X123459999Y-113886766D01*
X123477928Y-113885000D01*
X125876181Y-113885000D01*
X125941638Y-113887075D01*
X125987401Y-113892061D01*
X126020576Y-113898852D01*
X126046532Y-113907025D01*
X126071511Y-113917698D01*
X126100954Y-113933073D01*
X126138420Y-113954803D01*
X126183439Y-113981462D01*
X126187640Y-113983893D01*
X126239362Y-114013125D01*
X126247792Y-114017670D01*
X126269637Y-114028891D01*
X126290530Y-114042851D01*
X126397903Y-114087327D01*
X126511890Y-114110000D01*
X126628110Y-114110000D01*
X126742097Y-114087327D01*
X126849470Y-114042851D01*
X126946103Y-113978283D01*
X127028283Y-113896103D01*
X127092851Y-113799470D01*
X127137327Y-113692097D01*
X127160000Y-113578110D01*
X127160000Y-113461890D01*
X127137327Y-113347903D01*
X127092851Y-113240530D01*
X127028283Y-113143897D01*
X126946103Y-113061717D01*
X126849470Y-112997149D01*
X126742097Y-112952673D01*
X126628110Y-112930000D01*
X126511890Y-112930000D01*
X126397903Y-112952673D01*
X126290530Y-112997149D01*
X126269637Y-113011109D01*
X126247795Y-113022328D01*
X126239362Y-113026874D01*
X126187640Y-113056106D01*
X126183439Y-113058537D01*
X126138420Y-113085196D01*
X126100954Y-113106926D01*
X126071511Y-113122301D01*
X126046532Y-113132974D01*
X126020576Y-113141147D01*
X125987401Y-113147938D01*
X125941625Y-113152926D01*
X125876209Y-113155000D01*
X123611188Y-113155000D01*
X122475000Y-112018813D01*
X122475000Y-111502644D01*
X124595000Y-111502644D01*
X124595000Y-111717356D01*
X124636888Y-111927941D01*
X124719055Y-112126309D01*
X124838342Y-112304834D01*
X124990166Y-112456658D01*
X125168691Y-112575945D01*
X125367059Y-112658112D01*
X125577644Y-112700000D01*
X125792356Y-112700000D01*
X126002941Y-112658112D01*
X126201309Y-112575945D01*
X126379834Y-112456658D01*
X126531658Y-112304834D01*
X126650945Y-112126309D01*
X126733112Y-111927941D01*
X126775000Y-111717356D01*
X126775000Y-111502644D01*
X126885000Y-111502644D01*
X126885000Y-111717356D01*
X126926888Y-111927941D01*
X127009055Y-112126309D01*
X127128342Y-112304834D01*
X127201357Y-112377849D01*
X127302922Y-112486612D01*
X127378004Y-112580183D01*
X127437417Y-112666731D01*
X127489062Y-112752647D01*
X127539753Y-112843294D01*
X127540437Y-112844507D01*
X127594611Y-112940076D01*
X127599503Y-112948318D01*
X127613781Y-112971315D01*
X127614572Y-112979342D01*
X127615282Y-112986552D01*
X127636153Y-113055355D01*
X127670046Y-113118764D01*
X127715658Y-113174343D01*
X127729587Y-113185774D01*
X128659225Y-114115413D01*
X128670657Y-114129343D01*
X128726236Y-114174955D01*
X128789645Y-114208848D01*
X128858448Y-114229719D01*
X128912069Y-114235000D01*
X128912071Y-114235000D01*
X128930000Y-114236766D01*
X128947929Y-114235000D01*
X138532071Y-114235000D01*
X138550000Y-114236766D01*
X138567929Y-114235000D01*
X138567931Y-114235000D01*
X138621552Y-114229719D01*
X138690355Y-114208848D01*
X138753764Y-114174955D01*
X138809343Y-114129343D01*
X138820779Y-114115408D01*
X139945418Y-112990770D01*
X139959342Y-112979343D01*
X139978980Y-112955415D01*
X140004954Y-112923765D01*
X140004955Y-112923764D01*
X140038848Y-112860355D01*
X140059719Y-112791552D01*
X140065000Y-112737931D01*
X140065000Y-112737929D01*
X140066766Y-112720000D01*
X140065000Y-112702071D01*
X140065000Y-111282149D01*
X141171490Y-111282149D01*
X141400999Y-111577063D01*
X141806966Y-111804779D01*
X142249556Y-111948919D01*
X142711763Y-112003944D01*
X143175823Y-111967740D01*
X143623903Y-111841698D01*
X144038785Y-111630662D01*
X144119001Y-111577063D01*
X144348510Y-111282149D01*
X142760000Y-109693640D01*
X141171490Y-111282149D01*
X140065000Y-111282149D01*
X140065000Y-109581763D01*
X140386056Y-109581763D01*
X140422260Y-110045823D01*
X140548302Y-110493903D01*
X140759338Y-110908785D01*
X140812937Y-110989001D01*
X141107851Y-111218510D01*
X142696360Y-109630000D01*
X142823640Y-109630000D01*
X144412149Y-111218510D01*
X144707063Y-110989001D01*
X144934779Y-110583034D01*
X145078919Y-110140444D01*
X145133944Y-109678237D01*
X145097740Y-109214177D01*
X144971698Y-108766097D01*
X144760662Y-108351215D01*
X144707063Y-108270999D01*
X144412149Y-108041490D01*
X142823640Y-109630000D01*
X142696360Y-109630000D01*
X141107851Y-108041490D01*
X140812937Y-108270999D01*
X140585221Y-108676966D01*
X140441081Y-109119556D01*
X140386056Y-109581763D01*
X140065000Y-109581763D01*
X140065000Y-107977851D01*
X141171490Y-107977851D01*
X142760000Y-109566360D01*
X144348510Y-107977851D01*
X144119001Y-107682937D01*
X143713034Y-107455221D01*
X143270444Y-107311081D01*
X142808237Y-107256056D01*
X142344177Y-107292260D01*
X141896097Y-107418302D01*
X141481215Y-107629338D01*
X141400999Y-107682937D01*
X141171490Y-107977851D01*
X140065000Y-107977851D01*
X140065000Y-107781187D01*
X141025418Y-106820770D01*
X141039342Y-106809343D01*
X141084955Y-106753764D01*
X141118848Y-106690355D01*
X141139719Y-106621552D01*
X141145000Y-106567931D01*
X141145000Y-106567929D01*
X141146766Y-106550000D01*
X141145000Y-106532071D01*
X141145000Y-104881440D01*
X141292227Y-104836779D01*
X141464909Y-104744479D01*
X141616265Y-104620265D01*
X141740479Y-104468909D01*
X141832779Y-104296228D01*
X141889617Y-104108858D01*
X141904000Y-103962826D01*
X141904000Y-102357174D01*
X141889617Y-102211142D01*
X141832779Y-102023772D01*
X141740479Y-101851091D01*
X141616265Y-101699735D01*
X141464909Y-101575521D01*
X141292228Y-101483221D01*
X141104858Y-101426383D01*
X140910000Y-101407191D01*
X140715143Y-101426383D01*
X140527773Y-101483221D01*
X140355092Y-101575521D01*
X140203736Y-101699735D01*
X140079522Y-101851091D01*
X139987222Y-102023772D01*
X139930384Y-102211142D01*
X139916001Y-102357174D01*
X139916000Y-103962825D01*
X139930383Y-104108857D01*
X139987221Y-104296227D01*
X140079521Y-104468909D01*
X140203735Y-104620265D01*
X140355091Y-104744479D01*
X140415001Y-104776501D01*
X140415000Y-106398812D01*
X139454587Y-107359226D01*
X139440658Y-107370657D01*
X139429227Y-107384586D01*
X139395046Y-107426236D01*
X139361153Y-107489645D01*
X139340282Y-107558448D01*
X139333234Y-107630000D01*
X139335001Y-107647939D01*
X139335000Y-112568812D01*
X138398813Y-113505000D01*
X129081188Y-113505000D01*
X128521541Y-112945354D01*
X128454439Y-112862004D01*
X128439540Y-112824938D01*
X128439373Y-112805367D01*
X128452337Y-112767573D01*
X128493293Y-112701613D01*
X128563417Y-112614131D01*
X128653702Y-112511062D01*
X128655976Y-112508429D01*
X128752805Y-112394601D01*
X128762569Y-112382332D01*
X128816019Y-112310473D01*
X128821658Y-112304834D01*
X128834419Y-112285735D01*
X128854255Y-112259068D01*
X128869408Y-112236044D01*
X128880960Y-112216082D01*
X128940945Y-112126309D01*
X129023112Y-111927941D01*
X129065000Y-111717356D01*
X129065000Y-111502644D01*
X129175000Y-111502644D01*
X129175000Y-111717356D01*
X129216888Y-111927941D01*
X129299055Y-112126309D01*
X129418342Y-112304834D01*
X129570166Y-112456658D01*
X129748691Y-112575945D01*
X129947059Y-112658112D01*
X130157644Y-112700000D01*
X130372356Y-112700000D01*
X130582941Y-112658112D01*
X130781309Y-112575945D01*
X130959834Y-112456658D01*
X131111658Y-112304834D01*
X131230945Y-112126309D01*
X131313112Y-111927941D01*
X131355000Y-111717356D01*
X131355000Y-111502644D01*
X131465000Y-111502644D01*
X131465000Y-111717356D01*
X131506888Y-111927941D01*
X131589055Y-112126309D01*
X131708342Y-112304834D01*
X131860166Y-112456658D01*
X132038691Y-112575945D01*
X132237059Y-112658112D01*
X132447644Y-112700000D01*
X132662356Y-112700000D01*
X132872941Y-112658112D01*
X133071309Y-112575945D01*
X133249834Y-112456658D01*
X133401658Y-112304834D01*
X133520945Y-112126309D01*
X133603112Y-111927941D01*
X133645000Y-111717356D01*
X133645000Y-111502644D01*
X133755000Y-111502644D01*
X133755000Y-111717356D01*
X133796888Y-111927941D01*
X133879055Y-112126309D01*
X133998342Y-112304834D01*
X134150166Y-112456658D01*
X134328691Y-112575945D01*
X134527059Y-112658112D01*
X134737644Y-112700000D01*
X134952356Y-112700000D01*
X135162941Y-112658112D01*
X135361309Y-112575945D01*
X135539834Y-112456658D01*
X135691658Y-112304834D01*
X135810945Y-112126309D01*
X135893112Y-111927941D01*
X135935000Y-111717356D01*
X135935000Y-111502644D01*
X135893112Y-111292059D01*
X135810945Y-111093691D01*
X135691658Y-110915166D01*
X135539834Y-110763342D01*
X135361309Y-110644055D01*
X135162941Y-110561888D01*
X134952356Y-110520000D01*
X134737644Y-110520000D01*
X134527059Y-110561888D01*
X134328691Y-110644055D01*
X134150166Y-110763342D01*
X133998342Y-110915166D01*
X133879055Y-111093691D01*
X133796888Y-111292059D01*
X133755000Y-111502644D01*
X133645000Y-111502644D01*
X133603112Y-111292059D01*
X133520945Y-111093691D01*
X133401658Y-110915166D01*
X133249834Y-110763342D01*
X133071309Y-110644055D01*
X132872941Y-110561888D01*
X132662356Y-110520000D01*
X132447644Y-110520000D01*
X132237059Y-110561888D01*
X132038691Y-110644055D01*
X131860166Y-110763342D01*
X131708342Y-110915166D01*
X131589055Y-111093691D01*
X131506888Y-111292059D01*
X131465000Y-111502644D01*
X131355000Y-111502644D01*
X131313112Y-111292059D01*
X131230945Y-111093691D01*
X131111658Y-110915166D01*
X130959834Y-110763342D01*
X130781309Y-110644055D01*
X130582941Y-110561888D01*
X130372356Y-110520000D01*
X130157644Y-110520000D01*
X129947059Y-110561888D01*
X129748691Y-110644055D01*
X129570166Y-110763342D01*
X129418342Y-110915166D01*
X129299055Y-111093691D01*
X129216888Y-111292059D01*
X129175000Y-111502644D01*
X129065000Y-111502644D01*
X129023112Y-111292059D01*
X128940945Y-111093691D01*
X128821658Y-110915166D01*
X128669834Y-110763342D01*
X128491309Y-110644055D01*
X128292941Y-110561888D01*
X128082356Y-110520000D01*
X127867644Y-110520000D01*
X127657059Y-110561888D01*
X127458691Y-110644055D01*
X127280166Y-110763342D01*
X127128342Y-110915166D01*
X127009055Y-111093691D01*
X126926888Y-111292059D01*
X126885000Y-111502644D01*
X126775000Y-111502644D01*
X126733112Y-111292059D01*
X126650945Y-111093691D01*
X126531658Y-110915166D01*
X126379834Y-110763342D01*
X126201309Y-110644055D01*
X126002941Y-110561888D01*
X125792356Y-110520000D01*
X125577644Y-110520000D01*
X125367059Y-110561888D01*
X125168691Y-110644055D01*
X124990166Y-110763342D01*
X124838342Y-110915166D01*
X124719055Y-111093691D01*
X124636888Y-111292059D01*
X124595000Y-111502644D01*
X122475000Y-111502644D01*
X122475000Y-110441258D01*
X123792382Y-110441258D01*
X123879965Y-110615019D01*
X124084814Y-110724859D01*
X124307157Y-110792624D01*
X124538447Y-110815709D01*
X124769797Y-110793229D01*
X124992316Y-110726047D01*
X125197453Y-110616744D01*
X125200035Y-110615019D01*
X125287618Y-110441258D01*
X126082382Y-110441258D01*
X126169965Y-110615019D01*
X126374814Y-110724859D01*
X126597157Y-110792624D01*
X126828447Y-110815709D01*
X127059797Y-110793229D01*
X127282316Y-110726047D01*
X127487453Y-110616744D01*
X127490035Y-110615019D01*
X127577618Y-110441258D01*
X128372382Y-110441258D01*
X128459965Y-110615019D01*
X128664814Y-110724859D01*
X128887157Y-110792624D01*
X129118447Y-110815709D01*
X129349797Y-110793229D01*
X129572316Y-110726047D01*
X129777453Y-110616744D01*
X129780035Y-110615019D01*
X129867618Y-110441258D01*
X129120000Y-109693640D01*
X128372382Y-110441258D01*
X127577618Y-110441258D01*
X126830000Y-109693640D01*
X126082382Y-110441258D01*
X125287618Y-110441258D01*
X124540000Y-109693640D01*
X123792382Y-110441258D01*
X122475000Y-110441258D01*
X122475000Y-109628447D01*
X123354291Y-109628447D01*
X123376771Y-109859797D01*
X123443953Y-110082316D01*
X123553256Y-110287453D01*
X123554981Y-110290035D01*
X123728742Y-110377618D01*
X124476360Y-109630000D01*
X124603640Y-109630000D01*
X125351258Y-110377618D01*
X125525019Y-110290035D01*
X125634859Y-110085186D01*
X125685075Y-109920423D01*
X125733953Y-110082316D01*
X125843256Y-110287453D01*
X125844981Y-110290035D01*
X126018742Y-110377618D01*
X126766360Y-109630000D01*
X126893640Y-109630000D01*
X127641258Y-110377618D01*
X127815019Y-110290035D01*
X127924859Y-110085186D01*
X127975075Y-109920423D01*
X128023953Y-110082316D01*
X128133256Y-110287453D01*
X128134981Y-110290035D01*
X128308742Y-110377618D01*
X129056360Y-109630000D01*
X129183640Y-109630000D01*
X129931258Y-110377618D01*
X130105019Y-110290035D01*
X130214859Y-110085186D01*
X130282624Y-109862843D01*
X130305709Y-109631553D01*
X130295127Y-109522644D01*
X130320000Y-109522644D01*
X130320000Y-109737356D01*
X130361888Y-109947941D01*
X130444055Y-110146309D01*
X130563342Y-110324834D01*
X130715166Y-110476658D01*
X130893691Y-110595945D01*
X131092059Y-110678112D01*
X131302644Y-110720000D01*
X131517356Y-110720000D01*
X131727941Y-110678112D01*
X131926309Y-110595945D01*
X132104834Y-110476658D01*
X132140234Y-110441258D01*
X132952382Y-110441258D01*
X133039965Y-110615019D01*
X133244814Y-110724859D01*
X133467157Y-110792624D01*
X133698447Y-110815709D01*
X133929797Y-110793229D01*
X134152316Y-110726047D01*
X134357453Y-110616744D01*
X134360035Y-110615019D01*
X134447618Y-110441258D01*
X133700000Y-109693640D01*
X132952382Y-110441258D01*
X132140234Y-110441258D01*
X132256658Y-110324834D01*
X132375945Y-110146309D01*
X132458112Y-109947941D01*
X132500000Y-109737356D01*
X132500000Y-109628447D01*
X132514291Y-109628447D01*
X132536771Y-109859797D01*
X132603953Y-110082316D01*
X132713256Y-110287453D01*
X132714981Y-110290035D01*
X132888742Y-110377618D01*
X133636360Y-109630000D01*
X133763640Y-109630000D01*
X134511258Y-110377618D01*
X134685019Y-110290035D01*
X134794859Y-110085186D01*
X134862624Y-109862843D01*
X134885709Y-109631553D01*
X134863229Y-109400203D01*
X134796047Y-109177684D01*
X134686744Y-108972547D01*
X134685019Y-108969965D01*
X134511258Y-108882382D01*
X133763640Y-109630000D01*
X133636360Y-109630000D01*
X132888742Y-108882382D01*
X132714981Y-108969965D01*
X132605141Y-109174814D01*
X132537376Y-109397157D01*
X132514291Y-109628447D01*
X132500000Y-109628447D01*
X132500000Y-109522644D01*
X132458112Y-109312059D01*
X132375945Y-109113691D01*
X132256658Y-108935166D01*
X132140234Y-108818742D01*
X132952382Y-108818742D01*
X133700000Y-109566360D01*
X134447618Y-108818742D01*
X134414110Y-108752264D01*
X134612157Y-108812624D01*
X134843447Y-108835709D01*
X135074797Y-108813229D01*
X135297316Y-108746047D01*
X135502453Y-108636744D01*
X135505035Y-108635019D01*
X135592618Y-108461258D01*
X134845000Y-107713640D01*
X134097382Y-108461258D01*
X134130890Y-108527736D01*
X133932843Y-108467376D01*
X133701553Y-108444291D01*
X133470203Y-108466771D01*
X133247684Y-108533953D01*
X133042547Y-108643256D01*
X133039965Y-108644981D01*
X132952382Y-108818742D01*
X132140234Y-108818742D01*
X132104834Y-108783342D01*
X131926309Y-108664055D01*
X131727941Y-108581888D01*
X131517356Y-108540000D01*
X131302644Y-108540000D01*
X131092059Y-108581888D01*
X130893691Y-108664055D01*
X130715166Y-108783342D01*
X130563342Y-108935166D01*
X130444055Y-109113691D01*
X130361888Y-109312059D01*
X130320000Y-109522644D01*
X130295127Y-109522644D01*
X130283229Y-109400203D01*
X130216047Y-109177684D01*
X130106744Y-108972547D01*
X130105019Y-108969965D01*
X129931258Y-108882382D01*
X129183640Y-109630000D01*
X129056360Y-109630000D01*
X128308742Y-108882382D01*
X128134981Y-108969965D01*
X128025141Y-109174814D01*
X127974925Y-109339577D01*
X127926047Y-109177684D01*
X127816744Y-108972547D01*
X127815019Y-108969965D01*
X127641258Y-108882382D01*
X126893640Y-109630000D01*
X126766360Y-109630000D01*
X126018742Y-108882382D01*
X125844981Y-108969965D01*
X125735141Y-109174814D01*
X125684925Y-109339577D01*
X125636047Y-109177684D01*
X125526744Y-108972547D01*
X125525019Y-108969965D01*
X125351258Y-108882382D01*
X124603640Y-109630000D01*
X124476360Y-109630000D01*
X123728742Y-108882382D01*
X123554981Y-108969965D01*
X123445141Y-109174814D01*
X123377376Y-109397157D01*
X123354291Y-109628447D01*
X122475000Y-109628447D01*
X122475000Y-108818742D01*
X123792382Y-108818742D01*
X124540000Y-109566360D01*
X125287618Y-108818742D01*
X125248514Y-108741161D01*
X126121486Y-108741161D01*
X126082382Y-108818742D01*
X126830000Y-109566360D01*
X127577618Y-108818742D01*
X128372382Y-108818742D01*
X129120000Y-109566360D01*
X129867618Y-108818742D01*
X129780035Y-108644981D01*
X129575186Y-108535141D01*
X129352843Y-108467376D01*
X129121553Y-108444291D01*
X128890203Y-108466771D01*
X128667684Y-108533953D01*
X128462547Y-108643256D01*
X128459965Y-108644981D01*
X128372382Y-108818742D01*
X127577618Y-108818742D01*
X127490035Y-108644981D01*
X127285186Y-108535141D01*
X127062843Y-108467376D01*
X126831553Y-108444291D01*
X126776161Y-108449673D01*
X126776161Y-107542644D01*
X126885000Y-107542644D01*
X126885000Y-107757356D01*
X126926888Y-107967941D01*
X127009055Y-108166309D01*
X127128342Y-108344834D01*
X127280166Y-108496658D01*
X127458691Y-108615945D01*
X127657059Y-108698112D01*
X127867644Y-108740000D01*
X128082356Y-108740000D01*
X128292941Y-108698112D01*
X128491309Y-108615945D01*
X128669834Y-108496658D01*
X128821658Y-108344834D01*
X128940945Y-108166309D01*
X129023112Y-107967941D01*
X129065000Y-107757356D01*
X129065000Y-107542644D01*
X129175000Y-107542644D01*
X129175000Y-107757356D01*
X129216888Y-107967941D01*
X129299055Y-108166309D01*
X129418342Y-108344834D01*
X129570166Y-108496658D01*
X129748691Y-108615945D01*
X129947059Y-108698112D01*
X130157644Y-108740000D01*
X130372356Y-108740000D01*
X130582941Y-108698112D01*
X130781309Y-108615945D01*
X130959834Y-108496658D01*
X131111658Y-108344834D01*
X131230945Y-108166309D01*
X131313112Y-107967941D01*
X131355000Y-107757356D01*
X131355000Y-107542644D01*
X131465000Y-107542644D01*
X131465000Y-107757356D01*
X131506888Y-107967941D01*
X131589055Y-108166309D01*
X131708342Y-108344834D01*
X131860166Y-108496658D01*
X132038691Y-108615945D01*
X132237059Y-108698112D01*
X132447644Y-108740000D01*
X132662356Y-108740000D01*
X132872941Y-108698112D01*
X133071309Y-108615945D01*
X133249834Y-108496658D01*
X133401658Y-108344834D01*
X133520945Y-108166309D01*
X133603112Y-107967941D01*
X133645000Y-107757356D01*
X133645000Y-107648447D01*
X133659291Y-107648447D01*
X133681771Y-107879797D01*
X133748953Y-108102316D01*
X133858256Y-108307453D01*
X133859981Y-108310035D01*
X134033742Y-108397618D01*
X134781360Y-107650000D01*
X134908640Y-107650000D01*
X135656258Y-108397618D01*
X135830019Y-108310035D01*
X135939859Y-108105186D01*
X136007624Y-107882843D01*
X136030709Y-107651553D01*
X136008229Y-107420203D01*
X135941047Y-107197684D01*
X135831744Y-106992547D01*
X135830019Y-106989965D01*
X135656258Y-106902382D01*
X134908640Y-107650000D01*
X134781360Y-107650000D01*
X134033742Y-106902382D01*
X133859981Y-106989965D01*
X133750141Y-107194814D01*
X133682376Y-107417157D01*
X133659291Y-107648447D01*
X133645000Y-107648447D01*
X133645000Y-107542644D01*
X133603112Y-107332059D01*
X133520945Y-107133691D01*
X133401658Y-106955166D01*
X133285234Y-106838742D01*
X134097382Y-106838742D01*
X134845000Y-107586360D01*
X135592618Y-106838742D01*
X135505035Y-106664981D01*
X135300186Y-106555141D01*
X135077843Y-106487376D01*
X134846553Y-106464291D01*
X134615203Y-106486771D01*
X134392684Y-106553953D01*
X134187547Y-106663256D01*
X134184965Y-106664981D01*
X134097382Y-106838742D01*
X133285234Y-106838742D01*
X133249834Y-106803342D01*
X133071309Y-106684055D01*
X132872941Y-106601888D01*
X132662356Y-106560000D01*
X132447644Y-106560000D01*
X132237059Y-106601888D01*
X132038691Y-106684055D01*
X131860166Y-106803342D01*
X131708342Y-106955166D01*
X131589055Y-107133691D01*
X131506888Y-107332059D01*
X131465000Y-107542644D01*
X131355000Y-107542644D01*
X131313112Y-107332059D01*
X131230945Y-107133691D01*
X131111658Y-106955166D01*
X130959834Y-106803342D01*
X130781309Y-106684055D01*
X130582941Y-106601888D01*
X130372356Y-106560000D01*
X130157644Y-106560000D01*
X129947059Y-106601888D01*
X129748691Y-106684055D01*
X129570166Y-106803342D01*
X129418342Y-106955166D01*
X129299055Y-107133691D01*
X129216888Y-107332059D01*
X129175000Y-107542644D01*
X129065000Y-107542644D01*
X129023112Y-107332059D01*
X128940945Y-107133691D01*
X128821658Y-106955166D01*
X128669834Y-106803342D01*
X128491309Y-106684055D01*
X128292941Y-106601888D01*
X128082356Y-106560000D01*
X127867644Y-106560000D01*
X127657059Y-106601888D01*
X127458691Y-106684055D01*
X127280166Y-106803342D01*
X127128342Y-106955166D01*
X127009055Y-107133691D01*
X126926888Y-107332059D01*
X126885000Y-107542644D01*
X126776161Y-107542644D01*
X126776161Y-106800000D01*
X126771527Y-106752952D01*
X126757804Y-106707712D01*
X126735518Y-106666018D01*
X126705527Y-106629473D01*
X126668982Y-106599482D01*
X126627288Y-106577196D01*
X126582048Y-106563473D01*
X126535000Y-106558839D01*
X126231113Y-106558839D01*
X126202009Y-106522854D01*
X126145461Y-106440485D01*
X126101529Y-106355031D01*
X126067539Y-106253623D01*
X126044170Y-106122217D01*
X126035000Y-105943844D01*
X126035000Y-103962825D01*
X134416000Y-103962825D01*
X134430383Y-104108857D01*
X134487221Y-104296227D01*
X134579521Y-104468909D01*
X134703735Y-104620265D01*
X134855091Y-104744479D01*
X135027772Y-104836779D01*
X135215142Y-104893617D01*
X135410000Y-104912809D01*
X135604857Y-104893617D01*
X135792227Y-104836779D01*
X135964909Y-104744479D01*
X136116265Y-104620265D01*
X136240479Y-104468909D01*
X136332779Y-104296228D01*
X136389617Y-104108858D01*
X136404000Y-103962826D01*
X136404000Y-102498737D01*
X136503735Y-102620265D01*
X136655091Y-102744479D01*
X136827772Y-102836779D01*
X137015142Y-102893617D01*
X137210000Y-102912809D01*
X137404857Y-102893617D01*
X137592227Y-102836779D01*
X137764909Y-102744479D01*
X137916265Y-102620265D01*
X138040479Y-102468909D01*
X138132779Y-102296228D01*
X138189617Y-102108858D01*
X138204000Y-101962826D01*
X138204000Y-101205000D01*
X142226000Y-101205000D01*
X142226000Y-101959000D01*
X142255608Y-102169613D01*
X142325735Y-102370403D01*
X142433687Y-102553654D01*
X142575315Y-102712323D01*
X142745177Y-102840313D01*
X142936745Y-102932706D01*
X143096125Y-102976692D01*
X143265000Y-102914489D01*
X143265000Y-101205000D01*
X143355000Y-101205000D01*
X143355000Y-102914489D01*
X143523875Y-102976692D01*
X143683255Y-102932706D01*
X143874823Y-102840313D01*
X144044685Y-102712323D01*
X144186313Y-102553654D01*
X144294265Y-102370403D01*
X144364392Y-102169613D01*
X144394000Y-101959000D01*
X144394000Y-101205000D01*
X143355000Y-101205000D01*
X143265000Y-101205000D01*
X142226000Y-101205000D01*
X138204000Y-101205000D01*
X138204000Y-100361000D01*
X142226000Y-100361000D01*
X142226000Y-101115000D01*
X143265000Y-101115000D01*
X143265000Y-99405511D01*
X143355000Y-99405511D01*
X143355000Y-101115000D01*
X144394000Y-101115000D01*
X144394000Y-100361000D01*
X144364392Y-100150387D01*
X144294265Y-99949597D01*
X144186313Y-99766346D01*
X144044685Y-99607677D01*
X143874823Y-99479687D01*
X143683255Y-99387294D01*
X143523875Y-99343308D01*
X143355000Y-99405511D01*
X143265000Y-99405511D01*
X143096125Y-99343308D01*
X142936745Y-99387294D01*
X142745177Y-99479687D01*
X142575315Y-99607677D01*
X142433687Y-99766346D01*
X142325735Y-99949597D01*
X142255608Y-100150387D01*
X142226000Y-100361000D01*
X138204000Y-100361000D01*
X138204000Y-100357174D01*
X138189617Y-100211142D01*
X138132779Y-100023772D01*
X138040479Y-99851091D01*
X137916265Y-99699735D01*
X137764909Y-99575521D01*
X137592228Y-99483221D01*
X137404858Y-99426383D01*
X137210000Y-99407191D01*
X137015143Y-99426383D01*
X136827773Y-99483221D01*
X136655092Y-99575521D01*
X136503736Y-99699735D01*
X136379522Y-99851091D01*
X136287222Y-100023772D01*
X136230384Y-100211142D01*
X136216001Y-100357174D01*
X136216000Y-101821263D01*
X136116265Y-101699735D01*
X135964909Y-101575521D01*
X135792228Y-101483221D01*
X135604858Y-101426383D01*
X135410000Y-101407191D01*
X135215143Y-101426383D01*
X135027773Y-101483221D01*
X134855092Y-101575521D01*
X134703736Y-101699735D01*
X134579522Y-101851091D01*
X134487222Y-102023772D01*
X134430384Y-102211142D01*
X134416001Y-102357174D01*
X134416000Y-103962825D01*
X126035000Y-103962825D01*
X126035000Y-103521187D01*
X127593362Y-101962825D01*
X130716000Y-101962825D01*
X130730383Y-102108857D01*
X130787221Y-102296227D01*
X130879521Y-102468909D01*
X131003735Y-102620265D01*
X131155091Y-102744479D01*
X131327772Y-102836779D01*
X131515142Y-102893617D01*
X131710000Y-102912809D01*
X131904857Y-102893617D01*
X132092227Y-102836779D01*
X132264909Y-102744479D01*
X132416265Y-102620265D01*
X132540479Y-102468909D01*
X132632779Y-102296228D01*
X132689617Y-102108858D01*
X132704000Y-101962826D01*
X132704000Y-100357174D01*
X132689617Y-100211142D01*
X132632779Y-100023772D01*
X132540479Y-99851091D01*
X132416265Y-99699735D01*
X132264909Y-99575521D01*
X132092228Y-99483221D01*
X131904858Y-99426383D01*
X131710000Y-99407191D01*
X131515143Y-99426383D01*
X131327773Y-99483221D01*
X131155092Y-99575521D01*
X131003736Y-99699735D01*
X130879522Y-99851091D01*
X130787222Y-100023772D01*
X130730384Y-100211142D01*
X130716001Y-100357174D01*
X130716000Y-101962825D01*
X127593362Y-101962825D01*
X130921187Y-98635000D01*
X133612071Y-98635000D01*
X133630000Y-98636766D01*
X133647929Y-98635000D01*
X133647931Y-98635000D01*
X133701552Y-98629719D01*
X133770355Y-98608848D01*
X133833764Y-98574955D01*
X133889343Y-98529343D01*
X133900779Y-98515408D01*
X134840413Y-97575775D01*
X134854343Y-97564343D01*
X134899955Y-97508764D01*
X134933848Y-97445355D01*
X134954719Y-97376552D01*
X134960000Y-97322931D01*
X134960000Y-97322930D01*
X134961766Y-97305001D01*
X134960000Y-97287072D01*
X134960000Y-96596189D01*
X134969207Y-96417984D01*
X134992632Y-96286710D01*
X135026692Y-96185220D01*
X135070700Y-96099465D01*
X135127285Y-96016567D01*
X135147612Y-95991161D01*
X135445000Y-95991161D01*
X135492048Y-95986527D01*
X135537288Y-95972804D01*
X135578982Y-95950518D01*
X135615527Y-95920527D01*
X135645518Y-95883982D01*
X135667804Y-95842288D01*
X135681527Y-95797048D01*
X135686161Y-95750000D01*
X135686161Y-94572149D01*
X141171490Y-94572149D01*
X141400999Y-94867063D01*
X141806966Y-95094779D01*
X142249556Y-95238919D01*
X142711763Y-95293944D01*
X143175823Y-95257740D01*
X143623903Y-95131698D01*
X144038785Y-94920662D01*
X144119001Y-94867063D01*
X144348510Y-94572149D01*
X142760000Y-92983640D01*
X141171490Y-94572149D01*
X135686161Y-94572149D01*
X135686161Y-94050000D01*
X135681527Y-94002952D01*
X135667804Y-93957712D01*
X135645518Y-93916018D01*
X135615527Y-93879473D01*
X135578982Y-93849482D01*
X135537288Y-93827196D01*
X135492048Y-93813473D01*
X135445000Y-93808839D01*
X133745000Y-93808839D01*
X133697952Y-93813473D01*
X133652712Y-93827196D01*
X133611018Y-93849482D01*
X133574473Y-93879473D01*
X133544482Y-93916018D01*
X133522196Y-93957712D01*
X133508473Y-94002952D01*
X133503839Y-94050000D01*
X133503839Y-95750000D01*
X133508473Y-95797048D01*
X133522196Y-95842288D01*
X133544482Y-95883982D01*
X133574473Y-95920527D01*
X133611018Y-95950518D01*
X133652712Y-95972804D01*
X133697952Y-95986527D01*
X133745000Y-95991161D01*
X134042387Y-95991161D01*
X134062714Y-96016567D01*
X134119299Y-96099465D01*
X134163307Y-96185220D01*
X134197367Y-96286710D01*
X134220792Y-96417984D01*
X134230001Y-96596204D01*
X134230001Y-97153811D01*
X133478813Y-97905000D01*
X130787928Y-97905000D01*
X130769999Y-97903234D01*
X130752070Y-97905000D01*
X130752069Y-97905000D01*
X130698448Y-97910281D01*
X130629645Y-97931152D01*
X130566236Y-97965045D01*
X130510657Y-98010657D01*
X130499221Y-98024592D01*
X125424588Y-103099225D01*
X125410657Y-103110658D01*
X125365045Y-103166237D01*
X125331152Y-103229646D01*
X125310281Y-103298449D01*
X125305000Y-103352069D01*
X125303234Y-103370000D01*
X125305000Y-103387929D01*
X125305001Y-105943898D01*
X125295803Y-106124986D01*
X125272321Y-106259107D01*
X125238095Y-106363319D01*
X125193906Y-106451578D01*
X125137351Y-106536800D01*
X125120267Y-106558839D01*
X124835000Y-106558839D01*
X124787952Y-106563473D01*
X124742712Y-106577196D01*
X124701018Y-106599482D01*
X124664473Y-106629473D01*
X124634482Y-106666018D01*
X124612196Y-106707712D01*
X124598473Y-106752952D01*
X124593839Y-106800000D01*
X124593839Y-108449510D01*
X124541553Y-108444291D01*
X124310203Y-108466771D01*
X124087684Y-108533953D01*
X123882547Y-108643256D01*
X123879965Y-108644981D01*
X123792382Y-108818742D01*
X122475000Y-108818742D01*
X122475000Y-96821890D01*
X127470000Y-96821890D01*
X127470000Y-96938110D01*
X127492673Y-97052097D01*
X127537149Y-97159470D01*
X127601717Y-97256103D01*
X127683897Y-97338283D01*
X127780530Y-97402851D01*
X127887903Y-97447327D01*
X128001890Y-97470000D01*
X128118110Y-97470000D01*
X128232097Y-97447327D01*
X128339470Y-97402851D01*
X128360368Y-97388887D01*
X128382208Y-97377669D01*
X128390637Y-97373125D01*
X128442359Y-97343893D01*
X128446560Y-97341462D01*
X128491579Y-97314803D01*
X128529045Y-97293073D01*
X128558488Y-97277698D01*
X128583467Y-97267025D01*
X128609423Y-97258852D01*
X128642598Y-97252061D01*
X128688361Y-97247075D01*
X128753819Y-97245000D01*
X131232071Y-97245000D01*
X131250000Y-97246766D01*
X131267929Y-97245000D01*
X131267931Y-97245000D01*
X131321552Y-97239719D01*
X131390355Y-97218848D01*
X131453764Y-97184955D01*
X131509343Y-97139343D01*
X131520779Y-97125408D01*
X132014192Y-96631995D01*
X132151997Y-96496942D01*
X132269158Y-96387155D01*
X132371246Y-96295876D01*
X132463632Y-96216689D01*
X132551466Y-96143457D01*
X132638784Y-96070951D01*
X132640759Y-96069293D01*
X132730908Y-95992785D01*
X132734610Y-95989578D01*
X132831812Y-95903611D01*
X132836244Y-95899591D01*
X132944914Y-95798543D01*
X132949243Y-95794417D01*
X132994367Y-95750311D01*
X132999834Y-95746658D01*
X133151658Y-95594834D01*
X133270945Y-95416309D01*
X133353112Y-95217941D01*
X133395000Y-95007356D01*
X133395000Y-94792644D01*
X133353112Y-94582059D01*
X133270945Y-94383691D01*
X133151658Y-94205166D01*
X132999834Y-94053342D01*
X132821309Y-93934055D01*
X132622941Y-93851888D01*
X132412356Y-93810000D01*
X132197644Y-93810000D01*
X131987059Y-93851888D01*
X131788691Y-93934055D01*
X131610166Y-94053342D01*
X131458342Y-94205166D01*
X131339055Y-94383691D01*
X131256888Y-94582059D01*
X131215000Y-94792644D01*
X131215000Y-95007356D01*
X131256888Y-95217941D01*
X131339055Y-95416309D01*
X131367696Y-95459174D01*
X131388328Y-95498754D01*
X131392716Y-95506794D01*
X131455158Y-95616186D01*
X131455477Y-95616743D01*
X131512337Y-95715740D01*
X131556539Y-95800270D01*
X131584511Y-95868300D01*
X131596488Y-95918370D01*
X131596976Y-95954523D01*
X131587766Y-95990784D01*
X131559415Y-96042568D01*
X131492055Y-96121758D01*
X131098813Y-96515000D01*
X128753791Y-96515000D01*
X128688374Y-96512926D01*
X128642598Y-96507938D01*
X128609423Y-96501147D01*
X128583467Y-96492974D01*
X128558488Y-96482301D01*
X128529045Y-96466926D01*
X128491579Y-96445196D01*
X128446560Y-96418537D01*
X128442359Y-96416106D01*
X128390637Y-96386874D01*
X128382205Y-96382328D01*
X128360361Y-96371108D01*
X128339470Y-96357149D01*
X128232097Y-96312673D01*
X128118110Y-96290000D01*
X128001890Y-96290000D01*
X127887903Y-96312673D01*
X127780530Y-96357149D01*
X127683897Y-96421717D01*
X127601717Y-96503897D01*
X127537149Y-96600530D01*
X127492673Y-96707903D01*
X127470000Y-96821890D01*
X122475000Y-96821890D01*
X122475000Y-94792644D01*
X126635000Y-94792644D01*
X126635000Y-95007356D01*
X126676888Y-95217941D01*
X126759055Y-95416309D01*
X126878342Y-95594834D01*
X127030166Y-95746658D01*
X127208691Y-95865945D01*
X127407059Y-95948112D01*
X127617644Y-95990000D01*
X127832356Y-95990000D01*
X128042941Y-95948112D01*
X128241309Y-95865945D01*
X128419834Y-95746658D01*
X128571658Y-95594834D01*
X128690945Y-95416309D01*
X128773112Y-95217941D01*
X128815000Y-95007356D01*
X128815000Y-94792644D01*
X128925000Y-94792644D01*
X128925000Y-95007356D01*
X128966888Y-95217941D01*
X129049055Y-95416309D01*
X129168342Y-95594834D01*
X129320166Y-95746658D01*
X129498691Y-95865945D01*
X129697059Y-95948112D01*
X129907644Y-95990000D01*
X130122356Y-95990000D01*
X130332941Y-95948112D01*
X130531309Y-95865945D01*
X130709834Y-95746658D01*
X130861658Y-95594834D01*
X130980945Y-95416309D01*
X131063112Y-95217941D01*
X131105000Y-95007356D01*
X131105000Y-94792644D01*
X131063112Y-94582059D01*
X130980945Y-94383691D01*
X130861658Y-94205166D01*
X130709834Y-94053342D01*
X130531309Y-93934055D01*
X130332941Y-93851888D01*
X130122356Y-93810000D01*
X129907644Y-93810000D01*
X129697059Y-93851888D01*
X129498691Y-93934055D01*
X129320166Y-94053342D01*
X129168342Y-94205166D01*
X129049055Y-94383691D01*
X128966888Y-94582059D01*
X128925000Y-94792644D01*
X128815000Y-94792644D01*
X128773112Y-94582059D01*
X128690945Y-94383691D01*
X128571658Y-94205166D01*
X128419834Y-94053342D01*
X128241309Y-93934055D01*
X128042941Y-93851888D01*
X127832356Y-93810000D01*
X127617644Y-93810000D01*
X127407059Y-93851888D01*
X127208691Y-93934055D01*
X127030166Y-94053342D01*
X126878342Y-94205166D01*
X126759055Y-94383691D01*
X126676888Y-94582059D01*
X126635000Y-94792644D01*
X122475000Y-94792644D01*
X122475000Y-92812644D01*
X127780000Y-92812644D01*
X127780000Y-93027356D01*
X127821888Y-93237941D01*
X127904055Y-93436309D01*
X128023342Y-93614834D01*
X128175166Y-93766658D01*
X128353691Y-93885945D01*
X128552059Y-93968112D01*
X128762644Y-94010000D01*
X128977356Y-94010000D01*
X129187941Y-93968112D01*
X129386309Y-93885945D01*
X129564834Y-93766658D01*
X129716658Y-93614834D01*
X129835945Y-93436309D01*
X129918112Y-93237941D01*
X129960000Y-93027356D01*
X129960000Y-92871763D01*
X140386056Y-92871763D01*
X140422260Y-93335823D01*
X140548302Y-93783903D01*
X140759338Y-94198785D01*
X140812937Y-94279001D01*
X141107851Y-94508510D01*
X142696360Y-92920000D01*
X142823640Y-92920000D01*
X144412149Y-94508510D01*
X144707063Y-94279001D01*
X144934779Y-93873034D01*
X145078919Y-93430444D01*
X145133944Y-92968237D01*
X145097740Y-92504177D01*
X144971698Y-92056097D01*
X144760662Y-91641215D01*
X144707063Y-91560999D01*
X144412149Y-91331490D01*
X142823640Y-92920000D01*
X142696360Y-92920000D01*
X141107851Y-91331490D01*
X140812937Y-91560999D01*
X140585221Y-91966966D01*
X140441081Y-92409556D01*
X140386056Y-92871763D01*
X129960000Y-92871763D01*
X129960000Y-92812644D01*
X129918112Y-92602059D01*
X129835945Y-92403691D01*
X129716658Y-92225166D01*
X129564834Y-92073342D01*
X129386309Y-91954055D01*
X129187941Y-91871888D01*
X128977356Y-91830000D01*
X128762644Y-91830000D01*
X128552059Y-91871888D01*
X128353691Y-91954055D01*
X128175166Y-92073342D01*
X128023342Y-92225166D01*
X127904055Y-92403691D01*
X127821888Y-92602059D01*
X127780000Y-92812644D01*
X122475000Y-92812644D01*
X122475000Y-90832644D01*
X124345000Y-90832644D01*
X124345000Y-91047356D01*
X124386888Y-91257941D01*
X124469055Y-91456309D01*
X124588342Y-91634834D01*
X124740166Y-91786658D01*
X124918691Y-91905945D01*
X125117059Y-91988112D01*
X125327644Y-92030000D01*
X125542356Y-92030000D01*
X125752941Y-91988112D01*
X125951309Y-91905945D01*
X126129834Y-91786658D01*
X126281658Y-91634834D01*
X126400945Y-91456309D01*
X126483112Y-91257941D01*
X126525000Y-91047356D01*
X126525000Y-90832644D01*
X126635000Y-90832644D01*
X126635000Y-91047356D01*
X126676888Y-91257941D01*
X126759055Y-91456309D01*
X126878342Y-91634834D01*
X127030166Y-91786658D01*
X127208691Y-91905945D01*
X127407059Y-91988112D01*
X127617644Y-92030000D01*
X127832356Y-92030000D01*
X128042941Y-91988112D01*
X128241309Y-91905945D01*
X128419834Y-91786658D01*
X128571658Y-91634834D01*
X128690945Y-91456309D01*
X128773112Y-91257941D01*
X128815000Y-91047356D01*
X128815000Y-90832644D01*
X128773112Y-90622059D01*
X128690945Y-90423691D01*
X128571658Y-90245166D01*
X128419834Y-90093342D01*
X128241309Y-89974055D01*
X128042941Y-89891888D01*
X127832356Y-89850000D01*
X127617644Y-89850000D01*
X127407059Y-89891888D01*
X127208691Y-89974055D01*
X127030166Y-90093342D01*
X126878342Y-90245166D01*
X126759055Y-90423691D01*
X126676888Y-90622059D01*
X126635000Y-90832644D01*
X126525000Y-90832644D01*
X126483112Y-90622059D01*
X126400945Y-90423691D01*
X126281658Y-90245166D01*
X126129834Y-90093342D01*
X125951309Y-89974055D01*
X125752941Y-89891888D01*
X125542356Y-89850000D01*
X125327644Y-89850000D01*
X125117059Y-89891888D01*
X124918691Y-89974055D01*
X124740166Y-90093342D01*
X124588342Y-90245166D01*
X124469055Y-90423691D01*
X124386888Y-90622059D01*
X124345000Y-90832644D01*
X122475000Y-90832644D01*
X122475000Y-90271187D01*
X123361188Y-89385000D01*
X128228813Y-89385000D01*
X128705664Y-89861851D01*
X128813244Y-89982097D01*
X128878298Y-90078792D01*
X128915437Y-90161072D01*
X128934902Y-90238861D01*
X128942491Y-90324210D01*
X128940588Y-90425804D01*
X128932289Y-90547264D01*
X128932236Y-90548070D01*
X128923287Y-90685851D01*
X128922829Y-90696673D01*
X128919838Y-90848306D01*
X128920144Y-90866050D01*
X128925000Y-90955494D01*
X128925000Y-91047356D01*
X128966888Y-91257941D01*
X129049055Y-91456309D01*
X129168342Y-91634834D01*
X129320166Y-91786658D01*
X129498691Y-91905945D01*
X129697059Y-91988112D01*
X129907644Y-92030000D01*
X130122356Y-92030000D01*
X130332941Y-91988112D01*
X130531309Y-91905945D01*
X130709834Y-91786658D01*
X130861658Y-91634834D01*
X130980945Y-91456309D01*
X131063112Y-91257941D01*
X131105000Y-91047356D01*
X131105000Y-90832644D01*
X131215000Y-90832644D01*
X131215000Y-91047356D01*
X131256888Y-91257941D01*
X131339055Y-91456309D01*
X131458342Y-91634834D01*
X131610166Y-91786658D01*
X131788691Y-91905945D01*
X131987059Y-91988112D01*
X132197644Y-92030000D01*
X132412356Y-92030000D01*
X132622941Y-91988112D01*
X132821309Y-91905945D01*
X132999834Y-91786658D01*
X133151658Y-91634834D01*
X133270945Y-91456309D01*
X133353112Y-91257941D01*
X133395000Y-91047356D01*
X133395000Y-90832644D01*
X133505000Y-90832644D01*
X133505000Y-91047356D01*
X133546888Y-91257941D01*
X133629055Y-91456309D01*
X133748342Y-91634834D01*
X133900166Y-91786658D01*
X134078691Y-91905945D01*
X134277059Y-91988112D01*
X134487644Y-92030000D01*
X134702356Y-92030000D01*
X134912941Y-91988112D01*
X135111309Y-91905945D01*
X135289834Y-91786658D01*
X135441658Y-91634834D01*
X135560945Y-91456309D01*
X135639007Y-91267851D01*
X141171490Y-91267851D01*
X142760000Y-92856360D01*
X144348510Y-91267851D01*
X144119001Y-90972937D01*
X143713034Y-90745221D01*
X143270444Y-90601081D01*
X142808237Y-90546056D01*
X142344177Y-90582260D01*
X141896097Y-90708302D01*
X141481215Y-90919338D01*
X141400999Y-90972937D01*
X141171490Y-91267851D01*
X135639007Y-91267851D01*
X135643112Y-91257941D01*
X135685000Y-91047356D01*
X135685000Y-90832644D01*
X135643112Y-90622059D01*
X135560945Y-90423691D01*
X135441658Y-90245166D01*
X135289834Y-90093342D01*
X135111309Y-89974055D01*
X134912941Y-89891888D01*
X134702356Y-89850000D01*
X134487644Y-89850000D01*
X134277059Y-89891888D01*
X134078691Y-89974055D01*
X133900166Y-90093342D01*
X133748342Y-90245166D01*
X133629055Y-90423691D01*
X133546888Y-90622059D01*
X133505000Y-90832644D01*
X133395000Y-90832644D01*
X133353112Y-90622059D01*
X133270945Y-90423691D01*
X133151658Y-90245166D01*
X132999834Y-90093342D01*
X132821309Y-89974055D01*
X132622941Y-89891888D01*
X132412356Y-89850000D01*
X132197644Y-89850000D01*
X131987059Y-89891888D01*
X131788691Y-89974055D01*
X131610166Y-90093342D01*
X131458342Y-90245166D01*
X131339055Y-90423691D01*
X131256888Y-90622059D01*
X131215000Y-90832644D01*
X131105000Y-90832644D01*
X131063112Y-90622059D01*
X130980945Y-90423691D01*
X130861658Y-90245166D01*
X130709834Y-90093342D01*
X130531309Y-89974055D01*
X130490837Y-89957291D01*
X130427739Y-89920881D01*
X130406178Y-89909850D01*
X130254145Y-89841517D01*
X130234157Y-89833589D01*
X130093881Y-89785104D01*
X130080290Y-89780854D01*
X129948128Y-89743787D01*
X129945207Y-89742987D01*
X129822293Y-89710181D01*
X129710330Y-89675296D01*
X129603497Y-89631297D01*
X129492448Y-89569529D01*
X129368673Y-89479410D01*
X129222593Y-89346406D01*
X128650779Y-88774592D01*
X128639343Y-88760657D01*
X128583764Y-88715045D01*
X128520355Y-88681152D01*
X128451552Y-88660281D01*
X128397931Y-88655000D01*
X128397929Y-88655000D01*
X128380000Y-88653234D01*
X128362071Y-88655000D01*
X123227929Y-88655000D01*
X123210000Y-88653234D01*
X123192071Y-88655000D01*
X123192069Y-88655000D01*
X123138448Y-88660281D01*
X123069645Y-88681152D01*
X123006236Y-88715045D01*
X122950657Y-88760657D01*
X122939225Y-88774587D01*
X121864588Y-89849225D01*
X121850657Y-89860658D01*
X121805045Y-89916237D01*
X121771152Y-89979646D01*
X121750281Y-90048449D01*
X121745860Y-90093342D01*
X121743234Y-90120000D01*
X115120000Y-90120000D01*
X115119999Y-88824195D01*
X115134890Y-88672326D01*
X115174874Y-88539893D01*
X115239820Y-88417749D01*
X115327248Y-88310552D01*
X115433841Y-88222371D01*
X115555525Y-88156576D01*
X115688584Y-88115389D01*
X115826346Y-88100002D01*
X144715805Y-88099999D01*
X144867674Y-88114890D01*
G37*
G04 #@! TD.AperFunction*
D18*
X128724220Y-111982419D02*
X128651060Y-112108836D01*
X128560053Y-112231187D01*
X128463556Y-112344624D01*
X128369876Y-112451570D01*
X128369520Y-112451995D01*
X128287096Y-112554821D01*
X128286216Y-112556065D01*
X128223340Y-112657328D01*
X128222116Y-112659906D01*
X128187017Y-112762228D01*
X128186444Y-112764651D01*
X128186330Y-112766458D01*
X128187238Y-112872465D01*
X128187504Y-112874940D01*
X128188154Y-112877092D01*
X128233299Y-112989406D01*
X128234450Y-112991614D01*
X128235190Y-112992634D01*
X128325652Y-113105001D01*
X128166194Y-113264459D01*
X128050032Y-113141045D01*
X127952665Y-113022540D01*
X127876277Y-112915024D01*
X127814314Y-112815225D01*
X127760309Y-112719955D01*
X127760310Y-112719955D01*
X127707793Y-112626043D01*
X127707593Y-112625699D01*
X127650271Y-112530338D01*
X127649856Y-112529693D01*
X127581266Y-112429776D01*
X127580701Y-112429016D01*
X127494379Y-112321438D01*
X127493756Y-112320718D01*
X127389703Y-112209291D01*
X127977477Y-111205897D01*
X128724220Y-111982419D01*
G04 #@! TA.AperFunction,Conductor*
D17*
G36*
X128724220Y-111982419D02*
G01*
X128651060Y-112108836D01*
X128560053Y-112231187D01*
X128463556Y-112344624D01*
X128369876Y-112451570D01*
X128369520Y-112451995D01*
X128287096Y-112554821D01*
X128286216Y-112556065D01*
X128223340Y-112657328D01*
X128222116Y-112659906D01*
X128187017Y-112762228D01*
X128186444Y-112764651D01*
X128186330Y-112766458D01*
X128187238Y-112872465D01*
X128187504Y-112874940D01*
X128188154Y-112877092D01*
X128233299Y-112989406D01*
X128234450Y-112991614D01*
X128235190Y-112992634D01*
X128325652Y-113105001D01*
X128166194Y-113264459D01*
X128050032Y-113141045D01*
X127952665Y-113022540D01*
X127876277Y-112915024D01*
X127814314Y-112815225D01*
X127760309Y-112719955D01*
X127760310Y-112719955D01*
X127707793Y-112626043D01*
X127707593Y-112625699D01*
X127650271Y-112530338D01*
X127649856Y-112529693D01*
X127581266Y-112429776D01*
X127580701Y-112429016D01*
X127494379Y-112321438D01*
X127493756Y-112320718D01*
X127389703Y-112209291D01*
X127977477Y-111205897D01*
X128724220Y-111982419D01*
G37*
G04 #@! TD.AperFunction*
D18*
X125792573Y-106150154D02*
X125792752Y-106151726D01*
X125821844Y-106315313D01*
X125822306Y-106317125D01*
X125867718Y-106452608D01*
X125868465Y-106454379D01*
X125927683Y-106569566D01*
X125928508Y-106570947D01*
X125999015Y-106673650D01*
X125999610Y-106674448D01*
X126078893Y-106772476D01*
X126079070Y-106772690D01*
X126164498Y-106873718D01*
X126253396Y-106985338D01*
X126343342Y-107115379D01*
X126427710Y-107264228D01*
X125692175Y-108056614D01*
X124929144Y-107290677D01*
X125009098Y-107137406D01*
X125095310Y-107003586D01*
X125181317Y-106888810D01*
X125264576Y-106785139D01*
X125264711Y-106784968D01*
X125342482Y-106684639D01*
X125343027Y-106683880D01*
X125412545Y-106579124D01*
X125413319Y-106577788D01*
X125471959Y-106460665D01*
X125472669Y-106458942D01*
X125517806Y-106321511D01*
X125518250Y-106319738D01*
X125547257Y-106154059D01*
X125547431Y-106152513D01*
X125557072Y-105962700D01*
X125782936Y-105962700D01*
X125792573Y-106150154D01*
G04 #@! TA.AperFunction,Conductor*
D17*
G36*
X125792573Y-106150154D02*
G01*
X125792752Y-106151726D01*
X125821844Y-106315313D01*
X125822306Y-106317125D01*
X125867718Y-106452608D01*
X125868465Y-106454379D01*
X125927683Y-106569566D01*
X125928508Y-106570947D01*
X125999015Y-106673650D01*
X125999610Y-106674448D01*
X126078893Y-106772476D01*
X126079070Y-106772690D01*
X126164498Y-106873718D01*
X126253396Y-106985338D01*
X126343342Y-107115379D01*
X126427710Y-107264228D01*
X125692175Y-108056614D01*
X124929144Y-107290677D01*
X125009098Y-107137406D01*
X125095310Y-107003586D01*
X125181317Y-106888810D01*
X125264576Y-106785139D01*
X125264711Y-106784968D01*
X125342482Y-106684639D01*
X125343027Y-106683880D01*
X125412545Y-106579124D01*
X125413319Y-106577788D01*
X125471959Y-106460665D01*
X125472669Y-106458942D01*
X125517806Y-106321511D01*
X125518250Y-106319738D01*
X125547257Y-106154059D01*
X125547431Y-106152513D01*
X125557072Y-105962700D01*
X125782936Y-105962700D01*
X125792573Y-106150154D01*
G37*
G04 #@! TD.AperFunction*
D18*
X135344395Y-95272601D02*
X135262642Y-95422633D01*
X135174799Y-95553595D01*
X135087440Y-95665874D01*
X135003067Y-95767335D01*
X135002915Y-95767521D01*
X134924278Y-95865807D01*
X134923706Y-95866581D01*
X134853532Y-95969388D01*
X134852722Y-95970750D01*
X134793615Y-96085928D01*
X134792874Y-96087685D01*
X134747433Y-96223086D01*
X134746970Y-96224896D01*
X134717799Y-96388370D01*
X134717619Y-96389946D01*
X134707939Y-96577300D01*
X134482061Y-96577300D01*
X134472380Y-96389946D01*
X134472200Y-96388370D01*
X134443029Y-96224896D01*
X134442566Y-96223086D01*
X134397125Y-96087685D01*
X134396384Y-96085928D01*
X134337277Y-95970750D01*
X134336467Y-95969388D01*
X134266293Y-95866581D01*
X134265721Y-95865807D01*
X134187084Y-95767521D01*
X134186932Y-95767335D01*
X134102559Y-95665874D01*
X134015200Y-95553595D01*
X133927357Y-95422633D01*
X133845605Y-95272601D01*
X134595000Y-94493322D01*
X135344395Y-95272601D01*
G04 #@! TA.AperFunction,Conductor*
D17*
G36*
X135344395Y-95272601D02*
G01*
X135262642Y-95422633D01*
X135174799Y-95553595D01*
X135087440Y-95665874D01*
X135003067Y-95767335D01*
X135002915Y-95767521D01*
X134924278Y-95865807D01*
X134923706Y-95866581D01*
X134853532Y-95969388D01*
X134852722Y-95970750D01*
X134793615Y-96085928D01*
X134792874Y-96087685D01*
X134747433Y-96223086D01*
X134746970Y-96224896D01*
X134717799Y-96388370D01*
X134717619Y-96389946D01*
X134707939Y-96577300D01*
X134482061Y-96577300D01*
X134472380Y-96389946D01*
X134472200Y-96388370D01*
X134443029Y-96224896D01*
X134442566Y-96223086D01*
X134397125Y-96087685D01*
X134396384Y-96085928D01*
X134337277Y-95970750D01*
X134336467Y-95969388D01*
X134266293Y-95866581D01*
X134265721Y-95865807D01*
X134187084Y-95767521D01*
X134186932Y-95767335D01*
X134102559Y-95665874D01*
X134015200Y-95553595D01*
X133927357Y-95422633D01*
X133845605Y-95272601D01*
X134595000Y-94493322D01*
X135344395Y-95272601D01*
G37*
G04 #@! TD.AperFunction*
D18*
X132890066Y-95498895D02*
X132772713Y-95613600D01*
X132664299Y-95714410D01*
X132567300Y-95800197D01*
X132477289Y-95876588D01*
X132389838Y-95949205D01*
X132389818Y-95949222D01*
X132300527Y-96023669D01*
X132300395Y-96023780D01*
X132204908Y-96105625D01*
X132204708Y-96105801D01*
X132098610Y-96200666D01*
X132098391Y-96200866D01*
X131977265Y-96314368D01*
X131977060Y-96314565D01*
X131845471Y-96443526D01*
X131685869Y-96283924D01*
X131767810Y-96187593D01*
X131769276Y-96185463D01*
X131824032Y-96085450D01*
X131825201Y-96082477D01*
X131849689Y-95986060D01*
X131850079Y-95982763D01*
X131848806Y-95888298D01*
X131848459Y-95885514D01*
X131825935Y-95791354D01*
X131825329Y-95789479D01*
X131786063Y-95693980D01*
X131785571Y-95692925D01*
X131734071Y-95594440D01*
X131733830Y-95594000D01*
X131674605Y-95490885D01*
X131612295Y-95381723D01*
X131555481Y-95272730D01*
X132302523Y-94495897D01*
X132890066Y-95498895D01*
G04 #@! TA.AperFunction,Conductor*
D17*
G36*
X132890066Y-95498895D02*
G01*
X132772713Y-95613600D01*
X132664299Y-95714410D01*
X132567300Y-95800197D01*
X132477289Y-95876588D01*
X132389838Y-95949205D01*
X132389818Y-95949222D01*
X132300527Y-96023669D01*
X132300395Y-96023780D01*
X132204908Y-96105625D01*
X132204708Y-96105801D01*
X132098610Y-96200666D01*
X132098391Y-96200866D01*
X131977265Y-96314368D01*
X131977060Y-96314565D01*
X131845471Y-96443526D01*
X131685869Y-96283924D01*
X131767810Y-96187593D01*
X131769276Y-96185463D01*
X131824032Y-96085450D01*
X131825201Y-96082477D01*
X131849689Y-95986060D01*
X131850079Y-95982763D01*
X131848806Y-95888298D01*
X131848459Y-95885514D01*
X131825935Y-95791354D01*
X131825329Y-95789479D01*
X131786063Y-95693980D01*
X131785571Y-95692925D01*
X131734071Y-95594440D01*
X131733830Y-95594000D01*
X131674605Y-95490885D01*
X131612295Y-95381723D01*
X131555481Y-95272730D01*
X132302523Y-94495897D01*
X132890066Y-95498895D01*
G37*
G04 #@! TD.AperFunction*
D18*
X128266532Y-96607000D02*
X128317895Y-96636029D01*
X128363835Y-96663233D01*
X128363934Y-96663291D01*
X128406859Y-96688187D01*
X128407352Y-96688458D01*
X128449749Y-96710598D01*
X128450638Y-96711020D01*
X128495088Y-96730013D01*
X128496264Y-96730448D01*
X128545346Y-96745902D01*
X128546613Y-96746230D01*
X128602907Y-96757753D01*
X128604078Y-96757936D01*
X128670164Y-96765137D01*
X128671137Y-96765206D01*
X128737300Y-96767304D01*
X128737300Y-96992696D01*
X128671138Y-96994793D01*
X128670164Y-96994862D01*
X128604078Y-97002063D01*
X128602907Y-97002246D01*
X128546613Y-97013769D01*
X128545346Y-97014097D01*
X128496264Y-97029551D01*
X128495088Y-97029986D01*
X128450638Y-97048979D01*
X128449749Y-97049401D01*
X128407352Y-97071541D01*
X128406859Y-97071812D01*
X128363934Y-97096708D01*
X128363835Y-97096766D01*
X128317895Y-97123970D01*
X128266532Y-97152999D01*
X128214826Y-97179559D01*
X127903322Y-96880000D01*
X128214826Y-96580441D01*
X128266532Y-96607000D01*
G04 #@! TA.AperFunction,Conductor*
D17*
G36*
X128266532Y-96607000D02*
G01*
X128317895Y-96636029D01*
X128363835Y-96663233D01*
X128363934Y-96663291D01*
X128406859Y-96688187D01*
X128407352Y-96688458D01*
X128449749Y-96710598D01*
X128450638Y-96711020D01*
X128495088Y-96730013D01*
X128496264Y-96730448D01*
X128545346Y-96745902D01*
X128546613Y-96746230D01*
X128602907Y-96757753D01*
X128604078Y-96757936D01*
X128670164Y-96765137D01*
X128671137Y-96765206D01*
X128737300Y-96767304D01*
X128737300Y-96992696D01*
X128671138Y-96994793D01*
X128670164Y-96994862D01*
X128604078Y-97002063D01*
X128602907Y-97002246D01*
X128546613Y-97013769D01*
X128545346Y-97014097D01*
X128496264Y-97029551D01*
X128495088Y-97029986D01*
X128450638Y-97048979D01*
X128449749Y-97049401D01*
X128407352Y-97071541D01*
X128406859Y-97071812D01*
X128363934Y-97096708D01*
X128363835Y-97096766D01*
X128317895Y-97123970D01*
X128266532Y-97152999D01*
X128214826Y-97179559D01*
X127903322Y-96880000D01*
X128214826Y-96580441D01*
X128266532Y-96607000D01*
G37*
G04 #@! TD.AperFunction*
D18*
X126726678Y-113520000D02*
X126415174Y-113819559D01*
X126363467Y-113792999D01*
X126312104Y-113763970D01*
X126266164Y-113736766D01*
X126266065Y-113736708D01*
X126223140Y-113711812D01*
X126222647Y-113711541D01*
X126180250Y-113689401D01*
X126179361Y-113688979D01*
X126134911Y-113669986D01*
X126133735Y-113669551D01*
X126084653Y-113654097D01*
X126083386Y-113653769D01*
X126027092Y-113642246D01*
X126025921Y-113642063D01*
X125959835Y-113634862D01*
X125958861Y-113634793D01*
X125892700Y-113632696D01*
X125892700Y-113407304D01*
X125958862Y-113405206D01*
X125959835Y-113405137D01*
X126025921Y-113397936D01*
X126027092Y-113397753D01*
X126083386Y-113386230D01*
X126084653Y-113385902D01*
X126133735Y-113370448D01*
X126134911Y-113370013D01*
X126179361Y-113351020D01*
X126180250Y-113350598D01*
X126222647Y-113328458D01*
X126223140Y-113328187D01*
X126266065Y-113303291D01*
X126266164Y-113303233D01*
X126312104Y-113276029D01*
X126363467Y-113247000D01*
X126415174Y-113220441D01*
X126726678Y-113520000D01*
G04 #@! TA.AperFunction,Conductor*
D17*
G36*
X126726678Y-113520000D02*
G01*
X126415174Y-113819559D01*
X126363467Y-113792999D01*
X126312104Y-113763970D01*
X126266164Y-113736766D01*
X126266065Y-113736708D01*
X126223140Y-113711812D01*
X126222647Y-113711541D01*
X126180250Y-113689401D01*
X126179361Y-113688979D01*
X126134911Y-113669986D01*
X126133735Y-113669551D01*
X126084653Y-113654097D01*
X126083386Y-113653769D01*
X126027092Y-113642246D01*
X126025921Y-113642063D01*
X125959835Y-113634862D01*
X125958861Y-113634793D01*
X125892700Y-113632696D01*
X125892700Y-113407304D01*
X125958862Y-113405206D01*
X125959835Y-113405137D01*
X126025921Y-113397936D01*
X126027092Y-113397753D01*
X126083386Y-113386230D01*
X126084653Y-113385902D01*
X126133735Y-113370448D01*
X126134911Y-113370013D01*
X126179361Y-113351020D01*
X126180250Y-113350598D01*
X126222647Y-113328458D01*
X126223140Y-113328187D01*
X126266065Y-113303291D01*
X126266164Y-113303233D01*
X126312104Y-113276029D01*
X126363467Y-113247000D01*
X126415174Y-113220441D01*
X126726678Y-113520000D01*
G37*
G04 #@! TD.AperFunction*
D18*
X129208252Y-89675100D02*
X129209327Y-89675976D01*
X129355528Y-89782423D01*
X129356830Y-89783255D01*
X129492941Y-89858963D01*
X129494278Y-89859607D01*
X129623940Y-89913008D01*
X129624998Y-89913390D01*
X129751852Y-89952915D01*
X129752355Y-89953060D01*
X129879933Y-89987111D01*
X130011688Y-90024064D01*
X130151066Y-90072238D01*
X130301999Y-90140077D01*
X130460803Y-90231713D01*
X130226741Y-91287206D01*
X129181142Y-91012054D01*
X129172498Y-90852831D01*
X129175475Y-90701926D01*
X129184401Y-90564491D01*
X129193105Y-90437109D01*
X129193133Y-90436481D01*
X129195388Y-90316043D01*
X129195340Y-90314680D01*
X129184942Y-90197732D01*
X129184612Y-90195774D01*
X129155357Y-90078861D01*
X129154612Y-90076719D01*
X129100296Y-89956386D01*
X129099258Y-89954522D01*
X129013678Y-89827316D01*
X129012606Y-89825937D01*
X128897569Y-89697356D01*
X129057282Y-89537643D01*
X129208252Y-89675100D01*
G04 #@! TA.AperFunction,Conductor*
D17*
G36*
X129208252Y-89675100D02*
G01*
X129209327Y-89675976D01*
X129355528Y-89782423D01*
X129356830Y-89783255D01*
X129492941Y-89858963D01*
X129494278Y-89859607D01*
X129623940Y-89913008D01*
X129624998Y-89913390D01*
X129751852Y-89952915D01*
X129752355Y-89953060D01*
X129879933Y-89987111D01*
X130011688Y-90024064D01*
X130151066Y-90072238D01*
X130301999Y-90140077D01*
X130460803Y-90231713D01*
X130226741Y-91287206D01*
X129181142Y-91012054D01*
X129172498Y-90852831D01*
X129175475Y-90701926D01*
X129184401Y-90564491D01*
X129193105Y-90437109D01*
X129193133Y-90436481D01*
X129195388Y-90316043D01*
X129195340Y-90314680D01*
X129184942Y-90197732D01*
X129184612Y-90195774D01*
X129155357Y-90078861D01*
X129154612Y-90076719D01*
X129100296Y-89956386D01*
X129099258Y-89954522D01*
X129013678Y-89827316D01*
X129012606Y-89825937D01*
X128897569Y-89697356D01*
X129057282Y-89537643D01*
X129208252Y-89675100D01*
G37*
G04 #@! TD.AperFunction*
M02*
