G04 #@! TF.GenerationSoftware,KiCad,Pcbnew,(5.1.10-1-10_14)*
G04 #@! TF.CreationDate,2021-11-03T01:45:13-04:00*
G04 #@! TF.ProjectId,MVX_Audio_Separator,4d56585f-4175-4646-996f-5f5365706172,1*
G04 #@! TF.SameCoordinates,Original*
G04 #@! TF.FileFunction,Copper,L2,Bot*
G04 #@! TF.FilePolarity,Positive*
%FSLAX46Y46*%
G04 Gerber Fmt 4.6, Leading zero omitted, Abs format (unit mm)*
G04 Created by KiCad (PCBNEW (5.1.10-1-10_14)) date 2021-11-03 01:45:13*
%MOMM*%
%LPD*%
G01*
G04 APERTURE LIST*
G04 #@! TA.AperFunction,ComponentPad*
%ADD10O,1.508000X3.016000*%
G04 #@! TD*
G04 #@! TA.AperFunction,ComponentPad*
%ADD11C,1.700000*%
G04 #@! TD*
G04 #@! TA.AperFunction,ComponentPad*
%ADD12C,4.066000*%
G04 #@! TD*
G04 #@! TA.AperFunction,ComponentPad*
%ADD13R,1.700000X1.700000*%
G04 #@! TD*
G04 #@! TA.AperFunction,ViaPad*
%ADD14C,0.700000*%
G04 #@! TD*
G04 #@! TA.AperFunction,Conductor*
%ADD15C,0.250000*%
G04 #@! TD*
G04 #@! TA.AperFunction,Conductor*
%ADD16C,0.160000*%
G04 #@! TD*
G04 #@! TA.AperFunction,Conductor*
%ADD17C,0.152400*%
G04 #@! TD*
G04 #@! TA.AperFunction,Conductor*
%ADD18C,0.025400*%
G04 #@! TD*
G04 APERTURE END LIST*
D10*
X138310000Y-101160000D03*
X135910000Y-103160000D03*
X132210000Y-101160000D03*
X130410000Y-103160000D03*
X126710000Y-101160000D03*
D11*
X134845000Y-111610000D03*
X132555000Y-111610000D03*
X130265000Y-111610000D03*
X127975000Y-111610000D03*
X125685000Y-111610000D03*
X133700000Y-109630000D03*
X131410000Y-109630000D03*
X129120000Y-109630000D03*
X126830000Y-109630000D03*
X124540000Y-109630000D03*
X134845000Y-107650000D03*
X132555000Y-107650000D03*
X130265000Y-107650000D03*
X127975000Y-107650000D03*
D12*
X142760000Y-109630000D03*
X117770000Y-109630000D03*
D13*
X125685000Y-107650000D03*
D11*
X134595000Y-90940000D03*
X132305000Y-90940000D03*
X130015000Y-90940000D03*
X127725000Y-90940000D03*
X125435000Y-90940000D03*
X135740000Y-92920000D03*
X133450000Y-92920000D03*
X131160000Y-92920000D03*
X128870000Y-92920000D03*
X126580000Y-92920000D03*
D13*
X134595000Y-94900000D03*
D11*
X132305000Y-94900000D03*
X130015000Y-94900000D03*
X127725000Y-94900000D03*
D12*
X142760000Y-92920000D03*
X117770000Y-92920000D03*
D11*
X125435000Y-94900000D03*
D14*
X142790000Y-97200000D03*
X137030000Y-95130000D03*
X120720000Y-96280000D03*
X123620000Y-92810000D03*
X137220000Y-111460000D03*
X142820000Y-105320000D03*
X133070000Y-96920000D03*
X120720000Y-106090000D03*
X123690000Y-97820000D03*
X131410000Y-112980000D03*
X142800000Y-113120000D03*
X117730000Y-113120000D03*
X142800000Y-89410000D03*
X117800000Y-89410000D03*
X127190000Y-103610000D03*
X125460000Y-105240000D03*
X128060000Y-96880000D03*
X122110000Y-101470000D03*
D15*
X130400000Y-103980000D02*
X130400000Y-103150000D01*
X135900000Y-105650000D02*
X132070000Y-105650000D01*
X137220000Y-106970000D02*
X135900000Y-105650000D01*
X134850000Y-111610000D02*
X137220000Y-109240000D01*
X137220000Y-109240000D02*
X137220000Y-106970000D01*
X132070000Y-105650000D02*
X130400000Y-103980000D01*
X134845000Y-111610000D02*
X134850000Y-111610000D01*
X125700000Y-96880000D02*
X128060000Y-96880000D01*
X124580000Y-98000000D02*
X125700000Y-96880000D01*
X124580000Y-102080000D02*
X124580000Y-98000000D01*
X127960000Y-105460000D02*
X124580000Y-102080000D01*
X127960000Y-107690000D02*
X127960000Y-105460000D01*
X130260000Y-105760000D02*
X130260000Y-107660000D01*
X128510000Y-104010000D02*
X130260000Y-105760000D01*
X128510000Y-98940000D02*
X128510000Y-104010000D01*
X130015000Y-97435000D02*
X128510000Y-98940000D01*
X130015000Y-94900000D02*
X130015000Y-97435000D01*
X122110000Y-111139802D02*
X122110000Y-101470000D01*
X124330198Y-113360000D02*
X122110000Y-111139802D01*
X128620000Y-113360000D02*
X124330198Y-113360000D01*
X130300000Y-111680000D02*
X128620000Y-113360000D01*
X130300000Y-111670000D02*
X130300000Y-111680000D01*
X132570000Y-111630000D02*
X132560000Y-111630000D01*
X139150000Y-106380000D02*
X139150000Y-112480000D01*
X140530000Y-105000000D02*
X139150000Y-106380000D01*
X138250000Y-113380000D02*
X134320000Y-113380000D01*
X140530000Y-97870000D02*
X140530000Y-105000000D01*
X138670000Y-96010000D02*
X140530000Y-97870000D01*
X138670000Y-91470000D02*
X138670000Y-96010000D01*
X139150000Y-112480000D02*
X138250000Y-113380000D01*
X136190000Y-88990000D02*
X138670000Y-91470000D01*
X129360000Y-88990000D02*
X136190000Y-88990000D01*
X134320000Y-113380000D02*
X132570000Y-111630000D01*
X127725000Y-90625000D02*
X129360000Y-88990000D01*
X127725000Y-90940000D02*
X127725000Y-90625000D01*
D16*
X144827675Y-88154691D02*
X144960108Y-88194675D01*
X145082252Y-88259621D01*
X145189449Y-88347049D01*
X145277630Y-88453642D01*
X145343425Y-88575326D01*
X145384612Y-88708385D01*
X145399999Y-88846149D01*
X145400200Y-113635808D01*
X145385309Y-113787675D01*
X145345325Y-113920108D01*
X145280382Y-114042247D01*
X145192949Y-114149451D01*
X145086359Y-114237630D01*
X144964674Y-114303425D01*
X144831616Y-114344612D01*
X144693852Y-114359999D01*
X115894192Y-114360200D01*
X115742325Y-114345309D01*
X115609892Y-114305325D01*
X115487753Y-114240382D01*
X115380549Y-114152949D01*
X115292370Y-114046359D01*
X115226575Y-113924674D01*
X115185388Y-113791616D01*
X115170001Y-113653851D01*
X115169983Y-111333272D01*
X116236434Y-111333272D01*
X116473208Y-111619037D01*
X116886167Y-111833810D01*
X117333092Y-111963891D01*
X117796807Y-112004283D01*
X118259491Y-111953432D01*
X118703365Y-111813293D01*
X119066792Y-111619037D01*
X119303566Y-111333272D01*
X117770000Y-109799706D01*
X116236434Y-111333272D01*
X115169983Y-111333272D01*
X115169969Y-109656807D01*
X115395717Y-109656807D01*
X115446568Y-110119491D01*
X115586707Y-110563365D01*
X115780963Y-110926792D01*
X116066728Y-111163566D01*
X117600294Y-109630000D01*
X117939706Y-109630000D01*
X119473272Y-111163566D01*
X119759037Y-110926792D01*
X119973810Y-110513833D01*
X120103891Y-110066908D01*
X120144283Y-109603193D01*
X120093432Y-109140509D01*
X119953293Y-108696635D01*
X119759037Y-108333208D01*
X119473272Y-108096434D01*
X117939706Y-109630000D01*
X117600294Y-109630000D01*
X116066728Y-108096434D01*
X115780963Y-108333208D01*
X115566190Y-108746167D01*
X115436109Y-109193092D01*
X115395717Y-109656807D01*
X115169969Y-109656807D01*
X115169956Y-107926728D01*
X116236434Y-107926728D01*
X117770000Y-109460294D01*
X119303566Y-107926728D01*
X119066792Y-107640963D01*
X118653833Y-107426190D01*
X118206908Y-107296109D01*
X117743193Y-107255717D01*
X117280509Y-107306568D01*
X116836635Y-107446707D01*
X116473208Y-107640963D01*
X116236434Y-107926728D01*
X115169956Y-107926728D01*
X115169904Y-101411890D01*
X121520000Y-101411890D01*
X121520000Y-101528110D01*
X121542673Y-101642097D01*
X121587149Y-101749470D01*
X121601108Y-101770361D01*
X121612328Y-101792205D01*
X121616874Y-101800637D01*
X121646106Y-101852359D01*
X121648537Y-101856560D01*
X121675196Y-101901579D01*
X121696926Y-101939045D01*
X121712301Y-101968488D01*
X121722974Y-101993467D01*
X121731147Y-102019423D01*
X121737938Y-102052598D01*
X121742926Y-102098374D01*
X121745001Y-102163820D01*
X121745000Y-111121873D01*
X121743234Y-111139802D01*
X121745000Y-111157731D01*
X121745000Y-111157732D01*
X121750281Y-111211353D01*
X121771152Y-111280156D01*
X121805045Y-111343565D01*
X121850657Y-111399144D01*
X121864588Y-111410577D01*
X124059423Y-113605413D01*
X124070855Y-113619343D01*
X124126434Y-113664955D01*
X124189843Y-113698848D01*
X124258646Y-113719719D01*
X124312267Y-113725000D01*
X124312268Y-113725000D01*
X124330197Y-113726766D01*
X124348126Y-113725000D01*
X128602071Y-113725000D01*
X128620000Y-113726766D01*
X128637929Y-113725000D01*
X128637931Y-113725000D01*
X128691552Y-113719719D01*
X128760355Y-113698848D01*
X128823764Y-113664955D01*
X128879343Y-113619343D01*
X128890779Y-113605408D01*
X129365978Y-113130210D01*
X129504964Y-113004246D01*
X129621025Y-112921604D01*
X129723741Y-112867786D01*
X129822153Y-112832331D01*
X129926615Y-112807364D01*
X130045300Y-112786884D01*
X130177428Y-112765239D01*
X130187090Y-112763453D01*
X130330122Y-112733965D01*
X130347849Y-112729601D01*
X130504504Y-112684656D01*
X130525859Y-112677428D01*
X130567146Y-112661254D01*
X130582941Y-112658112D01*
X130781309Y-112575945D01*
X130959834Y-112456658D01*
X131111658Y-112304834D01*
X131230945Y-112126309D01*
X131313112Y-111927941D01*
X131355000Y-111717356D01*
X131355000Y-111502644D01*
X131313112Y-111292059D01*
X131230945Y-111093691D01*
X131111658Y-110915166D01*
X130959834Y-110763342D01*
X130781309Y-110644055D01*
X130582941Y-110561888D01*
X130372356Y-110520000D01*
X130157644Y-110520000D01*
X129947059Y-110561888D01*
X129748691Y-110644055D01*
X129570166Y-110763342D01*
X129418342Y-110915166D01*
X129299055Y-111093691D01*
X129216888Y-111292059D01*
X129175000Y-111502644D01*
X129175000Y-111503722D01*
X129170040Y-111527902D01*
X129166816Y-111547856D01*
X129148255Y-111704325D01*
X129146990Y-111718644D01*
X129138714Y-111860753D01*
X129138478Y-111865670D01*
X129133665Y-111993407D01*
X129126062Y-112103656D01*
X129111081Y-112198392D01*
X129084597Y-112286208D01*
X129039763Y-112378463D01*
X128966235Y-112484701D01*
X128849528Y-112614285D01*
X128468813Y-112995000D01*
X124481386Y-112995000D01*
X122989030Y-111502644D01*
X124595000Y-111502644D01*
X124595000Y-111717356D01*
X124636888Y-111927941D01*
X124719055Y-112126309D01*
X124838342Y-112304834D01*
X124990166Y-112456658D01*
X125168691Y-112575945D01*
X125367059Y-112658112D01*
X125577644Y-112700000D01*
X125792356Y-112700000D01*
X126002941Y-112658112D01*
X126201309Y-112575945D01*
X126379834Y-112456658D01*
X126531658Y-112304834D01*
X126650945Y-112126309D01*
X126733112Y-111927941D01*
X126775000Y-111717356D01*
X126775000Y-111502644D01*
X126885000Y-111502644D01*
X126885000Y-111717356D01*
X126926888Y-111927941D01*
X127009055Y-112126309D01*
X127128342Y-112304834D01*
X127280166Y-112456658D01*
X127458691Y-112575945D01*
X127657059Y-112658112D01*
X127867644Y-112700000D01*
X128082356Y-112700000D01*
X128292941Y-112658112D01*
X128491309Y-112575945D01*
X128669834Y-112456658D01*
X128821658Y-112304834D01*
X128940945Y-112126309D01*
X129023112Y-111927941D01*
X129065000Y-111717356D01*
X129065000Y-111502644D01*
X129023112Y-111292059D01*
X128940945Y-111093691D01*
X128821658Y-110915166D01*
X128669834Y-110763342D01*
X128491309Y-110644055D01*
X128292941Y-110561888D01*
X128082356Y-110520000D01*
X127867644Y-110520000D01*
X127657059Y-110561888D01*
X127458691Y-110644055D01*
X127280166Y-110763342D01*
X127128342Y-110915166D01*
X127009055Y-111093691D01*
X126926888Y-111292059D01*
X126885000Y-111502644D01*
X126775000Y-111502644D01*
X126733112Y-111292059D01*
X126650945Y-111093691D01*
X126531658Y-110915166D01*
X126379834Y-110763342D01*
X126201309Y-110644055D01*
X126002941Y-110561888D01*
X125792356Y-110520000D01*
X125577644Y-110520000D01*
X125367059Y-110561888D01*
X125168691Y-110644055D01*
X124990166Y-110763342D01*
X124838342Y-110915166D01*
X124719055Y-111093691D01*
X124636888Y-111292059D01*
X124595000Y-111502644D01*
X122989030Y-111502644D01*
X122475000Y-110988615D01*
X122475000Y-110490311D01*
X123849394Y-110490311D01*
X123943717Y-110654869D01*
X124155117Y-110751505D01*
X124381307Y-110805042D01*
X124613595Y-110813423D01*
X124843055Y-110776327D01*
X125060869Y-110695177D01*
X125136283Y-110654869D01*
X125230606Y-110490311D01*
X126139394Y-110490311D01*
X126233717Y-110654869D01*
X126445117Y-110751505D01*
X126671307Y-110805042D01*
X126903595Y-110813423D01*
X127133055Y-110776327D01*
X127350869Y-110695177D01*
X127426283Y-110654869D01*
X127520606Y-110490311D01*
X128429394Y-110490311D01*
X128523717Y-110654869D01*
X128735117Y-110751505D01*
X128961307Y-110805042D01*
X129193595Y-110813423D01*
X129423055Y-110776327D01*
X129640869Y-110695177D01*
X129716283Y-110654869D01*
X129810606Y-110490311D01*
X129120000Y-109799706D01*
X128429394Y-110490311D01*
X127520606Y-110490311D01*
X126830000Y-109799706D01*
X126139394Y-110490311D01*
X125230606Y-110490311D01*
X124540000Y-109799706D01*
X123849394Y-110490311D01*
X122475000Y-110490311D01*
X122475000Y-109703595D01*
X123356577Y-109703595D01*
X123393673Y-109933055D01*
X123474823Y-110150869D01*
X123515131Y-110226283D01*
X123679689Y-110320606D01*
X124370294Y-109630000D01*
X124709706Y-109630000D01*
X125400311Y-110320606D01*
X125564869Y-110226283D01*
X125661505Y-110014883D01*
X125682537Y-109926026D01*
X125683673Y-109933055D01*
X125764823Y-110150869D01*
X125805131Y-110226283D01*
X125969689Y-110320606D01*
X126660294Y-109630000D01*
X126999706Y-109630000D01*
X127690311Y-110320606D01*
X127854869Y-110226283D01*
X127951505Y-110014883D01*
X127972537Y-109926026D01*
X127973673Y-109933055D01*
X128054823Y-110150869D01*
X128095131Y-110226283D01*
X128259689Y-110320606D01*
X128950294Y-109630000D01*
X129289706Y-109630000D01*
X129980311Y-110320606D01*
X130144869Y-110226283D01*
X130241505Y-110014883D01*
X130295042Y-109788693D01*
X130303423Y-109556405D01*
X130297965Y-109522644D01*
X130320000Y-109522644D01*
X130320000Y-109737356D01*
X130361888Y-109947941D01*
X130444055Y-110146309D01*
X130563342Y-110324834D01*
X130715166Y-110476658D01*
X130893691Y-110595945D01*
X131092059Y-110678112D01*
X131302644Y-110720000D01*
X131517356Y-110720000D01*
X131727941Y-110678112D01*
X131926309Y-110595945D01*
X132084400Y-110490311D01*
X133009394Y-110490311D01*
X133103717Y-110654869D01*
X133315117Y-110751505D01*
X133541307Y-110805042D01*
X133773595Y-110813423D01*
X134003055Y-110776327D01*
X134220869Y-110695177D01*
X134296283Y-110654869D01*
X134390606Y-110490311D01*
X133700000Y-109799706D01*
X133009394Y-110490311D01*
X132084400Y-110490311D01*
X132104834Y-110476658D01*
X132256658Y-110324834D01*
X132375945Y-110146309D01*
X132458112Y-109947941D01*
X132500000Y-109737356D01*
X132500000Y-109703595D01*
X132516577Y-109703595D01*
X132553673Y-109933055D01*
X132634823Y-110150869D01*
X132675131Y-110226283D01*
X132839689Y-110320606D01*
X133530294Y-109630000D01*
X133869706Y-109630000D01*
X134560311Y-110320606D01*
X134724869Y-110226283D01*
X134821505Y-110014883D01*
X134875042Y-109788693D01*
X134883423Y-109556405D01*
X134846327Y-109326945D01*
X134765177Y-109109131D01*
X134724869Y-109033717D01*
X134560311Y-108939394D01*
X133869706Y-109630000D01*
X133530294Y-109630000D01*
X132839689Y-108939394D01*
X132675131Y-109033717D01*
X132578495Y-109245117D01*
X132524958Y-109471307D01*
X132516577Y-109703595D01*
X132500000Y-109703595D01*
X132500000Y-109522644D01*
X132458112Y-109312059D01*
X132375945Y-109113691D01*
X132256658Y-108935166D01*
X132104834Y-108783342D01*
X132084401Y-108769689D01*
X133009394Y-108769689D01*
X133700000Y-109460294D01*
X134390606Y-108769689D01*
X134367337Y-108729093D01*
X134460117Y-108771505D01*
X134686307Y-108825042D01*
X134918595Y-108833423D01*
X135148055Y-108796327D01*
X135365869Y-108715177D01*
X135441283Y-108674869D01*
X135535606Y-108510311D01*
X134845000Y-107819706D01*
X134154394Y-108510311D01*
X134177663Y-108550907D01*
X134084883Y-108508495D01*
X133858693Y-108454958D01*
X133626405Y-108446577D01*
X133396945Y-108483673D01*
X133179131Y-108564823D01*
X133103717Y-108605131D01*
X133009394Y-108769689D01*
X132084401Y-108769689D01*
X131926309Y-108664055D01*
X131727941Y-108581888D01*
X131517356Y-108540000D01*
X131302644Y-108540000D01*
X131092059Y-108581888D01*
X130893691Y-108664055D01*
X130715166Y-108783342D01*
X130563342Y-108935166D01*
X130444055Y-109113691D01*
X130361888Y-109312059D01*
X130320000Y-109522644D01*
X130297965Y-109522644D01*
X130266327Y-109326945D01*
X130185177Y-109109131D01*
X130144869Y-109033717D01*
X129980311Y-108939394D01*
X129289706Y-109630000D01*
X128950294Y-109630000D01*
X128259689Y-108939394D01*
X128095131Y-109033717D01*
X127998495Y-109245117D01*
X127977463Y-109333974D01*
X127976327Y-109326945D01*
X127895177Y-109109131D01*
X127854869Y-109033717D01*
X127690311Y-108939394D01*
X126999706Y-109630000D01*
X126660294Y-109630000D01*
X125969689Y-108939394D01*
X125805131Y-109033717D01*
X125708495Y-109245117D01*
X125687463Y-109333974D01*
X125686327Y-109326945D01*
X125605177Y-109109131D01*
X125564869Y-109033717D01*
X125400311Y-108939394D01*
X124709706Y-109630000D01*
X124370294Y-109630000D01*
X123679689Y-108939394D01*
X123515131Y-109033717D01*
X123418495Y-109245117D01*
X123364958Y-109471307D01*
X123356577Y-109703595D01*
X122475000Y-109703595D01*
X122475000Y-108769689D01*
X123849394Y-108769689D01*
X124540000Y-109460294D01*
X125230606Y-108769689D01*
X125214254Y-108741161D01*
X126155746Y-108741161D01*
X126139394Y-108769689D01*
X126830000Y-109460294D01*
X127520606Y-108769689D01*
X128429394Y-108769689D01*
X129120000Y-109460294D01*
X129810606Y-108769689D01*
X129716283Y-108605131D01*
X129504883Y-108508495D01*
X129278693Y-108454958D01*
X129046405Y-108446577D01*
X128816945Y-108483673D01*
X128599131Y-108564823D01*
X128523717Y-108605131D01*
X128429394Y-108769689D01*
X127520606Y-108769689D01*
X127426283Y-108605131D01*
X127214883Y-108508495D01*
X126988693Y-108454958D01*
X126776161Y-108447290D01*
X126776161Y-106800000D01*
X126771527Y-106752952D01*
X126757804Y-106707712D01*
X126735518Y-106666018D01*
X126705527Y-106629473D01*
X126668982Y-106599482D01*
X126627288Y-106577196D01*
X126582048Y-106563473D01*
X126535000Y-106558839D01*
X124835000Y-106558839D01*
X124787952Y-106563473D01*
X124742712Y-106577196D01*
X124701018Y-106599482D01*
X124664473Y-106629473D01*
X124634482Y-106666018D01*
X124612196Y-106707712D01*
X124598473Y-106752952D01*
X124593839Y-106800000D01*
X124593839Y-108451175D01*
X124466405Y-108446577D01*
X124236945Y-108483673D01*
X124019131Y-108564823D01*
X123943717Y-108605131D01*
X123849394Y-108769689D01*
X122475000Y-108769689D01*
X122475000Y-102163819D01*
X122477075Y-102098361D01*
X122482061Y-102052598D01*
X122488852Y-102019423D01*
X122497025Y-101993467D01*
X122507698Y-101968488D01*
X122523073Y-101939045D01*
X122544803Y-101901579D01*
X122571462Y-101856560D01*
X122573893Y-101852359D01*
X122603125Y-101800637D01*
X122607669Y-101792208D01*
X122618887Y-101770368D01*
X122632851Y-101749470D01*
X122677327Y-101642097D01*
X122700000Y-101528110D01*
X122700000Y-101411890D01*
X122677327Y-101297903D01*
X122632851Y-101190530D01*
X122568283Y-101093897D01*
X122486103Y-101011717D01*
X122389470Y-100947149D01*
X122282097Y-100902673D01*
X122168110Y-100880000D01*
X122051890Y-100880000D01*
X121937903Y-100902673D01*
X121830530Y-100947149D01*
X121733897Y-101011717D01*
X121651717Y-101093897D01*
X121587149Y-101190530D01*
X121542673Y-101297903D01*
X121520000Y-101411890D01*
X115169904Y-101411890D01*
X115169876Y-98000000D01*
X124213234Y-98000000D01*
X124215001Y-98017939D01*
X124215000Y-102062071D01*
X124213234Y-102080000D01*
X124215000Y-102097929D01*
X124215000Y-102097930D01*
X124220281Y-102151551D01*
X124241152Y-102220354D01*
X124275045Y-102283763D01*
X124320657Y-102339342D01*
X124334588Y-102350775D01*
X127595001Y-105611189D01*
X127595001Y-105993543D01*
X127585677Y-106167188D01*
X127562184Y-106294005D01*
X127528200Y-106391734D01*
X127484241Y-106474652D01*
X127427496Y-106555525D01*
X127355689Y-106643498D01*
X127273264Y-106741683D01*
X127267402Y-106748948D01*
X127181463Y-106859802D01*
X127170650Y-106874924D01*
X127085090Y-107004953D01*
X127073059Y-107025366D01*
X127042424Y-107083751D01*
X127009055Y-107133691D01*
X126926888Y-107332059D01*
X126885000Y-107542644D01*
X126885000Y-107757356D01*
X126926888Y-107967941D01*
X127009055Y-108166309D01*
X127128342Y-108344834D01*
X127280166Y-108496658D01*
X127458691Y-108615945D01*
X127657059Y-108698112D01*
X127867644Y-108740000D01*
X128082356Y-108740000D01*
X128292941Y-108698112D01*
X128491309Y-108615945D01*
X128669834Y-108496658D01*
X128821658Y-108344834D01*
X128940945Y-108166309D01*
X129023112Y-107967941D01*
X129065000Y-107757356D01*
X129065000Y-107542644D01*
X129023112Y-107332059D01*
X128940945Y-107133691D01*
X128893479Y-107062654D01*
X128854021Y-106993759D01*
X128841576Y-106974271D01*
X128752288Y-106848274D01*
X128741539Y-106834233D01*
X128652783Y-106726739D01*
X128647435Y-106720483D01*
X128563363Y-106625493D01*
X128491189Y-106540798D01*
X128434648Y-106462901D01*
X128391148Y-106382940D01*
X128357547Y-106288160D01*
X128334265Y-106164251D01*
X128325000Y-105993486D01*
X128325000Y-105477929D01*
X128326766Y-105460000D01*
X128325000Y-105442069D01*
X128319719Y-105388448D01*
X128298848Y-105319645D01*
X128264955Y-105256236D01*
X128219343Y-105200657D01*
X128205413Y-105189225D01*
X124979013Y-101962825D01*
X125716000Y-101962825D01*
X125730383Y-102108857D01*
X125787221Y-102296227D01*
X125879521Y-102468909D01*
X126003735Y-102620265D01*
X126155091Y-102744479D01*
X126327772Y-102836779D01*
X126515142Y-102893617D01*
X126710000Y-102912809D01*
X126904857Y-102893617D01*
X127092227Y-102836779D01*
X127264909Y-102744479D01*
X127416265Y-102620265D01*
X127540479Y-102468909D01*
X127632779Y-102296228D01*
X127689617Y-102108858D01*
X127704000Y-101962826D01*
X127704000Y-100357174D01*
X127689617Y-100211142D01*
X127632779Y-100023772D01*
X127540479Y-99851091D01*
X127416265Y-99699735D01*
X127264909Y-99575521D01*
X127092228Y-99483221D01*
X126904858Y-99426383D01*
X126710000Y-99407191D01*
X126515143Y-99426383D01*
X126327773Y-99483221D01*
X126155092Y-99575521D01*
X126003736Y-99699735D01*
X125879522Y-99851091D01*
X125787222Y-100023772D01*
X125730384Y-100211142D01*
X125716001Y-100357174D01*
X125716000Y-101962825D01*
X124979013Y-101962825D01*
X124945000Y-101928813D01*
X124945000Y-98940000D01*
X128143234Y-98940000D01*
X128145000Y-98957929D01*
X128145001Y-103992061D01*
X128143234Y-104010000D01*
X128148813Y-104066640D01*
X128150282Y-104081552D01*
X128171153Y-104150355D01*
X128205046Y-104213764D01*
X128250658Y-104269343D01*
X128264588Y-104280775D01*
X129895000Y-105911188D01*
X129895000Y-105963754D01*
X129885763Y-106140916D01*
X129862318Y-106271175D01*
X129828267Y-106371837D01*
X129784264Y-106456989D01*
X129727651Y-106539485D01*
X129656081Y-106628655D01*
X129573273Y-106728214D01*
X129568131Y-106734616D01*
X129480946Y-106847049D01*
X129470822Y-106861127D01*
X129383268Y-106992653D01*
X129371705Y-107011920D01*
X129335656Y-107078914D01*
X129299055Y-107133691D01*
X129216888Y-107332059D01*
X129175000Y-107542644D01*
X129175000Y-107757356D01*
X129216888Y-107967941D01*
X129299055Y-108166309D01*
X129418342Y-108344834D01*
X129570166Y-108496658D01*
X129748691Y-108615945D01*
X129947059Y-108698112D01*
X130157644Y-108740000D01*
X130372356Y-108740000D01*
X130582941Y-108698112D01*
X130781309Y-108615945D01*
X130959834Y-108496658D01*
X131111658Y-108344834D01*
X131230945Y-108166309D01*
X131313112Y-107967941D01*
X131355000Y-107757356D01*
X131355000Y-107542644D01*
X131465000Y-107542644D01*
X131465000Y-107757356D01*
X131506888Y-107967941D01*
X131589055Y-108166309D01*
X131708342Y-108344834D01*
X131860166Y-108496658D01*
X132038691Y-108615945D01*
X132237059Y-108698112D01*
X132447644Y-108740000D01*
X132662356Y-108740000D01*
X132872941Y-108698112D01*
X133071309Y-108615945D01*
X133249834Y-108496658D01*
X133401658Y-108344834D01*
X133520945Y-108166309D01*
X133603112Y-107967941D01*
X133645000Y-107757356D01*
X133645000Y-107723595D01*
X133661577Y-107723595D01*
X133698673Y-107953055D01*
X133779823Y-108170869D01*
X133820131Y-108246283D01*
X133984689Y-108340606D01*
X134675294Y-107650000D01*
X135014706Y-107650000D01*
X135705311Y-108340606D01*
X135869869Y-108246283D01*
X135966505Y-108034883D01*
X136020042Y-107808693D01*
X136028423Y-107576405D01*
X135991327Y-107346945D01*
X135910177Y-107129131D01*
X135869869Y-107053717D01*
X135705311Y-106959394D01*
X135014706Y-107650000D01*
X134675294Y-107650000D01*
X133984689Y-106959394D01*
X133820131Y-107053717D01*
X133723495Y-107265117D01*
X133669958Y-107491307D01*
X133661577Y-107723595D01*
X133645000Y-107723595D01*
X133645000Y-107542644D01*
X133603112Y-107332059D01*
X133520945Y-107133691D01*
X133401658Y-106955166D01*
X133249834Y-106803342D01*
X133229401Y-106789689D01*
X134154394Y-106789689D01*
X134845000Y-107480294D01*
X135535606Y-106789689D01*
X135441283Y-106625131D01*
X135229883Y-106528495D01*
X135003693Y-106474958D01*
X134771405Y-106466577D01*
X134541945Y-106503673D01*
X134324131Y-106584823D01*
X134248717Y-106625131D01*
X134154394Y-106789689D01*
X133229401Y-106789689D01*
X133071309Y-106684055D01*
X132872941Y-106601888D01*
X132662356Y-106560000D01*
X132447644Y-106560000D01*
X132237059Y-106601888D01*
X132038691Y-106684055D01*
X131860166Y-106803342D01*
X131708342Y-106955166D01*
X131589055Y-107133691D01*
X131506888Y-107332059D01*
X131465000Y-107542644D01*
X131355000Y-107542644D01*
X131313112Y-107332059D01*
X131230945Y-107133691D01*
X131189948Y-107072335D01*
X131150886Y-107001764D01*
X131139194Y-106982778D01*
X131050395Y-106852556D01*
X131040290Y-106838814D01*
X130952152Y-106727465D01*
X130947169Y-106721378D01*
X130863795Y-106622863D01*
X130792049Y-106534737D01*
X130735459Y-106453201D01*
X130691572Y-106369012D01*
X130657618Y-106269302D01*
X130634224Y-106139973D01*
X130625000Y-105963724D01*
X130625000Y-105777929D01*
X130626766Y-105760000D01*
X130625000Y-105742069D01*
X130619719Y-105688448D01*
X130598848Y-105619645D01*
X130564955Y-105556236D01*
X130519342Y-105500657D01*
X130505418Y-105489230D01*
X128979013Y-103962825D01*
X129416000Y-103962825D01*
X129430383Y-104108857D01*
X129487221Y-104296227D01*
X129579521Y-104468909D01*
X129703735Y-104620265D01*
X129855091Y-104744479D01*
X130027772Y-104836779D01*
X130215142Y-104893617D01*
X130410000Y-104912809D01*
X130604857Y-104893617D01*
X130752609Y-104848797D01*
X131799225Y-105895413D01*
X131810657Y-105909343D01*
X131866236Y-105954955D01*
X131929645Y-105988848D01*
X131998448Y-106009719D01*
X132052069Y-106015000D01*
X132052071Y-106015000D01*
X132070000Y-106016766D01*
X132087929Y-106015000D01*
X135748813Y-106015000D01*
X136855001Y-107121189D01*
X136855000Y-109088812D01*
X135791300Y-110152513D01*
X135658610Y-110272195D01*
X135549099Y-110348600D01*
X135453165Y-110396380D01*
X135361391Y-110425942D01*
X135262766Y-110444544D01*
X135149032Y-110457097D01*
X135019600Y-110468810D01*
X135012054Y-110469613D01*
X134870015Y-110487010D01*
X134853532Y-110489613D01*
X134697502Y-110519850D01*
X134676241Y-110524986D01*
X134597198Y-110547936D01*
X134527059Y-110561888D01*
X134328691Y-110644055D01*
X134150166Y-110763342D01*
X133998342Y-110915166D01*
X133879055Y-111093691D01*
X133796888Y-111292059D01*
X133755000Y-111502644D01*
X133755000Y-111717356D01*
X133796888Y-111927941D01*
X133879055Y-112126309D01*
X133998342Y-112304834D01*
X134150166Y-112456658D01*
X134328691Y-112575945D01*
X134527059Y-112658112D01*
X134737644Y-112700000D01*
X134952356Y-112700000D01*
X135162941Y-112658112D01*
X135361309Y-112575945D01*
X135539834Y-112456658D01*
X135691658Y-112304834D01*
X135810945Y-112126309D01*
X135893112Y-111927941D01*
X135906003Y-111863136D01*
X135928672Y-111787402D01*
X135934005Y-111766073D01*
X135965508Y-111610025D01*
X135968264Y-111593372D01*
X135986676Y-111451278D01*
X135987555Y-111443499D01*
X136000068Y-111313878D01*
X136013236Y-111199687D01*
X136032309Y-111100590D01*
X136062296Y-111008292D01*
X136110504Y-110911848D01*
X136187347Y-110801855D01*
X136307469Y-110668719D01*
X137465418Y-109510770D01*
X137479342Y-109499343D01*
X137524955Y-109443764D01*
X137558848Y-109380355D01*
X137579719Y-109311552D01*
X137585000Y-109257931D01*
X137585000Y-109257930D01*
X137586766Y-109240001D01*
X137585000Y-109222072D01*
X137585000Y-106987929D01*
X137586766Y-106970000D01*
X137585000Y-106952069D01*
X137579719Y-106898448D01*
X137558848Y-106829645D01*
X137524955Y-106766236D01*
X137479343Y-106710657D01*
X137465413Y-106699225D01*
X136170779Y-105404592D01*
X136159343Y-105390657D01*
X136103764Y-105345045D01*
X136040355Y-105311152D01*
X135971552Y-105290281D01*
X135917931Y-105285000D01*
X135917929Y-105285000D01*
X135900000Y-105283234D01*
X135882071Y-105285000D01*
X132221188Y-105285000D01*
X131297820Y-104361632D01*
X131332779Y-104296228D01*
X131389617Y-104108858D01*
X131404000Y-103962826D01*
X131404000Y-103962825D01*
X134916000Y-103962825D01*
X134930383Y-104108857D01*
X134987221Y-104296227D01*
X135079521Y-104468909D01*
X135203735Y-104620265D01*
X135355091Y-104744479D01*
X135527772Y-104836779D01*
X135715142Y-104893617D01*
X135910000Y-104912809D01*
X136104857Y-104893617D01*
X136292227Y-104836779D01*
X136464909Y-104744479D01*
X136616265Y-104620265D01*
X136740479Y-104468909D01*
X136832779Y-104296228D01*
X136889617Y-104108858D01*
X136904000Y-103962826D01*
X136904000Y-102357174D01*
X136889617Y-102211142D01*
X136832779Y-102023772D01*
X136740479Y-101851091D01*
X136616265Y-101699735D01*
X136464909Y-101575521D01*
X136292228Y-101483221D01*
X136104858Y-101426383D01*
X135910000Y-101407191D01*
X135715143Y-101426383D01*
X135527773Y-101483221D01*
X135355092Y-101575521D01*
X135203736Y-101699735D01*
X135079522Y-101851091D01*
X134987222Y-102023772D01*
X134930384Y-102211142D01*
X134916001Y-102357174D01*
X134916000Y-103962825D01*
X131404000Y-103962825D01*
X131404000Y-102498737D01*
X131503735Y-102620265D01*
X131655091Y-102744479D01*
X131827772Y-102836779D01*
X132015142Y-102893617D01*
X132210000Y-102912809D01*
X132404857Y-102893617D01*
X132592227Y-102836779D01*
X132764909Y-102744479D01*
X132916265Y-102620265D01*
X133040479Y-102468909D01*
X133132779Y-102296228D01*
X133189617Y-102108858D01*
X133204000Y-101962826D01*
X133204000Y-101280000D01*
X137226000Y-101280000D01*
X137226000Y-102034000D01*
X137270240Y-102243172D01*
X137354437Y-102439694D01*
X137475356Y-102616014D01*
X137628350Y-102765356D01*
X137807539Y-102881981D01*
X138022945Y-102959301D01*
X138190000Y-102908285D01*
X138190000Y-101280000D01*
X138430000Y-101280000D01*
X138430000Y-102908285D01*
X138597055Y-102959301D01*
X138812461Y-102881981D01*
X138991650Y-102765356D01*
X139144644Y-102616014D01*
X139265563Y-102439694D01*
X139349760Y-102243172D01*
X139394000Y-102034000D01*
X139394000Y-101280000D01*
X138430000Y-101280000D01*
X138190000Y-101280000D01*
X137226000Y-101280000D01*
X133204000Y-101280000D01*
X133204000Y-100357174D01*
X133196990Y-100286000D01*
X137226000Y-100286000D01*
X137226000Y-101040000D01*
X138190000Y-101040000D01*
X138190000Y-99411715D01*
X138430000Y-99411715D01*
X138430000Y-101040000D01*
X139394000Y-101040000D01*
X139394000Y-100286000D01*
X139349760Y-100076828D01*
X139265563Y-99880306D01*
X139144644Y-99703986D01*
X138991650Y-99554644D01*
X138812461Y-99438019D01*
X138597055Y-99360699D01*
X138430000Y-99411715D01*
X138190000Y-99411715D01*
X138022945Y-99360699D01*
X137807539Y-99438019D01*
X137628350Y-99554644D01*
X137475356Y-99703986D01*
X137354437Y-99880306D01*
X137270240Y-100076828D01*
X137226000Y-100286000D01*
X133196990Y-100286000D01*
X133189617Y-100211142D01*
X133132779Y-100023772D01*
X133040479Y-99851091D01*
X132916265Y-99699735D01*
X132764909Y-99575521D01*
X132592228Y-99483221D01*
X132404858Y-99426383D01*
X132210000Y-99407191D01*
X132015143Y-99426383D01*
X131827773Y-99483221D01*
X131655092Y-99575521D01*
X131503736Y-99699735D01*
X131379522Y-99851091D01*
X131287222Y-100023772D01*
X131230384Y-100211142D01*
X131216001Y-100357174D01*
X131216000Y-101821263D01*
X131116265Y-101699735D01*
X130964909Y-101575521D01*
X130792228Y-101483221D01*
X130604858Y-101426383D01*
X130410000Y-101407191D01*
X130215143Y-101426383D01*
X130027773Y-101483221D01*
X129855092Y-101575521D01*
X129703736Y-101699735D01*
X129579522Y-101851091D01*
X129487222Y-102023772D01*
X129430384Y-102211142D01*
X129416001Y-102357174D01*
X129416000Y-103962825D01*
X128979013Y-103962825D01*
X128875000Y-103858813D01*
X128875000Y-99091187D01*
X130260413Y-97705775D01*
X130274343Y-97694343D01*
X130301582Y-97661152D01*
X130319954Y-97638766D01*
X130353847Y-97575357D01*
X130356975Y-97565045D01*
X130374719Y-97506552D01*
X130380000Y-97452931D01*
X130380000Y-97452930D01*
X130381766Y-97435001D01*
X130380000Y-97417072D01*
X130380000Y-96596189D01*
X130389207Y-96417984D01*
X130412632Y-96286710D01*
X130446692Y-96185220D01*
X130490700Y-96099465D01*
X130547285Y-96016567D01*
X130618819Y-95927158D01*
X130701865Y-95827293D01*
X130706752Y-95821218D01*
X130794514Y-95708421D01*
X130804411Y-95694734D01*
X130892834Y-95562907D01*
X130904262Y-95544051D01*
X130942593Y-95473706D01*
X130980945Y-95416309D01*
X131063112Y-95217941D01*
X131105000Y-95007356D01*
X131105000Y-94792644D01*
X131215000Y-94792644D01*
X131215000Y-95007356D01*
X131256888Y-95217941D01*
X131339055Y-95416309D01*
X131458342Y-95594834D01*
X131610166Y-95746658D01*
X131788691Y-95865945D01*
X131987059Y-95948112D01*
X132197644Y-95990000D01*
X132412356Y-95990000D01*
X132622941Y-95948112D01*
X132821309Y-95865945D01*
X132999834Y-95746658D01*
X133151658Y-95594834D01*
X133270945Y-95416309D01*
X133353112Y-95217941D01*
X133395000Y-95007356D01*
X133395000Y-94792644D01*
X133353112Y-94582059D01*
X133270945Y-94383691D01*
X133151658Y-94205166D01*
X132999834Y-94053342D01*
X132821309Y-93934055D01*
X132622941Y-93851888D01*
X132412356Y-93810000D01*
X132197644Y-93810000D01*
X131987059Y-93851888D01*
X131788691Y-93934055D01*
X131610166Y-94053342D01*
X131458342Y-94205166D01*
X131339055Y-94383691D01*
X131256888Y-94582059D01*
X131215000Y-94792644D01*
X131105000Y-94792644D01*
X131063112Y-94582059D01*
X130980945Y-94383691D01*
X130861658Y-94205166D01*
X130709834Y-94053342D01*
X130531309Y-93934055D01*
X130332941Y-93851888D01*
X130122356Y-93810000D01*
X129907644Y-93810000D01*
X129697059Y-93851888D01*
X129498691Y-93934055D01*
X129320166Y-94053342D01*
X129168342Y-94205166D01*
X129049055Y-94383691D01*
X128966888Y-94582059D01*
X128925000Y-94792644D01*
X128925000Y-95007356D01*
X128966888Y-95217941D01*
X129049055Y-95416309D01*
X129087407Y-95473706D01*
X129125737Y-95544050D01*
X129137165Y-95562907D01*
X129225588Y-95694734D01*
X129235485Y-95708421D01*
X129323247Y-95821218D01*
X129328134Y-95827293D01*
X129411180Y-95927158D01*
X129482714Y-96016567D01*
X129539299Y-96099465D01*
X129583307Y-96185220D01*
X129617367Y-96286710D01*
X129640792Y-96417984D01*
X129650001Y-96596204D01*
X129650001Y-97283811D01*
X128264588Y-98669225D01*
X128250657Y-98680658D01*
X128205045Y-98736237D01*
X128171152Y-98799646D01*
X128150281Y-98868449D01*
X128145000Y-98922069D01*
X128143234Y-98940000D01*
X124945000Y-98940000D01*
X124945000Y-98151187D01*
X125851187Y-97245000D01*
X127366181Y-97245000D01*
X127431638Y-97247075D01*
X127477401Y-97252061D01*
X127510576Y-97258852D01*
X127536532Y-97267025D01*
X127561511Y-97277698D01*
X127590954Y-97293073D01*
X127628420Y-97314803D01*
X127673439Y-97341462D01*
X127677640Y-97343893D01*
X127729362Y-97373125D01*
X127737792Y-97377670D01*
X127759637Y-97388891D01*
X127780530Y-97402851D01*
X127887903Y-97447327D01*
X128001890Y-97470000D01*
X128118110Y-97470000D01*
X128232097Y-97447327D01*
X128339470Y-97402851D01*
X128436103Y-97338283D01*
X128518283Y-97256103D01*
X128582851Y-97159470D01*
X128627327Y-97052097D01*
X128650000Y-96938110D01*
X128650000Y-96821890D01*
X128627327Y-96707903D01*
X128582851Y-96600530D01*
X128518283Y-96503897D01*
X128436103Y-96421717D01*
X128339470Y-96357149D01*
X128232097Y-96312673D01*
X128118110Y-96290000D01*
X128001890Y-96290000D01*
X127887903Y-96312673D01*
X127780530Y-96357149D01*
X127759637Y-96371109D01*
X127737795Y-96382328D01*
X127729362Y-96386874D01*
X127677640Y-96416106D01*
X127673439Y-96418537D01*
X127628420Y-96445196D01*
X127590954Y-96466926D01*
X127561511Y-96482301D01*
X127536532Y-96492974D01*
X127510576Y-96501147D01*
X127477401Y-96507938D01*
X127431625Y-96512926D01*
X127366209Y-96515000D01*
X125717928Y-96515000D01*
X125699999Y-96513234D01*
X125682070Y-96515000D01*
X125682069Y-96515000D01*
X125628448Y-96520281D01*
X125559645Y-96541152D01*
X125496236Y-96575045D01*
X125440657Y-96620657D01*
X125429221Y-96634592D01*
X124334588Y-97729225D01*
X124320658Y-97740657D01*
X124309227Y-97754586D01*
X124275046Y-97796236D01*
X124241153Y-97859645D01*
X124220282Y-97928448D01*
X124213234Y-98000000D01*
X115169876Y-98000000D01*
X115169858Y-95760311D01*
X124744394Y-95760311D01*
X124838717Y-95924869D01*
X125050117Y-96021505D01*
X125276307Y-96075042D01*
X125508595Y-96083423D01*
X125738055Y-96046327D01*
X125955869Y-95965177D01*
X126031283Y-95924869D01*
X126125606Y-95760311D01*
X125435000Y-95069706D01*
X124744394Y-95760311D01*
X115169858Y-95760311D01*
X115169848Y-94623272D01*
X116236434Y-94623272D01*
X116473208Y-94909037D01*
X116886167Y-95123810D01*
X117333092Y-95253891D01*
X117796807Y-95294283D01*
X118259491Y-95243432D01*
X118703365Y-95103293D01*
X118946012Y-94973595D01*
X124251577Y-94973595D01*
X124288673Y-95203055D01*
X124369823Y-95420869D01*
X124410131Y-95496283D01*
X124574689Y-95590606D01*
X125265294Y-94900000D01*
X125604706Y-94900000D01*
X126295311Y-95590606D01*
X126459869Y-95496283D01*
X126556505Y-95284883D01*
X126610042Y-95058693D01*
X126618423Y-94826405D01*
X126612965Y-94792644D01*
X126635000Y-94792644D01*
X126635000Y-95007356D01*
X126676888Y-95217941D01*
X126759055Y-95416309D01*
X126878342Y-95594834D01*
X127030166Y-95746658D01*
X127208691Y-95865945D01*
X127407059Y-95948112D01*
X127617644Y-95990000D01*
X127832356Y-95990000D01*
X128042941Y-95948112D01*
X128241309Y-95865945D01*
X128419834Y-95746658D01*
X128571658Y-95594834D01*
X128690945Y-95416309D01*
X128773112Y-95217941D01*
X128815000Y-95007356D01*
X128815000Y-94792644D01*
X128773112Y-94582059D01*
X128690945Y-94383691D01*
X128571658Y-94205166D01*
X128419834Y-94053342D01*
X128241309Y-93934055D01*
X128042941Y-93851888D01*
X127832356Y-93810000D01*
X127617644Y-93810000D01*
X127407059Y-93851888D01*
X127208691Y-93934055D01*
X127030166Y-94053342D01*
X126878342Y-94205166D01*
X126759055Y-94383691D01*
X126676888Y-94582059D01*
X126635000Y-94792644D01*
X126612965Y-94792644D01*
X126581327Y-94596945D01*
X126500177Y-94379131D01*
X126459869Y-94303717D01*
X126295311Y-94209394D01*
X125604706Y-94900000D01*
X125265294Y-94900000D01*
X124574689Y-94209394D01*
X124410131Y-94303717D01*
X124313495Y-94515117D01*
X124259958Y-94741307D01*
X124251577Y-94973595D01*
X118946012Y-94973595D01*
X119066792Y-94909037D01*
X119303566Y-94623272D01*
X117770000Y-93089706D01*
X116236434Y-94623272D01*
X115169848Y-94623272D01*
X115169834Y-92946807D01*
X115395717Y-92946807D01*
X115446568Y-93409491D01*
X115586707Y-93853365D01*
X115780963Y-94216792D01*
X116066728Y-94453566D01*
X117600294Y-92920000D01*
X117939706Y-92920000D01*
X119473272Y-94453566D01*
X119759037Y-94216792D01*
X119851145Y-94039689D01*
X124744394Y-94039689D01*
X125435000Y-94730294D01*
X126125606Y-94039689D01*
X126102337Y-93999093D01*
X126195117Y-94041505D01*
X126421307Y-94095042D01*
X126653595Y-94103423D01*
X126883055Y-94066327D01*
X127100869Y-93985177D01*
X127176283Y-93944869D01*
X127270606Y-93780311D01*
X126580000Y-93089706D01*
X125889394Y-93780311D01*
X125912663Y-93820907D01*
X125819883Y-93778495D01*
X125593693Y-93724958D01*
X125361405Y-93716577D01*
X125131945Y-93753673D01*
X124914131Y-93834823D01*
X124838717Y-93875131D01*
X124744394Y-94039689D01*
X119851145Y-94039689D01*
X119973810Y-93803833D01*
X120103891Y-93356908D01*
X120135537Y-92993595D01*
X125396577Y-92993595D01*
X125433673Y-93223055D01*
X125514823Y-93440869D01*
X125555131Y-93516283D01*
X125719689Y-93610606D01*
X126410294Y-92920000D01*
X126749706Y-92920000D01*
X127440311Y-93610606D01*
X127604869Y-93516283D01*
X127701505Y-93304883D01*
X127755042Y-93078693D01*
X127763423Y-92846405D01*
X127757965Y-92812644D01*
X127780000Y-92812644D01*
X127780000Y-93027356D01*
X127821888Y-93237941D01*
X127904055Y-93436309D01*
X128023342Y-93614834D01*
X128175166Y-93766658D01*
X128353691Y-93885945D01*
X128552059Y-93968112D01*
X128762644Y-94010000D01*
X128977356Y-94010000D01*
X129187941Y-93968112D01*
X129386309Y-93885945D01*
X129544400Y-93780311D01*
X130469394Y-93780311D01*
X130563717Y-93944869D01*
X130775117Y-94041505D01*
X131001307Y-94095042D01*
X131233595Y-94103423D01*
X131463055Y-94066327D01*
X131680869Y-93985177D01*
X131756283Y-93944869D01*
X131850606Y-93780311D01*
X132759394Y-93780311D01*
X132853717Y-93944869D01*
X133065117Y-94041505D01*
X133291307Y-94095042D01*
X133503839Y-94102710D01*
X133503839Y-95750000D01*
X133508473Y-95797048D01*
X133522196Y-95842288D01*
X133544482Y-95883982D01*
X133574473Y-95920527D01*
X133611018Y-95950518D01*
X133652712Y-95972804D01*
X133697952Y-95986527D01*
X133745000Y-95991161D01*
X135445000Y-95991161D01*
X135492048Y-95986527D01*
X135537288Y-95972804D01*
X135578982Y-95950518D01*
X135615527Y-95920527D01*
X135645518Y-95883982D01*
X135667804Y-95842288D01*
X135681527Y-95797048D01*
X135686161Y-95750000D01*
X135686161Y-94098825D01*
X135813595Y-94103423D01*
X136043055Y-94066327D01*
X136260869Y-93985177D01*
X136336283Y-93944869D01*
X136430606Y-93780311D01*
X135740000Y-93089706D01*
X135049394Y-93780311D01*
X135065746Y-93808839D01*
X134124254Y-93808839D01*
X134140606Y-93780311D01*
X133450000Y-93089706D01*
X132759394Y-93780311D01*
X131850606Y-93780311D01*
X131160000Y-93089706D01*
X130469394Y-93780311D01*
X129544400Y-93780311D01*
X129564834Y-93766658D01*
X129716658Y-93614834D01*
X129835945Y-93436309D01*
X129918112Y-93237941D01*
X129960000Y-93027356D01*
X129960000Y-92993595D01*
X129976577Y-92993595D01*
X130013673Y-93223055D01*
X130094823Y-93440869D01*
X130135131Y-93516283D01*
X130299689Y-93610606D01*
X130990294Y-92920000D01*
X131329706Y-92920000D01*
X132020311Y-93610606D01*
X132184869Y-93516283D01*
X132281505Y-93304883D01*
X132302537Y-93216026D01*
X132303673Y-93223055D01*
X132384823Y-93440869D01*
X132425131Y-93516283D01*
X132589689Y-93610606D01*
X133280294Y-92920000D01*
X133619706Y-92920000D01*
X134310311Y-93610606D01*
X134474869Y-93516283D01*
X134571505Y-93304883D01*
X134592537Y-93216026D01*
X134593673Y-93223055D01*
X134674823Y-93440869D01*
X134715131Y-93516283D01*
X134879689Y-93610606D01*
X135570294Y-92920000D01*
X135909706Y-92920000D01*
X136600311Y-93610606D01*
X136764869Y-93516283D01*
X136861505Y-93304883D01*
X136915042Y-93078693D01*
X136923423Y-92846405D01*
X136886327Y-92616945D01*
X136805177Y-92399131D01*
X136764869Y-92323717D01*
X136600311Y-92229394D01*
X135909706Y-92920000D01*
X135570294Y-92920000D01*
X134879689Y-92229394D01*
X134715131Y-92323717D01*
X134618495Y-92535117D01*
X134597463Y-92623974D01*
X134596327Y-92616945D01*
X134515177Y-92399131D01*
X134474869Y-92323717D01*
X134310311Y-92229394D01*
X133619706Y-92920000D01*
X133280294Y-92920000D01*
X132589689Y-92229394D01*
X132425131Y-92323717D01*
X132328495Y-92535117D01*
X132307463Y-92623974D01*
X132306327Y-92616945D01*
X132225177Y-92399131D01*
X132184869Y-92323717D01*
X132020311Y-92229394D01*
X131329706Y-92920000D01*
X130990294Y-92920000D01*
X130299689Y-92229394D01*
X130135131Y-92323717D01*
X130038495Y-92535117D01*
X129984958Y-92761307D01*
X129976577Y-92993595D01*
X129960000Y-92993595D01*
X129960000Y-92812644D01*
X129918112Y-92602059D01*
X129835945Y-92403691D01*
X129716658Y-92225166D01*
X129564834Y-92073342D01*
X129544401Y-92059689D01*
X130469394Y-92059689D01*
X131160000Y-92750294D01*
X131850606Y-92059689D01*
X132759394Y-92059689D01*
X133450000Y-92750294D01*
X134140606Y-92059689D01*
X135049394Y-92059689D01*
X135740000Y-92750294D01*
X136430606Y-92059689D01*
X136336283Y-91895131D01*
X136124883Y-91798495D01*
X135898693Y-91744958D01*
X135666405Y-91736577D01*
X135436945Y-91773673D01*
X135219131Y-91854823D01*
X135143717Y-91895131D01*
X135049394Y-92059689D01*
X134140606Y-92059689D01*
X134046283Y-91895131D01*
X133834883Y-91798495D01*
X133608693Y-91744958D01*
X133376405Y-91736577D01*
X133146945Y-91773673D01*
X132929131Y-91854823D01*
X132853717Y-91895131D01*
X132759394Y-92059689D01*
X131850606Y-92059689D01*
X131756283Y-91895131D01*
X131544883Y-91798495D01*
X131318693Y-91744958D01*
X131086405Y-91736577D01*
X130856945Y-91773673D01*
X130639131Y-91854823D01*
X130563717Y-91895131D01*
X130469394Y-92059689D01*
X129544401Y-92059689D01*
X129386309Y-91954055D01*
X129187941Y-91871888D01*
X128977356Y-91830000D01*
X128762644Y-91830000D01*
X128552059Y-91871888D01*
X128353691Y-91954055D01*
X128175166Y-92073342D01*
X128023342Y-92225166D01*
X127904055Y-92403691D01*
X127821888Y-92602059D01*
X127780000Y-92812644D01*
X127757965Y-92812644D01*
X127726327Y-92616945D01*
X127645177Y-92399131D01*
X127604869Y-92323717D01*
X127440311Y-92229394D01*
X126749706Y-92920000D01*
X126410294Y-92920000D01*
X125719689Y-92229394D01*
X125555131Y-92323717D01*
X125458495Y-92535117D01*
X125404958Y-92761307D01*
X125396577Y-92993595D01*
X120135537Y-92993595D01*
X120144283Y-92893193D01*
X120093432Y-92430509D01*
X119976358Y-92059689D01*
X125889394Y-92059689D01*
X126580000Y-92750294D01*
X127270606Y-92059689D01*
X127176283Y-91895131D01*
X126964883Y-91798495D01*
X126738693Y-91744958D01*
X126506405Y-91736577D01*
X126276945Y-91773673D01*
X126059131Y-91854823D01*
X125983717Y-91895131D01*
X125889394Y-92059689D01*
X119976358Y-92059689D01*
X119953293Y-91986635D01*
X119759037Y-91623208D01*
X119473272Y-91386434D01*
X117939706Y-92920000D01*
X117600294Y-92920000D01*
X116066728Y-91386434D01*
X115780963Y-91623208D01*
X115566190Y-92036167D01*
X115436109Y-92483092D01*
X115395717Y-92946807D01*
X115169834Y-92946807D01*
X115169820Y-91216728D01*
X116236434Y-91216728D01*
X117770000Y-92750294D01*
X119303566Y-91216728D01*
X119066792Y-90930963D01*
X118877748Y-90832644D01*
X124345000Y-90832644D01*
X124345000Y-91047356D01*
X124386888Y-91257941D01*
X124469055Y-91456309D01*
X124588342Y-91634834D01*
X124740166Y-91786658D01*
X124918691Y-91905945D01*
X125117059Y-91988112D01*
X125327644Y-92030000D01*
X125542356Y-92030000D01*
X125752941Y-91988112D01*
X125951309Y-91905945D01*
X126129834Y-91786658D01*
X126281658Y-91634834D01*
X126400945Y-91456309D01*
X126483112Y-91257941D01*
X126525000Y-91047356D01*
X126525000Y-90832644D01*
X126635000Y-90832644D01*
X126635000Y-91047356D01*
X126676888Y-91257941D01*
X126759055Y-91456309D01*
X126878342Y-91634834D01*
X127030166Y-91786658D01*
X127208691Y-91905945D01*
X127407059Y-91988112D01*
X127617644Y-92030000D01*
X127832356Y-92030000D01*
X128042941Y-91988112D01*
X128241309Y-91905945D01*
X128419834Y-91786658D01*
X128571658Y-91634834D01*
X128690945Y-91456309D01*
X128773112Y-91257941D01*
X128815000Y-91047356D01*
X128815000Y-90928871D01*
X128817527Y-90839084D01*
X128817476Y-90832644D01*
X128925000Y-90832644D01*
X128925000Y-91047356D01*
X128966888Y-91257941D01*
X129049055Y-91456309D01*
X129168342Y-91634834D01*
X129320166Y-91786658D01*
X129498691Y-91905945D01*
X129697059Y-91988112D01*
X129907644Y-92030000D01*
X130122356Y-92030000D01*
X130332941Y-91988112D01*
X130531309Y-91905945D01*
X130709834Y-91786658D01*
X130861658Y-91634834D01*
X130980945Y-91456309D01*
X131063112Y-91257941D01*
X131105000Y-91047356D01*
X131105000Y-90832644D01*
X131215000Y-90832644D01*
X131215000Y-91047356D01*
X131256888Y-91257941D01*
X131339055Y-91456309D01*
X131458342Y-91634834D01*
X131610166Y-91786658D01*
X131788691Y-91905945D01*
X131987059Y-91988112D01*
X132197644Y-92030000D01*
X132412356Y-92030000D01*
X132622941Y-91988112D01*
X132821309Y-91905945D01*
X132999834Y-91786658D01*
X133151658Y-91634834D01*
X133270945Y-91456309D01*
X133353112Y-91257941D01*
X133395000Y-91047356D01*
X133395000Y-90832644D01*
X133505000Y-90832644D01*
X133505000Y-91047356D01*
X133546888Y-91257941D01*
X133629055Y-91456309D01*
X133748342Y-91634834D01*
X133900166Y-91786658D01*
X134078691Y-91905945D01*
X134277059Y-91988112D01*
X134487644Y-92030000D01*
X134702356Y-92030000D01*
X134912941Y-91988112D01*
X135111309Y-91905945D01*
X135289834Y-91786658D01*
X135441658Y-91634834D01*
X135560945Y-91456309D01*
X135643112Y-91257941D01*
X135685000Y-91047356D01*
X135685000Y-90832644D01*
X135643112Y-90622059D01*
X135560945Y-90423691D01*
X135441658Y-90245166D01*
X135289834Y-90093342D01*
X135111309Y-89974055D01*
X134912941Y-89891888D01*
X134702356Y-89850000D01*
X134487644Y-89850000D01*
X134277059Y-89891888D01*
X134078691Y-89974055D01*
X133900166Y-90093342D01*
X133748342Y-90245166D01*
X133629055Y-90423691D01*
X133546888Y-90622059D01*
X133505000Y-90832644D01*
X133395000Y-90832644D01*
X133353112Y-90622059D01*
X133270945Y-90423691D01*
X133151658Y-90245166D01*
X132999834Y-90093342D01*
X132821309Y-89974055D01*
X132622941Y-89891888D01*
X132412356Y-89850000D01*
X132197644Y-89850000D01*
X131987059Y-89891888D01*
X131788691Y-89974055D01*
X131610166Y-90093342D01*
X131458342Y-90245166D01*
X131339055Y-90423691D01*
X131256888Y-90622059D01*
X131215000Y-90832644D01*
X131105000Y-90832644D01*
X131063112Y-90622059D01*
X130980945Y-90423691D01*
X130861658Y-90245166D01*
X130709834Y-90093342D01*
X130531309Y-89974055D01*
X130332941Y-89891888D01*
X130122356Y-89850000D01*
X129907644Y-89850000D01*
X129697059Y-89891888D01*
X129498691Y-89974055D01*
X129320166Y-90093342D01*
X129168342Y-90245166D01*
X129049055Y-90423691D01*
X128966888Y-90622059D01*
X128925000Y-90832644D01*
X128817476Y-90832644D01*
X128817389Y-90821758D01*
X128810770Y-90671670D01*
X128810100Y-90661439D01*
X128798226Y-90524982D01*
X128798213Y-90524836D01*
X128787702Y-90404888D01*
X128784211Y-90305120D01*
X128790532Y-90221699D01*
X128808712Y-90145994D01*
X128844327Y-90065831D01*
X128907589Y-89971208D01*
X129013188Y-89852999D01*
X129511187Y-89355000D01*
X136038813Y-89355000D01*
X138305000Y-91621188D01*
X138305001Y-95992061D01*
X138303234Y-96010000D01*
X138309641Y-96075042D01*
X138310282Y-96081552D01*
X138331153Y-96150355D01*
X138365046Y-96213764D01*
X138410658Y-96269343D01*
X138424588Y-96280775D01*
X140165000Y-98021188D01*
X140165001Y-104848811D01*
X138904588Y-106109225D01*
X138890657Y-106120658D01*
X138845045Y-106176237D01*
X138811152Y-106239646D01*
X138790281Y-106308449D01*
X138785000Y-106362069D01*
X138783234Y-106380000D01*
X138785000Y-106397929D01*
X138785001Y-112328812D01*
X138098813Y-113015000D01*
X134471188Y-113015000D01*
X134020353Y-112564166D01*
X133899470Y-112430313D01*
X133821891Y-112319622D01*
X133773119Y-112222614D01*
X133742740Y-112129920D01*
X133723423Y-112030615D01*
X133710162Y-111916309D01*
X133697759Y-111786301D01*
X133696953Y-111779024D01*
X133678915Y-111636185D01*
X133676315Y-111620044D01*
X133645513Y-111463061D01*
X133640432Y-111442166D01*
X133616891Y-111361328D01*
X133603112Y-111292059D01*
X133520945Y-111093691D01*
X133401658Y-110915166D01*
X133249834Y-110763342D01*
X133071309Y-110644055D01*
X132872941Y-110561888D01*
X132662356Y-110520000D01*
X132447644Y-110520000D01*
X132237059Y-110561888D01*
X132038691Y-110644055D01*
X131860166Y-110763342D01*
X131708342Y-110915166D01*
X131589055Y-111093691D01*
X131506888Y-111292059D01*
X131465000Y-111502644D01*
X131465000Y-111717356D01*
X131506888Y-111927941D01*
X131589055Y-112126309D01*
X131708342Y-112304834D01*
X131860166Y-112456658D01*
X132038691Y-112575945D01*
X132237059Y-112658112D01*
X132301114Y-112670853D01*
X132378625Y-112694114D01*
X132399586Y-112699388D01*
X132556581Y-112731450D01*
X132572886Y-112734199D01*
X132715772Y-112753249D01*
X132723278Y-112754130D01*
X132853515Y-112767336D01*
X132968219Y-112781209D01*
X133067979Y-112800998D01*
X133161180Y-112831803D01*
X133258690Y-112881003D01*
X133369852Y-112959016D01*
X133504157Y-113080344D01*
X134049225Y-113625413D01*
X134060657Y-113639343D01*
X134116236Y-113684955D01*
X134179645Y-113718848D01*
X134248448Y-113739719D01*
X134302069Y-113745000D01*
X134302071Y-113745000D01*
X134320000Y-113746766D01*
X134337929Y-113745000D01*
X138232071Y-113745000D01*
X138250000Y-113746766D01*
X138267929Y-113745000D01*
X138267931Y-113745000D01*
X138321552Y-113739719D01*
X138390355Y-113718848D01*
X138453764Y-113684955D01*
X138509343Y-113639343D01*
X138520779Y-113625408D01*
X139395408Y-112750779D01*
X139409343Y-112739343D01*
X139454955Y-112683764D01*
X139488848Y-112620355D01*
X139509719Y-112551552D01*
X139515000Y-112497931D01*
X139515000Y-112497930D01*
X139516766Y-112480001D01*
X139515000Y-112462072D01*
X139515000Y-111333272D01*
X141226434Y-111333272D01*
X141463208Y-111619037D01*
X141876167Y-111833810D01*
X142323092Y-111963891D01*
X142786807Y-112004283D01*
X143249491Y-111953432D01*
X143693365Y-111813293D01*
X144056792Y-111619037D01*
X144293566Y-111333272D01*
X142760000Y-109799706D01*
X141226434Y-111333272D01*
X139515000Y-111333272D01*
X139515000Y-109656807D01*
X140385717Y-109656807D01*
X140436568Y-110119491D01*
X140576707Y-110563365D01*
X140770963Y-110926792D01*
X141056728Y-111163566D01*
X142590294Y-109630000D01*
X142929706Y-109630000D01*
X144463272Y-111163566D01*
X144749037Y-110926792D01*
X144963810Y-110513833D01*
X145093891Y-110066908D01*
X145134283Y-109603193D01*
X145083432Y-109140509D01*
X144943293Y-108696635D01*
X144749037Y-108333208D01*
X144463272Y-108096434D01*
X142929706Y-109630000D01*
X142590294Y-109630000D01*
X141056728Y-108096434D01*
X140770963Y-108333208D01*
X140556190Y-108746167D01*
X140426109Y-109193092D01*
X140385717Y-109656807D01*
X139515000Y-109656807D01*
X139515000Y-107926728D01*
X141226434Y-107926728D01*
X142760000Y-109460294D01*
X144293566Y-107926728D01*
X144056792Y-107640963D01*
X143643833Y-107426190D01*
X143196908Y-107296109D01*
X142733193Y-107255717D01*
X142270509Y-107306568D01*
X141826635Y-107446707D01*
X141463208Y-107640963D01*
X141226434Y-107926728D01*
X139515000Y-107926728D01*
X139515000Y-106531187D01*
X140775413Y-105270775D01*
X140789343Y-105259343D01*
X140834955Y-105203764D01*
X140868848Y-105140355D01*
X140889719Y-105071552D01*
X140895000Y-105017931D01*
X140895000Y-105017929D01*
X140896766Y-105000000D01*
X140895000Y-104982071D01*
X140895000Y-97887928D01*
X140896766Y-97869999D01*
X140895000Y-97852069D01*
X140889719Y-97798448D01*
X140868848Y-97729645D01*
X140834955Y-97666236D01*
X140789342Y-97610657D01*
X140775418Y-97599230D01*
X139035000Y-95858813D01*
X139035000Y-94623272D01*
X141226434Y-94623272D01*
X141463208Y-94909037D01*
X141876167Y-95123810D01*
X142323092Y-95253891D01*
X142786807Y-95294283D01*
X143249491Y-95243432D01*
X143693365Y-95103293D01*
X144056792Y-94909037D01*
X144293566Y-94623272D01*
X142760000Y-93089706D01*
X141226434Y-94623272D01*
X139035000Y-94623272D01*
X139035000Y-92946807D01*
X140385717Y-92946807D01*
X140436568Y-93409491D01*
X140576707Y-93853365D01*
X140770963Y-94216792D01*
X141056728Y-94453566D01*
X142590294Y-92920000D01*
X142929706Y-92920000D01*
X144463272Y-94453566D01*
X144749037Y-94216792D01*
X144963810Y-93803833D01*
X145093891Y-93356908D01*
X145134283Y-92893193D01*
X145083432Y-92430509D01*
X144943293Y-91986635D01*
X144749037Y-91623208D01*
X144463272Y-91386434D01*
X142929706Y-92920000D01*
X142590294Y-92920000D01*
X141056728Y-91386434D01*
X140770963Y-91623208D01*
X140556190Y-92036167D01*
X140426109Y-92483092D01*
X140385717Y-92946807D01*
X139035000Y-92946807D01*
X139035000Y-91487929D01*
X139036766Y-91470000D01*
X139031792Y-91419498D01*
X139029719Y-91398448D01*
X139008848Y-91329645D01*
X138974955Y-91266236D01*
X138934325Y-91216728D01*
X141226434Y-91216728D01*
X142760000Y-92750294D01*
X144293566Y-91216728D01*
X144056792Y-90930963D01*
X143643833Y-90716190D01*
X143196908Y-90586109D01*
X142733193Y-90545717D01*
X142270509Y-90596568D01*
X141826635Y-90736707D01*
X141463208Y-90930963D01*
X141226434Y-91216728D01*
X138934325Y-91216728D01*
X138929342Y-91210657D01*
X138915418Y-91199230D01*
X136460779Y-88744592D01*
X136449343Y-88730657D01*
X136393764Y-88685045D01*
X136330355Y-88651152D01*
X136261552Y-88630281D01*
X136207931Y-88625000D01*
X136207929Y-88625000D01*
X136190000Y-88623234D01*
X136172071Y-88625000D01*
X129377928Y-88625000D01*
X129359999Y-88623234D01*
X129342070Y-88625000D01*
X129342069Y-88625000D01*
X129288448Y-88630281D01*
X129219645Y-88651152D01*
X129156236Y-88685045D01*
X129100657Y-88730657D01*
X129089221Y-88744592D01*
X128496176Y-89337637D01*
X128349203Y-89471507D01*
X128224397Y-89562607D01*
X128112152Y-89625526D01*
X128004089Y-89670850D01*
X127890995Y-89707370D01*
X127767756Y-89742166D01*
X127763928Y-89743281D01*
X127632281Y-89782824D01*
X127617958Y-89787623D01*
X127478622Y-89839236D01*
X127458216Y-89847886D01*
X127307609Y-89920105D01*
X127286008Y-89931860D01*
X127234752Y-89963260D01*
X127208691Y-89974055D01*
X127030166Y-90093342D01*
X126878342Y-90245166D01*
X126759055Y-90423691D01*
X126676888Y-90622059D01*
X126635000Y-90832644D01*
X126525000Y-90832644D01*
X126483112Y-90622059D01*
X126400945Y-90423691D01*
X126281658Y-90245166D01*
X126129834Y-90093342D01*
X125951309Y-89974055D01*
X125752941Y-89891888D01*
X125542356Y-89850000D01*
X125327644Y-89850000D01*
X125117059Y-89891888D01*
X124918691Y-89974055D01*
X124740166Y-90093342D01*
X124588342Y-90245166D01*
X124469055Y-90423691D01*
X124386888Y-90622059D01*
X124345000Y-90832644D01*
X118877748Y-90832644D01*
X118653833Y-90716190D01*
X118206908Y-90586109D01*
X117743193Y-90545717D01*
X117280509Y-90596568D01*
X116836635Y-90736707D01*
X116473208Y-90930963D01*
X116236434Y-91216728D01*
X115169820Y-91216728D01*
X115169800Y-88864192D01*
X115184691Y-88712325D01*
X115224675Y-88579892D01*
X115289621Y-88457748D01*
X115377049Y-88350551D01*
X115483642Y-88262370D01*
X115605326Y-88196575D01*
X115738385Y-88155388D01*
X115876148Y-88140001D01*
X144675808Y-88139800D01*
X144827675Y-88154691D01*
G04 #@! TA.AperFunction,Conductor*
D17*
G36*
X144827675Y-88154691D02*
G01*
X144960108Y-88194675D01*
X145082252Y-88259621D01*
X145189449Y-88347049D01*
X145277630Y-88453642D01*
X145343425Y-88575326D01*
X145384612Y-88708385D01*
X145399999Y-88846149D01*
X145400200Y-113635808D01*
X145385309Y-113787675D01*
X145345325Y-113920108D01*
X145280382Y-114042247D01*
X145192949Y-114149451D01*
X145086359Y-114237630D01*
X144964674Y-114303425D01*
X144831616Y-114344612D01*
X144693852Y-114359999D01*
X115894192Y-114360200D01*
X115742325Y-114345309D01*
X115609892Y-114305325D01*
X115487753Y-114240382D01*
X115380549Y-114152949D01*
X115292370Y-114046359D01*
X115226575Y-113924674D01*
X115185388Y-113791616D01*
X115170001Y-113653851D01*
X115169983Y-111333272D01*
X116236434Y-111333272D01*
X116473208Y-111619037D01*
X116886167Y-111833810D01*
X117333092Y-111963891D01*
X117796807Y-112004283D01*
X118259491Y-111953432D01*
X118703365Y-111813293D01*
X119066792Y-111619037D01*
X119303566Y-111333272D01*
X117770000Y-109799706D01*
X116236434Y-111333272D01*
X115169983Y-111333272D01*
X115169969Y-109656807D01*
X115395717Y-109656807D01*
X115446568Y-110119491D01*
X115586707Y-110563365D01*
X115780963Y-110926792D01*
X116066728Y-111163566D01*
X117600294Y-109630000D01*
X117939706Y-109630000D01*
X119473272Y-111163566D01*
X119759037Y-110926792D01*
X119973810Y-110513833D01*
X120103891Y-110066908D01*
X120144283Y-109603193D01*
X120093432Y-109140509D01*
X119953293Y-108696635D01*
X119759037Y-108333208D01*
X119473272Y-108096434D01*
X117939706Y-109630000D01*
X117600294Y-109630000D01*
X116066728Y-108096434D01*
X115780963Y-108333208D01*
X115566190Y-108746167D01*
X115436109Y-109193092D01*
X115395717Y-109656807D01*
X115169969Y-109656807D01*
X115169956Y-107926728D01*
X116236434Y-107926728D01*
X117770000Y-109460294D01*
X119303566Y-107926728D01*
X119066792Y-107640963D01*
X118653833Y-107426190D01*
X118206908Y-107296109D01*
X117743193Y-107255717D01*
X117280509Y-107306568D01*
X116836635Y-107446707D01*
X116473208Y-107640963D01*
X116236434Y-107926728D01*
X115169956Y-107926728D01*
X115169904Y-101411890D01*
X121520000Y-101411890D01*
X121520000Y-101528110D01*
X121542673Y-101642097D01*
X121587149Y-101749470D01*
X121601108Y-101770361D01*
X121612328Y-101792205D01*
X121616874Y-101800637D01*
X121646106Y-101852359D01*
X121648537Y-101856560D01*
X121675196Y-101901579D01*
X121696926Y-101939045D01*
X121712301Y-101968488D01*
X121722974Y-101993467D01*
X121731147Y-102019423D01*
X121737938Y-102052598D01*
X121742926Y-102098374D01*
X121745001Y-102163820D01*
X121745000Y-111121873D01*
X121743234Y-111139802D01*
X121745000Y-111157731D01*
X121745000Y-111157732D01*
X121750281Y-111211353D01*
X121771152Y-111280156D01*
X121805045Y-111343565D01*
X121850657Y-111399144D01*
X121864588Y-111410577D01*
X124059423Y-113605413D01*
X124070855Y-113619343D01*
X124126434Y-113664955D01*
X124189843Y-113698848D01*
X124258646Y-113719719D01*
X124312267Y-113725000D01*
X124312268Y-113725000D01*
X124330197Y-113726766D01*
X124348126Y-113725000D01*
X128602071Y-113725000D01*
X128620000Y-113726766D01*
X128637929Y-113725000D01*
X128637931Y-113725000D01*
X128691552Y-113719719D01*
X128760355Y-113698848D01*
X128823764Y-113664955D01*
X128879343Y-113619343D01*
X128890779Y-113605408D01*
X129365978Y-113130210D01*
X129504964Y-113004246D01*
X129621025Y-112921604D01*
X129723741Y-112867786D01*
X129822153Y-112832331D01*
X129926615Y-112807364D01*
X130045300Y-112786884D01*
X130177428Y-112765239D01*
X130187090Y-112763453D01*
X130330122Y-112733965D01*
X130347849Y-112729601D01*
X130504504Y-112684656D01*
X130525859Y-112677428D01*
X130567146Y-112661254D01*
X130582941Y-112658112D01*
X130781309Y-112575945D01*
X130959834Y-112456658D01*
X131111658Y-112304834D01*
X131230945Y-112126309D01*
X131313112Y-111927941D01*
X131355000Y-111717356D01*
X131355000Y-111502644D01*
X131313112Y-111292059D01*
X131230945Y-111093691D01*
X131111658Y-110915166D01*
X130959834Y-110763342D01*
X130781309Y-110644055D01*
X130582941Y-110561888D01*
X130372356Y-110520000D01*
X130157644Y-110520000D01*
X129947059Y-110561888D01*
X129748691Y-110644055D01*
X129570166Y-110763342D01*
X129418342Y-110915166D01*
X129299055Y-111093691D01*
X129216888Y-111292059D01*
X129175000Y-111502644D01*
X129175000Y-111503722D01*
X129170040Y-111527902D01*
X129166816Y-111547856D01*
X129148255Y-111704325D01*
X129146990Y-111718644D01*
X129138714Y-111860753D01*
X129138478Y-111865670D01*
X129133665Y-111993407D01*
X129126062Y-112103656D01*
X129111081Y-112198392D01*
X129084597Y-112286208D01*
X129039763Y-112378463D01*
X128966235Y-112484701D01*
X128849528Y-112614285D01*
X128468813Y-112995000D01*
X124481386Y-112995000D01*
X122989030Y-111502644D01*
X124595000Y-111502644D01*
X124595000Y-111717356D01*
X124636888Y-111927941D01*
X124719055Y-112126309D01*
X124838342Y-112304834D01*
X124990166Y-112456658D01*
X125168691Y-112575945D01*
X125367059Y-112658112D01*
X125577644Y-112700000D01*
X125792356Y-112700000D01*
X126002941Y-112658112D01*
X126201309Y-112575945D01*
X126379834Y-112456658D01*
X126531658Y-112304834D01*
X126650945Y-112126309D01*
X126733112Y-111927941D01*
X126775000Y-111717356D01*
X126775000Y-111502644D01*
X126885000Y-111502644D01*
X126885000Y-111717356D01*
X126926888Y-111927941D01*
X127009055Y-112126309D01*
X127128342Y-112304834D01*
X127280166Y-112456658D01*
X127458691Y-112575945D01*
X127657059Y-112658112D01*
X127867644Y-112700000D01*
X128082356Y-112700000D01*
X128292941Y-112658112D01*
X128491309Y-112575945D01*
X128669834Y-112456658D01*
X128821658Y-112304834D01*
X128940945Y-112126309D01*
X129023112Y-111927941D01*
X129065000Y-111717356D01*
X129065000Y-111502644D01*
X129023112Y-111292059D01*
X128940945Y-111093691D01*
X128821658Y-110915166D01*
X128669834Y-110763342D01*
X128491309Y-110644055D01*
X128292941Y-110561888D01*
X128082356Y-110520000D01*
X127867644Y-110520000D01*
X127657059Y-110561888D01*
X127458691Y-110644055D01*
X127280166Y-110763342D01*
X127128342Y-110915166D01*
X127009055Y-111093691D01*
X126926888Y-111292059D01*
X126885000Y-111502644D01*
X126775000Y-111502644D01*
X126733112Y-111292059D01*
X126650945Y-111093691D01*
X126531658Y-110915166D01*
X126379834Y-110763342D01*
X126201309Y-110644055D01*
X126002941Y-110561888D01*
X125792356Y-110520000D01*
X125577644Y-110520000D01*
X125367059Y-110561888D01*
X125168691Y-110644055D01*
X124990166Y-110763342D01*
X124838342Y-110915166D01*
X124719055Y-111093691D01*
X124636888Y-111292059D01*
X124595000Y-111502644D01*
X122989030Y-111502644D01*
X122475000Y-110988615D01*
X122475000Y-110490311D01*
X123849394Y-110490311D01*
X123943717Y-110654869D01*
X124155117Y-110751505D01*
X124381307Y-110805042D01*
X124613595Y-110813423D01*
X124843055Y-110776327D01*
X125060869Y-110695177D01*
X125136283Y-110654869D01*
X125230606Y-110490311D01*
X126139394Y-110490311D01*
X126233717Y-110654869D01*
X126445117Y-110751505D01*
X126671307Y-110805042D01*
X126903595Y-110813423D01*
X127133055Y-110776327D01*
X127350869Y-110695177D01*
X127426283Y-110654869D01*
X127520606Y-110490311D01*
X128429394Y-110490311D01*
X128523717Y-110654869D01*
X128735117Y-110751505D01*
X128961307Y-110805042D01*
X129193595Y-110813423D01*
X129423055Y-110776327D01*
X129640869Y-110695177D01*
X129716283Y-110654869D01*
X129810606Y-110490311D01*
X129120000Y-109799706D01*
X128429394Y-110490311D01*
X127520606Y-110490311D01*
X126830000Y-109799706D01*
X126139394Y-110490311D01*
X125230606Y-110490311D01*
X124540000Y-109799706D01*
X123849394Y-110490311D01*
X122475000Y-110490311D01*
X122475000Y-109703595D01*
X123356577Y-109703595D01*
X123393673Y-109933055D01*
X123474823Y-110150869D01*
X123515131Y-110226283D01*
X123679689Y-110320606D01*
X124370294Y-109630000D01*
X124709706Y-109630000D01*
X125400311Y-110320606D01*
X125564869Y-110226283D01*
X125661505Y-110014883D01*
X125682537Y-109926026D01*
X125683673Y-109933055D01*
X125764823Y-110150869D01*
X125805131Y-110226283D01*
X125969689Y-110320606D01*
X126660294Y-109630000D01*
X126999706Y-109630000D01*
X127690311Y-110320606D01*
X127854869Y-110226283D01*
X127951505Y-110014883D01*
X127972537Y-109926026D01*
X127973673Y-109933055D01*
X128054823Y-110150869D01*
X128095131Y-110226283D01*
X128259689Y-110320606D01*
X128950294Y-109630000D01*
X129289706Y-109630000D01*
X129980311Y-110320606D01*
X130144869Y-110226283D01*
X130241505Y-110014883D01*
X130295042Y-109788693D01*
X130303423Y-109556405D01*
X130297965Y-109522644D01*
X130320000Y-109522644D01*
X130320000Y-109737356D01*
X130361888Y-109947941D01*
X130444055Y-110146309D01*
X130563342Y-110324834D01*
X130715166Y-110476658D01*
X130893691Y-110595945D01*
X131092059Y-110678112D01*
X131302644Y-110720000D01*
X131517356Y-110720000D01*
X131727941Y-110678112D01*
X131926309Y-110595945D01*
X132084400Y-110490311D01*
X133009394Y-110490311D01*
X133103717Y-110654869D01*
X133315117Y-110751505D01*
X133541307Y-110805042D01*
X133773595Y-110813423D01*
X134003055Y-110776327D01*
X134220869Y-110695177D01*
X134296283Y-110654869D01*
X134390606Y-110490311D01*
X133700000Y-109799706D01*
X133009394Y-110490311D01*
X132084400Y-110490311D01*
X132104834Y-110476658D01*
X132256658Y-110324834D01*
X132375945Y-110146309D01*
X132458112Y-109947941D01*
X132500000Y-109737356D01*
X132500000Y-109703595D01*
X132516577Y-109703595D01*
X132553673Y-109933055D01*
X132634823Y-110150869D01*
X132675131Y-110226283D01*
X132839689Y-110320606D01*
X133530294Y-109630000D01*
X133869706Y-109630000D01*
X134560311Y-110320606D01*
X134724869Y-110226283D01*
X134821505Y-110014883D01*
X134875042Y-109788693D01*
X134883423Y-109556405D01*
X134846327Y-109326945D01*
X134765177Y-109109131D01*
X134724869Y-109033717D01*
X134560311Y-108939394D01*
X133869706Y-109630000D01*
X133530294Y-109630000D01*
X132839689Y-108939394D01*
X132675131Y-109033717D01*
X132578495Y-109245117D01*
X132524958Y-109471307D01*
X132516577Y-109703595D01*
X132500000Y-109703595D01*
X132500000Y-109522644D01*
X132458112Y-109312059D01*
X132375945Y-109113691D01*
X132256658Y-108935166D01*
X132104834Y-108783342D01*
X132084401Y-108769689D01*
X133009394Y-108769689D01*
X133700000Y-109460294D01*
X134390606Y-108769689D01*
X134367337Y-108729093D01*
X134460117Y-108771505D01*
X134686307Y-108825042D01*
X134918595Y-108833423D01*
X135148055Y-108796327D01*
X135365869Y-108715177D01*
X135441283Y-108674869D01*
X135535606Y-108510311D01*
X134845000Y-107819706D01*
X134154394Y-108510311D01*
X134177663Y-108550907D01*
X134084883Y-108508495D01*
X133858693Y-108454958D01*
X133626405Y-108446577D01*
X133396945Y-108483673D01*
X133179131Y-108564823D01*
X133103717Y-108605131D01*
X133009394Y-108769689D01*
X132084401Y-108769689D01*
X131926309Y-108664055D01*
X131727941Y-108581888D01*
X131517356Y-108540000D01*
X131302644Y-108540000D01*
X131092059Y-108581888D01*
X130893691Y-108664055D01*
X130715166Y-108783342D01*
X130563342Y-108935166D01*
X130444055Y-109113691D01*
X130361888Y-109312059D01*
X130320000Y-109522644D01*
X130297965Y-109522644D01*
X130266327Y-109326945D01*
X130185177Y-109109131D01*
X130144869Y-109033717D01*
X129980311Y-108939394D01*
X129289706Y-109630000D01*
X128950294Y-109630000D01*
X128259689Y-108939394D01*
X128095131Y-109033717D01*
X127998495Y-109245117D01*
X127977463Y-109333974D01*
X127976327Y-109326945D01*
X127895177Y-109109131D01*
X127854869Y-109033717D01*
X127690311Y-108939394D01*
X126999706Y-109630000D01*
X126660294Y-109630000D01*
X125969689Y-108939394D01*
X125805131Y-109033717D01*
X125708495Y-109245117D01*
X125687463Y-109333974D01*
X125686327Y-109326945D01*
X125605177Y-109109131D01*
X125564869Y-109033717D01*
X125400311Y-108939394D01*
X124709706Y-109630000D01*
X124370294Y-109630000D01*
X123679689Y-108939394D01*
X123515131Y-109033717D01*
X123418495Y-109245117D01*
X123364958Y-109471307D01*
X123356577Y-109703595D01*
X122475000Y-109703595D01*
X122475000Y-108769689D01*
X123849394Y-108769689D01*
X124540000Y-109460294D01*
X125230606Y-108769689D01*
X125214254Y-108741161D01*
X126155746Y-108741161D01*
X126139394Y-108769689D01*
X126830000Y-109460294D01*
X127520606Y-108769689D01*
X128429394Y-108769689D01*
X129120000Y-109460294D01*
X129810606Y-108769689D01*
X129716283Y-108605131D01*
X129504883Y-108508495D01*
X129278693Y-108454958D01*
X129046405Y-108446577D01*
X128816945Y-108483673D01*
X128599131Y-108564823D01*
X128523717Y-108605131D01*
X128429394Y-108769689D01*
X127520606Y-108769689D01*
X127426283Y-108605131D01*
X127214883Y-108508495D01*
X126988693Y-108454958D01*
X126776161Y-108447290D01*
X126776161Y-106800000D01*
X126771527Y-106752952D01*
X126757804Y-106707712D01*
X126735518Y-106666018D01*
X126705527Y-106629473D01*
X126668982Y-106599482D01*
X126627288Y-106577196D01*
X126582048Y-106563473D01*
X126535000Y-106558839D01*
X124835000Y-106558839D01*
X124787952Y-106563473D01*
X124742712Y-106577196D01*
X124701018Y-106599482D01*
X124664473Y-106629473D01*
X124634482Y-106666018D01*
X124612196Y-106707712D01*
X124598473Y-106752952D01*
X124593839Y-106800000D01*
X124593839Y-108451175D01*
X124466405Y-108446577D01*
X124236945Y-108483673D01*
X124019131Y-108564823D01*
X123943717Y-108605131D01*
X123849394Y-108769689D01*
X122475000Y-108769689D01*
X122475000Y-102163819D01*
X122477075Y-102098361D01*
X122482061Y-102052598D01*
X122488852Y-102019423D01*
X122497025Y-101993467D01*
X122507698Y-101968488D01*
X122523073Y-101939045D01*
X122544803Y-101901579D01*
X122571462Y-101856560D01*
X122573893Y-101852359D01*
X122603125Y-101800637D01*
X122607669Y-101792208D01*
X122618887Y-101770368D01*
X122632851Y-101749470D01*
X122677327Y-101642097D01*
X122700000Y-101528110D01*
X122700000Y-101411890D01*
X122677327Y-101297903D01*
X122632851Y-101190530D01*
X122568283Y-101093897D01*
X122486103Y-101011717D01*
X122389470Y-100947149D01*
X122282097Y-100902673D01*
X122168110Y-100880000D01*
X122051890Y-100880000D01*
X121937903Y-100902673D01*
X121830530Y-100947149D01*
X121733897Y-101011717D01*
X121651717Y-101093897D01*
X121587149Y-101190530D01*
X121542673Y-101297903D01*
X121520000Y-101411890D01*
X115169904Y-101411890D01*
X115169876Y-98000000D01*
X124213234Y-98000000D01*
X124215001Y-98017939D01*
X124215000Y-102062071D01*
X124213234Y-102080000D01*
X124215000Y-102097929D01*
X124215000Y-102097930D01*
X124220281Y-102151551D01*
X124241152Y-102220354D01*
X124275045Y-102283763D01*
X124320657Y-102339342D01*
X124334588Y-102350775D01*
X127595001Y-105611189D01*
X127595001Y-105993543D01*
X127585677Y-106167188D01*
X127562184Y-106294005D01*
X127528200Y-106391734D01*
X127484241Y-106474652D01*
X127427496Y-106555525D01*
X127355689Y-106643498D01*
X127273264Y-106741683D01*
X127267402Y-106748948D01*
X127181463Y-106859802D01*
X127170650Y-106874924D01*
X127085090Y-107004953D01*
X127073059Y-107025366D01*
X127042424Y-107083751D01*
X127009055Y-107133691D01*
X126926888Y-107332059D01*
X126885000Y-107542644D01*
X126885000Y-107757356D01*
X126926888Y-107967941D01*
X127009055Y-108166309D01*
X127128342Y-108344834D01*
X127280166Y-108496658D01*
X127458691Y-108615945D01*
X127657059Y-108698112D01*
X127867644Y-108740000D01*
X128082356Y-108740000D01*
X128292941Y-108698112D01*
X128491309Y-108615945D01*
X128669834Y-108496658D01*
X128821658Y-108344834D01*
X128940945Y-108166309D01*
X129023112Y-107967941D01*
X129065000Y-107757356D01*
X129065000Y-107542644D01*
X129023112Y-107332059D01*
X128940945Y-107133691D01*
X128893479Y-107062654D01*
X128854021Y-106993759D01*
X128841576Y-106974271D01*
X128752288Y-106848274D01*
X128741539Y-106834233D01*
X128652783Y-106726739D01*
X128647435Y-106720483D01*
X128563363Y-106625493D01*
X128491189Y-106540798D01*
X128434648Y-106462901D01*
X128391148Y-106382940D01*
X128357547Y-106288160D01*
X128334265Y-106164251D01*
X128325000Y-105993486D01*
X128325000Y-105477929D01*
X128326766Y-105460000D01*
X128325000Y-105442069D01*
X128319719Y-105388448D01*
X128298848Y-105319645D01*
X128264955Y-105256236D01*
X128219343Y-105200657D01*
X128205413Y-105189225D01*
X124979013Y-101962825D01*
X125716000Y-101962825D01*
X125730383Y-102108857D01*
X125787221Y-102296227D01*
X125879521Y-102468909D01*
X126003735Y-102620265D01*
X126155091Y-102744479D01*
X126327772Y-102836779D01*
X126515142Y-102893617D01*
X126710000Y-102912809D01*
X126904857Y-102893617D01*
X127092227Y-102836779D01*
X127264909Y-102744479D01*
X127416265Y-102620265D01*
X127540479Y-102468909D01*
X127632779Y-102296228D01*
X127689617Y-102108858D01*
X127704000Y-101962826D01*
X127704000Y-100357174D01*
X127689617Y-100211142D01*
X127632779Y-100023772D01*
X127540479Y-99851091D01*
X127416265Y-99699735D01*
X127264909Y-99575521D01*
X127092228Y-99483221D01*
X126904858Y-99426383D01*
X126710000Y-99407191D01*
X126515143Y-99426383D01*
X126327773Y-99483221D01*
X126155092Y-99575521D01*
X126003736Y-99699735D01*
X125879522Y-99851091D01*
X125787222Y-100023772D01*
X125730384Y-100211142D01*
X125716001Y-100357174D01*
X125716000Y-101962825D01*
X124979013Y-101962825D01*
X124945000Y-101928813D01*
X124945000Y-98940000D01*
X128143234Y-98940000D01*
X128145000Y-98957929D01*
X128145001Y-103992061D01*
X128143234Y-104010000D01*
X128148813Y-104066640D01*
X128150282Y-104081552D01*
X128171153Y-104150355D01*
X128205046Y-104213764D01*
X128250658Y-104269343D01*
X128264588Y-104280775D01*
X129895000Y-105911188D01*
X129895000Y-105963754D01*
X129885763Y-106140916D01*
X129862318Y-106271175D01*
X129828267Y-106371837D01*
X129784264Y-106456989D01*
X129727651Y-106539485D01*
X129656081Y-106628655D01*
X129573273Y-106728214D01*
X129568131Y-106734616D01*
X129480946Y-106847049D01*
X129470822Y-106861127D01*
X129383268Y-106992653D01*
X129371705Y-107011920D01*
X129335656Y-107078914D01*
X129299055Y-107133691D01*
X129216888Y-107332059D01*
X129175000Y-107542644D01*
X129175000Y-107757356D01*
X129216888Y-107967941D01*
X129299055Y-108166309D01*
X129418342Y-108344834D01*
X129570166Y-108496658D01*
X129748691Y-108615945D01*
X129947059Y-108698112D01*
X130157644Y-108740000D01*
X130372356Y-108740000D01*
X130582941Y-108698112D01*
X130781309Y-108615945D01*
X130959834Y-108496658D01*
X131111658Y-108344834D01*
X131230945Y-108166309D01*
X131313112Y-107967941D01*
X131355000Y-107757356D01*
X131355000Y-107542644D01*
X131465000Y-107542644D01*
X131465000Y-107757356D01*
X131506888Y-107967941D01*
X131589055Y-108166309D01*
X131708342Y-108344834D01*
X131860166Y-108496658D01*
X132038691Y-108615945D01*
X132237059Y-108698112D01*
X132447644Y-108740000D01*
X132662356Y-108740000D01*
X132872941Y-108698112D01*
X133071309Y-108615945D01*
X133249834Y-108496658D01*
X133401658Y-108344834D01*
X133520945Y-108166309D01*
X133603112Y-107967941D01*
X133645000Y-107757356D01*
X133645000Y-107723595D01*
X133661577Y-107723595D01*
X133698673Y-107953055D01*
X133779823Y-108170869D01*
X133820131Y-108246283D01*
X133984689Y-108340606D01*
X134675294Y-107650000D01*
X135014706Y-107650000D01*
X135705311Y-108340606D01*
X135869869Y-108246283D01*
X135966505Y-108034883D01*
X136020042Y-107808693D01*
X136028423Y-107576405D01*
X135991327Y-107346945D01*
X135910177Y-107129131D01*
X135869869Y-107053717D01*
X135705311Y-106959394D01*
X135014706Y-107650000D01*
X134675294Y-107650000D01*
X133984689Y-106959394D01*
X133820131Y-107053717D01*
X133723495Y-107265117D01*
X133669958Y-107491307D01*
X133661577Y-107723595D01*
X133645000Y-107723595D01*
X133645000Y-107542644D01*
X133603112Y-107332059D01*
X133520945Y-107133691D01*
X133401658Y-106955166D01*
X133249834Y-106803342D01*
X133229401Y-106789689D01*
X134154394Y-106789689D01*
X134845000Y-107480294D01*
X135535606Y-106789689D01*
X135441283Y-106625131D01*
X135229883Y-106528495D01*
X135003693Y-106474958D01*
X134771405Y-106466577D01*
X134541945Y-106503673D01*
X134324131Y-106584823D01*
X134248717Y-106625131D01*
X134154394Y-106789689D01*
X133229401Y-106789689D01*
X133071309Y-106684055D01*
X132872941Y-106601888D01*
X132662356Y-106560000D01*
X132447644Y-106560000D01*
X132237059Y-106601888D01*
X132038691Y-106684055D01*
X131860166Y-106803342D01*
X131708342Y-106955166D01*
X131589055Y-107133691D01*
X131506888Y-107332059D01*
X131465000Y-107542644D01*
X131355000Y-107542644D01*
X131313112Y-107332059D01*
X131230945Y-107133691D01*
X131189948Y-107072335D01*
X131150886Y-107001764D01*
X131139194Y-106982778D01*
X131050395Y-106852556D01*
X131040290Y-106838814D01*
X130952152Y-106727465D01*
X130947169Y-106721378D01*
X130863795Y-106622863D01*
X130792049Y-106534737D01*
X130735459Y-106453201D01*
X130691572Y-106369012D01*
X130657618Y-106269302D01*
X130634224Y-106139973D01*
X130625000Y-105963724D01*
X130625000Y-105777929D01*
X130626766Y-105760000D01*
X130625000Y-105742069D01*
X130619719Y-105688448D01*
X130598848Y-105619645D01*
X130564955Y-105556236D01*
X130519342Y-105500657D01*
X130505418Y-105489230D01*
X128979013Y-103962825D01*
X129416000Y-103962825D01*
X129430383Y-104108857D01*
X129487221Y-104296227D01*
X129579521Y-104468909D01*
X129703735Y-104620265D01*
X129855091Y-104744479D01*
X130027772Y-104836779D01*
X130215142Y-104893617D01*
X130410000Y-104912809D01*
X130604857Y-104893617D01*
X130752609Y-104848797D01*
X131799225Y-105895413D01*
X131810657Y-105909343D01*
X131866236Y-105954955D01*
X131929645Y-105988848D01*
X131998448Y-106009719D01*
X132052069Y-106015000D01*
X132052071Y-106015000D01*
X132070000Y-106016766D01*
X132087929Y-106015000D01*
X135748813Y-106015000D01*
X136855001Y-107121189D01*
X136855000Y-109088812D01*
X135791300Y-110152513D01*
X135658610Y-110272195D01*
X135549099Y-110348600D01*
X135453165Y-110396380D01*
X135361391Y-110425942D01*
X135262766Y-110444544D01*
X135149032Y-110457097D01*
X135019600Y-110468810D01*
X135012054Y-110469613D01*
X134870015Y-110487010D01*
X134853532Y-110489613D01*
X134697502Y-110519850D01*
X134676241Y-110524986D01*
X134597198Y-110547936D01*
X134527059Y-110561888D01*
X134328691Y-110644055D01*
X134150166Y-110763342D01*
X133998342Y-110915166D01*
X133879055Y-111093691D01*
X133796888Y-111292059D01*
X133755000Y-111502644D01*
X133755000Y-111717356D01*
X133796888Y-111927941D01*
X133879055Y-112126309D01*
X133998342Y-112304834D01*
X134150166Y-112456658D01*
X134328691Y-112575945D01*
X134527059Y-112658112D01*
X134737644Y-112700000D01*
X134952356Y-112700000D01*
X135162941Y-112658112D01*
X135361309Y-112575945D01*
X135539834Y-112456658D01*
X135691658Y-112304834D01*
X135810945Y-112126309D01*
X135893112Y-111927941D01*
X135906003Y-111863136D01*
X135928672Y-111787402D01*
X135934005Y-111766073D01*
X135965508Y-111610025D01*
X135968264Y-111593372D01*
X135986676Y-111451278D01*
X135987555Y-111443499D01*
X136000068Y-111313878D01*
X136013236Y-111199687D01*
X136032309Y-111100590D01*
X136062296Y-111008292D01*
X136110504Y-110911848D01*
X136187347Y-110801855D01*
X136307469Y-110668719D01*
X137465418Y-109510770D01*
X137479342Y-109499343D01*
X137524955Y-109443764D01*
X137558848Y-109380355D01*
X137579719Y-109311552D01*
X137585000Y-109257931D01*
X137585000Y-109257930D01*
X137586766Y-109240001D01*
X137585000Y-109222072D01*
X137585000Y-106987929D01*
X137586766Y-106970000D01*
X137585000Y-106952069D01*
X137579719Y-106898448D01*
X137558848Y-106829645D01*
X137524955Y-106766236D01*
X137479343Y-106710657D01*
X137465413Y-106699225D01*
X136170779Y-105404592D01*
X136159343Y-105390657D01*
X136103764Y-105345045D01*
X136040355Y-105311152D01*
X135971552Y-105290281D01*
X135917931Y-105285000D01*
X135917929Y-105285000D01*
X135900000Y-105283234D01*
X135882071Y-105285000D01*
X132221188Y-105285000D01*
X131297820Y-104361632D01*
X131332779Y-104296228D01*
X131389617Y-104108858D01*
X131404000Y-103962826D01*
X131404000Y-103962825D01*
X134916000Y-103962825D01*
X134930383Y-104108857D01*
X134987221Y-104296227D01*
X135079521Y-104468909D01*
X135203735Y-104620265D01*
X135355091Y-104744479D01*
X135527772Y-104836779D01*
X135715142Y-104893617D01*
X135910000Y-104912809D01*
X136104857Y-104893617D01*
X136292227Y-104836779D01*
X136464909Y-104744479D01*
X136616265Y-104620265D01*
X136740479Y-104468909D01*
X136832779Y-104296228D01*
X136889617Y-104108858D01*
X136904000Y-103962826D01*
X136904000Y-102357174D01*
X136889617Y-102211142D01*
X136832779Y-102023772D01*
X136740479Y-101851091D01*
X136616265Y-101699735D01*
X136464909Y-101575521D01*
X136292228Y-101483221D01*
X136104858Y-101426383D01*
X135910000Y-101407191D01*
X135715143Y-101426383D01*
X135527773Y-101483221D01*
X135355092Y-101575521D01*
X135203736Y-101699735D01*
X135079522Y-101851091D01*
X134987222Y-102023772D01*
X134930384Y-102211142D01*
X134916001Y-102357174D01*
X134916000Y-103962825D01*
X131404000Y-103962825D01*
X131404000Y-102498737D01*
X131503735Y-102620265D01*
X131655091Y-102744479D01*
X131827772Y-102836779D01*
X132015142Y-102893617D01*
X132210000Y-102912809D01*
X132404857Y-102893617D01*
X132592227Y-102836779D01*
X132764909Y-102744479D01*
X132916265Y-102620265D01*
X133040479Y-102468909D01*
X133132779Y-102296228D01*
X133189617Y-102108858D01*
X133204000Y-101962826D01*
X133204000Y-101280000D01*
X137226000Y-101280000D01*
X137226000Y-102034000D01*
X137270240Y-102243172D01*
X137354437Y-102439694D01*
X137475356Y-102616014D01*
X137628350Y-102765356D01*
X137807539Y-102881981D01*
X138022945Y-102959301D01*
X138190000Y-102908285D01*
X138190000Y-101280000D01*
X138430000Y-101280000D01*
X138430000Y-102908285D01*
X138597055Y-102959301D01*
X138812461Y-102881981D01*
X138991650Y-102765356D01*
X139144644Y-102616014D01*
X139265563Y-102439694D01*
X139349760Y-102243172D01*
X139394000Y-102034000D01*
X139394000Y-101280000D01*
X138430000Y-101280000D01*
X138190000Y-101280000D01*
X137226000Y-101280000D01*
X133204000Y-101280000D01*
X133204000Y-100357174D01*
X133196990Y-100286000D01*
X137226000Y-100286000D01*
X137226000Y-101040000D01*
X138190000Y-101040000D01*
X138190000Y-99411715D01*
X138430000Y-99411715D01*
X138430000Y-101040000D01*
X139394000Y-101040000D01*
X139394000Y-100286000D01*
X139349760Y-100076828D01*
X139265563Y-99880306D01*
X139144644Y-99703986D01*
X138991650Y-99554644D01*
X138812461Y-99438019D01*
X138597055Y-99360699D01*
X138430000Y-99411715D01*
X138190000Y-99411715D01*
X138022945Y-99360699D01*
X137807539Y-99438019D01*
X137628350Y-99554644D01*
X137475356Y-99703986D01*
X137354437Y-99880306D01*
X137270240Y-100076828D01*
X137226000Y-100286000D01*
X133196990Y-100286000D01*
X133189617Y-100211142D01*
X133132779Y-100023772D01*
X133040479Y-99851091D01*
X132916265Y-99699735D01*
X132764909Y-99575521D01*
X132592228Y-99483221D01*
X132404858Y-99426383D01*
X132210000Y-99407191D01*
X132015143Y-99426383D01*
X131827773Y-99483221D01*
X131655092Y-99575521D01*
X131503736Y-99699735D01*
X131379522Y-99851091D01*
X131287222Y-100023772D01*
X131230384Y-100211142D01*
X131216001Y-100357174D01*
X131216000Y-101821263D01*
X131116265Y-101699735D01*
X130964909Y-101575521D01*
X130792228Y-101483221D01*
X130604858Y-101426383D01*
X130410000Y-101407191D01*
X130215143Y-101426383D01*
X130027773Y-101483221D01*
X129855092Y-101575521D01*
X129703736Y-101699735D01*
X129579522Y-101851091D01*
X129487222Y-102023772D01*
X129430384Y-102211142D01*
X129416001Y-102357174D01*
X129416000Y-103962825D01*
X128979013Y-103962825D01*
X128875000Y-103858813D01*
X128875000Y-99091187D01*
X130260413Y-97705775D01*
X130274343Y-97694343D01*
X130301582Y-97661152D01*
X130319954Y-97638766D01*
X130353847Y-97575357D01*
X130356975Y-97565045D01*
X130374719Y-97506552D01*
X130380000Y-97452931D01*
X130380000Y-97452930D01*
X130381766Y-97435001D01*
X130380000Y-97417072D01*
X130380000Y-96596189D01*
X130389207Y-96417984D01*
X130412632Y-96286710D01*
X130446692Y-96185220D01*
X130490700Y-96099465D01*
X130547285Y-96016567D01*
X130618819Y-95927158D01*
X130701865Y-95827293D01*
X130706752Y-95821218D01*
X130794514Y-95708421D01*
X130804411Y-95694734D01*
X130892834Y-95562907D01*
X130904262Y-95544051D01*
X130942593Y-95473706D01*
X130980945Y-95416309D01*
X131063112Y-95217941D01*
X131105000Y-95007356D01*
X131105000Y-94792644D01*
X131215000Y-94792644D01*
X131215000Y-95007356D01*
X131256888Y-95217941D01*
X131339055Y-95416309D01*
X131458342Y-95594834D01*
X131610166Y-95746658D01*
X131788691Y-95865945D01*
X131987059Y-95948112D01*
X132197644Y-95990000D01*
X132412356Y-95990000D01*
X132622941Y-95948112D01*
X132821309Y-95865945D01*
X132999834Y-95746658D01*
X133151658Y-95594834D01*
X133270945Y-95416309D01*
X133353112Y-95217941D01*
X133395000Y-95007356D01*
X133395000Y-94792644D01*
X133353112Y-94582059D01*
X133270945Y-94383691D01*
X133151658Y-94205166D01*
X132999834Y-94053342D01*
X132821309Y-93934055D01*
X132622941Y-93851888D01*
X132412356Y-93810000D01*
X132197644Y-93810000D01*
X131987059Y-93851888D01*
X131788691Y-93934055D01*
X131610166Y-94053342D01*
X131458342Y-94205166D01*
X131339055Y-94383691D01*
X131256888Y-94582059D01*
X131215000Y-94792644D01*
X131105000Y-94792644D01*
X131063112Y-94582059D01*
X130980945Y-94383691D01*
X130861658Y-94205166D01*
X130709834Y-94053342D01*
X130531309Y-93934055D01*
X130332941Y-93851888D01*
X130122356Y-93810000D01*
X129907644Y-93810000D01*
X129697059Y-93851888D01*
X129498691Y-93934055D01*
X129320166Y-94053342D01*
X129168342Y-94205166D01*
X129049055Y-94383691D01*
X128966888Y-94582059D01*
X128925000Y-94792644D01*
X128925000Y-95007356D01*
X128966888Y-95217941D01*
X129049055Y-95416309D01*
X129087407Y-95473706D01*
X129125737Y-95544050D01*
X129137165Y-95562907D01*
X129225588Y-95694734D01*
X129235485Y-95708421D01*
X129323247Y-95821218D01*
X129328134Y-95827293D01*
X129411180Y-95927158D01*
X129482714Y-96016567D01*
X129539299Y-96099465D01*
X129583307Y-96185220D01*
X129617367Y-96286710D01*
X129640792Y-96417984D01*
X129650001Y-96596204D01*
X129650001Y-97283811D01*
X128264588Y-98669225D01*
X128250657Y-98680658D01*
X128205045Y-98736237D01*
X128171152Y-98799646D01*
X128150281Y-98868449D01*
X128145000Y-98922069D01*
X128143234Y-98940000D01*
X124945000Y-98940000D01*
X124945000Y-98151187D01*
X125851187Y-97245000D01*
X127366181Y-97245000D01*
X127431638Y-97247075D01*
X127477401Y-97252061D01*
X127510576Y-97258852D01*
X127536532Y-97267025D01*
X127561511Y-97277698D01*
X127590954Y-97293073D01*
X127628420Y-97314803D01*
X127673439Y-97341462D01*
X127677640Y-97343893D01*
X127729362Y-97373125D01*
X127737792Y-97377670D01*
X127759637Y-97388891D01*
X127780530Y-97402851D01*
X127887903Y-97447327D01*
X128001890Y-97470000D01*
X128118110Y-97470000D01*
X128232097Y-97447327D01*
X128339470Y-97402851D01*
X128436103Y-97338283D01*
X128518283Y-97256103D01*
X128582851Y-97159470D01*
X128627327Y-97052097D01*
X128650000Y-96938110D01*
X128650000Y-96821890D01*
X128627327Y-96707903D01*
X128582851Y-96600530D01*
X128518283Y-96503897D01*
X128436103Y-96421717D01*
X128339470Y-96357149D01*
X128232097Y-96312673D01*
X128118110Y-96290000D01*
X128001890Y-96290000D01*
X127887903Y-96312673D01*
X127780530Y-96357149D01*
X127759637Y-96371109D01*
X127737795Y-96382328D01*
X127729362Y-96386874D01*
X127677640Y-96416106D01*
X127673439Y-96418537D01*
X127628420Y-96445196D01*
X127590954Y-96466926D01*
X127561511Y-96482301D01*
X127536532Y-96492974D01*
X127510576Y-96501147D01*
X127477401Y-96507938D01*
X127431625Y-96512926D01*
X127366209Y-96515000D01*
X125717928Y-96515000D01*
X125699999Y-96513234D01*
X125682070Y-96515000D01*
X125682069Y-96515000D01*
X125628448Y-96520281D01*
X125559645Y-96541152D01*
X125496236Y-96575045D01*
X125440657Y-96620657D01*
X125429221Y-96634592D01*
X124334588Y-97729225D01*
X124320658Y-97740657D01*
X124309227Y-97754586D01*
X124275046Y-97796236D01*
X124241153Y-97859645D01*
X124220282Y-97928448D01*
X124213234Y-98000000D01*
X115169876Y-98000000D01*
X115169858Y-95760311D01*
X124744394Y-95760311D01*
X124838717Y-95924869D01*
X125050117Y-96021505D01*
X125276307Y-96075042D01*
X125508595Y-96083423D01*
X125738055Y-96046327D01*
X125955869Y-95965177D01*
X126031283Y-95924869D01*
X126125606Y-95760311D01*
X125435000Y-95069706D01*
X124744394Y-95760311D01*
X115169858Y-95760311D01*
X115169848Y-94623272D01*
X116236434Y-94623272D01*
X116473208Y-94909037D01*
X116886167Y-95123810D01*
X117333092Y-95253891D01*
X117796807Y-95294283D01*
X118259491Y-95243432D01*
X118703365Y-95103293D01*
X118946012Y-94973595D01*
X124251577Y-94973595D01*
X124288673Y-95203055D01*
X124369823Y-95420869D01*
X124410131Y-95496283D01*
X124574689Y-95590606D01*
X125265294Y-94900000D01*
X125604706Y-94900000D01*
X126295311Y-95590606D01*
X126459869Y-95496283D01*
X126556505Y-95284883D01*
X126610042Y-95058693D01*
X126618423Y-94826405D01*
X126612965Y-94792644D01*
X126635000Y-94792644D01*
X126635000Y-95007356D01*
X126676888Y-95217941D01*
X126759055Y-95416309D01*
X126878342Y-95594834D01*
X127030166Y-95746658D01*
X127208691Y-95865945D01*
X127407059Y-95948112D01*
X127617644Y-95990000D01*
X127832356Y-95990000D01*
X128042941Y-95948112D01*
X128241309Y-95865945D01*
X128419834Y-95746658D01*
X128571658Y-95594834D01*
X128690945Y-95416309D01*
X128773112Y-95217941D01*
X128815000Y-95007356D01*
X128815000Y-94792644D01*
X128773112Y-94582059D01*
X128690945Y-94383691D01*
X128571658Y-94205166D01*
X128419834Y-94053342D01*
X128241309Y-93934055D01*
X128042941Y-93851888D01*
X127832356Y-93810000D01*
X127617644Y-93810000D01*
X127407059Y-93851888D01*
X127208691Y-93934055D01*
X127030166Y-94053342D01*
X126878342Y-94205166D01*
X126759055Y-94383691D01*
X126676888Y-94582059D01*
X126635000Y-94792644D01*
X126612965Y-94792644D01*
X126581327Y-94596945D01*
X126500177Y-94379131D01*
X126459869Y-94303717D01*
X126295311Y-94209394D01*
X125604706Y-94900000D01*
X125265294Y-94900000D01*
X124574689Y-94209394D01*
X124410131Y-94303717D01*
X124313495Y-94515117D01*
X124259958Y-94741307D01*
X124251577Y-94973595D01*
X118946012Y-94973595D01*
X119066792Y-94909037D01*
X119303566Y-94623272D01*
X117770000Y-93089706D01*
X116236434Y-94623272D01*
X115169848Y-94623272D01*
X115169834Y-92946807D01*
X115395717Y-92946807D01*
X115446568Y-93409491D01*
X115586707Y-93853365D01*
X115780963Y-94216792D01*
X116066728Y-94453566D01*
X117600294Y-92920000D01*
X117939706Y-92920000D01*
X119473272Y-94453566D01*
X119759037Y-94216792D01*
X119851145Y-94039689D01*
X124744394Y-94039689D01*
X125435000Y-94730294D01*
X126125606Y-94039689D01*
X126102337Y-93999093D01*
X126195117Y-94041505D01*
X126421307Y-94095042D01*
X126653595Y-94103423D01*
X126883055Y-94066327D01*
X127100869Y-93985177D01*
X127176283Y-93944869D01*
X127270606Y-93780311D01*
X126580000Y-93089706D01*
X125889394Y-93780311D01*
X125912663Y-93820907D01*
X125819883Y-93778495D01*
X125593693Y-93724958D01*
X125361405Y-93716577D01*
X125131945Y-93753673D01*
X124914131Y-93834823D01*
X124838717Y-93875131D01*
X124744394Y-94039689D01*
X119851145Y-94039689D01*
X119973810Y-93803833D01*
X120103891Y-93356908D01*
X120135537Y-92993595D01*
X125396577Y-92993595D01*
X125433673Y-93223055D01*
X125514823Y-93440869D01*
X125555131Y-93516283D01*
X125719689Y-93610606D01*
X126410294Y-92920000D01*
X126749706Y-92920000D01*
X127440311Y-93610606D01*
X127604869Y-93516283D01*
X127701505Y-93304883D01*
X127755042Y-93078693D01*
X127763423Y-92846405D01*
X127757965Y-92812644D01*
X127780000Y-92812644D01*
X127780000Y-93027356D01*
X127821888Y-93237941D01*
X127904055Y-93436309D01*
X128023342Y-93614834D01*
X128175166Y-93766658D01*
X128353691Y-93885945D01*
X128552059Y-93968112D01*
X128762644Y-94010000D01*
X128977356Y-94010000D01*
X129187941Y-93968112D01*
X129386309Y-93885945D01*
X129544400Y-93780311D01*
X130469394Y-93780311D01*
X130563717Y-93944869D01*
X130775117Y-94041505D01*
X131001307Y-94095042D01*
X131233595Y-94103423D01*
X131463055Y-94066327D01*
X131680869Y-93985177D01*
X131756283Y-93944869D01*
X131850606Y-93780311D01*
X132759394Y-93780311D01*
X132853717Y-93944869D01*
X133065117Y-94041505D01*
X133291307Y-94095042D01*
X133503839Y-94102710D01*
X133503839Y-95750000D01*
X133508473Y-95797048D01*
X133522196Y-95842288D01*
X133544482Y-95883982D01*
X133574473Y-95920527D01*
X133611018Y-95950518D01*
X133652712Y-95972804D01*
X133697952Y-95986527D01*
X133745000Y-95991161D01*
X135445000Y-95991161D01*
X135492048Y-95986527D01*
X135537288Y-95972804D01*
X135578982Y-95950518D01*
X135615527Y-95920527D01*
X135645518Y-95883982D01*
X135667804Y-95842288D01*
X135681527Y-95797048D01*
X135686161Y-95750000D01*
X135686161Y-94098825D01*
X135813595Y-94103423D01*
X136043055Y-94066327D01*
X136260869Y-93985177D01*
X136336283Y-93944869D01*
X136430606Y-93780311D01*
X135740000Y-93089706D01*
X135049394Y-93780311D01*
X135065746Y-93808839D01*
X134124254Y-93808839D01*
X134140606Y-93780311D01*
X133450000Y-93089706D01*
X132759394Y-93780311D01*
X131850606Y-93780311D01*
X131160000Y-93089706D01*
X130469394Y-93780311D01*
X129544400Y-93780311D01*
X129564834Y-93766658D01*
X129716658Y-93614834D01*
X129835945Y-93436309D01*
X129918112Y-93237941D01*
X129960000Y-93027356D01*
X129960000Y-92993595D01*
X129976577Y-92993595D01*
X130013673Y-93223055D01*
X130094823Y-93440869D01*
X130135131Y-93516283D01*
X130299689Y-93610606D01*
X130990294Y-92920000D01*
X131329706Y-92920000D01*
X132020311Y-93610606D01*
X132184869Y-93516283D01*
X132281505Y-93304883D01*
X132302537Y-93216026D01*
X132303673Y-93223055D01*
X132384823Y-93440869D01*
X132425131Y-93516283D01*
X132589689Y-93610606D01*
X133280294Y-92920000D01*
X133619706Y-92920000D01*
X134310311Y-93610606D01*
X134474869Y-93516283D01*
X134571505Y-93304883D01*
X134592537Y-93216026D01*
X134593673Y-93223055D01*
X134674823Y-93440869D01*
X134715131Y-93516283D01*
X134879689Y-93610606D01*
X135570294Y-92920000D01*
X135909706Y-92920000D01*
X136600311Y-93610606D01*
X136764869Y-93516283D01*
X136861505Y-93304883D01*
X136915042Y-93078693D01*
X136923423Y-92846405D01*
X136886327Y-92616945D01*
X136805177Y-92399131D01*
X136764869Y-92323717D01*
X136600311Y-92229394D01*
X135909706Y-92920000D01*
X135570294Y-92920000D01*
X134879689Y-92229394D01*
X134715131Y-92323717D01*
X134618495Y-92535117D01*
X134597463Y-92623974D01*
X134596327Y-92616945D01*
X134515177Y-92399131D01*
X134474869Y-92323717D01*
X134310311Y-92229394D01*
X133619706Y-92920000D01*
X133280294Y-92920000D01*
X132589689Y-92229394D01*
X132425131Y-92323717D01*
X132328495Y-92535117D01*
X132307463Y-92623974D01*
X132306327Y-92616945D01*
X132225177Y-92399131D01*
X132184869Y-92323717D01*
X132020311Y-92229394D01*
X131329706Y-92920000D01*
X130990294Y-92920000D01*
X130299689Y-92229394D01*
X130135131Y-92323717D01*
X130038495Y-92535117D01*
X129984958Y-92761307D01*
X129976577Y-92993595D01*
X129960000Y-92993595D01*
X129960000Y-92812644D01*
X129918112Y-92602059D01*
X129835945Y-92403691D01*
X129716658Y-92225166D01*
X129564834Y-92073342D01*
X129544401Y-92059689D01*
X130469394Y-92059689D01*
X131160000Y-92750294D01*
X131850606Y-92059689D01*
X132759394Y-92059689D01*
X133450000Y-92750294D01*
X134140606Y-92059689D01*
X135049394Y-92059689D01*
X135740000Y-92750294D01*
X136430606Y-92059689D01*
X136336283Y-91895131D01*
X136124883Y-91798495D01*
X135898693Y-91744958D01*
X135666405Y-91736577D01*
X135436945Y-91773673D01*
X135219131Y-91854823D01*
X135143717Y-91895131D01*
X135049394Y-92059689D01*
X134140606Y-92059689D01*
X134046283Y-91895131D01*
X133834883Y-91798495D01*
X133608693Y-91744958D01*
X133376405Y-91736577D01*
X133146945Y-91773673D01*
X132929131Y-91854823D01*
X132853717Y-91895131D01*
X132759394Y-92059689D01*
X131850606Y-92059689D01*
X131756283Y-91895131D01*
X131544883Y-91798495D01*
X131318693Y-91744958D01*
X131086405Y-91736577D01*
X130856945Y-91773673D01*
X130639131Y-91854823D01*
X130563717Y-91895131D01*
X130469394Y-92059689D01*
X129544401Y-92059689D01*
X129386309Y-91954055D01*
X129187941Y-91871888D01*
X128977356Y-91830000D01*
X128762644Y-91830000D01*
X128552059Y-91871888D01*
X128353691Y-91954055D01*
X128175166Y-92073342D01*
X128023342Y-92225166D01*
X127904055Y-92403691D01*
X127821888Y-92602059D01*
X127780000Y-92812644D01*
X127757965Y-92812644D01*
X127726327Y-92616945D01*
X127645177Y-92399131D01*
X127604869Y-92323717D01*
X127440311Y-92229394D01*
X126749706Y-92920000D01*
X126410294Y-92920000D01*
X125719689Y-92229394D01*
X125555131Y-92323717D01*
X125458495Y-92535117D01*
X125404958Y-92761307D01*
X125396577Y-92993595D01*
X120135537Y-92993595D01*
X120144283Y-92893193D01*
X120093432Y-92430509D01*
X119976358Y-92059689D01*
X125889394Y-92059689D01*
X126580000Y-92750294D01*
X127270606Y-92059689D01*
X127176283Y-91895131D01*
X126964883Y-91798495D01*
X126738693Y-91744958D01*
X126506405Y-91736577D01*
X126276945Y-91773673D01*
X126059131Y-91854823D01*
X125983717Y-91895131D01*
X125889394Y-92059689D01*
X119976358Y-92059689D01*
X119953293Y-91986635D01*
X119759037Y-91623208D01*
X119473272Y-91386434D01*
X117939706Y-92920000D01*
X117600294Y-92920000D01*
X116066728Y-91386434D01*
X115780963Y-91623208D01*
X115566190Y-92036167D01*
X115436109Y-92483092D01*
X115395717Y-92946807D01*
X115169834Y-92946807D01*
X115169820Y-91216728D01*
X116236434Y-91216728D01*
X117770000Y-92750294D01*
X119303566Y-91216728D01*
X119066792Y-90930963D01*
X118877748Y-90832644D01*
X124345000Y-90832644D01*
X124345000Y-91047356D01*
X124386888Y-91257941D01*
X124469055Y-91456309D01*
X124588342Y-91634834D01*
X124740166Y-91786658D01*
X124918691Y-91905945D01*
X125117059Y-91988112D01*
X125327644Y-92030000D01*
X125542356Y-92030000D01*
X125752941Y-91988112D01*
X125951309Y-91905945D01*
X126129834Y-91786658D01*
X126281658Y-91634834D01*
X126400945Y-91456309D01*
X126483112Y-91257941D01*
X126525000Y-91047356D01*
X126525000Y-90832644D01*
X126635000Y-90832644D01*
X126635000Y-91047356D01*
X126676888Y-91257941D01*
X126759055Y-91456309D01*
X126878342Y-91634834D01*
X127030166Y-91786658D01*
X127208691Y-91905945D01*
X127407059Y-91988112D01*
X127617644Y-92030000D01*
X127832356Y-92030000D01*
X128042941Y-91988112D01*
X128241309Y-91905945D01*
X128419834Y-91786658D01*
X128571658Y-91634834D01*
X128690945Y-91456309D01*
X128773112Y-91257941D01*
X128815000Y-91047356D01*
X128815000Y-90928871D01*
X128817527Y-90839084D01*
X128817476Y-90832644D01*
X128925000Y-90832644D01*
X128925000Y-91047356D01*
X128966888Y-91257941D01*
X129049055Y-91456309D01*
X129168342Y-91634834D01*
X129320166Y-91786658D01*
X129498691Y-91905945D01*
X129697059Y-91988112D01*
X129907644Y-92030000D01*
X130122356Y-92030000D01*
X130332941Y-91988112D01*
X130531309Y-91905945D01*
X130709834Y-91786658D01*
X130861658Y-91634834D01*
X130980945Y-91456309D01*
X131063112Y-91257941D01*
X131105000Y-91047356D01*
X131105000Y-90832644D01*
X131215000Y-90832644D01*
X131215000Y-91047356D01*
X131256888Y-91257941D01*
X131339055Y-91456309D01*
X131458342Y-91634834D01*
X131610166Y-91786658D01*
X131788691Y-91905945D01*
X131987059Y-91988112D01*
X132197644Y-92030000D01*
X132412356Y-92030000D01*
X132622941Y-91988112D01*
X132821309Y-91905945D01*
X132999834Y-91786658D01*
X133151658Y-91634834D01*
X133270945Y-91456309D01*
X133353112Y-91257941D01*
X133395000Y-91047356D01*
X133395000Y-90832644D01*
X133505000Y-90832644D01*
X133505000Y-91047356D01*
X133546888Y-91257941D01*
X133629055Y-91456309D01*
X133748342Y-91634834D01*
X133900166Y-91786658D01*
X134078691Y-91905945D01*
X134277059Y-91988112D01*
X134487644Y-92030000D01*
X134702356Y-92030000D01*
X134912941Y-91988112D01*
X135111309Y-91905945D01*
X135289834Y-91786658D01*
X135441658Y-91634834D01*
X135560945Y-91456309D01*
X135643112Y-91257941D01*
X135685000Y-91047356D01*
X135685000Y-90832644D01*
X135643112Y-90622059D01*
X135560945Y-90423691D01*
X135441658Y-90245166D01*
X135289834Y-90093342D01*
X135111309Y-89974055D01*
X134912941Y-89891888D01*
X134702356Y-89850000D01*
X134487644Y-89850000D01*
X134277059Y-89891888D01*
X134078691Y-89974055D01*
X133900166Y-90093342D01*
X133748342Y-90245166D01*
X133629055Y-90423691D01*
X133546888Y-90622059D01*
X133505000Y-90832644D01*
X133395000Y-90832644D01*
X133353112Y-90622059D01*
X133270945Y-90423691D01*
X133151658Y-90245166D01*
X132999834Y-90093342D01*
X132821309Y-89974055D01*
X132622941Y-89891888D01*
X132412356Y-89850000D01*
X132197644Y-89850000D01*
X131987059Y-89891888D01*
X131788691Y-89974055D01*
X131610166Y-90093342D01*
X131458342Y-90245166D01*
X131339055Y-90423691D01*
X131256888Y-90622059D01*
X131215000Y-90832644D01*
X131105000Y-90832644D01*
X131063112Y-90622059D01*
X130980945Y-90423691D01*
X130861658Y-90245166D01*
X130709834Y-90093342D01*
X130531309Y-89974055D01*
X130332941Y-89891888D01*
X130122356Y-89850000D01*
X129907644Y-89850000D01*
X129697059Y-89891888D01*
X129498691Y-89974055D01*
X129320166Y-90093342D01*
X129168342Y-90245166D01*
X129049055Y-90423691D01*
X128966888Y-90622059D01*
X128925000Y-90832644D01*
X128817476Y-90832644D01*
X128817389Y-90821758D01*
X128810770Y-90671670D01*
X128810100Y-90661439D01*
X128798226Y-90524982D01*
X128798213Y-90524836D01*
X128787702Y-90404888D01*
X128784211Y-90305120D01*
X128790532Y-90221699D01*
X128808712Y-90145994D01*
X128844327Y-90065831D01*
X128907589Y-89971208D01*
X129013188Y-89852999D01*
X129511187Y-89355000D01*
X136038813Y-89355000D01*
X138305000Y-91621188D01*
X138305001Y-95992061D01*
X138303234Y-96010000D01*
X138309641Y-96075042D01*
X138310282Y-96081552D01*
X138331153Y-96150355D01*
X138365046Y-96213764D01*
X138410658Y-96269343D01*
X138424588Y-96280775D01*
X140165000Y-98021188D01*
X140165001Y-104848811D01*
X138904588Y-106109225D01*
X138890657Y-106120658D01*
X138845045Y-106176237D01*
X138811152Y-106239646D01*
X138790281Y-106308449D01*
X138785000Y-106362069D01*
X138783234Y-106380000D01*
X138785000Y-106397929D01*
X138785001Y-112328812D01*
X138098813Y-113015000D01*
X134471188Y-113015000D01*
X134020353Y-112564166D01*
X133899470Y-112430313D01*
X133821891Y-112319622D01*
X133773119Y-112222614D01*
X133742740Y-112129920D01*
X133723423Y-112030615D01*
X133710162Y-111916309D01*
X133697759Y-111786301D01*
X133696953Y-111779024D01*
X133678915Y-111636185D01*
X133676315Y-111620044D01*
X133645513Y-111463061D01*
X133640432Y-111442166D01*
X133616891Y-111361328D01*
X133603112Y-111292059D01*
X133520945Y-111093691D01*
X133401658Y-110915166D01*
X133249834Y-110763342D01*
X133071309Y-110644055D01*
X132872941Y-110561888D01*
X132662356Y-110520000D01*
X132447644Y-110520000D01*
X132237059Y-110561888D01*
X132038691Y-110644055D01*
X131860166Y-110763342D01*
X131708342Y-110915166D01*
X131589055Y-111093691D01*
X131506888Y-111292059D01*
X131465000Y-111502644D01*
X131465000Y-111717356D01*
X131506888Y-111927941D01*
X131589055Y-112126309D01*
X131708342Y-112304834D01*
X131860166Y-112456658D01*
X132038691Y-112575945D01*
X132237059Y-112658112D01*
X132301114Y-112670853D01*
X132378625Y-112694114D01*
X132399586Y-112699388D01*
X132556581Y-112731450D01*
X132572886Y-112734199D01*
X132715772Y-112753249D01*
X132723278Y-112754130D01*
X132853515Y-112767336D01*
X132968219Y-112781209D01*
X133067979Y-112800998D01*
X133161180Y-112831803D01*
X133258690Y-112881003D01*
X133369852Y-112959016D01*
X133504157Y-113080344D01*
X134049225Y-113625413D01*
X134060657Y-113639343D01*
X134116236Y-113684955D01*
X134179645Y-113718848D01*
X134248448Y-113739719D01*
X134302069Y-113745000D01*
X134302071Y-113745000D01*
X134320000Y-113746766D01*
X134337929Y-113745000D01*
X138232071Y-113745000D01*
X138250000Y-113746766D01*
X138267929Y-113745000D01*
X138267931Y-113745000D01*
X138321552Y-113739719D01*
X138390355Y-113718848D01*
X138453764Y-113684955D01*
X138509343Y-113639343D01*
X138520779Y-113625408D01*
X139395408Y-112750779D01*
X139409343Y-112739343D01*
X139454955Y-112683764D01*
X139488848Y-112620355D01*
X139509719Y-112551552D01*
X139515000Y-112497931D01*
X139515000Y-112497930D01*
X139516766Y-112480001D01*
X139515000Y-112462072D01*
X139515000Y-111333272D01*
X141226434Y-111333272D01*
X141463208Y-111619037D01*
X141876167Y-111833810D01*
X142323092Y-111963891D01*
X142786807Y-112004283D01*
X143249491Y-111953432D01*
X143693365Y-111813293D01*
X144056792Y-111619037D01*
X144293566Y-111333272D01*
X142760000Y-109799706D01*
X141226434Y-111333272D01*
X139515000Y-111333272D01*
X139515000Y-109656807D01*
X140385717Y-109656807D01*
X140436568Y-110119491D01*
X140576707Y-110563365D01*
X140770963Y-110926792D01*
X141056728Y-111163566D01*
X142590294Y-109630000D01*
X142929706Y-109630000D01*
X144463272Y-111163566D01*
X144749037Y-110926792D01*
X144963810Y-110513833D01*
X145093891Y-110066908D01*
X145134283Y-109603193D01*
X145083432Y-109140509D01*
X144943293Y-108696635D01*
X144749037Y-108333208D01*
X144463272Y-108096434D01*
X142929706Y-109630000D01*
X142590294Y-109630000D01*
X141056728Y-108096434D01*
X140770963Y-108333208D01*
X140556190Y-108746167D01*
X140426109Y-109193092D01*
X140385717Y-109656807D01*
X139515000Y-109656807D01*
X139515000Y-107926728D01*
X141226434Y-107926728D01*
X142760000Y-109460294D01*
X144293566Y-107926728D01*
X144056792Y-107640963D01*
X143643833Y-107426190D01*
X143196908Y-107296109D01*
X142733193Y-107255717D01*
X142270509Y-107306568D01*
X141826635Y-107446707D01*
X141463208Y-107640963D01*
X141226434Y-107926728D01*
X139515000Y-107926728D01*
X139515000Y-106531187D01*
X140775413Y-105270775D01*
X140789343Y-105259343D01*
X140834955Y-105203764D01*
X140868848Y-105140355D01*
X140889719Y-105071552D01*
X140895000Y-105017931D01*
X140895000Y-105017929D01*
X140896766Y-105000000D01*
X140895000Y-104982071D01*
X140895000Y-97887928D01*
X140896766Y-97869999D01*
X140895000Y-97852069D01*
X140889719Y-97798448D01*
X140868848Y-97729645D01*
X140834955Y-97666236D01*
X140789342Y-97610657D01*
X140775418Y-97599230D01*
X139035000Y-95858813D01*
X139035000Y-94623272D01*
X141226434Y-94623272D01*
X141463208Y-94909037D01*
X141876167Y-95123810D01*
X142323092Y-95253891D01*
X142786807Y-95294283D01*
X143249491Y-95243432D01*
X143693365Y-95103293D01*
X144056792Y-94909037D01*
X144293566Y-94623272D01*
X142760000Y-93089706D01*
X141226434Y-94623272D01*
X139035000Y-94623272D01*
X139035000Y-92946807D01*
X140385717Y-92946807D01*
X140436568Y-93409491D01*
X140576707Y-93853365D01*
X140770963Y-94216792D01*
X141056728Y-94453566D01*
X142590294Y-92920000D01*
X142929706Y-92920000D01*
X144463272Y-94453566D01*
X144749037Y-94216792D01*
X144963810Y-93803833D01*
X145093891Y-93356908D01*
X145134283Y-92893193D01*
X145083432Y-92430509D01*
X144943293Y-91986635D01*
X144749037Y-91623208D01*
X144463272Y-91386434D01*
X142929706Y-92920000D01*
X142590294Y-92920000D01*
X141056728Y-91386434D01*
X140770963Y-91623208D01*
X140556190Y-92036167D01*
X140426109Y-92483092D01*
X140385717Y-92946807D01*
X139035000Y-92946807D01*
X139035000Y-91487929D01*
X139036766Y-91470000D01*
X139031792Y-91419498D01*
X139029719Y-91398448D01*
X139008848Y-91329645D01*
X138974955Y-91266236D01*
X138934325Y-91216728D01*
X141226434Y-91216728D01*
X142760000Y-92750294D01*
X144293566Y-91216728D01*
X144056792Y-90930963D01*
X143643833Y-90716190D01*
X143196908Y-90586109D01*
X142733193Y-90545717D01*
X142270509Y-90596568D01*
X141826635Y-90736707D01*
X141463208Y-90930963D01*
X141226434Y-91216728D01*
X138934325Y-91216728D01*
X138929342Y-91210657D01*
X138915418Y-91199230D01*
X136460779Y-88744592D01*
X136449343Y-88730657D01*
X136393764Y-88685045D01*
X136330355Y-88651152D01*
X136261552Y-88630281D01*
X136207931Y-88625000D01*
X136207929Y-88625000D01*
X136190000Y-88623234D01*
X136172071Y-88625000D01*
X129377928Y-88625000D01*
X129359999Y-88623234D01*
X129342070Y-88625000D01*
X129342069Y-88625000D01*
X129288448Y-88630281D01*
X129219645Y-88651152D01*
X129156236Y-88685045D01*
X129100657Y-88730657D01*
X129089221Y-88744592D01*
X128496176Y-89337637D01*
X128349203Y-89471507D01*
X128224397Y-89562607D01*
X128112152Y-89625526D01*
X128004089Y-89670850D01*
X127890995Y-89707370D01*
X127767756Y-89742166D01*
X127763928Y-89743281D01*
X127632281Y-89782824D01*
X127617958Y-89787623D01*
X127478622Y-89839236D01*
X127458216Y-89847886D01*
X127307609Y-89920105D01*
X127286008Y-89931860D01*
X127234752Y-89963260D01*
X127208691Y-89974055D01*
X127030166Y-90093342D01*
X126878342Y-90245166D01*
X126759055Y-90423691D01*
X126676888Y-90622059D01*
X126635000Y-90832644D01*
X126525000Y-90832644D01*
X126483112Y-90622059D01*
X126400945Y-90423691D01*
X126281658Y-90245166D01*
X126129834Y-90093342D01*
X125951309Y-89974055D01*
X125752941Y-89891888D01*
X125542356Y-89850000D01*
X125327644Y-89850000D01*
X125117059Y-89891888D01*
X124918691Y-89974055D01*
X124740166Y-90093342D01*
X124588342Y-90245166D01*
X124469055Y-90423691D01*
X124386888Y-90622059D01*
X124345000Y-90832644D01*
X118877748Y-90832644D01*
X118653833Y-90716190D01*
X118206908Y-90586109D01*
X117743193Y-90545717D01*
X117280509Y-90596568D01*
X116836635Y-90736707D01*
X116473208Y-90930963D01*
X116236434Y-91216728D01*
X115169820Y-91216728D01*
X115169800Y-88864192D01*
X115184691Y-88712325D01*
X115224675Y-88579892D01*
X115289621Y-88457748D01*
X115377049Y-88350551D01*
X115483642Y-88262370D01*
X115605326Y-88196575D01*
X115738385Y-88155388D01*
X115876148Y-88140001D01*
X144675808Y-88139800D01*
X144827675Y-88154691D01*
G37*
G04 #@! TD.AperFunction*
D18*
X131068601Y-103499829D02*
X131019043Y-103592306D01*
X130964466Y-103686297D01*
X130964460Y-103686308D01*
X130912884Y-103775337D01*
X130912622Y-103775812D01*
X130867991Y-103861053D01*
X130867486Y-103862139D01*
X130833634Y-103944958D01*
X130833028Y-103946854D01*
X130813791Y-104028615D01*
X130813454Y-104031402D01*
X130812666Y-104113469D01*
X130813064Y-104116749D01*
X130834561Y-104200486D01*
X130835728Y-104203438D01*
X130883344Y-104290210D01*
X130884805Y-104292330D01*
X130954783Y-104374578D01*
X130795211Y-104534150D01*
X130681006Y-104421490D01*
X130680868Y-104421356D01*
X130575381Y-104320394D01*
X130575236Y-104320257D01*
X130483420Y-104235110D01*
X130483287Y-104234989D01*
X130401119Y-104160918D01*
X130401032Y-104160840D01*
X130324487Y-104093107D01*
X130324474Y-104093095D01*
X130249529Y-104026961D01*
X130172291Y-103957807D01*
X130088613Y-103880785D01*
X129994474Y-103791164D01*
X129892828Y-103691076D01*
X130417400Y-102804084D01*
X131068601Y-103499829D01*
G04 #@! TA.AperFunction,Conductor*
D17*
G36*
X131068601Y-103499829D02*
G01*
X131019043Y-103592306D01*
X130964466Y-103686297D01*
X130964460Y-103686308D01*
X130912884Y-103775337D01*
X130912622Y-103775812D01*
X130867991Y-103861053D01*
X130867486Y-103862139D01*
X130833634Y-103944958D01*
X130833028Y-103946854D01*
X130813791Y-104028615D01*
X130813454Y-104031402D01*
X130812666Y-104113469D01*
X130813064Y-104116749D01*
X130834561Y-104200486D01*
X130835728Y-104203438D01*
X130883344Y-104290210D01*
X130884805Y-104292330D01*
X130954783Y-104374578D01*
X130795211Y-104534150D01*
X130681006Y-104421490D01*
X130680868Y-104421356D01*
X130575381Y-104320394D01*
X130575236Y-104320257D01*
X130483420Y-104235110D01*
X130483287Y-104234989D01*
X130401119Y-104160918D01*
X130401032Y-104160840D01*
X130324487Y-104093107D01*
X130324474Y-104093095D01*
X130249529Y-104026961D01*
X130172291Y-103957807D01*
X130088613Y-103880785D01*
X129994474Y-103791164D01*
X129892828Y-103691076D01*
X130417400Y-102804084D01*
X131068601Y-103499829D01*
G37*
G04 #@! TD.AperFunction*
D18*
X136115887Y-110503828D02*
X135989727Y-110643658D01*
X135988745Y-110644893D01*
X135893279Y-110781541D01*
X135892330Y-110783136D01*
X135828231Y-110911374D01*
X135827513Y-110913128D01*
X135787371Y-111036681D01*
X135786978Y-111038205D01*
X135763382Y-111160802D01*
X135763237Y-111161747D01*
X135748780Y-111287115D01*
X135748755Y-111287350D01*
X135736047Y-111418994D01*
X135717716Y-111560459D01*
X135686418Y-111715493D01*
X135637249Y-111879755D01*
X134556232Y-111896356D01*
X134581894Y-110815516D01*
X134746144Y-110767825D01*
X134901171Y-110737783D01*
X135042591Y-110720462D01*
X135174149Y-110708556D01*
X135174397Y-110708531D01*
X135299628Y-110694709D01*
X135300589Y-110694566D01*
X135423003Y-110671477D01*
X135424543Y-110671085D01*
X135547864Y-110631362D01*
X135549632Y-110630642D01*
X135677585Y-110566914D01*
X135679190Y-110565962D01*
X135815499Y-110470861D01*
X135816738Y-110469876D01*
X135956171Y-110344112D01*
X136115887Y-110503828D01*
G04 #@! TA.AperFunction,Conductor*
D17*
G36*
X136115887Y-110503828D02*
G01*
X135989727Y-110643658D01*
X135988745Y-110644893D01*
X135893279Y-110781541D01*
X135892330Y-110783136D01*
X135828231Y-110911374D01*
X135827513Y-110913128D01*
X135787371Y-111036681D01*
X135786978Y-111038205D01*
X135763382Y-111160802D01*
X135763237Y-111161747D01*
X135748780Y-111287115D01*
X135748755Y-111287350D01*
X135736047Y-111418994D01*
X135717716Y-111560459D01*
X135686418Y-111715493D01*
X135637249Y-111879755D01*
X134556232Y-111896356D01*
X134581894Y-110815516D01*
X134746144Y-110767825D01*
X134901171Y-110737783D01*
X135042591Y-110720462D01*
X135174149Y-110708556D01*
X135174397Y-110708531D01*
X135299628Y-110694709D01*
X135300589Y-110694566D01*
X135423003Y-110671477D01*
X135424543Y-110671085D01*
X135547864Y-110631362D01*
X135549632Y-110630642D01*
X135677585Y-110566914D01*
X135679190Y-110565962D01*
X135815499Y-110470861D01*
X135816738Y-110469876D01*
X135956171Y-110344112D01*
X136115887Y-110503828D01*
G37*
G04 #@! TD.AperFunction*
D18*
X128216678Y-96880000D02*
X127905174Y-97179559D01*
X127853467Y-97152999D01*
X127802104Y-97123970D01*
X127756164Y-97096766D01*
X127756065Y-97096708D01*
X127713140Y-97071812D01*
X127712647Y-97071541D01*
X127670250Y-97049401D01*
X127669361Y-97048979D01*
X127624911Y-97029986D01*
X127623735Y-97029551D01*
X127574653Y-97014097D01*
X127573386Y-97013769D01*
X127517092Y-97002246D01*
X127515921Y-97002063D01*
X127449835Y-96994862D01*
X127448861Y-96994793D01*
X127382700Y-96992696D01*
X127382700Y-96767304D01*
X127448862Y-96765206D01*
X127449835Y-96765137D01*
X127515921Y-96757936D01*
X127517092Y-96757753D01*
X127573386Y-96746230D01*
X127574653Y-96745902D01*
X127623735Y-96730448D01*
X127624911Y-96730013D01*
X127669361Y-96711020D01*
X127670250Y-96710598D01*
X127712647Y-96688458D01*
X127713140Y-96688187D01*
X127756065Y-96663291D01*
X127756164Y-96663233D01*
X127802104Y-96636029D01*
X127853467Y-96607000D01*
X127905174Y-96580441D01*
X128216678Y-96880000D01*
G04 #@! TA.AperFunction,Conductor*
D17*
G36*
X128216678Y-96880000D02*
G01*
X127905174Y-97179559D01*
X127853467Y-97152999D01*
X127802104Y-97123970D01*
X127756164Y-97096766D01*
X127756065Y-97096708D01*
X127713140Y-97071812D01*
X127712647Y-97071541D01*
X127670250Y-97049401D01*
X127669361Y-97048979D01*
X127624911Y-97029986D01*
X127623735Y-97029551D01*
X127574653Y-97014097D01*
X127573386Y-97013769D01*
X127517092Y-97002246D01*
X127515921Y-97002063D01*
X127449835Y-96994862D01*
X127448861Y-96994793D01*
X127382700Y-96992696D01*
X127382700Y-96767304D01*
X127448862Y-96765206D01*
X127449835Y-96765137D01*
X127515921Y-96757936D01*
X127517092Y-96757753D01*
X127573386Y-96746230D01*
X127574653Y-96745902D01*
X127623735Y-96730448D01*
X127624911Y-96730013D01*
X127669361Y-96711020D01*
X127670250Y-96710598D01*
X127712647Y-96688458D01*
X127713140Y-96688187D01*
X127756065Y-96663291D01*
X127756164Y-96663233D01*
X127802104Y-96636029D01*
X127853467Y-96607000D01*
X127905174Y-96580441D01*
X128216678Y-96880000D01*
G37*
G04 #@! TD.AperFunction*
D18*
X128082792Y-106193717D02*
X128082991Y-106195374D01*
X128112635Y-106353143D01*
X128113147Y-106355042D01*
X128159301Y-106485230D01*
X128160115Y-106487055D01*
X128220114Y-106597344D01*
X128220992Y-106598735D01*
X128292174Y-106696804D01*
X128292786Y-106697581D01*
X128372489Y-106791111D01*
X128372645Y-106791291D01*
X128458061Y-106887800D01*
X128546379Y-106994763D01*
X128635046Y-107119883D01*
X128717262Y-107263433D01*
X127982623Y-108056607D01*
X127218773Y-107291534D01*
X127296536Y-107143330D01*
X127381478Y-107014240D01*
X127466957Y-106903981D01*
X127550336Y-106804659D01*
X127550448Y-106804524D01*
X127628780Y-106708557D01*
X127629337Y-106707821D01*
X127699680Y-106607568D01*
X127700505Y-106606222D01*
X127760072Y-106493863D01*
X127760846Y-106492085D01*
X127806847Y-106359800D01*
X127807340Y-106357942D01*
X127836986Y-106197910D01*
X127837180Y-106196278D01*
X127847037Y-106012700D01*
X128072971Y-106012700D01*
X128082792Y-106193717D01*
G04 #@! TA.AperFunction,Conductor*
D17*
G36*
X128082792Y-106193717D02*
G01*
X128082991Y-106195374D01*
X128112635Y-106353143D01*
X128113147Y-106355042D01*
X128159301Y-106485230D01*
X128160115Y-106487055D01*
X128220114Y-106597344D01*
X128220992Y-106598735D01*
X128292174Y-106696804D01*
X128292786Y-106697581D01*
X128372489Y-106791111D01*
X128372645Y-106791291D01*
X128458061Y-106887800D01*
X128546379Y-106994763D01*
X128635046Y-107119883D01*
X128717262Y-107263433D01*
X127982623Y-108056607D01*
X127218773Y-107291534D01*
X127296536Y-107143330D01*
X127381478Y-107014240D01*
X127466957Y-106903981D01*
X127550336Y-106804659D01*
X127550448Y-106804524D01*
X127628780Y-106708557D01*
X127629337Y-106707821D01*
X127699680Y-106607568D01*
X127700505Y-106606222D01*
X127760072Y-106493863D01*
X127760846Y-106492085D01*
X127806847Y-106359800D01*
X127807340Y-106357942D01*
X127836986Y-106197910D01*
X127837180Y-106196278D01*
X127847037Y-106012700D01*
X128072971Y-106012700D01*
X128082792Y-106193717D01*
G37*
G04 #@! TD.AperFunction*
D18*
X130382664Y-106168379D02*
X130382850Y-106169976D01*
X130412149Y-106331945D01*
X130412624Y-106333778D01*
X130458263Y-106467801D01*
X130459023Y-106469578D01*
X130518388Y-106583461D01*
X130519217Y-106584831D01*
X130589694Y-106686375D01*
X130590278Y-106687152D01*
X130669256Y-106784161D01*
X130669411Y-106784347D01*
X130754135Y-106884457D01*
X130841867Y-106995293D01*
X130930086Y-107124665D01*
X131012133Y-107272894D01*
X130267450Y-108056670D01*
X129513379Y-107281925D01*
X129593955Y-107132182D01*
X129680924Y-107001535D01*
X129767689Y-106889644D01*
X129851718Y-106788616D01*
X129851858Y-106788444D01*
X129930350Y-106690650D01*
X129930917Y-106689887D01*
X130001084Y-106587642D01*
X130001896Y-106586286D01*
X130061087Y-106471741D01*
X130061834Y-106469981D01*
X130107397Y-106335288D01*
X130107866Y-106333468D01*
X130137148Y-106170780D01*
X130137332Y-106169191D01*
X130147055Y-105982700D01*
X130372947Y-105982700D01*
X130382664Y-106168379D01*
G04 #@! TA.AperFunction,Conductor*
D17*
G36*
X130382664Y-106168379D02*
G01*
X130382850Y-106169976D01*
X130412149Y-106331945D01*
X130412624Y-106333778D01*
X130458263Y-106467801D01*
X130459023Y-106469578D01*
X130518388Y-106583461D01*
X130519217Y-106584831D01*
X130589694Y-106686375D01*
X130590278Y-106687152D01*
X130669256Y-106784161D01*
X130669411Y-106784347D01*
X130754135Y-106884457D01*
X130841867Y-106995293D01*
X130930086Y-107124665D01*
X131012133Y-107272894D01*
X130267450Y-108056670D01*
X129513379Y-107281925D01*
X129593955Y-107132182D01*
X129680924Y-107001535D01*
X129767689Y-106889644D01*
X129851718Y-106788616D01*
X129851858Y-106788444D01*
X129930350Y-106690650D01*
X129930917Y-106689887D01*
X130001084Y-106587642D01*
X130001896Y-106586286D01*
X130061087Y-106471741D01*
X130061834Y-106469981D01*
X130107397Y-106335288D01*
X130107866Y-106333468D01*
X130137148Y-106170780D01*
X130137332Y-106169191D01*
X130147055Y-105982700D01*
X130372947Y-105982700D01*
X130382664Y-106168379D01*
G37*
G04 #@! TD.AperFunction*
D18*
X130764395Y-95272601D02*
X130682642Y-95422633D01*
X130594799Y-95553595D01*
X130507440Y-95665874D01*
X130423067Y-95767335D01*
X130422915Y-95767521D01*
X130344278Y-95865807D01*
X130343706Y-95866581D01*
X130273532Y-95969388D01*
X130272722Y-95970750D01*
X130213615Y-96085928D01*
X130212874Y-96087685D01*
X130167433Y-96223086D01*
X130166970Y-96224896D01*
X130137799Y-96388370D01*
X130137619Y-96389946D01*
X130127939Y-96577300D01*
X129902061Y-96577300D01*
X129892380Y-96389946D01*
X129892200Y-96388370D01*
X129863029Y-96224896D01*
X129862566Y-96223086D01*
X129817125Y-96087685D01*
X129816384Y-96085928D01*
X129757277Y-95970750D01*
X129756467Y-95969388D01*
X129686293Y-95866581D01*
X129685721Y-95865807D01*
X129607084Y-95767521D01*
X129606932Y-95767335D01*
X129522559Y-95665874D01*
X129435200Y-95553595D01*
X129347357Y-95422633D01*
X129265605Y-95272601D01*
X130015000Y-94493322D01*
X130764395Y-95272601D01*
G04 #@! TA.AperFunction,Conductor*
D17*
G36*
X130764395Y-95272601D02*
G01*
X130682642Y-95422633D01*
X130594799Y-95553595D01*
X130507440Y-95665874D01*
X130423067Y-95767335D01*
X130422915Y-95767521D01*
X130344278Y-95865807D01*
X130343706Y-95866581D01*
X130273532Y-95969388D01*
X130272722Y-95970750D01*
X130213615Y-96085928D01*
X130212874Y-96087685D01*
X130167433Y-96223086D01*
X130166970Y-96224896D01*
X130137799Y-96388370D01*
X130137619Y-96389946D01*
X130127939Y-96577300D01*
X129902061Y-96577300D01*
X129892380Y-96389946D01*
X129892200Y-96388370D01*
X129863029Y-96224896D01*
X129862566Y-96223086D01*
X129817125Y-96087685D01*
X129816384Y-96085928D01*
X129757277Y-95970750D01*
X129756467Y-95969388D01*
X129686293Y-95866581D01*
X129685721Y-95865807D01*
X129607084Y-95767521D01*
X129606932Y-95767335D01*
X129522559Y-95665874D01*
X129435200Y-95553595D01*
X129347357Y-95422633D01*
X129265605Y-95272601D01*
X130015000Y-94493322D01*
X130764395Y-95272601D01*
G37*
G04 #@! TD.AperFunction*
D18*
X122409559Y-101624826D02*
X122382999Y-101676532D01*
X122353970Y-101727895D01*
X122326766Y-101773835D01*
X122326708Y-101773934D01*
X122301812Y-101816859D01*
X122301541Y-101817352D01*
X122279401Y-101859749D01*
X122278979Y-101860638D01*
X122259986Y-101905088D01*
X122259551Y-101906264D01*
X122244097Y-101955346D01*
X122243769Y-101956613D01*
X122232246Y-102012907D01*
X122232063Y-102014078D01*
X122224862Y-102080164D01*
X122224793Y-102081138D01*
X122222696Y-102147300D01*
X121997304Y-102147300D01*
X121995206Y-102081137D01*
X121995137Y-102080164D01*
X121987936Y-102014078D01*
X121987753Y-102012907D01*
X121976230Y-101956613D01*
X121975902Y-101955346D01*
X121960448Y-101906264D01*
X121960013Y-101905088D01*
X121941020Y-101860638D01*
X121940598Y-101859749D01*
X121918458Y-101817352D01*
X121918187Y-101816859D01*
X121893291Y-101773934D01*
X121893233Y-101773835D01*
X121866029Y-101727895D01*
X121837000Y-101676532D01*
X121810441Y-101624826D01*
X122110000Y-101313322D01*
X122409559Y-101624826D01*
G04 #@! TA.AperFunction,Conductor*
D17*
G36*
X122409559Y-101624826D02*
G01*
X122382999Y-101676532D01*
X122353970Y-101727895D01*
X122326766Y-101773835D01*
X122326708Y-101773934D01*
X122301812Y-101816859D01*
X122301541Y-101817352D01*
X122279401Y-101859749D01*
X122278979Y-101860638D01*
X122259986Y-101905088D01*
X122259551Y-101906264D01*
X122244097Y-101955346D01*
X122243769Y-101956613D01*
X122232246Y-102012907D01*
X122232063Y-102014078D01*
X122224862Y-102080164D01*
X122224793Y-102081138D01*
X122222696Y-102147300D01*
X121997304Y-102147300D01*
X121995206Y-102081137D01*
X121995137Y-102080164D01*
X121987936Y-102014078D01*
X121987753Y-102012907D01*
X121976230Y-101956613D01*
X121975902Y-101955346D01*
X121960448Y-101906264D01*
X121960013Y-101905088D01*
X121941020Y-101860638D01*
X121940598Y-101859749D01*
X121918458Y-101817352D01*
X121918187Y-101816859D01*
X121893291Y-101773934D01*
X121893233Y-101773835D01*
X121866029Y-101727895D01*
X121837000Y-101676532D01*
X121810441Y-101624826D01*
X122110000Y-101313322D01*
X122409559Y-101624826D01*
G37*
G04 #@! TD.AperFunction*
D18*
X130599090Y-112377341D02*
X130434246Y-112441918D01*
X130278614Y-112486570D01*
X130136333Y-112515903D01*
X130003378Y-112537683D01*
X130003271Y-112537701D01*
X129876114Y-112559643D01*
X129875322Y-112559806D01*
X129750416Y-112589660D01*
X129749063Y-112590064D01*
X129622618Y-112635618D01*
X129621029Y-112636317D01*
X129489254Y-112705361D01*
X129487782Y-112706265D01*
X129346888Y-112806589D01*
X129345725Y-112807524D01*
X129200880Y-112938797D01*
X129041176Y-112779093D01*
X129164281Y-112642405D01*
X129165287Y-112641134D01*
X129258022Y-112507144D01*
X129259002Y-112505467D01*
X129320261Y-112379415D01*
X129320997Y-112377531D01*
X129357739Y-112255701D01*
X129358124Y-112254018D01*
X129377310Y-112132692D01*
X129377436Y-112131582D01*
X129386025Y-112007045D01*
X129386046Y-112006649D01*
X129390993Y-111875337D01*
X129399241Y-111733715D01*
X129417694Y-111578151D01*
X129451525Y-111413225D01*
X130526600Y-111298629D01*
X130599090Y-112377341D01*
G04 #@! TA.AperFunction,Conductor*
D17*
G36*
X130599090Y-112377341D02*
G01*
X130434246Y-112441918D01*
X130278614Y-112486570D01*
X130136333Y-112515903D01*
X130003378Y-112537683D01*
X130003271Y-112537701D01*
X129876114Y-112559643D01*
X129875322Y-112559806D01*
X129750416Y-112589660D01*
X129749063Y-112590064D01*
X129622618Y-112635618D01*
X129621029Y-112636317D01*
X129489254Y-112705361D01*
X129487782Y-112706265D01*
X129346888Y-112806589D01*
X129345725Y-112807524D01*
X129200880Y-112938797D01*
X129041176Y-112779093D01*
X129164281Y-112642405D01*
X129165287Y-112641134D01*
X129258022Y-112507144D01*
X129259002Y-112505467D01*
X129320261Y-112379415D01*
X129320997Y-112377531D01*
X129357739Y-112255701D01*
X129358124Y-112254018D01*
X129377310Y-112132692D01*
X129377436Y-112131582D01*
X129386025Y-112007045D01*
X129386046Y-112006649D01*
X129390993Y-111875337D01*
X129399241Y-111733715D01*
X129417694Y-111578151D01*
X129451525Y-111413225D01*
X130526600Y-111298629D01*
X130599090Y-112377341D01*
G37*
G04 #@! TD.AperFunction*
D18*
X133349477Y-111346851D02*
X133397652Y-111512275D01*
X133428259Y-111668268D01*
X133446218Y-111810481D01*
X133458838Y-111942764D01*
X133458866Y-111943022D01*
X133473468Y-112068880D01*
X133473617Y-112069841D01*
X133497547Y-112192864D01*
X133497945Y-112194394D01*
X133538570Y-112318349D01*
X133539291Y-112320099D01*
X133603975Y-112448757D01*
X133604922Y-112450341D01*
X133701030Y-112587469D01*
X133702005Y-112588692D01*
X133828812Y-112729105D01*
X133669106Y-112888811D01*
X133528303Y-112761613D01*
X133527086Y-112760642D01*
X133389626Y-112664173D01*
X133388051Y-112663230D01*
X133259119Y-112598176D01*
X133257384Y-112597456D01*
X133133206Y-112556412D01*
X133131691Y-112556013D01*
X133008496Y-112531575D01*
X133007550Y-112531424D01*
X132881563Y-112516186D01*
X132881319Y-112516159D01*
X132748987Y-112502741D01*
X132606708Y-112483772D01*
X132450710Y-112451914D01*
X132285288Y-112402271D01*
X132268628Y-111321249D01*
X133349477Y-111346851D01*
G04 #@! TA.AperFunction,Conductor*
D17*
G36*
X133349477Y-111346851D02*
G01*
X133397652Y-111512275D01*
X133428259Y-111668268D01*
X133446218Y-111810481D01*
X133458838Y-111942764D01*
X133458866Y-111943022D01*
X133473468Y-112068880D01*
X133473617Y-112069841D01*
X133497547Y-112192864D01*
X133497945Y-112194394D01*
X133538570Y-112318349D01*
X133539291Y-112320099D01*
X133603975Y-112448757D01*
X133604922Y-112450341D01*
X133701030Y-112587469D01*
X133702005Y-112588692D01*
X133828812Y-112729105D01*
X133669106Y-112888811D01*
X133528303Y-112761613D01*
X133527086Y-112760642D01*
X133389626Y-112664173D01*
X133388051Y-112663230D01*
X133259119Y-112598176D01*
X133257384Y-112597456D01*
X133133206Y-112556412D01*
X133131691Y-112556013D01*
X133008496Y-112531575D01*
X133007550Y-112531424D01*
X132881563Y-112516186D01*
X132881319Y-112516159D01*
X132748987Y-112502741D01*
X132606708Y-112483772D01*
X132450710Y-112451914D01*
X132285288Y-112402271D01*
X132268628Y-111321249D01*
X133349477Y-111346851D01*
G37*
G04 #@! TD.AperFunction*
D18*
X128821225Y-89688576D02*
X128707941Y-89815387D01*
X128706854Y-89816789D01*
X128622804Y-89942504D01*
X128621756Y-89944407D01*
X128568865Y-90063454D01*
X128568122Y-90065645D01*
X128540323Y-90181407D01*
X128540008Y-90183413D01*
X128531230Y-90299275D01*
X128531202Y-90300678D01*
X128535377Y-90420022D01*
X128535417Y-90420687D01*
X128546477Y-90546896D01*
X128546478Y-90546896D01*
X128558326Y-90683062D01*
X128564914Y-90832438D01*
X128560484Y-90989834D01*
X127522575Y-91292719D01*
X127260503Y-90243833D01*
X127417459Y-90147680D01*
X127566947Y-90075998D01*
X127705358Y-90024727D01*
X127836514Y-89985332D01*
X127963959Y-89949348D01*
X127964411Y-89949212D01*
X128091423Y-89908198D01*
X128092432Y-89907824D01*
X128222497Y-89853272D01*
X128223795Y-89852638D01*
X128360495Y-89776010D01*
X128361773Y-89775190D01*
X128508690Y-89667951D01*
X128509754Y-89667082D01*
X128661507Y-89528858D01*
X128821225Y-89688576D01*
G04 #@! TA.AperFunction,Conductor*
D17*
G36*
X128821225Y-89688576D02*
G01*
X128707941Y-89815387D01*
X128706854Y-89816789D01*
X128622804Y-89942504D01*
X128621756Y-89944407D01*
X128568865Y-90063454D01*
X128568122Y-90065645D01*
X128540323Y-90181407D01*
X128540008Y-90183413D01*
X128531230Y-90299275D01*
X128531202Y-90300678D01*
X128535377Y-90420022D01*
X128535417Y-90420687D01*
X128546477Y-90546896D01*
X128546478Y-90546896D01*
X128558326Y-90683062D01*
X128564914Y-90832438D01*
X128560484Y-90989834D01*
X127522575Y-91292719D01*
X127260503Y-90243833D01*
X127417459Y-90147680D01*
X127566947Y-90075998D01*
X127705358Y-90024727D01*
X127836514Y-89985332D01*
X127963959Y-89949348D01*
X127964411Y-89949212D01*
X128091423Y-89908198D01*
X128092432Y-89907824D01*
X128222497Y-89853272D01*
X128223795Y-89852638D01*
X128360495Y-89776010D01*
X128361773Y-89775190D01*
X128508690Y-89667951D01*
X128509754Y-89667082D01*
X128661507Y-89528858D01*
X128821225Y-89688576D01*
G37*
G04 #@! TD.AperFunction*
M02*
