M48
; DRILL file {KiCad (5.1.10-1-10_14)} date Wednesday, November 03, 2021 at 01:45:15 AM
; FORMAT={-:-/ absolute / inch / decimal}
; #@! TF.CreationDate,2021-11-03T01:45:15-04:00
; #@! TF.GenerationSoftware,Kicad,Pcbnew,(5.1.10-1-10_14)
FMAT,2
INCH
T1C0.0118
T2C0.0394
T3C0.1260
%
G90
G05
T1
X4.635Y-4.4535
X4.6378Y-3.5201
X4.7528Y-3.7906
X4.7528Y-4.1768
X4.8075Y-3.9949
X4.8669Y-3.6539
X4.8697Y-3.8512
X4.9394Y-4.1433
X5.0075Y-4.0791
X5.0417Y-3.8142
X5.1736Y-4.448
X5.239Y-3.8157
X5.3949Y-3.7453
X5.4024Y-4.3882
X5.6217Y-3.8268
X5.622Y-3.5201
X5.622Y-4.4535
X5.6228Y-4.1465
T2
X4.9031Y-4.3161
X4.9384Y-3.5803
X4.9384Y-3.7362
X4.9482Y-4.2382
X4.9482Y-4.3941
X4.9835Y-3.6583
X4.9933Y-4.3161
X5.0285Y-3.5803
X5.0285Y-3.7362
X5.0384Y-4.2382
X5.0384Y-4.3941
X5.0736Y-3.6583
X5.0835Y-4.3161
X5.1187Y-3.5803
X5.1187Y-3.7362
X5.1285Y-4.2382
X5.1285Y-4.3941
X5.1638Y-3.6583
X5.1736Y-4.3161
X5.2089Y-3.5803
X5.2089Y-3.7362
X5.2187Y-4.2382
X5.2187Y-4.3941
X5.2539Y-3.6583
X5.2638Y-4.3161
X5.299Y-3.5803
X5.299Y-3.7362
X5.3089Y-4.2382
X5.3089Y-4.3941
X5.3441Y-3.6583
T3
X4.6366Y-3.6583
X4.6366Y-4.3161
X5.6205Y-3.6583
X5.6205Y-4.3161
T2
G00X4.9886Y-4.0024
M15
G01X4.9886Y-3.963
M16
G05
G00X5.1343Y-4.0811
M15
G01X5.1343Y-4.0417
M16
G05
G00X5.2051Y-4.0024
M15
G01X5.2051Y-3.963
M16
G05
G00X5.3508Y-4.0811
M15
G01X5.3508Y-4.0417
M16
G05
G00X5.4453Y-4.0024
M15
G01X5.4453Y-3.963
M16
G05
T0
M30
