G04 #@! TF.GenerationSoftware,KiCad,Pcbnew,(5.1.10-1-10_14)*
G04 #@! TF.CreationDate,2021-10-04T12:45:14-04:00*
G04 #@! TF.ProjectId,MVX_Audio_Separator,4d56585f-4175-4646-996f-5f5365706172,1*
G04 #@! TF.SameCoordinates,Original*
G04 #@! TF.FileFunction,Legend,Bot*
G04 #@! TF.FilePolarity,Positive*
%FSLAX46Y46*%
G04 Gerber Fmt 4.6, Leading zero omitted, Abs format (unit mm)*
G04 Created by KiCad (PCBNEW (5.1.10-1-10_14)) date 2021-10-04 12:45:14*
%MOMM*%
%LPD*%
G01*
G04 APERTURE LIST*
%ADD10C,0.150000*%
%ADD11O,1.609600X3.117600*%
%ADD12C,1.801600*%
%ADD13C,4.167600*%
G04 APERTURE END LIST*
D10*
X124319523Y-112802380D02*
X123986190Y-113802380D01*
X123652857Y-112802380D01*
X122795714Y-112850000D02*
X122890952Y-112802380D01*
X123033809Y-112802380D01*
X123176666Y-112850000D01*
X123271904Y-112945238D01*
X123319523Y-113040476D01*
X123367142Y-113230952D01*
X123367142Y-113373809D01*
X123319523Y-113564285D01*
X123271904Y-113659523D01*
X123176666Y-113754761D01*
X123033809Y-113802380D01*
X122938571Y-113802380D01*
X122795714Y-113754761D01*
X122748095Y-113707142D01*
X122748095Y-113373809D01*
X122938571Y-113373809D01*
X122367142Y-113516666D02*
X121890952Y-113516666D01*
X122462380Y-113802380D02*
X122129047Y-112802380D01*
X121795714Y-113802380D01*
X120367142Y-113278571D02*
X120700476Y-113278571D01*
X120700476Y-113802380D02*
X120700476Y-112802380D01*
X120224285Y-112802380D01*
X119462380Y-113754761D02*
X119557619Y-113802380D01*
X119748095Y-113802380D01*
X119843333Y-113754761D01*
X119890952Y-113659523D01*
X119890952Y-113278571D01*
X119843333Y-113183333D01*
X119748095Y-113135714D01*
X119557619Y-113135714D01*
X119462380Y-113183333D01*
X119414761Y-113278571D01*
X119414761Y-113373809D01*
X119890952Y-113469047D01*
X118986190Y-113802380D02*
X118986190Y-113135714D01*
X118986190Y-113230952D02*
X118938571Y-113183333D01*
X118843333Y-113135714D01*
X118700476Y-113135714D01*
X118605238Y-113183333D01*
X118557619Y-113278571D01*
X118557619Y-113802380D01*
X118557619Y-113278571D02*
X118509999Y-113183333D01*
X118414761Y-113135714D01*
X118271904Y-113135714D01*
X118176666Y-113183333D01*
X118129047Y-113278571D01*
X118129047Y-113802380D01*
X117224285Y-113802380D02*
X117224285Y-113278571D01*
X117271904Y-113183333D01*
X117367142Y-113135714D01*
X117557619Y-113135714D01*
X117652857Y-113183333D01*
X117224285Y-113754761D02*
X117319523Y-113802380D01*
X117557619Y-113802380D01*
X117652857Y-113754761D01*
X117700476Y-113659523D01*
X117700476Y-113564285D01*
X117652857Y-113469047D01*
X117557619Y-113421428D01*
X117319523Y-113421428D01*
X117224285Y-113373809D01*
X116605238Y-113802380D02*
X116700476Y-113754761D01*
X116748095Y-113659523D01*
X116748095Y-112802380D01*
X115843333Y-113754761D02*
X115938571Y-113802380D01*
X116129047Y-113802380D01*
X116224285Y-113754761D01*
X116271904Y-113659523D01*
X116271904Y-113278571D01*
X116224285Y-113183333D01*
X116129047Y-113135714D01*
X115938571Y-113135714D01*
X115843333Y-113183333D01*
X115795714Y-113278571D01*
X115795714Y-113373809D01*
X116271904Y-113469047D01*
X139438095Y-113282380D02*
X139438095Y-112282380D01*
X139057142Y-112282380D01*
X138961904Y-112330000D01*
X138914285Y-112377619D01*
X138866666Y-112472857D01*
X138866666Y-112615714D01*
X138914285Y-112710952D01*
X138961904Y-112758571D01*
X139057142Y-112806190D01*
X139438095Y-112806190D01*
X137914285Y-113282380D02*
X138485714Y-113282380D01*
X138200000Y-113282380D02*
X138200000Y-112282380D01*
X138295238Y-112425238D01*
X138390476Y-112520476D01*
X138485714Y-112568095D01*
%LPC*%
D11*
X143310000Y-101160000D03*
X140910000Y-103160000D03*
X137210000Y-101160000D03*
X135410000Y-103160000D03*
X131710000Y-101160000D03*
D12*
X134845000Y-111610000D03*
X132555000Y-111610000D03*
X130265000Y-111610000D03*
X127975000Y-111610000D03*
X125685000Y-111610000D03*
X133700000Y-109630000D03*
X131410000Y-109630000D03*
X129120000Y-109630000D03*
X126830000Y-109630000D03*
X124540000Y-109630000D03*
X134845000Y-107650000D03*
X132555000Y-107650000D03*
X130265000Y-107650000D03*
X127975000Y-107650000D03*
D13*
X142760000Y-109630000D03*
X117770000Y-109630000D03*
G36*
G01*
X124784200Y-108500000D02*
X124784200Y-106800000D01*
G75*
G02*
X124835000Y-106749200I50800J0D01*
G01*
X126535000Y-106749200D01*
G75*
G02*
X126585800Y-106800000I0J-50800D01*
G01*
X126585800Y-108500000D01*
G75*
G02*
X126535000Y-108550800I-50800J0D01*
G01*
X124835000Y-108550800D01*
G75*
G02*
X124784200Y-108500000I0J50800D01*
G01*
G37*
D12*
X134595000Y-90940000D03*
X132305000Y-90940000D03*
X130015000Y-90940000D03*
X127725000Y-90940000D03*
X125435000Y-90940000D03*
X135740000Y-92920000D03*
X133450000Y-92920000D03*
X131160000Y-92920000D03*
X128870000Y-92920000D03*
X126580000Y-92920000D03*
G36*
G01*
X133694200Y-95750000D02*
X133694200Y-94050000D01*
G75*
G02*
X133745000Y-93999200I50800J0D01*
G01*
X135445000Y-93999200D01*
G75*
G02*
X135495800Y-94050000I0J-50800D01*
G01*
X135495800Y-95750000D01*
G75*
G02*
X135445000Y-95800800I-50800J0D01*
G01*
X133745000Y-95800800D01*
G75*
G02*
X133694200Y-95750000I0J50800D01*
G01*
G37*
X132305000Y-94900000D03*
X130015000Y-94900000D03*
X127725000Y-94900000D03*
D13*
X142760000Y-92920000D03*
X117770000Y-92920000D03*
D12*
X125435000Y-94900000D03*
M02*
